<?xml version="1.0" standalone="no"?>
<!DOCTYPE svg PUBLIC "-//W3C//DTD SVG 1.1//EN" "http://www.w3.org/Graphics/SVG/1.1/DTD/svg11.dtd" >
<svg xmlns="http://www.w3.org/2000/svg" xmlns:xlink="http://www.w3.org/1999/xlink" version="1.1">
<metadata>
Created by FontForge 20201107 at Mon May 11 14:26:12 2015
 By 
Copyright (c) 2015 by 29Letters | 29LT All rights reserved.
</metadata>
<defs>
<font id="29LTKaff-Light" horiz-adv-x="0" >
  <font-face 
    font-family="29LT Kaff Light"
    font-weight="300"
    font-stretch="normal"
    units-per-em="1000"
    panose-1="0 0 4 0 0 0 0 0 0 0"
    ascent="725"
    descent="-275"
    x-height="520"
    cap-height="725"
    bbox="-344 -619 2813 1109"
    underline-thickness="50"
    underline-position="-275"
    unicode-range="U+000D-FEFC"
  />
<missing-glyph horiz-adv-x="600" 
 />
    <glyph glyph-name="fi" unicode="fi" horiz-adv-x="507" 
d="M100 583q0 68 25 107t94 39q29 0 53 -4l-5 -57q-28 5 -42 5q-22 0 -35 -7t-19 -22.5t-7.5 -30t-1.5 -39.5v-54h107v-54h-107v-466h-62v466h-74v54h74v63zM422 725v-99h-62v99h62zM422 520v-520h-62v520h62z" />
    <glyph glyph-name="fl" unicode="fl" horiz-adv-x="527" 
d="M100 583q0 68 25 107t94 39q29 0 53 -4l-5 -57q-28 5 -42 5q-22 0 -35 -7t-19 -22.5t-7.5 -30t-1.5 -39.5v-54h107v-54h-107v-466h-62v466h-74v54h74v63zM442 0h-62v725h62v-725z" />
    <glyph glyph-name="uniFC43" unicode="&#xfedf;&#xfef0;" horiz-adv-x="877" arabic-form="isolated" 
d="M727 725h60v-534q0 -146 -115 -181q-101 -225 -333 -225q-289 0 -289 264q0 101 45 236l49 -13q-39 -103 -39 -208q0 -109 59 -161.5t186 -52.5q179 0 257 150h-14h-152l11 65h141q69 0 101.5 30.5t32.5 92.5v537z" />
    <glyph glyph-name="uniFC86" unicode="&#xfee0;&#xfef0;" horiz-adv-x="930" arabic-form="final" 
d="M930 65q10 0 10 -10v-44q0 -11 -10 -11q-115 0 -163 69q-52 -52 -97 -63q-102 -221 -331 -221q-289 0 -289 264q0 101 45 236l49 -13q-39 -103 -39 -208q0 -109 59 -161.5t186 -52.5q178 0 257 150h-146l11 65h141q79 0 133 51q-10 33 -10 75v534h60v-537
q0 -62 32.5 -92.5t101.5 -30.5z" />
    <glyph glyph-name="uniFEF5" unicode="&#xfedf;&#xfe82;" horiz-adv-x="582" arabic-form="isolated" 
d="M438 321q104 -94 104 -174q0 -69 -46 -108t-131 -39h-312l-28 65q228 134 303 270l-250 229l40 45l236 -213q23 66 23 142v237h60v-237q0 -99 -36 -183zM81 703q-41 0 -48 -39h-50q0 37 22.5 65.5t63.5 28.5q22 0 61 -18.5t62 -18.5q46 0 80 26l-1 -56q-33 -25 -77 -25
q-24 0 -59 18.5t-54 18.5zM384 65q44 0 71 21.5t27 57.5q0 50 -57 102l-55 50q-79 -125 -258 -231h272z" />
    <glyph glyph-name="uniFEF6" unicode="&#xfee0;&#xfe82;" horiz-adv-x="674" arabic-form="final" 
d="M156 706q-19 0 -32 -10.5t-16 -28.5h-50q0 37 22.5 65.5t63.5 28.5q22 0 61 -18.5t62 -18.5q46 0 80 26l-1 -56q-33 -25 -77 -25q-24 0 -59 18.5t-54 18.5zM674 65q10 0 10 -10v-44q0 -11 -10 -11q-102 0 -150 53q-113 -53 -253 -53q-139 0 -241 34v60q99 -29 241 -29h8
q0 50 -7 98q-4 24 -100 437h65q14 -65 32.5 -146.5t25.5 -113t15.5 -71t12 -59t5.5 -37.5q6 -51 1 -107q94 6 167 31q-16 39 -16 94v534h60v-537q0 -62 32.5 -92.5t101.5 -30.5z" />
    <glyph glyph-name="uniFEF7" unicode="&#xfedf;&#xfe84;" horiz-adv-x="582" arabic-form="isolated" 
d="M232 664h-157q-34 0 -75 -12v48q38 14 73 14q-24 23 -24 57q0 39 26 63t65 24q26 0 69 -19v-50q-36 14 -61 14q-22 0 -35 -12t-13 -31t14 -32.5t34 -13.5h99zM438 321q104 -94 104 -174q0 -69 -46 -108t-131 -39h-312l-28 65q228 134 303 270l-250 229l40 45l236 -213
q23 66 23 142v237h60v-237q0 -99 -36 -183zM384 65q44 0 71 21.5t27 57.5q0 50 -57 102l-55 50q-79 -125 -258 -231h272z" />
    <glyph glyph-name="uniFEF8" unicode="&#xfee0;&#xfe84;" horiz-adv-x="674" arabic-form="final" 
d="M302 664h-157q-34 0 -75 -12v48q39 14 73 14q-24 23 -24 57q0 39 26 63t65 24q26 0 69 -19v-50q-36 14 -61 14q-22 0 -35 -12t-13 -31t14 -32.5t34 -13.5h99zM674 65q10 0 10 -10v-44q0 -11 -10 -11q-102 0 -150 53q-113 -53 -253 -53q-139 0 -241 34v60q99 -29 241 -29
h8q0 50 -7 98q-4 24 -100 437h65q14 -65 32.5 -146.5t25.5 -113t15.5 -71t12 -59t5.5 -37.5q6 -51 1 -107q94 6 167 31q-16 39 -16 94v534h60v-537q0 -62 32.5 -92.5t101.5 -30.5z" />
    <glyph glyph-name="uniFEF9" unicode="&#xfedf;&#xfe88;" horiz-adv-x="582" arabic-form="isolated" 
d="M438 321q104 -94 104 -174q0 -69 -46 -108t-131 -39h-312l-28 65q228 134 303 270l-250 229l40 45l236 -213q23 66 23 142v237h60v-237q0 -99 -36 -183zM384 65q44 0 71 21.5t27 57.5q0 50 -57 102l-55 50q-79 -125 -258 -231h272zM272 -156q0 -19 14 -32.5t34 -13.5h99
l-15 -50h-157q-34 0 -75 -12v48q39 14 73 14q-24 23 -24 57q0 39 26 63t65 24q26 0 69 -19v-50q-36 14 -61 14q-22 0 -35 -12t-13 -31z" />
    <glyph glyph-name="uniFEFA" unicode="&#xfee0;&#xfe88;" horiz-adv-x="674" arabic-form="final" 
d="M674 65q10 0 10 -10v-44q0 -11 -10 -11q-102 0 -150 53q-113 -53 -253 -53q-139 0 -241 34v60q99 -29 241 -29h8q0 50 -7 98q-4 24 -100 437h65q14 -65 32.5 -146.5t25.5 -113t15.5 -71t12 -59t5.5 -37.5q6 -51 1 -107q94 6 167 31q-16 39 -16 94v534h60v-537
q0 -62 32.5 -92.5t101.5 -30.5zM272 -156q0 -19 14 -32.5t34 -13.5h99l-15 -50h-157q-34 0 -75 -12v48q39 14 73 14q-24 23 -24 57q0 39 26 63t65 24q26 0 69 -19v-50q-36 14 -61 14q-22 0 -35 -12t-13 -31z" />
    <glyph glyph-name="uniFEFB" unicode="&#xfedf;&#xfe8e;" horiz-adv-x="582" arabic-form="isolated" 
d="M438 321q104 -94 104 -174q0 -69 -46 -108t-131 -39h-312l-28 65q228 134 303 270l-250 229l40 45l236 -213q23 66 23 142v237h60v-237q0 -99 -36 -183zM384 65q44 0 71 21.5t27 57.5q0 50 -57 102l-55 50q-79 -125 -258 -231h272z" />
    <glyph glyph-name="uniFEFC" unicode="&#xfee0;&#xfe8e;" horiz-adv-x="674" arabic-form="final" 
d="M674 65q10 0 10 -10v-44q0 -11 -10 -11q-102 0 -150 53q-113 -53 -253 -53q-139 0 -241 34v60q99 -29 241 -29h8q0 50 -7 98q-4 24 -100 437h65q14 -65 32.5 -146.5t25.5 -113t15.5 -71t12 -59t5.5 -37.5q6 -51 1 -107q94 6 167 31q-16 39 -16 94v534h60v-537
q0 -62 32.5 -92.5t101.5 -30.5z" />
    <glyph glyph-name="uni06440671" unicode="&#xfedf;&#xfb51;" horiz-adv-x="582" 
d="M289 740q0 -46 -39.5 -71.5t-112.5 -25.5q-61 0 -137 30l16 44q18 -7 36 -12q47 65 80.5 92t67.5 27q37 0 63 -24.5t26 -59.5zM438 321q104 -94 104 -174q0 -69 -46 -108t-131 -39h-312l-28 65q228 134 303 270l-250 229l40 45l236 -213q23 66 23 142v237h60v-237
q0 -99 -36 -183zM95 696q21 -3 38 -3q96 0 96 47q0 15 -11.5 24t-27.5 9q-18 0 -38 -16t-57 -61zM384 65q44 0 71 21.5t27 57.5q0 50 -57 102l-55 50q-79 -125 -258 -231h272z" />
    <glyph glyph-name="uni06440671.fina" unicode="&#xfee0;&#xfb51;" horiz-adv-x="674" 
d="M316 743q0 -46 -39.5 -71.5t-112.5 -25.5q-61 0 -137 30l16 44q18 -8 36 -12q47 65 80.5 92t67.5 27q37 0 63 -24.5t26 -59.5zM122 699q21 -3 38 -3q96 0 96 47q0 15 -11.5 24t-27.5 9q-18 0 -38 -16t-57 -61zM674 65q10 0 10 -10v-44q0 -11 -10 -11q-102 0 -150 53
q-113 -53 -253 -53q-139 0 -241 34v60q99 -29 241 -29h8q0 50 -7 98q-4 24 -100 437h65q14 -65 32.5 -146.5t25.5 -113t15.5 -71t12 -59t5.5 -37.5q6 -51 1 -107q94 6 167 31q-16 39 -16 94v534h60v-537q0 -62 32.5 -92.5t101.5 -30.5z" />
    <glyph glyph-name="uni066E.init" unicode="&#x66e;" horiz-adv-x="254" 
d="M164 485q30 -206 30 -294q0 -191 -194 -191q-10 0 -10 11v44q0 10 10 10q139 0 139 123q0 59 -35 297h60z" />
    <glyph glyph-name="uni066E.medi" unicode="&#x66e;" horiz-adv-x="300" 
d="M300 65q10 0 10 -10v-44q0 -11 -10 -11q-87 0 -161 60q-49 -60 -139 -60q-10 0 -10 11v44q0 10 10 10q79 0 111 57q17 31 23 83.5t6 164.5h55q0 -180 -29 -261q58 -44 134 -44z" />
    <glyph glyph-name="uni066E.fina" unicode="&#x66e;" horiz-adv-x="842" 
d="M842 65q10 0 10 -10v-44q0 -11 -10 -11q-87 0 -161 60q-47 -57 -133 -60h-1h-257q-114 0 -177 54.5t-63 157.5q0 89 34 228l54 -10q-28 -131 -28 -202q0 -85 47 -124t146 -39h239q79 0 111 57q17 31 23 83.5t6 164.5h55q0 -180 -29 -261q58 -44 134 -44z" />
    <glyph glyph-name="uni066F.fina" unicode="&#x66f;" horiz-adv-x="751" 
d="M751 65q10 0 10 -10v-44q0 -11 -10 -11h-65q-12 -102 -99 -158.5t-239 -56.5q-60 0 -112.5 15t-94.5 46t-66.5 83t-24.5 120q0 101 45 236l49 -13q-39 -103 -39 -208q0 -103 71 -158.5t205 -55.5q100 0 167 41t81 109h-90q-122 0 -188 58.5t-66 168.5q0 103 57 170.5
t152 67.5q79 0 128.5 -55.5t54.5 -147.5q1 -19 5 -92t5 -105h64zM536 65h95q-1 31 -6 104t-6 83q-4 69 -40 108.5t-93 39.5q-65 0 -103 -48t-38 -121q0 -79 50 -122.5t141 -43.5z" />
    <glyph glyph-name="uni06A1.init" unicode="&#x6a1;" horiz-adv-x="519" 
d="M259 475q90 -1 150 -64.5t60 -158.5q0 -120 -71 -186t-201 -66h-197q-10 2 -10 11v44q0 10 10 10h121q-9 21 -30 58q-48 82 -48 149q0 83 63.5 143.5t152.5 59.5zM211 65q90 0 143.5 45.5t53.5 129.5q0 77 -43.5 123t-115.5 46q-61 0 -103.5 -41.5t-42.5 -100.5
q0 -51 39 -123q23 -45 37 -79h32z" />
    <glyph glyph-name="uni06A1.medi" unicode="&#x6a1;" horiz-adv-x="554" 
d="M554 65q10 0 10 -10v-44q0 -11 -10 -11q-170 0 -283 32q-109 -32 -271 -32q-10 0 -10 11v44q0 10 10 10q112 0 173 7q-109 66 -109 187q0 95 61.5 155.5t149.5 60.5q92 0 152.5 -61.5t60.5 -152.5q0 -123 -121 -190q66 -6 187 -6zM124 255q0 -57 38 -104.5t103 -68.5
q79 24 121 70t42 107q0 66 -44.5 108.5t-111.5 42.5q-63 0 -105.5 -42t-42.5 -113z" />
    <glyph glyph-name="uni06A1.fina" unicode="&#x6a1;" horiz-adv-x="974" 
d="M974 65q10 0 10 -10v-44q0 -11 -10 -11q-170 0 -283 32q-106 -32 -266 -32h-135q-114 0 -177 54.5t-63 157.5q0 70 23 176l54 -10q-17 -101 -17 -150q0 -85 47 -124t146 -39h117h1q111 0 172 7q-109 66 -109 187q0 95 61.5 155.5t149.5 60.5q92 0 152.5 -61.5
t60.5 -152.5q0 -123 -121 -190q66 -6 187 -6zM544 255q0 -57 38 -104.5t103 -68.5q79 24 121 70t42 107q0 66 -44.5 108.5t-111.5 42.5q-63 0 -105.5 -42t-42.5 -113z" />
    <glyph glyph-name="swashkafar.init" unicode="&#x6aa;" horiz-adv-x="795" 
d="M506 420q111 0 175 -57t64 -159q0 -90 -61.5 -147t-157.5 -57h-526q-10 0 -10 11v44q0 10 10 10h514q78 0 124.5 37.5t46.5 100.5q0 73 -45 112.5t-127 39.5h-454l-35 65l265 305l44 -36l-236 -269h409z" />
    <glyph glyph-name="swashkafar.medi" unicode="&#x6aa;" horiz-adv-x="851" 
d="M851 65q10 0 10 -10v-44q0 -11 -10 -11q-88 0 -163 62q-62 -62 -162 -62h-526q-10 0 -10 11v44q0 10 10 10h514q78 0 124.5 37.5t46.5 100.5q0 73 -45 112.5t-127 39.5h-454l-35 65l265 305l44 -36l-236 -269h409q111 0 175 -57t64 -159q0 -54 -24 -98q55 -41 130 -41z
" />
    <glyph glyph-name="swashkafar.fina" unicode="&#x6aa;" horiz-adv-x="949" 
d="M949 65q10 0 10 -10v-44q0 -11 -10 -11q-87 0 -161 60q-62 -60 -160 -60h-402q-63 0 -106.5 17t-99.5 63l36 47q49 -36 85.5 -49t84.5 -13h390q78 0 124.5 37.5t46.5 100.5q0 73 -45 112.5t-127 39.5h-454l-35 65l265 305l44 -36l-236 -269h409q111 0 175 -57t64 -159
q0 -55 -25 -100q52 -39 127 -39z" />
    <glyph glyph-name="uni06C2.fina" unicode="&#x6c2;" horiz-adv-x="537" 
d="M514 600h-157q-34 0 -75 -12v48q38 14 73 14q-24 23 -24 57q0 39 26 63t65 24q26 0 69 -19v-50q-36 14 -61 14q-22 0 -35 -12t-13 -31t14 -32.5t34 -13.5h99zM537 65q10 0 10 -10v-44q0 -11 -10 -11q-85 0 -125 48q-91 -48 -167 -48q-90 0 -142.5 49t-52.5 132
q0 44 16.5 86.5t52.5 84t102.5 72t155.5 41.5v73h60v-370q0 -53 23 -78t77 -25zM247 65q75 0 140 31q-10 30 -10 73v239q-119 -14 -193 -74.5t-74 -147.5q0 -58 36 -89.5t101 -31.5z" />
    <glyph glyph-name="uni06C3.fina" unicode="&#x6c3;" horiz-adv-x="611" 
d="M219 652l64 -63l-64 -63l-63 63zM367 652l63 -63l-63 -63l-64 63zM294 420q66 0 108.5 -46.5t86.5 -162.5q10 -26 17 -42t19 -38t23.5 -34.5t28 -22t34.5 -9.5q10 0 10 -10v-44q0 -11 -10 -11q-57 0 -98.5 43t-79.5 144q-36 96 -64.5 132t-75.5 36q-48 0 -85.5 -40.5
t-81.5 -139.5l-37 -84l-49 23l37 84q51 117 102.5 169.5t114.5 52.5z" />
    <glyph glyph-name="uniFB51" unicode="&#x671;" horiz-adv-x="284" arabic-form="final" 
d="M261 722q0 -46 -39.5 -71.5t-112.5 -25.5q-61 0 -137 30l16 44q18 -7 36 -12q47 65 80.5 92t67.5 27q37 0 63 -24.5t26 -59.5zM67 678q21 -3 38 -3q96 0 96 47q0 15 -11.5 24t-27.5 9q-18 0 -38 -16t-57 -61zM284 65q10 0 10 -10v-44q0 -11 -10 -11q-194 0 -194 191v409
h60v-412q0 -62 32.5 -92.5t101.5 -30.5z" />
    <glyph glyph-name="uniFB57" unicode="&#x67e;" horiz-adv-x="842" arabic-form="final" 
d="M842 65q10 0 10 -10v-44q0 -11 -10 -11q-87 0 -161 60q-47 -57 -133 -60h-1h-257q-114 0 -177 54.5t-63 157.5q0 89 34 228l54 -10q-28 -131 -28 -202q0 -85 47 -124t146 -39h239q79 0 111 57q17 31 23 83.5t6 164.5h55q0 -180 -29 -261q58 -44 134 -44zM343 -81l64 -63
l-64 -64l-63 64zM447 -144l64 63l63 -63l-63 -64zM379 -258l50 51l51 -51l-50 -50z" />
    <glyph glyph-name="uniFB58" unicode="&#x67e;" horiz-adv-x="326" arabic-form="initial" 
d="M239 485q30 -206 30 -294q0 -191 -194 -191h-75q-10 0 -10 11v44q0 10 10 10h75q139 0 139 123q0 59 -35 297h60zM43 -85l64 -63l-64 -64l-63 64zM211 -85l63 -63l-63 -64l-64 64zM129 -211l51 -51l-50 -50l-51 50z" />
    <glyph glyph-name="uniFB59" unicode="&#x67e;" horiz-adv-x="370" arabic-form="medial" 
d="M370 65q10 0 10 -10v-44q0 -11 -10 -11q-104 0 -191 80q-55 -80 -179 -80q-10 0 -10 11v44q0 10 10 10q107 0 138 58q17 30 23 79.5t6 167.5h55q0 -167 -20 -237q79 -68 168 -68zM76 -87l64 -63l-64 -64l-63 64zM180 -150l64 63l63 -63l-63 -64zM112 -264l50 51l51 -51
l-50 -50z" />
    <glyph glyph-name="uniFB67" unicode="&#x679;" horiz-adv-x="842" arabic-form="final" 
d="M285 490h54l6 9v171h50v-84l-7 -34q72 81 129 81q39 0 67 -25t28 -61q0 -51 -47 -79t-129 -28h-121zM504 583q-31 0 -112 -84l-9 -9h49q57 0 88.5 15t31.5 42q0 14 -13 25t-35 11zM842 65q10 0 10 -10v-44q0 -11 -10 -11q-87 0 -161 60q-47 -57 -133 -60h-1h-257
q-114 0 -177 54.5t-63 157.5q0 89 34 228l54 -10q-28 -131 -28 -202q0 -85 47 -124t146 -39h239q79 0 111 57q17 31 23 83.5t6 164.5h55q0 -180 -29 -261q58 -44 134 -44z" />
    <glyph glyph-name="uniFB68" unicode="&#x679;" horiz-adv-x="377" arabic-form="initial" 
d="M252 731q39 0 67 -25t28 -61q0 -51 -47 -79t-129 -28h-121l-30 50h54l6 9v171h50v-84l-7 -34q72 81 129 81zM167 588q57 0 88.5 15t31.5 42q0 14 -13.5 25t-34.5 11q-29 0 -77 -48q-9 -9 -44 -45h49zM179 485h60q30 -206 30 -294q0 -191 -194 -191h-75q-10 0 -10 11v44
q0 10 10 10h75q139 0 139 123q0 59 -35 297z" />
    <glyph glyph-name="uniFB69" unicode="&#x679;" horiz-adv-x="370" arabic-form="medial" 
d="M20 490h54l6 9v171h50v-84l-7 -34q72 81 129 81q39 0 67 -25t28 -61q0 -51 -47 -79t-129 -28h-121zM239 583q-29 0 -77 -48q-9 -9 -44 -45h49q57 0 88.5 15t31.5 42q0 14 -13.5 25t-34.5 11zM370 65q10 0 10 -10v-44q0 -11 -10 -11q-104 0 -191 80q-55 -80 -179 -80
q-10 0 -10 11v44q0 10 10 10q107 0 138 58q17 30 23 79.5t6 167.5h55q0 -167 -20 -237q79 -68 168 -68z" />
    <glyph glyph-name="uniFB6B" unicode="&#x6a4;" horiz-adv-x="974" arabic-form="final" 
d="M748 754l-50 -50l-51 50l50 51zM676 642l-64 -63l-63 63l63 64zM780 579l-64 63l64 64l63 -64zM974 65q10 0 10 -10v-44q0 -11 -10 -11q-170 0 -283 32q-106 -32 -266 -32h-135q-114 0 -177 54.5t-63 157.5q0 70 23 176l54 -10q-17 -101 -17 -150q0 -85 47 -124t146 -39
h117h1q111 0 172 7q-109 66 -109 187q0 95 61.5 155.5t149.5 60.5q92 0 152.5 -61.5t60.5 -152.5q0 -123 -121 -190q66 -6 187 -6zM544 255q0 -57 38 -104.5t103 -68.5q79 24 121 70t42 107q0 66 -44.5 108.5t-111.5 42.5q-63 0 -105.5 -42t-42.5 -113z" />
    <glyph glyph-name="uniFB6C" unicode="&#x6a4;" horiz-adv-x="519" arabic-form="initial" 
d="M324 754l-50 -50l-51 50l50 51zM252 642l-64 -63l-63 63l63 64zM356 579l-64 63l64 64l63 -64zM259 475q90 -1 150 -64.5t60 -158.5q0 -120 -71 -186t-201 -66h-197q-10 2 -10 11v44q0 10 10 10h121q-9 21 -30 58q-48 82 -48 149q0 83 63.5 143.5t152.5 59.5zM211 65
q90 0 143.5 45.5t53.5 129.5q0 77 -43.5 123t-115.5 46q-61 0 -103.5 -41.5t-42.5 -100.5q0 -51 39 -123q23 -45 37 -79h32z" />
    <glyph glyph-name="uniFB6D" unicode="&#x6a4;" horiz-adv-x="554" arabic-form="medial" 
d="M328 754l-50 -50l-51 50l50 51zM256 642l-64 -63l-63 63l63 64zM360 579l-64 63l64 64l63 -64zM554 65q10 0 10 -10v-44q0 -11 -10 -11q-170 0 -283 32q-109 -32 -271 -32q-10 0 -10 11v44q0 10 10 10q112 0 173 7q-109 66 -109 187q0 95 61.5 155.5t149.5 60.5
q92 0 152.5 -61.5t60.5 -152.5q0 -123 -121 -190q66 -6 187 -6zM124 255q0 -57 38 -104.5t103 -68.5q79 24 121 70t42 107q0 66 -44.5 108.5t-111.5 42.5q-63 0 -105.5 -42t-42.5 -113z" />
    <glyph glyph-name="uniFB7B" unicode="&#x686;" horiz-adv-x="651" arabic-form="final" 
d="M651 65q10 0 10 -10v-44q0 -11 -10 -11q-85 0 -131.5 37t-46.5 104v83q-173 -21 -268 -99t-95 -175q0 -40 15 -73t52 -73l-43 -34q-84 80 -84 179q0 42 13.5 82.5t47 82.5t83.5 75t128.5 57.5t176.5 32.5q-48 27 -96.5 65.5t-77 64.5t-63.5 45t-67 19q-45 0 -110 -22
l-17 52q72 35 132 35q34 0 66.5 -15t66 -42t68.5 -57.5t88.5 -67t112.5 -64.5l-16 -61q-23 0 -63 -2v-79q0 -85 128 -85zM270 -5l64 -63l-64 -64l-63 64zM374 -68l64 63l63 -63l-63 -64zM306 -182l50 51l51 -51l-50 -50z" />
    <glyph glyph-name="uniFB7C" unicode="&#x686;" horiz-adv-x="607" arabic-form="initial" 
d="M189 465q41 0 82 -21.5t75 -52t97 -73.5t134 -75l-16 -61q-64 -14 -119 -38.5t-93.5 -48t-83 -46t-110.5 -36t-154 -13.5q-11 0 -11 11v44q0 10 11 10q92 0 165 17.5t114 39.5t100 52t111 46q-64 32 -124.5 80t-100.5 74t-82 26q-45 0 -110 -22l-17 52q72 35 132 35z
M205 -89l64 -63l-64 -64l-63 64zM309 -152l64 63l63 -63l-63 -64zM241 -266l50 51l51 -51l-50 -50z" />
    <glyph glyph-name="uniFB7D" unicode="&#x686;" horiz-adv-x="631" arabic-form="medial" 
d="M631 65q10 0 10 -10v-44q0 -11 -10 -11q-85 0 -124.5 39t-39.5 102v14q-45 -17 -99.5 -48.5t-92.5 -52.5t-109.5 -37.5t-164.5 -16.5q-11 0 -11 11v44q0 10 11 10q92 0 165 17.5t114 39.5t100 52t111 46q-64 32 -124.5 80t-100.5 74t-82 26q-45 0 -110 -22l-17 52
q72 35 132 35q41 0 82 -21.5t75 -52t97 -73.5t134 -75l-16 -61q-16 -3 -44 -11v-26q0 -80 114 -80zM205 -89l64 -63l-64 -64l-63 64zM309 -152l64 63l63 -63l-63 -64zM241 -266l50 51l51 -51l-50 -50z" />
    <glyph glyph-name="uniFB89" unicode="&#x688;" horiz-adv-x="523" arabic-form="final" 
d="M102 588h54l6 9v171h50v-84l-7 -34q72 81 129 81q39 0 67 -25t28 -61q0 -51 -47 -79t-129 -28h-121zM321 681q-31 0 -112 -84l-9 -9h49q57 0 88.5 15t31.5 42q0 14 -13.5 25t-34.5 11zM523 65q10 0 10 -10v-44q0 -11 -10 -11q-69 0 -117 51q-102 -51 -205 -51
q-72 0 -181 32l12 59q98 -26 169 -26q95 0 173 30q-21 38 -33 79q-46 148 -74 311h65q26 -176 70 -312q20 -59 47 -83.5t74 -24.5z" />
    <glyph glyph-name="uniFB8B" unicode="&#x698;" horiz-adv-x="334" arabic-form="final" 
d="M198 704l-50 -50l-51 50l50 51zM126 592l-64 -63l-63 63l63 64zM230 529l-64 63l64 64l63 -64zM334 65q10 0 10 -10v-44q0 -11 -10 -11q-74 0 -108 52v-23q0 -119 -67 -181.5t-179 -62.5v60q82 0 136 48t54 137q0 139 -39 410h60q15 -113 24 -205l7 -60q4 -38 16 -62
t30.5 -33.5t32 -12t33.5 -2.5z" />
    <glyph glyph-name="uniFB8D" unicode="&#x691;" horiz-adv-x="334" arabic-form="final" 
d="M-22 545h54l6 9v171h50v-84l-7 -34q72 81 129 81q39 0 67 -25t28 -61q0 -51 -47 -79t-129 -28h-121zM197 638q-29 0 -77 -48q-9 -9 -44 -45h49q57 0 88.5 15t31.5 42q0 14 -13.5 25t-34.5 11zM334 65q10 0 10 -10v-44q0 -11 -10 -11q-74 0 -108 52v-23q0 -119 -67 -181.5
t-179 -62.5v60q82 0 136 48t54 137q0 139 -39 410h60q15 -113 24 -205l7 -60q4 -38 16 -62t30.5 -33.5t32 -12t33.5 -2.5z" />
    <glyph glyph-name="uniFB8F" unicode="&#x6a9;" horiz-adv-x="987" arabic-form="final" 
d="M987 65q10 0 10 -10v-44q0 -11 -10 -11q-50 0 -90 16.5t-83 54.5q-73 -71 -208 -71h-316q-114 0 -177 54.5t-63 157.5q0 89 34 228l54 -10q-28 -131 -28 -202q0 -85 47 -124t146 -39h310q82 0 137.5 35.5t55.5 91.5q0 45 -42 83t-142 82l-235 104v60l372 274l37 -48
l-336 -248l189 -83q217 -94 217 -223q0 -41 -19 -79q60 -49 140 -49z" />
    <glyph glyph-name="uniFB90" unicode="&#x6a9;" horiz-adv-x="584" arabic-form="initial" 
d="M327 416q217 -94 217 -223q0 -85 -71 -139t-189 -54h-284q-10 0 -10 11v44q0 10 10 10h291q82 0 137.5 35.5t55.5 91.5q0 45 -42 83t-142 82l-235 104v60l372 274l37 -48l-336 -248z" />
    <glyph glyph-name="uniFB91" unicode="&#x6a9;" horiz-adv-x="652" arabic-form="medial" 
d="M652 65q10 0 10 -10v-44q0 -11 -10 -11q-90 0 -166 65q-71 -65 -202 -65h-284q-10 0 -10 11v44q0 10 10 10h291q82 0 137.5 35.5t55.5 91.5q0 45 -42 83t-142 82l-235 104v60l372 274l37 -48l-336 -248l189 -83q217 -94 217 -223q0 -46 -23 -86q54 -42 131 -42z" />
    <glyph glyph-name="uniFB93" unicode="&#x6af;" horiz-adv-x="987" arabic-form="final" 
d="M605 786l-267 -214l-29 41l267 212zM987 65q10 0 10 -10v-44q0 -11 -10 -11q-50 0 -90 16.5t-83 54.5q-73 -71 -208 -71h-316q-114 0 -177 54.5t-63 157.5q0 89 34 228l54 -10q-28 -131 -28 -202q0 -85 47 -124t146 -39h310q82 0 137.5 35.5t55.5 91.5q0 45 -42 83
t-142 82l-235 104v60l372 274l37 -48l-336 -248l189 -83q217 -94 217 -223q0 -41 -19 -79q60 -49 140 -49z" />
    <glyph glyph-name="uniFB94" unicode="&#x6af;" horiz-adv-x="704" arabic-form="initial" 
d="M377 786l-267 -214l-29 41l267 212zM447 416q217 -94 217 -223q0 -85 -71 -139t-189 -54h-404q-10 0 -10 11v44q0 10 10 10h411q82 0 137.5 35.5t55.5 91.5q0 45 -42 83t-142 82l-235 104v60l372 274l37 -48l-336 -248z" />
    <glyph glyph-name="uniFB95" unicode="&#x6af;" horiz-adv-x="762" arabic-form="medial" 
d="M367 786l-267 -214l-29 41l267 212zM762 65q10 0 10 -10v-44q0 -11 -10 -11q-90 0 -166 65q-71 -65 -202 -65h-394q-10 0 -10 11v44q0 10 10 10h401q82 0 137.5 35.5t55.5 91.5q0 45 -42 83t-142 82l-235 104v60l372 274l37 -48l-336 -248l189 -83q217 -94 217 -223
q0 -46 -23 -86q54 -42 131 -42z" />
    <glyph glyph-name="uniFB9F" unicode="&#x6ba;" horiz-adv-x="697" arabic-form="final" 
d="M697 65q10 0 10 -10v-44q0 -11 -10 -11q-78 0 -112 59q-18 -274 -272 -274q-120 0 -191.5 64.5t-71.5 199.5q0 101 45 236l49 -13q-39 -103 -39 -208q0 -106 51 -160t165 -54q110 0 159.5 58.5t49.5 190.5q0 91 -37 341h60q23 -158 29 -239l3 -26q4 -38 16 -62
t30.5 -33.5t32 -12t33.5 -2.5z" />
    <glyph glyph-name="uniFBA7" unicode="&#x6c1;" horiz-adv-x="611" arabic-form="final" 
d="M294 420q66 0 108.5 -46.5t86.5 -162.5q10 -26 17 -42t19 -38t23.5 -34.5t28 -22t34.5 -9.5q10 0 10 -10v-44q0 -11 -10 -11q-57 0 -98.5 43t-79.5 144q-36 96 -64.5 132t-75.5 36q-48 0 -85.5 -40.5t-81.5 -139.5l-37 -84l-49 23l37 84q51 117 102.5 169.5t114.5 52.5z
" />
    <glyph glyph-name="uniFBA8" unicode="&#x6c1;" horiz-adv-x="274" arabic-form="initial" 
d="M164 485q30 -206 30 -294q0 -191 -194 -191q-10 0 -10 11v44q0 10 10 10q139 0 139 123q0 59 -35 297h60zM141 -78l-52 -110h45l-15 -87h-87v85l55 112h54z" />
    <glyph glyph-name="uniFBA9" unicode="&#x6c1;" horiz-adv-x="725" arabic-form="medial" 
d="M725 65q10 0 10 -11v-44q0 -10 -10 -10h-113q-53 0 -84.5 -32.5t-31.5 -97.5v-80l-48 -65q-163 0 -236 69.5t-73 224.5v26q-42 -45 -139 -45q-10 0 -10 11v44q0 10 10 10q53 0 96 19t43 63v223h60v-360q0 -111 56.5 -163.5t180.5 -56.5v90q0 88 46 136.5t130 48.5h113z
M622 -78h54l-52 -110h45l-15 -87h-87v85z" />
    <glyph glyph-name="uniFBAB" unicode="&#x6be;" horiz-adv-x="609" arabic-form="final" 
d="M609 65q10 0 10 -11v-44q0 -10 -10 -10q-57 0 -105 17q40 -54 40 -109t-44 -89t-116 -34q-81 0 -143 48t-91 132q-55 -30 -96 -65l-34 43q54 48 115 81q-7 35 -7 79q0 235 210 447h47q66 -65 108 -139.5t42 -137.5q0 -106 -104 -176q67 -32 178 -32zM186 109q0 -33 4 -57
q45 22 124 55q82 35 121.5 73.5t39.5 89.5q0 108 -114 226q-77 -76 -126 -179t-49 -208zM394 -150q43 0 69 18t26 48q0 35 -23.5 70t-79.5 84q-25 -13 -63 -27q-77 -29 -120 -50q24 -72 76.5 -107.5t114.5 -35.5z" />
    <glyph glyph-name="uniFBAC" unicode="&#x6be;" horiz-adv-x="742" arabic-form="initial" 
d="M239 660q215 0 334 -101.5t119 -254.5q0 -101 -60 -260l-62 -57q-135 0 -292 48q-104 -35 -278 -35q-10 0 -10 11v44q0 10 10 10q109 0 170 8q-106 67 -106 186q0 95 59 155.5t147 60.5q91 0 149.5 -61.5t58.5 -152.5q0 -120 -117 -189q127 -22 212 -22q25 49 42 119.5
t17 125.5q0 50 -20 99.5t-62.5 96t-123 75.5t-188.5 29zM124 255q0 -57 37.5 -104.5t98.5 -68.5q75 24 116.5 70.5t41.5 106.5q0 67 -42 109t-109 42q-63 0 -103 -42t-40 -113z" />
    <glyph glyph-name="uniFBAD" unicode="&#x6be;" horiz-adv-x="553" arabic-form="medial" 
d="M553 65q10 0 10 -11v-44q0 -10 -10 -10q-57 0 -105 17q40 -54 40 -109t-44 -89t-116 -34q-88 0 -155 60t-90 158q-41 -3 -83 -3q-10 0 -10 11v44q0 10 10 10q26 0 74 2q-1 9 -1 26q0 103 48 226.5t161 230.5h47q65 -57 107.5 -132t42.5 -145q0 -111 -94 -180
q67 -28 168 -28zM129 104q0 -22 1 -32q140 16 214.5 68t74.5 130q0 108 -115 227q-63 -59 -105 -138t-56 -141t-14 -114zM338 -150q43 0 69 18t26 48q0 35 -22 68.5t-74 79.5q-80 -41 -197 -56q21 -82 75.5 -120t122.5 -38z" />
    <glyph glyph-name="uniFBAF" unicode="&#x6d2;" horiz-adv-x="728" arabic-form="final" 
d="M728 65q10 0 10 -10v-44q0 -11 -10 -11h-491q-127 0 -127 -75q0 -40 35.5 -57.5t114.5 -17.5h336l-27 -65h-285q-123 0 -178.5 33.5t-55.5 107.5q0 66 54 102.5t156 36.5h468z" />
    <glyph glyph-name="uniFBB1" unicode="&#x6d3;" horiz-adv-x="728" arabic-form="final" 
d="M436 229h-117q-48 0 -106 -17v52q47 17 65 19q-22 23 -22 52q0 38 26.5 63.5t66.5 25.5q37 0 72 -18v-50q-39 13 -65 13q-22 0 -36 -11t-14 -31q0 -19 16.5 -31t41.5 -12h89zM728 65q10 0 10 -10v-44q0 -11 -10 -11h-491q-127 0 -127 -75q0 -40 35.5 -57.5t114.5 -17.5
h336l-27 -65h-285q-123 0 -178.5 33.5t-55.5 107.5q0 66 54 102.5t156 36.5h468z" />
    <glyph glyph-name="uniFBFD" unicode="&#x6cc;" horiz-adv-x="682" arabic-form="final" 
d="M682 65q10 0 10 -10v-44q0 -11 -10 -11h-15q-102 -215 -328 -215q-289 0 -289 264q0 101 45 236l49 -13q-39 -103 -39 -208q0 -109 59 -161.5t186 -52.5q182 0 260 157q-58 8 -119 27v60q119 -29 191 -29z" />
    <glyph glyph-name="uniFBFE" unicode="&#x6cc;" horiz-adv-x="326" arabic-form="initial" 
d="M239 485q30 -206 30 -294q0 -191 -194 -191h-75q-10 0 -10 11v44q0 10 10 10h75q139 0 139 123q0 59 -35 297h60zM51 -90l64 -63l-64 -63l-63 63zM199 -90l63 -63l-63 -63l-64 63z" />
    <glyph glyph-name="uniFBFF" unicode="&#x6cc;" horiz-adv-x="370" arabic-form="medial" 
d="M370 65q10 0 10 -10v-44q0 -11 -10 -11q-104 0 -191 80q-55 -80 -179 -80q-10 0 -10 11v44q0 10 10 10q107 0 138 58q17 30 23 79.5t6 167.5h55q0 -167 -20 -237q79 -68 168 -68zM35 -152l63 63l64 -63l-64 -63zM182 -152l64 63l63 -63l-63 -63z" />
    <glyph glyph-name="uniFC02" unicode="&#xfc02;" horiz-adv-x="538" arabic-form="isolated" 
d="M494 608h-117q-48 0 -106 -17v52q47 17 65 19q-22 23 -22 52q0 38 26.5 63.5t66.5 25.5q37 0 72 -18v-50q-39 13 -65 13q-22 0 -36 -11t-14 -31q0 -19 16.5 -31t41.5 -12h89zM336 286q0 -88 57 -162q59 -24 105 -53l-27 -53q-67 17 -125 55q-85 32 -152 32
q-49 0 -71.5 -24.5t-22.5 -84.5q0 -63 35 -271h-60q-35 202 -35 286q0 79 40 119t111 40q53 0 120 -19q-35 75 -35 139q0 140 131 242h10l36 -38q-67 -59 -92 -104t-25 -104z" />
    <glyph glyph-name="uniFC03" unicode="&#xfc03;" horiz-adv-x="893" arabic-form="isolated" 
d="M774 591h89l-17 -55h-117q-48 0 -106 -17v52q47 17 65 19q-22 23 -22 52q0 38 26.5 63.5t66.5 25.5q37 0 72 -18v-50q-39 13 -65 13q-22 0 -36 -11t-14 -31q0 -19 16.5 -31t41.5 -12zM727 485h60q30 -206 30 -294q0 -166 -149 -188q-100 -218 -329 -218q-289 0 -289 264
q0 101 45 236l49 -13q-39 -103 -39 -208q0 -109 59 -161.5t186 -52.5q178 0 257 150h-166l11 65h171q139 0 139 123q0 59 -35 297z" />
    <glyph glyph-name="uniFC04" unicode="&#xfc04;" horiz-adv-x="893" arabic-form="isolated" 
d="M774 591h89l-17 -55h-117q-48 0 -106 -17v52q47 17 65 19q-22 23 -22 52q0 38 26.5 63.5t66.5 25.5q37 0 72 -18v-50q-39 13 -65 13q-22 0 -36 -11t-14 -31q0 -19 16.5 -31t41.5 -12zM727 485h60q30 -206 30 -294q0 -166 -149 -188q-100 -218 -329 -218q-289 0 -289 264
q0 101 45 236l49 -13q-39 -103 -39 -208q0 -109 59 -161.5t186 -52.5q178 0 257 150h-166l11 65h171q139 0 139 123q0 59 -35 297zM271 -349l63 63l64 -63l-64 -63zM418 -349l64 63l63 -63l-63 -63z" />
    <glyph glyph-name="uniFC08" unicode="&#xfc08;" horiz-adv-x="538" arabic-form="isolated" 
d="M393 124q59 -24 105 -53l-27 -53q-67 17 -125 55q-85 32 -152 32q-49 0 -71.5 -24.5t-22.5 -84.5q0 -63 35 -271h-60q-35 202 -35 286q0 79 40 119t111 40q53 0 120 -19q-35 75 -35 139q0 140 131 242h10l36 -38q-67 -59 -92 -104t-25 -104q0 -88 57 -162zM252 -152
l63 63l64 -63l-63 -63z" />
    <glyph glyph-name="uniFC09" unicode="&#xfc09;" horiz-adv-x="877" arabic-form="isolated" 
d="M817 191q0 -166 -149 -188q-100 -218 -329 -218q-289 0 -289 264q0 101 45 236l49 -13q-39 -103 -39 -208q0 -109 59 -161.5t186 -52.5q178 0 257 150h-166l11 65h171q139 0 139 123q0 59 -35 297h60q30 -206 30 -294zM669 -153l63 63l64 -63l-63 -63z" />
    <glyph glyph-name="uniFC0A" unicode="&#xfc0a;" horiz-adv-x="877" arabic-form="isolated" 
d="M817 191q0 -166 -149 -188q-100 -218 -329 -218q-289 0 -289 264q0 101 45 236l49 -13q-39 -103 -39 -208q0 -109 59 -161.5t186 -52.5q178 0 257 150h-166l11 65h171q139 0 139 123q0 59 -35 297h60q30 -206 30 -294zM669 -153l63 63l64 -63l-63 -63zM271 -349l63 63
l64 -63l-64 -63zM418 -349l64 63l63 -63l-63 -63z" />
    <glyph glyph-name="uniFC0E" unicode="&#xfc0e;" horiz-adv-x="538" arabic-form="isolated" 
d="M400 677l-64 -63l-63 63l63 63zM547 677l-63 -63l-64 63l64 63zM336 286q0 -88 57 -162q59 -24 105 -53l-27 -53q-67 17 -125 55q-85 32 -152 32q-49 0 -71.5 -24.5t-22.5 -84.5q0 -63 35 -271h-60q-35 202 -35 286q0 79 40 119t111 40q53 0 120 -19q-35 75 -35 139
q0 140 131 242h10l36 -38q-67 -59 -92 -104t-25 -104z" />
    <glyph glyph-name="uniFC0F" unicode="&#xfc0f;" horiz-adv-x="918" arabic-form="isolated" 
d="M741 637l-64 -63l-63 63l63 63zM825 700l63 -63l-63 -63l-64 63zM727 485h60q30 -206 30 -294q0 -166 -149 -188q-100 -218 -329 -218q-289 0 -289 264q0 101 45 236l49 -13q-39 -103 -39 -208q0 -109 59 -161.5t186 -52.5q178 0 257 150h-166l11 65h171q139 0 139 123
q0 59 -35 297z" />
    <glyph glyph-name="uniFC10" unicode="&#xfc10;" horiz-adv-x="918" arabic-form="isolated" 
d="M741 637l-64 -63l-63 63l63 63zM825 700l63 -63l-63 -63l-64 63zM727 485h60q30 -206 30 -294q0 -166 -149 -188q-100 -218 -329 -218q-289 0 -289 264q0 101 45 236l49 -13q-39 -103 -39 -208q0 -109 59 -161.5t186 -52.5q178 0 257 150h-166l11 65h171q139 0 139 123
q0 59 -35 297zM271 -349l63 63l64 -63l-64 -63zM418 -349l64 63l63 -63l-63 -63z" />
    <glyph glyph-name="uniFC12" unicode="&#xfc12;" horiz-adv-x="538" arabic-form="isolated" 
d="M461 805l-50 -50l-51 50l50 51zM389 693l-64 -63l-63 63l63 64zM493 630l-64 63l64 64l63 -64zM336 286q0 -88 57 -162q59 -24 105 -53l-27 -53q-67 17 -125 55q-85 32 -152 32q-49 0 -71.5 -24.5t-22.5 -84.5q0 -63 35 -271h-60q-35 202 -35 286q0 79 40 119t111 40
q53 0 120 -19q-35 75 -35 139q0 140 131 242h10l36 -38q-67 -59 -92 -104t-25 -104z" />
    <glyph glyph-name="uniFC13" unicode="&#xfc13;" horiz-adv-x="926" arabic-form="isolated" 
d="M801 753l-50 -50l-51 50l50 51zM729 641l-64 -63l-63 63l63 64zM833 705l63 -64l-63 -63l-64 63zM727 485h60q30 -206 30 -294q0 -166 -149 -188q-100 -218 -329 -218q-289 0 -289 264q0 101 45 236l49 -13q-39 -103 -39 -208q0 -109 59 -161.5t186 -52.5q178 0 257 150
h-166l11 65h171q139 0 139 123q0 59 -35 297z" />
    <glyph glyph-name="uniFC14" unicode="&#xfc14;" horiz-adv-x="926" arabic-form="isolated" 
d="M801 753l-50 -50l-51 50l50 51zM729 641l-64 -63l-63 63l63 64zM833 705l63 -64l-63 -63l-64 63zM727 485h60q30 -206 30 -294q0 -166 -149 -188q-100 -218 -329 -218q-289 0 -289 264q0 101 45 236l49 -13q-39 -103 -39 -208q0 -109 59 -161.5t186 -52.5q178 0 257 150
h-166l11 65h171q139 0 139 123q0 59 -35 297zM271 -349l63 63l64 -63l-64 -63zM418 -349l64 63l63 -63l-63 -63z" />
    <glyph glyph-name="uniFC31" unicode="&#xfc31;" horiz-adv-x="860" arabic-form="isolated" 
d="M682 713l-63 -63l-64 63l63 63zM810 191q0 -161 -141 -186q-100 -220 -330 -220q-289 0 -289 264q0 101 45 236l49 -13q-39 -103 -39 -208q0 -109 59 -161.5t186 -52.5q178 0 257 150h-166l11 65h164q76 0 107 33.5t31 115.5q-75 -35 -138 -35q-86 0 -137 49t-51 142
q0 97 54 156.5t136 59.5q76 0 126.5 -48.5t55.5 -124.5q10 -147 10 -222zM629 244q64 0 122 21q-2 46 -9 139q-4 53 -39 85t-89 32q-55 0 -90.5 -40t-35.5 -108q0 -64 38 -96.5t103 -32.5z" />
    <glyph glyph-name="uniFC32" unicode="&#xfc32;" horiz-adv-x="860" arabic-form="isolated" 
d="M682 713l-63 -63l-64 63l63 63zM810 191q0 -161 -141 -186q-100 -220 -330 -220q-289 0 -289 264q0 101 45 236l49 -13q-39 -103 -39 -208q0 -109 59 -161.5t186 -52.5q178 0 257 150h-166l11 65h164q76 0 107 33.5t31 115.5q-75 -35 -138 -35q-86 0 -137 49t-51 142
q0 97 54 156.5t136 59.5q76 0 126.5 -48.5t55.5 -124.5q10 -147 10 -222zM629 244q64 0 122 21q-2 46 -9 139q-4 53 -39 85t-89 32q-55 0 -90.5 -40t-35.5 -108q0 -64 38 -96.5t103 -32.5zM241 -349l63 63l64 -63l-64 -63zM388 -349l64 63l63 -63l-63 -63z" />
    <glyph glyph-name="uniFC35" unicode="&#xfc35;" horiz-adv-x="860" arabic-form="isolated" 
d="M610 715l-64 -63l-63 63l63 63zM757 715l-63 -63l-64 63l64 63zM810 191q0 -161 -141 -186q-100 -220 -330 -220q-289 0 -289 264q0 101 45 236l49 -13q-39 -103 -39 -208q0 -109 59 -161.5t186 -52.5q178 0 257 150h-166l11 65h164q76 0 107 33.5t31 115.5
q-75 -35 -138 -35q-86 0 -137 49t-51 142q0 97 54 156.5t136 59.5q76 0 126.5 -48.5t55.5 -124.5q10 -147 10 -222zM629 244q64 0 122 21q-2 46 -9 139q-4 53 -39 85t-89 32q-55 0 -90.5 -40t-35.5 -108q0 -64 38 -96.5t103 -32.5z" />
    <glyph glyph-name="uniFC36" unicode="&#xfc36;" horiz-adv-x="860" arabic-form="isolated" 
d="M610 715l-64 -63l-63 63l63 63zM757 715l-63 -63l-64 63l64 63zM810 191q0 -161 -141 -186q-100 -220 -330 -220q-289 0 -289 264q0 101 45 236l49 -13q-39 -103 -39 -208q0 -109 59 -161.5t186 -52.5q178 0 257 150h-166l11 65h164q76 0 107 33.5t31 115.5
q-75 -35 -138 -35q-86 0 -137 49t-51 142q0 97 54 156.5t136 59.5q76 0 126.5 -48.5t55.5 -124.5q10 -147 10 -222zM629 244q64 0 122 21q-2 46 -9 139q-4 53 -39 85t-89 32q-55 0 -90.5 -40t-35.5 -108q0 -64 38 -96.5t103 -32.5zM251 -349l63 63l64 -63l-64 -63zM398 -349
l64 63l63 -63l-63 -63z" />
    <glyph glyph-name="uniFC3D" unicode="&#xfc3d;" horiz-adv-x="1399" arabic-form="isolated" 
d="M1142 416q217 -94 217 -223q0 -85 -71 -139t-189 -54h-199q-111 0 -166 58.5t-55 181.5q0 59 22 168q-132 -7 -217 -53t-85 -104q0 -27 17 -46t68 -54l51 -34q100 -67 100 -144q0 -87 -73.5 -137.5t-213.5 -50.5q-60 0 -112.5 15t-94.5 46t-66.5 83t-24.5 120
q0 101 45 236l49 -13q-39 -103 -39 -208q0 -103 71 -158.5t205 -55.5q95 0 144.5 33t49.5 84q0 24 -16.5 44t-60.5 50l-46 31q-65 45 -89 76.5t-24 74.5q0 92 93.5 152t273.5 80l53 -45q-25 -128 -25 -196q0 -86 40 -127.5t126 -41.5h206q82 0 137.5 35.5t55.5 91.5
q0 45 -42 83t-142 82l-235 104v60l372 274l37 -48l-336 -248z" />
    <glyph glyph-name="uniFC3E" unicode="&#xfc3e;" horiz-adv-x="1399" arabic-form="isolated" 
d="M1142 416q217 -94 217 -223q0 -85 -71 -139t-189 -54h-199q-111 0 -166 58.5t-55 181.5q0 59 22 168q-132 -7 -217 -53t-85 -104q0 -27 17 -46t68 -54l51 -34q100 -67 100 -144q0 -87 -73.5 -137.5t-213.5 -50.5q-60 0 -112.5 15t-94.5 46t-66.5 83t-24.5 120
q0 101 45 236l49 -13q-39 -103 -39 -208q0 -103 71 -158.5t205 -55.5q95 0 144.5 33t49.5 84q0 24 -16.5 44t-60.5 50l-46 31q-65 45 -89 76.5t-24 74.5q0 92 93.5 152t273.5 80l53 -45q-25 -128 -25 -196q0 -86 40 -127.5t126 -41.5h206q82 0 137.5 35.5t55.5 91.5
q0 45 -42 83t-142 82l-235 104v60l372 274l37 -48l-336 -248zM271 -349l63 63l64 -63l-64 -63zM418 -349l64 63l63 -63l-63 -63z" />
    <glyph glyph-name="uniFC42" unicode="&#xfc42;" horiz-adv-x="488" arabic-form="isolated" 
d="M498 71l-27 -53q-67 17 -125 55q-85 32 -152 32q-49 0 -71.5 -24.5t-22.5 -84.5q0 -63 35 -271h-60q-35 202 -35 286q0 79 40 119t111 40q59 0 127 -22q-5 33 -5 88v489h60v-593q67 -25 125 -61z" />
    <glyph glyph-name="uniFC44" unicode="&#xfc44;" horiz-adv-x="877" arabic-form="isolated" 
d="M727 725h60v-534q0 -146 -115 -181q-101 -225 -333 -225q-289 0 -289 264q0 101 45 236l49 -13q-39 -103 -39 -208q0 -109 59 -161.5t186 -52.5q179 0 257 150h-14h-152l11 65h141q69 0 101.5 30.5t32.5 92.5v537zM246 -329l63 63l64 -63l-64 -63zM393 -329l64 63l63 -63
l-63 -63z" />
    <glyph glyph-name="uniFC4E" unicode="&#xfc4e;" horiz-adv-x="538" arabic-form="isolated" 
d="M474 672l-63 -63l-64 63l63 63zM498 71l-27 -53q-67 17 -125 55q-85 32 -152 32q-49 0 -71.5 -24.5t-22.5 -84.5q0 -63 35 -271h-60q-35 202 -35 286q0 79 40 119t111 40q53 0 120 -19q-35 75 -35 139q0 140 131 242h10l36 -38q-67 -59 -92 -104t-25 -104q0 -88 57 -162
q59 -24 105 -53z" />
    <glyph glyph-name="uniFC4F" unicode="&#xfc4f;" horiz-adv-x="877" arabic-form="isolated" 
d="M812 631l-63 -63l-64 63l63 63zM817 191q0 -166 -149 -188q-100 -218 -329 -218q-289 0 -289 264q0 101 45 236l49 -13q-39 -103 -39 -208q0 -109 59 -161.5t186 -52.5q178 0 257 150h-166l11 65h171q139 0 139 123q0 59 -35 297h60q30 -206 30 -294z" />
    <glyph glyph-name="uniFC50" unicode="&#xfc50;" horiz-adv-x="877" arabic-form="isolated" 
d="M812 631l-63 -63l-64 63l63 63zM817 191q0 -166 -149 -188q-100 -218 -329 -218q-289 0 -289 264q0 101 45 236l49 -13q-39 -103 -39 -208q0 -109 59 -161.5t186 -52.5q178 0 257 150h-166l11 65h171q139 0 139 123q0 59 -35 297h60q30 -206 30 -294zM271 -349l63 63
l64 -63l-64 -63zM418 -349l64 63l63 -63l-63 -63z" />
    <glyph glyph-name="uniFC58" unicode="&#xfc58;" horiz-adv-x="538" arabic-form="isolated" 
d="M393 124q59 -24 105 -53l-27 -53q-67 17 -125 55q-85 32 -152 32q-49 0 -71.5 -24.5t-22.5 -84.5q0 -63 35 -271h-60q-35 202 -35 286q0 79 40 119t111 40q53 0 120 -19q-35 75 -35 139q0 140 131 242h10l36 -38q-67 -59 -92 -104t-25 -104q0 -88 57 -162zM170 -152
l63 63l64 -63l-64 -63zM317 -152l64 63l63 -63l-63 -63z" />
    <glyph glyph-name="uniFC64" unicode="&#xfc64;" horiz-adv-x="606" arabic-form="final" 
d="M541 575h-117q-48 0 -106 -17v52q47 17 65 19q-22 23 -22 52q0 38 26.5 63.5t66.5 25.5q37 0 72 -18v-50q-39 13 -65 13q-22 0 -36 -11t-14 -31q0 -19 16.5 -31t41.5 -12h89zM606 65q10 0 10 -10v-44q0 -11 -10 -11q-85 0 -131 53t-46 151q0 89 20 189q-127 -64 -242 -82
q19 -166 19 -282q0 -119 -67 -181.5t-179 -62.5v60q82 0 136 48t54 137q0 113 -29 327l10 12q90 8 156.5 29.5t145.5 60.5l58 -34q-26 -113 -26 -203q0 -86 27 -121.5t94 -35.5z" />
    <glyph glyph-name="uniFC65" unicode="&#xfc65;" horiz-adv-x="606" arabic-form="final" 
d="M541 575h-117q-48 0 -106 -17v52q47 17 65 19q-22 23 -22 52q0 38 26.5 63.5t66.5 25.5q37 0 72 -18v-50q-39 13 -65 13q-22 0 -36 -11t-14 -31q0 -19 16.5 -31t41.5 -12h89zM210 564l-63 -63l-64 63l63 63zM606 65q10 0 10 -10v-44q0 -11 -10 -11q-85 0 -131 53t-46 151
q0 89 20 189q-127 -64 -242 -82q19 -166 19 -282q0 -119 -67 -181.5t-179 -62.5v60q82 0 136 48t54 137q0 113 -29 327l10 12q90 8 156.5 29.5t145.5 60.5l58 -34q-26 -113 -26 -203q0 -86 27 -121.5t94 -35.5z" />
    <glyph glyph-name="uniFC67" unicode="&#xfc67;" horiz-adv-x="970" arabic-form="final" 
d="M860 575h-117q-48 0 -106 -17v52q47 17 65 19q-22 23 -22 52q0 38 26.5 63.5t66.5 25.5q37 0 72 -18v-50q-39 13 -65 13q-22 0 -36 -11t-14 -31q0 -19 16.5 -31t41.5 -12h89zM385 470l-63 -63l-64 63l63 63zM970 65q10 0 10 -10v-44q0 -11 -10 -11q-85 0 -131 53t-46 151
q0 89 20 189q-127 -64 -242 -82q15 -130 15 -212q0 -314 -273 -314q-120 0 -191.5 64.5t-71.5 199.5q0 101 45 236l49 -13q-39 -103 -39 -208q0 -106 51 -160t165 -54q110 0 159.5 58.5t49.5 190.5q0 81 -25 258l10 12q90 8 156.5 29.5t145.5 60.5l58 -34q-26 -113 -26 -203
q0 -86 27 -121.5t94 -35.5z" />
    <glyph glyph-name="uniFC68" unicode="&#xfc68;" horiz-adv-x="919" arabic-form="final" 
d="M734 582h-117q-48 0 -106 -17v52q47 17 65 19q-22 23 -22 52q0 38 26.5 63.5t66.5 25.5q37 0 72 -18v-50q-39 13 -65 13q-22 0 -36 -11t-14 -31q0 -19 16.5 -31t41.5 -12h89zM919 65q10 0 10 -10v-44q0 -11 -10 -11q-114 0 -177 59.5t-63 180.5q0 59 22 168
q-132 -7 -217 -53t-85 -104q0 -27 17 -46t68 -54l51 -34q100 -67 100 -144q0 -87 -73.5 -137.5t-213.5 -50.5q-60 0 -112.5 15t-94.5 46t-66.5 83t-24.5 120q0 101 45 236l49 -13q-39 -103 -39 -208q0 -103 71 -158.5t205 -55.5q95 0 144.5 33t49.5 84q0 24 -16.5 44
t-60.5 50l-46 31q-65 45 -89 76.5t-24 74.5q0 92 93.5 152t273.5 80l53 -45q-25 -128 -25 -196q0 -83 49.5 -126t135.5 -43z" />
    <glyph glyph-name="uniFC69" unicode="&#xfc69;" horiz-adv-x="919" arabic-form="final" 
d="M734 582h-117q-48 0 -106 -17v52q47 17 65 19q-22 23 -22 52q0 38 26.5 63.5t66.5 25.5q37 0 72 -18v-50q-39 13 -65 13q-22 0 -36 -11t-14 -31q0 -19 16.5 -31t41.5 -12h89zM919 65q10 0 10 -10v-44q0 -11 -10 -11q-114 0 -177 59.5t-63 180.5q0 59 22 168
q-132 -7 -217 -53t-85 -104q0 -27 17 -46t68 -54l51 -34q100 -67 100 -144q0 -87 -73.5 -137.5t-213.5 -50.5q-60 0 -112.5 15t-94.5 46t-66.5 83t-24.5 120q0 101 45 236l49 -13q-39 -103 -39 -208q0 -103 71 -158.5t205 -55.5q95 0 144.5 33t49.5 84q0 24 -16.5 44
t-60.5 50l-46 31q-65 45 -89 76.5t-24 74.5q0 92 93.5 152t273.5 80l53 -45q-25 -128 -25 -196q0 -83 49.5 -126t135.5 -43zM271 -349l63 63l64 -63l-64 -63zM418 -349l64 63l63 -63l-63 -63z" />
    <glyph glyph-name="uniFC6A" unicode="&#xfc6a;" horiz-adv-x="606" arabic-form="final" 
d="M606 65q10 0 10 -10v-44q0 -11 -10 -11q-85 0 -131 53t-46 151q0 89 20 189q-127 -64 -242 -82q19 -166 19 -282q0 -119 -67 -181.5t-179 -62.5v60q82 0 136 48t54 137q0 113 -29 327l10 12q90 8 156.5 29.5t145.5 60.5l58 -34q-26 -113 -26 -203q0 -86 27 -121.5
t94 -35.5zM304 -152l63 63l64 -63l-63 -63z" />
    <glyph glyph-name="uniFC6B" unicode="&#xfc6b;" horiz-adv-x="606" arabic-form="final" 
d="M210 564l-63 -63l-64 63l63 63zM606 65q10 0 10 -10v-44q0 -11 -10 -11q-85 0 -131 53t-46 151q0 89 20 189q-127 -64 -242 -82q19 -166 19 -282q0 -119 -67 -181.5t-179 -62.5v60q82 0 136 48t54 137q0 113 -29 327l10 12q90 8 156.5 29.5t145.5 60.5l58 -34
q-26 -113 -26 -203q0 -86 27 -121.5t94 -35.5zM304 -152l63 63l64 -63l-63 -63z" />
    <glyph glyph-name="uniFC6D" unicode="&#xfc6d;" horiz-adv-x="970" arabic-form="final" 
d="M385 470l-63 -63l-64 63l63 63zM970 65q10 0 10 -10v-44q0 -11 -10 -11q-85 0 -131 53t-46 151q0 89 20 189q-127 -64 -242 -82q15 -130 15 -212q0 -314 -273 -314q-120 0 -191.5 64.5t-71.5 199.5q0 101 45 236l49 -13q-39 -103 -39 -208q0 -106 51 -160t165 -54
q110 0 159.5 58.5t49.5 190.5q0 81 -25 258l10 12q90 8 156.5 29.5t145.5 60.5l58 -34q-26 -113 -26 -203q0 -86 27 -121.5t94 -35.5zM668 -152l63 63l64 -63l-63 -63z" />
    <glyph glyph-name="uniFC6E" unicode="&#xfc6e;" horiz-adv-x="919" arabic-form="final" 
d="M919 65q10 0 10 -10v-44q0 -11 -10 -11q-114 0 -177 59.5t-63 180.5q0 59 22 168q-132 -7 -217 -53t-85 -104q0 -27 17 -46t68 -54l51 -34q100 -67 100 -144q0 -87 -73.5 -137.5t-213.5 -50.5q-60 0 -112.5 15t-94.5 46t-66.5 83t-24.5 120q0 101 45 236l49 -13
q-39 -103 -39 -208q0 -103 71 -158.5t205 -55.5q95 0 144.5 33t49.5 84q0 24 -16.5 44t-60.5 50l-46 31q-65 45 -89 76.5t-24 74.5q0 92 93.5 152t273.5 80l53 -45q-25 -128 -25 -196q0 -83 49.5 -126t135.5 -43zM700 -153l63 63l64 -63l-63 -63z" />
    <glyph glyph-name="uniFC6F" unicode="&#xfc6f;" horiz-adv-x="919" arabic-form="final" 
d="M919 65q10 0 10 -10v-44q0 -11 -10 -11q-114 0 -177 59.5t-63 180.5q0 59 22 168q-132 -7 -217 -53t-85 -104q0 -27 17 -46t68 -54l51 -34q100 -67 100 -144q0 -87 -73.5 -137.5t-213.5 -50.5q-60 0 -112.5 15t-94.5 46t-66.5 83t-24.5 120q0 101 45 236l49 -13
q-39 -103 -39 -208q0 -103 71 -158.5t205 -55.5q95 0 144.5 33t49.5 84q0 24 -16.5 44t-60.5 50l-46 31q-65 45 -89 76.5t-24 74.5q0 92 93.5 152t273.5 80l53 -45q-25 -128 -25 -196q0 -83 49.5 -126t135.5 -43zM700 -153l63 63l64 -63l-63 -63zM271 -349l63 63l64 -63
l-64 -63zM418 -349l64 63l63 -63l-63 -63z" />
    <glyph glyph-name="uniFC70" unicode="&#xfc70;" horiz-adv-x="606" arabic-form="final" 
d="M366 635l-64 -63l-63 63l63 63zM513 635l-63 -63l-64 63l64 63zM606 65q10 0 10 -10v-44q0 -11 -10 -11q-85 0 -131 53t-46 151q0 89 20 189q-127 -64 -242 -82q19 -166 19 -282q0 -119 -67 -181.5t-179 -62.5v60q82 0 136 48t54 137q0 113 -29 327l10 12
q90 8 156.5 29.5t145.5 60.5l58 -34q-26 -113 -26 -203q0 -86 27 -121.5t94 -35.5z" />
    <glyph glyph-name="uniFC71" unicode="&#xfc71;" horiz-adv-x="606" arabic-form="final" 
d="M453 635l-64 -63l-63 63l63 63zM600 635l-63 -63l-64 63l64 63zM210 564l-63 -63l-64 63l63 63zM606 65q10 0 10 -10v-44q0 -11 -10 -11q-85 0 -131 53t-46 151q0 89 20 189q-127 -64 -242 -82q19 -166 19 -282q0 -119 -67 -181.5t-179 -62.5v60q82 0 136 48t54 137
q0 113 -29 327l10 12q90 8 156.5 29.5t145.5 60.5l58 -34q-26 -113 -26 -203q0 -86 27 -121.5t94 -35.5z" />
    <glyph glyph-name="uniFC73" unicode="&#xfc73;" horiz-adv-x="970" arabic-form="final" 
d="M735 635l-64 -63l-63 63l63 63zM882 635l-63 -63l-64 63l64 63zM385 470l-63 -63l-64 63l63 63zM970 65q10 0 10 -10v-44q0 -11 -10 -11q-85 0 -131 53t-46 151q0 89 20 189q-127 -64 -242 -82q15 -130 15 -212q0 -314 -273 -314q-120 0 -191.5 64.5t-71.5 199.5
q0 101 45 236l49 -13q-39 -103 -39 -208q0 -106 51 -160t165 -54q110 0 159.5 58.5t49.5 190.5q0 81 -25 258l10 12q90 8 156.5 29.5t145.5 60.5l58 -34q-26 -113 -26 -203q0 -86 27 -121.5t94 -35.5z" />
    <glyph glyph-name="uniFC74" unicode="&#xfc74;" horiz-adv-x="919" arabic-form="final" 
d="M630 663l-64 -63l-63 63l63 63zM777 663l-63 -63l-64 63l64 63zM919 65q10 0 10 -10v-44q0 -11 -10 -11q-114 0 -177 59.5t-63 180.5q0 59 22 168q-132 -7 -217 -53t-85 -104q0 -27 17 -46t68 -54l51 -34q100 -67 100 -144q0 -87 -73.5 -137.5t-213.5 -50.5
q-60 0 -112.5 15t-94.5 46t-66.5 83t-24.5 120q0 101 45 236l49 -13q-39 -103 -39 -208q0 -103 71 -158.5t205 -55.5q95 0 144.5 33t49.5 84q0 24 -16.5 44t-60.5 50l-46 31q-65 45 -89 76.5t-24 74.5q0 92 93.5 152t273.5 80l53 -45q-25 -128 -25 -196q0 -83 49.5 -126
t135.5 -43z" />
    <glyph glyph-name="uniFC75" unicode="&#xfc75;" horiz-adv-x="919" arabic-form="final" 
d="M630 663l-64 -63l-63 63l63 63zM777 663l-63 -63l-64 63l64 63zM919 65q10 0 10 -10v-44q0 -11 -10 -11q-114 0 -177 59.5t-63 180.5q0 59 22 168q-132 -7 -217 -53t-85 -104q0 -27 17 -46t68 -54l51 -34q100 -67 100 -144q0 -87 -73.5 -137.5t-213.5 -50.5
q-60 0 -112.5 15t-94.5 46t-66.5 83t-24.5 120q0 101 45 236l49 -13q-39 -103 -39 -208q0 -103 71 -158.5t205 -55.5q95 0 144.5 33t49.5 84q0 24 -16.5 44t-60.5 50l-46 31q-65 45 -89 76.5t-24 74.5q0 92 93.5 152t273.5 80l53 -45q-25 -128 -25 -196q0 -83 49.5 -126
t135.5 -43zM272 -349l63 63l64 -63l-64 -63zM419 -349l64 63l63 -63l-63 -63z" />
    <glyph glyph-name="uniFC76" unicode="&#xfc76;" horiz-adv-x="606" arabic-form="final" 
d="M427 754l-50 -50l-51 50l50 51zM355 642l-64 -63l-63 63l63 64zM459 579l-64 63l64 64l63 -64zM606 65q10 0 10 -10v-44q0 -11 -10 -11q-85 0 -131 53t-46 151q0 89 20 189q-127 -64 -242 -82q19 -166 19 -282q0 -119 -67 -181.5t-179 -62.5v60q82 0 136 48t54 137
q0 113 -29 327l10 12q90 8 156.5 29.5t145.5 60.5l58 -34q-26 -113 -26 -203q0 -86 27 -121.5t94 -35.5z" />
    <glyph glyph-name="uniFC77" unicode="&#xfc77;" horiz-adv-x="606" arabic-form="final" 
d="M511 754l-50 -50l-51 50l50 51zM439 642l-64 -63l-63 63l63 64zM543 579l-64 63l64 64l63 -64zM210 564l-63 -63l-64 63l63 63zM606 65q10 0 10 -10v-44q0 -11 -10 -11q-85 0 -131 53t-46 151q0 89 20 189q-127 -64 -242 -82q19 -166 19 -282q0 -119 -67 -181.5
t-179 -62.5v60q82 0 136 48t54 137q0 113 -29 327l10 12q90 8 156.5 29.5t145.5 60.5l58 -34q-26 -113 -26 -203q0 -86 27 -121.5t94 -35.5z" />
    <glyph glyph-name="uniFC79" unicode="&#xfc79;" horiz-adv-x="970" arabic-form="final" 
d="M798 727l-50 -50l-51 50l50 51zM726 615l-64 -63l-63 63l63 64zM830 552l-64 63l64 64l63 -64zM385 470l-63 -63l-64 63l63 63zM970 65q10 0 10 -10v-44q0 -11 -10 -11q-85 0 -131 53t-46 151q0 89 20 189q-127 -64 -242 -82q15 -130 15 -212q0 -314 -273 -314
q-120 0 -191.5 64.5t-71.5 199.5q0 101 45 236l49 -13q-39 -103 -39 -208q0 -106 51 -160t165 -54q110 0 159.5 58.5t49.5 190.5q0 81 -25 258l10 12q90 8 156.5 29.5t145.5 60.5l58 -34q-26 -113 -26 -203q0 -86 27 -121.5t94 -35.5z" />
    <glyph glyph-name="uniFC7A" unicode="&#xfc7a;" horiz-adv-x="919" arabic-form="final" 
d="M673 724l-50 -50l-51 50l50 51zM601 612l-64 -63l-63 63l63 64zM705 549l-64 63l64 64l63 -64zM919 65q10 0 10 -10v-44q0 -11 -10 -11q-114 0 -177 59.5t-63 180.5q0 59 22 168q-132 -7 -217 -53t-85 -104q0 -27 17 -46t68 -54l51 -34q100 -67 100 -144
q0 -87 -73.5 -137.5t-213.5 -50.5q-60 0 -112.5 15t-94.5 46t-66.5 83t-24.5 120q0 101 45 236l49 -13q-39 -103 -39 -208q0 -103 71 -158.5t205 -55.5q95 0 144.5 33t49.5 84q0 24 -16.5 44t-60.5 50l-46 31q-65 45 -89 76.5t-24 74.5q0 92 93.5 152t273.5 80l53 -45
q-25 -128 -25 -196q0 -83 49.5 -126t135.5 -43z" />
    <glyph glyph-name="uniFC7B" unicode="&#xfc7b;" horiz-adv-x="919" arabic-form="final" 
d="M673 724l-50 -50l-51 50l50 51zM601 612l-64 -63l-63 63l63 64zM705 549l-64 63l64 64l63 -64zM919 65q10 0 10 -10v-44q0 -11 -10 -11q-114 0 -177 59.5t-63 180.5q0 59 22 168q-132 -7 -217 -53t-85 -104q0 -27 17 -46t68 -54l51 -34q100 -67 100 -144
q0 -87 -73.5 -137.5t-213.5 -50.5q-60 0 -112.5 15t-94.5 46t-66.5 83t-24.5 120q0 101 45 236l49 -13q-39 -103 -39 -208q0 -103 71 -158.5t205 -55.5q95 0 144.5 33t49.5 84q0 24 -16.5 44t-60.5 50l-46 31q-65 45 -89 76.5t-24 74.5q0 92 93.5 152t273.5 80l53 -45
q-25 -128 -25 -196q0 -83 49.5 -126t135.5 -43zM271 -349l63 63l64 -63l-64 -63zM418 -349l64 63l63 -63l-63 -63z" />
    <glyph glyph-name="uniFC83" unicode="&#xfc83;" horiz-adv-x="1470" arabic-form="final" 
d="M1470 65q10 0 10 -10v-44q0 -11 -10 -11q-91 0 -168 66q-72 -66 -203 -66h-199q-111 0 -166 58.5t-55 181.5q0 59 22 168q-132 -7 -217 -53t-85 -104q0 -27 17 -46t68 -54l51 -34q100 -67 100 -144q0 -87 -73.5 -137.5t-213.5 -50.5q-60 0 -112.5 15t-94.5 46t-66.5 83
t-24.5 120q0 101 45 236l49 -13q-39 -103 -39 -208q0 -103 71 -158.5t205 -55.5q95 0 144.5 33t49.5 84q0 24 -16.5 44t-60.5 50l-46 31q-65 45 -89 76.5t-24 74.5q0 92 93.5 152t273.5 80l53 -45q-25 -128 -25 -196q0 -86 40 -127.5t126 -41.5h206q82 0 137.5 35.5
t55.5 91.5q0 45 -42 83t-142 82l-235 104v60l372 274l37 -48l-336 -248l189 -83q217 -94 217 -223q0 -45 -22 -84q56 -44 133 -44z" />
    <glyph glyph-name="uniFC84" unicode="&#xfc84;" horiz-adv-x="1470" arabic-form="final" 
d="M1470 65q10 0 10 -10v-44q0 -11 -10 -11q-91 0 -168 66q-72 -66 -203 -66h-199q-111 0 -166 58.5t-55 181.5q0 59 22 168q-132 -7 -217 -53t-85 -104q0 -27 17 -46t68 -54l51 -34q100 -67 100 -144q0 -87 -73.5 -137.5t-213.5 -50.5q-60 0 -112.5 15t-94.5 46t-66.5 83
t-24.5 120q0 101 45 236l49 -13q-39 -103 -39 -208q0 -103 71 -158.5t205 -55.5q95 0 144.5 33t49.5 84q0 24 -16.5 44t-60.5 50l-46 31q-65 45 -89 76.5t-24 74.5q0 92 93.5 152t273.5 80l53 -45q-25 -128 -25 -196q0 -86 40 -127.5t126 -41.5h206q82 0 137.5 35.5
t55.5 91.5q0 45 -42 83t-142 82l-235 104v60l372 274l37 -48l-336 -248l189 -83q217 -94 217 -223q0 -45 -22 -84q56 -44 133 -44zM271 -349l63 63l64 -63l-64 -63zM418 -349l64 63l63 -63l-63 -63z" />
    <glyph glyph-name="uniFC87" unicode="&#xfc87;" horiz-adv-x="930" arabic-form="final" 
d="M930 65q10 0 10 -10v-44q0 -11 -10 -11q-115 0 -163 69q-52 -52 -97 -63q-102 -221 -331 -221q-289 0 -289 264q0 101 45 236l49 -13q-39 -103 -39 -208q0 -109 59 -161.5t186 -52.5q178 0 257 150h-146l11 65h141q79 0 133 51q-10 33 -10 75v534h60v-537
q0 -62 32.5 -92.5t101.5 -30.5zM248 -329l63 63l64 -63l-64 -63zM395 -329l64 63l63 -63l-63 -63z" />
    <glyph glyph-name="uniFC8A" unicode="&#xfc8a;" horiz-adv-x="606" arabic-form="final" 
d="M517 640l-63 -63l-64 63l63 63zM606 65q10 0 10 -10v-44q0 -11 -10 -11q-85 0 -131 53t-46 151q0 89 20 189q-127 -64 -242 -82q19 -166 19 -282q0 -119 -67 -181.5t-179 -62.5v60q82 0 136 48t54 137q0 113 -29 327l10 12q90 8 156.5 29.5t145.5 60.5l58 -34
q-26 -113 -26 -203q0 -86 27 -121.5t94 -35.5z" />
    <glyph glyph-name="uniFC8B" unicode="&#xfc8b;" horiz-adv-x="606" arabic-form="final" 
d="M517 640l-63 -63l-64 63l63 63zM210 564l-63 -63l-64 63l63 63zM606 65q10 0 10 -10v-44q0 -11 -10 -11q-85 0 -131 53t-46 151q0 89 20 189q-127 -64 -242 -82q19 -166 19 -282q0 -119 -67 -181.5t-179 -62.5v60q82 0 136 48t54 137q0 113 -29 327l10 12
q90 8 156.5 29.5t145.5 60.5l58 -34q-26 -113 -26 -203q0 -86 27 -121.5t94 -35.5z" />
    <glyph glyph-name="uniFC8D" unicode="&#xfc8d;" horiz-adv-x="970" arabic-form="final" 
d="M889 640l-63 -63l-64 63l63 63zM385 470l-63 -63l-64 63l63 63zM970 65q10 0 10 -10v-44q0 -11 -10 -11q-85 0 -131 53t-46 151q0 89 20 189q-127 -64 -242 -82q15 -130 15 -212q0 -314 -273 -314q-120 0 -191.5 64.5t-71.5 199.5q0 101 45 236l49 -13q-39 -103 -39 -208
q0 -106 51 -160t165 -54q110 0 159.5 58.5t49.5 190.5q0 81 -25 258l10 12q90 8 156.5 29.5t145.5 60.5l58 -34q-26 -113 -26 -203q0 -86 27 -121.5t94 -35.5z" />
    <glyph glyph-name="uniFC8E" unicode="&#xfc8e;" horiz-adv-x="919" arabic-form="final" 
d="M771 662l-63 -63l-64 63l63 63zM919 65q10 0 10 -10v-44q0 -11 -10 -11q-114 0 -177 59.5t-63 180.5q0 59 22 168q-132 -7 -217 -53t-85 -104q0 -27 17 -46t68 -54l51 -34q100 -67 100 -144q0 -87 -73.5 -137.5t-213.5 -50.5q-60 0 -112.5 15t-94.5 46t-66.5 83
t-24.5 120q0 101 45 236l49 -13q-39 -103 -39 -208q0 -103 71 -158.5t205 -55.5q95 0 144.5 33t49.5 84q0 24 -16.5 44t-60.5 50l-46 31q-65 45 -89 76.5t-24 74.5q0 92 93.5 152t273.5 80l53 -45q-25 -128 -25 -196q0 -83 49.5 -126t135.5 -43z" />
    <glyph glyph-name="uniFC8F" unicode="&#xfc8f;" horiz-adv-x="919" arabic-form="final" 
d="M771 662l-63 -63l-64 63l63 63zM919 65q10 0 10 -10v-44q0 -11 -10 -11q-114 0 -177 59.5t-63 180.5q0 59 22 168q-132 -7 -217 -53t-85 -104q0 -27 17 -46t68 -54l51 -34q100 -67 100 -144q0 -87 -73.5 -137.5t-213.5 -50.5q-60 0 -112.5 15t-94.5 46t-66.5 83
t-24.5 120q0 101 45 236l49 -13q-39 -103 -39 -208q0 -103 71 -158.5t205 -55.5q95 0 144.5 33t49.5 84q0 24 -16.5 44t-60.5 50l-46 31q-65 45 -89 76.5t-24 74.5q0 92 93.5 152t273.5 80l53 -45q-25 -128 -25 -196q0 -83 49.5 -126t135.5 -43zM271 -349l63 63l64 -63
l-64 -63zM418 -349l64 63l63 -63l-63 -63z" />
    <glyph glyph-name="uniFC91" unicode="&#xfc91;" horiz-adv-x="606" arabic-form="final" 
d="M606 65q10 0 10 -10v-44q0 -11 -10 -11q-85 0 -131 53t-46 151q0 89 20 189q-127 -64 -242 -82q19 -166 19 -282q0 -119 -67 -181.5t-179 -62.5v60q82 0 136 48t54 137q0 113 -29 327l10 12q90 8 156.5 29.5t145.5 60.5l58 -34q-26 -113 -26 -203q0 -86 27 -121.5
t94 -35.5zM247 -152l63 63l64 -63l-64 -63zM394 -152l64 63l63 -63l-63 -63z" />
    <glyph glyph-name="uniFC92" unicode="&#xfc92;" horiz-adv-x="606" arabic-form="final" 
d="M210 564l-63 -63l-64 63l63 63zM606 65q10 0 10 -10v-44q0 -11 -10 -11q-85 0 -131 53t-46 151q0 89 20 189q-127 -64 -242 -82q19 -166 19 -282q0 -119 -67 -181.5t-179 -62.5v60q82 0 136 48t54 137q0 113 -29 327l10 12q90 8 156.5 29.5t145.5 60.5l58 -34
q-26 -113 -26 -203q0 -86 27 -121.5t94 -35.5zM247 -152l63 63l64 -63l-64 -63zM394 -152l64 63l63 -63l-63 -63z" />
    <glyph glyph-name="uniFC94" unicode="&#xfc94;" horiz-adv-x="970" arabic-form="final" 
d="M385 470l-63 -63l-64 63l63 63zM970 65q10 0 10 -10v-44q0 -11 -10 -11q-85 0 -131 53t-46 151q0 89 20 189q-127 -64 -242 -82q15 -130 15 -212q0 -314 -273 -314q-120 0 -191.5 64.5t-71.5 199.5q0 101 45 236l49 -13q-39 -103 -39 -208q0 -106 51 -160t165 -54
q110 0 159.5 58.5t49.5 190.5q0 81 -25 258l10 12q90 8 156.5 29.5t145.5 60.5l58 -34q-26 -113 -26 -203q0 -86 27 -121.5t94 -35.5zM627 -152l63 63l64 -63l-64 -63zM774 -152l64 63l63 -63l-63 -63z" />
    <glyph glyph-name="uniFCCC" unicode="&#xfccc;" horiz-adv-x="295" arabic-form="initial" 
d="M315 -31l-27 -53q-76 20 -143 64q-74 20 -145 20q-10 0 -10 10v44q0 11 10 11q54 0 119 -12q-6 31 -6 89v583h60v-684q65 -20 142 -72z" />
    <glyph glyph-name="uniFCFB" unicode="&#xfcfb;" horiz-adv-x="1457" arabic-form="isolated" 
d="M1367 485q30 -206 30 -294q0 -91 -48 -141t-136 -50q-84 0 -178 55q-52 -55 -145 -55q-211 0 -211 240q0 59 22 168q-132 -7 -217 -53t-85 -104q0 -27 17 -46t68 -54l51 -34q100 -67 100 -144q0 -87 -73.5 -137.5t-213.5 -50.5q-60 0 -112.5 15t-94.5 46t-66.5 83
t-24.5 120q0 101 45 236l49 -13q-39 -103 -39 -208q0 -103 71 -158.5t205 -55.5q95 0 144.5 33t49.5 84q0 24 -16.5 44t-60.5 50l-46 31q-65 45 -89 76.5t-24 74.5q0 92 93.5 152t273.5 80l53 -45q-25 -128 -25 -196q0 -169 151 -169q56 0 83 13.5t43 43.5q17 31 23 83.5
t6 164.5h55q0 -189 -32 -269q75 -36 140 -36q139 0 139 123q0 59 -35 297h60z" />
    <glyph glyph-name="uniFCFC" unicode="&#xfcfc;" horiz-adv-x="1457" arabic-form="isolated" 
d="M1367 485q30 -206 30 -294q0 -91 -48 -141t-136 -50q-84 0 -178 55q-52 -55 -145 -55q-211 0 -211 240q0 59 22 168q-132 -7 -217 -53t-85 -104q0 -27 17 -46t68 -54l51 -34q100 -67 100 -144q0 -87 -73.5 -137.5t-213.5 -50.5q-60 0 -112.5 15t-94.5 46t-66.5 83
t-24.5 120q0 101 45 236l49 -13q-39 -103 -39 -208q0 -103 71 -158.5t205 -55.5q95 0 144.5 33t49.5 84q0 24 -16.5 44t-60.5 50l-46 31q-65 45 -89 76.5t-24 74.5q0 92 93.5 152t273.5 80l53 -45q-25 -128 -25 -196q0 -169 151 -169q56 0 83 13.5t43 43.5q17 31 23 83.5
t6 164.5h55q0 -189 -32 -269q75 -36 140 -36q139 0 139 123q0 59 -35 297h60zM271 -349l63 63l64 -63l-64 -63zM418 -349l64 63l63 -63l-63 -63z" />
    <glyph glyph-name="uniFCFD" unicode="&#xfcfd;" horiz-adv-x="1457" arabic-form="isolated" 
d="M1118 660l-50 -50l-51 50l50 51zM1046 548l-64 -63l-63 63l63 64zM1150 485l-64 63l64 64l63 -64zM1367 485q30 -206 30 -294q0 -91 -48 -141t-136 -50q-84 0 -178 55q-52 -55 -145 -55q-211 0 -211 240q0 59 22 168q-132 -7 -217 -53t-85 -104q0 -27 17 -46t68 -54
l51 -34q100 -67 100 -144q0 -87 -73.5 -137.5t-213.5 -50.5q-60 0 -112.5 15t-94.5 46t-66.5 83t-24.5 120q0 101 45 236l49 -13q-39 -103 -39 -208q0 -103 71 -158.5t205 -55.5q95 0 144.5 33t49.5 84q0 24 -16.5 44t-60.5 50l-46 31q-65 45 -89 76.5t-24 74.5
q0 92 93.5 152t273.5 80l53 -45q-25 -128 -25 -196q0 -169 151 -169q56 0 83 13.5t43 43.5q17 31 23 83.5t6 164.5h55q0 -189 -32 -269q75 -36 140 -36q139 0 139 123q0 59 -35 297h60z" />
    <glyph glyph-name="uniFCFE" unicode="&#xfcfe;" horiz-adv-x="1457" arabic-form="isolated" 
d="M1118 660l-50 -50l-51 50l50 51zM1046 548l-64 -63l-63 63l63 64zM1150 485l-64 63l64 64l63 -64zM1367 485q30 -206 30 -294q0 -91 -48 -141t-136 -50q-84 0 -178 55q-52 -55 -145 -55q-211 0 -211 240q0 59 22 168q-132 -7 -217 -53t-85 -104q0 -27 17 -46t68 -54
l51 -34q100 -67 100 -144q0 -87 -73.5 -137.5t-213.5 -50.5q-60 0 -112.5 15t-94.5 46t-66.5 83t-24.5 120q0 101 45 236l49 -13q-39 -103 -39 -208q0 -103 71 -158.5t205 -55.5q95 0 144.5 33t49.5 84q0 24 -16.5 44t-60.5 50l-46 31q-65 45 -89 76.5t-24 74.5
q0 92 93.5 152t273.5 80l53 -45q-25 -128 -25 -196q0 -169 151 -169q56 0 83 13.5t43 43.5q17 31 23 83.5t6 164.5h55q0 -189 -32 -269q75 -36 140 -36q139 0 139 123q0 59 -35 297h60zM271 -349l63 63l64 -63l-64 -63zM418 -349l64 63l63 -63l-63 -63z" />
    <glyph glyph-name="uniFD05" unicode="&#xfd05;" horiz-adv-x="1495" arabic-form="isolated" 
d="M1238 498q88 0 147.5 -60t59.5 -149q0 -132 -107.5 -210.5t-285.5 -78.5h-142q-231 0 -231 240q0 59 22 168q-132 -7 -217 -53t-85 -104q0 -27 17 -46t68 -54l51 -34q100 -67 100 -144q0 -87 -73.5 -137.5t-213.5 -50.5q-60 0 -112.5 15t-94.5 46t-66.5 83t-24.5 120
q0 101 45 236l49 -13q-39 -103 -39 -208q0 -103 71 -158.5t205 -55.5q95 0 144.5 33t49.5 84q0 24 -16.5 44t-60.5 50l-46 31q-65 45 -89 76.5t-24 74.5q0 92 93.5 152t273.5 80l53 -45q-25 -129 -25 -196q0 -95 46 -135q156 181 232 259.5t125 109t101 30.5zM1040 65
q157 0 250.5 57t93.5 156q0 66 -43.5 110.5t-107.5 44.5q-28 0 -55.5 -12t-55 -32.5t-71 -66.5t-86 -95t-117.5 -137q-11 -13 -16 -19q24 -6 54 -6h154z" />
    <glyph glyph-name="uniFD06" unicode="&#xfd06;" horiz-adv-x="1495" arabic-form="isolated" 
d="M1238 498q88 0 147.5 -60t59.5 -149q0 -132 -107.5 -210.5t-285.5 -78.5h-142q-231 0 -231 240q0 59 22 168q-132 -7 -217 -53t-85 -104q0 -27 17 -46t68 -54l51 -34q100 -67 100 -144q0 -87 -73.5 -137.5t-213.5 -50.5q-60 0 -112.5 15t-94.5 46t-66.5 83t-24.5 120
q0 101 45 236l49 -13q-39 -103 -39 -208q0 -103 71 -158.5t205 -55.5q95 0 144.5 33t49.5 84q0 24 -16.5 44t-60.5 50l-46 31q-65 45 -89 76.5t-24 74.5q0 92 93.5 152t273.5 80l53 -45q-25 -129 -25 -196q0 -95 46 -135q156 181 232 259.5t125 109t101 30.5zM1040 65
q157 0 250.5 57t93.5 156q0 66 -43.5 110.5t-107.5 44.5q-28 0 -55.5 -12t-55 -32.5t-71 -66.5t-86 -95t-117.5 -137q-11 -13 -16 -19q24 -6 54 -6h154zM271 -349l63 63l64 -63l-64 -63zM418 -349l64 63l63 -63l-63 -63z" />
    <glyph glyph-name="uniFD07" unicode="&#xfd07;" horiz-adv-x="1495" arabic-form="isolated" 
d="M1076 632l-63 -63l-64 63l63 63zM1238 498q88 0 147.5 -60t59.5 -149q0 -132 -107.5 -210.5t-285.5 -78.5h-142q-231 0 -231 240q0 59 22 168q-132 -7 -217 -53t-85 -104q0 -27 17 -46t68 -54l51 -34q100 -67 100 -144q0 -87 -73.5 -137.5t-213.5 -50.5q-60 0 -112.5 15
t-94.5 46t-66.5 83t-24.5 120q0 101 45 236l49 -13q-39 -103 -39 -208q0 -103 71 -158.5t205 -55.5q95 0 144.5 33t49.5 84q0 24 -16.5 44t-60.5 50l-46 31q-65 45 -89 76.5t-24 74.5q0 92 93.5 152t273.5 80l53 -45q-25 -129 -25 -196q0 -95 46 -135q156 181 232 259.5
t125 109t101 30.5zM1040 65q157 0 250.5 57t93.5 156q0 66 -43.5 110.5t-107.5 44.5q-28 0 -55.5 -12t-55 -32.5t-71 -66.5t-86 -95t-117.5 -137q-11 -13 -16 -19q24 -6 54 -6h154z" />
    <glyph glyph-name="uniFD08" unicode="&#xfd08;" horiz-adv-x="1495" arabic-form="isolated" 
d="M1076 632l-63 -63l-64 63l63 63zM1238 498q88 0 147.5 -60t59.5 -149q0 -132 -107.5 -210.5t-285.5 -78.5h-142q-231 0 -231 240q0 59 22 168q-132 -7 -217 -53t-85 -104q0 -27 17 -46t68 -54l51 -34q100 -67 100 -144q0 -87 -73.5 -137.5t-213.5 -50.5q-60 0 -112.5 15
t-94.5 46t-66.5 83t-24.5 120q0 101 45 236l49 -13q-39 -103 -39 -208q0 -103 71 -158.5t205 -55.5q95 0 144.5 33t49.5 84q0 24 -16.5 44t-60.5 50l-46 31q-65 45 -89 76.5t-24 74.5q0 92 93.5 152t273.5 80l53 -45q-25 -129 -25 -196q0 -95 46 -135q156 181 232 259.5
t125 109t101 30.5zM1040 65q157 0 250.5 57t93.5 156q0 66 -43.5 110.5t-107.5 44.5q-28 0 -55.5 -12t-55 -32.5t-71 -66.5t-86 -95t-117.5 -137q-11 -13 -16 -19q24 -6 54 -6h154zM271 -349l63 63l64 -63l-64 -63zM418 -349l64 63l63 -63l-63 -63z" />
    <glyph glyph-name="uniFD0D" unicode="&#xfd0d;" horiz-adv-x="1215" arabic-form="isolated" 
d="M873 660l-50 -50l-51 50l50 51zM801 548l-64 -63l-63 63l63 64zM905 485l-64 63l64 64l63 -64zM1125 485q30 -206 30 -294q0 -91 -48 -141t-136 -50q-84 0 -178 55q-50 -55 -135 -55q-111 0 -166 58.5t-55 181.5q0 47 13 122q-174 -41 -241 -71q17 -143 17 -262
t-67 -181.5t-179 -62.5v60q82 0 136 48t54 137q0 104 -21 275l46 46q139 45 265 67l16 77l54 -10q-38 -155 -38 -251q0 -169 156 -169q51 0 78 14t43 43q17 31 23 83.5t6 164.5h55q0 -189 -32 -269q75 -36 140 -36q139 0 139 123q0 59 -35 297h60z" />
    <glyph glyph-name="uniFD0E" unicode="&#xfd0e;" horiz-adv-x="1215" arabic-form="isolated" 
d="M1125 485q30 -206 30 -294q0 -91 -48 -141t-136 -50q-84 0 -178 55q-50 -55 -135 -55q-111 0 -166 58.5t-55 181.5q0 47 13 122q-174 -41 -241 -71q17 -143 17 -262t-67 -181.5t-179 -62.5v60q82 0 136 48t54 137q0 104 -21 275l46 46q139 45 265 67l16 77l54 -10
q-38 -155 -38 -251q0 -169 156 -169q51 0 78 14t43 43q17 31 23 83.5t6 164.5h55q0 -189 -32 -269q75 -36 140 -36q139 0 139 123q0 59 -35 297h60z" />
    <glyph glyph-name="uniFD0F" unicode="&#xfd0f;" horiz-adv-x="1253" arabic-form="isolated" 
d="M996 498q88 0 147.5 -60t59.5 -149q0 -132 -107.5 -210.5t-285.5 -78.5h-142q-231 0 -231 240q0 47 13 122q-174 -41 -241 -71q17 -143 17 -262t-67 -181.5t-179 -62.5v60q82 0 136 48t54 137q0 104 -21 275l46 46q139 45 265 67l16 77l54 -10q-38 -155 -38 -251
q0 -95 46 -135q156 181 232 259.5t125 109t101 30.5zM798 65q157 0 250.5 57t93.5 156q0 66 -43.5 110.5t-107.5 44.5q-28 0 -55.5 -12t-55 -32.5t-71 -66.5t-86 -95t-117.5 -137q-11 -13 -16 -19q24 -6 54 -6h154z" />
    <glyph glyph-name="uniFD10" unicode="&#xfd10;" horiz-adv-x="1253" arabic-form="isolated" 
d="M824 626l-63 -63l-64 63l63 63zM996 498q88 0 147.5 -60t59.5 -149q0 -132 -107.5 -210.5t-285.5 -78.5h-142q-231 0 -231 240q0 47 13 122q-174 -41 -241 -71q17 -143 17 -262t-67 -181.5t-179 -62.5v60q82 0 136 48t54 137q0 104 -21 275l46 46q139 45 265 67l16 77
l54 -10q-38 -155 -38 -251q0 -95 46 -135q156 181 232 259.5t125 109t101 30.5zM798 65q157 0 250.5 57t93.5 156q0 66 -43.5 110.5t-107.5 44.5q-28 0 -55.5 -12t-55 -32.5t-71 -66.5t-86 -95t-117.5 -137q-11 -13 -16 -19q24 -6 54 -6h154z" />
    <glyph glyph-name="uniFD17" unicode="&#xfd17;" horiz-adv-x="1501" arabic-form="final" 
d="M1505 65q10 0 10 -10v-44q0 -11 -10 -11q-89 0 -168 66q-23 -30 -61 -48t-83 -18q-85 0 -169 46q-51 -46 -134 -46q-211 0 -211 240q0 59 22 168q-132 -7 -217 -53t-85 -104q0 -27 17 -46t68 -54l51 -34q100 -67 100 -144q0 -87 -73.5 -137.5t-213.5 -50.5
q-60 0 -112.5 15t-94.5 46t-66.5 83t-24.5 120q0 101 45 236l49 -13q-39 -103 -39 -208q0 -103 71 -158.5t205 -55.5q95 0 144.5 33t49.5 84q0 24 -16.5 44t-60.5 50l-46 31q-65 45 -89 76.5t-24 74.5q0 92 93.5 152t273.5 80l53 -45q-25 -128 -25 -196q0 -169 151 -169
q56 0 83 13.5t43 43.5q17 31 23 83.5t6 164.5h55q0 -198 -36 -279q64 -26 124 -26q51 0 78 14t43 43q17 31 23 83.5t6 164.5v70h55v-70q0 -174 -26 -253q34 -29 65.5 -40.5t77.5 -11.5z" />
    <glyph glyph-name="uniFD18" unicode="&#xfd18;" horiz-adv-x="1501" arabic-form="final" 
d="M1505 65q10 0 10 -10v-44q0 -11 -10 -11q-89 0 -168 66q-23 -30 -61 -48t-83 -18q-85 0 -169 46q-51 -46 -134 -46q-211 0 -211 240q0 59 22 168q-132 -7 -217 -53t-85 -104q0 -27 17 -46t68 -54l51 -34q100 -67 100 -144q0 -87 -73.5 -137.5t-213.5 -50.5
q-60 0 -112.5 15t-94.5 46t-66.5 83t-24.5 120q0 101 45 236l49 -13q-39 -103 -39 -208q0 -103 71 -158.5t205 -55.5q95 0 144.5 33t49.5 84q0 24 -16.5 44t-60.5 50l-46 31q-65 45 -89 76.5t-24 74.5q0 92 93.5 152t273.5 80l53 -45q-25 -128 -25 -196q0 -169 151 -169
q56 0 83 13.5t43 43.5q17 31 23 83.5t6 164.5h55q0 -198 -36 -279q64 -26 124 -26q51 0 78 14t43 43q17 31 23 83.5t6 164.5v70h55v-70q0 -174 -26 -253q34 -29 65.5 -40.5t77.5 -11.5zM271 -349l63 63l64 -63l-64 -63zM418 -349l64 63l63 -63l-63 -63z" />
    <glyph glyph-name="uniFD19" unicode="&#xfd19;" horiz-adv-x="1501" arabic-form="final" 
d="M1113 660l-50 -50l-51 50l50 51zM1041 548l-64 -63l-63 63l63 64zM1145 485l-64 63l64 64l63 -64zM1505 65q10 0 10 -10v-44q0 -11 -10 -11q-89 0 -168 66q-23 -30 -61 -48t-83 -18q-85 0 -169 46q-51 -46 -134 -46q-211 0 -211 240q0 59 22 168q-132 -7 -217 -53
t-85 -104q0 -27 17 -46t68 -54l51 -34q100 -67 100 -144q0 -87 -73.5 -137.5t-213.5 -50.5q-60 0 -112.5 15t-94.5 46t-66.5 83t-24.5 120q0 101 45 236l49 -13q-39 -103 -39 -208q0 -103 71 -158.5t205 -55.5q95 0 144.5 33t49.5 84q0 24 -16.5 44t-60.5 50l-46 31
q-65 45 -89 76.5t-24 74.5q0 92 93.5 152t273.5 80l53 -45q-25 -128 -25 -196q0 -169 151 -169q56 0 83 13.5t43 43.5q17 31 23 83.5t6 164.5h55q0 -198 -36 -279q64 -26 124 -26q51 0 78 14t43 43q17 31 23 83.5t6 164.5v70h55v-70q0 -174 -26 -253q34 -29 65.5 -40.5
t77.5 -11.5z" />
    <glyph glyph-name="uniFD1A" unicode="&#xfd1a;" horiz-adv-x="1501" arabic-form="final" 
d="M1113 660l-50 -50l-51 50l50 51zM1041 548l-64 -63l-63 63l63 64zM1145 485l-64 63l64 64l63 -64zM1505 65q10 0 10 -10v-44q0 -11 -10 -11q-89 0 -168 66q-23 -30 -61 -48t-83 -18q-85 0 -169 46q-51 -46 -134 -46q-211 0 -211 240q0 59 22 168q-132 -7 -217 -53
t-85 -104q0 -27 17 -46t68 -54l51 -34q100 -67 100 -144q0 -87 -73.5 -137.5t-213.5 -50.5q-60 0 -112.5 15t-94.5 46t-66.5 83t-24.5 120q0 101 45 236l49 -13q-39 -103 -39 -208q0 -103 71 -158.5t205 -55.5q95 0 144.5 33t49.5 84q0 24 -16.5 44t-60.5 50l-46 31
q-65 45 -89 76.5t-24 74.5q0 92 93.5 152t273.5 80l53 -45q-25 -128 -25 -196q0 -169 151 -169q56 0 83 13.5t43 43.5q17 31 23 83.5t6 164.5h55q0 -198 -36 -279q64 -26 124 -26q51 0 78 14t43 43q17 31 23 83.5t6 164.5v70h55v-70q0 -174 -26 -253q34 -29 65.5 -40.5
t77.5 -11.5zM271 -349l63 63l64 -63l-64 -63zM418 -349l64 63l63 -63l-63 -63z" />
    <glyph glyph-name="uniFD21" unicode="&#xfd21;" horiz-adv-x="1512" arabic-form="final" 
d="M1512 65q10 0 10 -10v-44q0 -11 -10 -11q-52 0 -93 17.5t-86 58.5q-105 -76 -281 -76h-142q-231 0 -231 240q0 59 22 168q-132 -7 -217 -53t-85 -104q0 -27 17 -46t68 -54l51 -34q100 -67 100 -144q0 -87 -73.5 -137.5t-213.5 -50.5q-60 0 -112.5 15t-94.5 46t-66.5 83
t-24.5 120q0 101 45 236l49 -13q-39 -103 -39 -208q0 -103 71 -158.5t205 -55.5q95 0 144.5 33t49.5 84q0 24 -16.5 44t-60.5 50l-46 31q-65 45 -89 76.5t-24 74.5q0 92 93.5 152t273.5 80l53 -45q-25 -129 -25 -196q0 -95 46 -135q156 181 232 259.5t125 109t101 30.5
q88 0 147.5 -60t59.5 -149q0 -104 -70 -177q32 -26 62.5 -36.5t74.5 -10.5zM1040 65q157 0 250.5 57t93.5 156q0 66 -43.5 110.5t-107.5 44.5q-28 0 -55.5 -12t-55 -32.5t-71 -66.5t-86 -95t-117.5 -137q-11 -13 -16 -19q24 -6 54 -6h154z" />
    <glyph glyph-name="uniFD22" unicode="&#xfd22;" horiz-adv-x="1512" arabic-form="final" 
d="M1512 65q10 0 10 -10v-44q0 -11 -10 -11q-52 0 -93 17.5t-86 58.5q-105 -76 -281 -76h-142q-231 0 -231 240q0 59 22 168q-132 -7 -217 -53t-85 -104q0 -27 17 -46t68 -54l51 -34q100 -67 100 -144q0 -87 -73.5 -137.5t-213.5 -50.5q-60 0 -112.5 15t-94.5 46t-66.5 83
t-24.5 120q0 101 45 236l49 -13q-39 -103 -39 -208q0 -103 71 -158.5t205 -55.5q95 0 144.5 33t49.5 84q0 24 -16.5 44t-60.5 50l-46 31q-65 45 -89 76.5t-24 74.5q0 92 93.5 152t273.5 80l53 -45q-25 -129 -25 -196q0 -95 46 -135q156 181 232 259.5t125 109t101 30.5
q88 0 147.5 -60t59.5 -149q0 -104 -70 -177q32 -26 62.5 -36.5t74.5 -10.5zM1040 65q157 0 250.5 57t93.5 156q0 66 -43.5 110.5t-107.5 44.5q-28 0 -55.5 -12t-55 -32.5t-71 -66.5t-86 -95t-117.5 -137q-11 -13 -16 -19q24 -6 54 -6h154zM271 -349l63 63l64 -63l-64 -63z
M418 -349l64 63l63 -63l-63 -63z" />
    <glyph glyph-name="uniFD23" unicode="&#xfd23;" horiz-adv-x="1512" arabic-form="final" 
d="M1076 632l-63 -63l-64 63l63 63zM1512 65q10 0 10 -10v-44q0 -11 -10 -11q-52 0 -93 17.5t-86 58.5q-105 -76 -281 -76h-142q-231 0 -231 240q0 59 22 168q-132 -7 -217 -53t-85 -104q0 -27 17 -46t68 -54l51 -34q100 -67 100 -144q0 -87 -73.5 -137.5t-213.5 -50.5
q-60 0 -112.5 15t-94.5 46t-66.5 83t-24.5 120q0 101 45 236l49 -13q-39 -103 -39 -208q0 -103 71 -158.5t205 -55.5q95 0 144.5 33t49.5 84q0 24 -16.5 44t-60.5 50l-46 31q-65 45 -89 76.5t-24 74.5q0 92 93.5 152t273.5 80l53 -45q-25 -129 -25 -196q0 -95 46 -135
q156 181 232 259.5t125 109t101 30.5q88 0 147.5 -60t59.5 -149q0 -104 -70 -177q32 -26 62.5 -36.5t74.5 -10.5zM1040 65q157 0 250.5 57t93.5 156q0 66 -43.5 110.5t-107.5 44.5q-28 0 -55.5 -12t-55 -32.5t-71 -66.5t-86 -95t-117.5 -137q-11 -13 -16 -19q24 -6 54 -6
h154z" />
    <glyph glyph-name="uniFD24" unicode="&#xfd24;" horiz-adv-x="1512" arabic-form="final" 
d="M1076 632l-63 -63l-64 63l63 63zM1512 65q10 0 10 -10v-44q0 -11 -10 -11q-52 0 -93 17.5t-86 58.5q-105 -76 -281 -76h-142q-231 0 -231 240q0 59 22 168q-132 -7 -217 -53t-85 -104q0 -27 17 -46t68 -54l51 -34q100 -67 100 -144q0 -87 -73.5 -137.5t-213.5 -50.5
q-60 0 -112.5 15t-94.5 46t-66.5 83t-24.5 120q0 101 45 236l49 -13q-39 -103 -39 -208q0 -103 71 -158.5t205 -55.5q95 0 144.5 33t49.5 84q0 24 -16.5 44t-60.5 50l-46 31q-65 45 -89 76.5t-24 74.5q0 92 93.5 152t273.5 80l53 -45q-25 -129 -25 -196q0 -95 46 -135
q156 181 232 259.5t125 109t101 30.5q88 0 147.5 -60t59.5 -149q0 -104 -70 -177q32 -26 62.5 -36.5t74.5 -10.5zM1040 65q157 0 250.5 57t93.5 156q0 66 -43.5 110.5t-107.5 44.5q-28 0 -55.5 -12t-55 -32.5t-71 -66.5t-86 -95t-117.5 -137q-11 -13 -16 -19q24 -6 54 -6
h154zM271 -349l63 63l64 -63l-64 -63zM418 -349l64 63l63 -63l-63 -63z" />
    <glyph glyph-name="uniFD29" unicode="&#xfd29;" horiz-adv-x="1267" arabic-form="final" 
d="M873 660l-50 -50l-51 50l50 51zM801 548l-64 -63l-63 63l63 64zM905 485l-64 63l64 64l63 -64zM1267 65q10 0 10 -10v-44q0 -11 -10 -11q-89 0 -168 66q-23 -30 -61 -48t-83 -18q-86 0 -171 47q-50 -47 -126 -47q-111 0 -166 58.5t-55 181.5q0 47 13 122
q-174 -41 -241 -71q17 -143 17 -262t-67 -181.5t-179 -62.5v60q82 0 136 48t54 137q0 104 -21 275l46 46q139 45 265 67l16 77l54 -10q-38 -155 -38 -251q0 -169 156 -169q51 0 78 14t43 43q17 31 23 83.5t6 164.5h55q0 -198 -36 -277q67 -28 128 -28q51 0 78 14t43 43
q17 31 23 83.5t6 164.5v70h55v-70q0 -174 -26 -253q34 -29 65.5 -40.5t77.5 -11.5z" />
    <glyph glyph-name="uniFD2A" unicode="&#xfd2a;" horiz-adv-x="1267" arabic-form="final" 
d="M1267 65q10 0 10 -10v-44q0 -11 -10 -11q-89 0 -168 66q-23 -30 -61 -48t-83 -18q-86 0 -171 47q-50 -47 -126 -47q-111 0 -166 58.5t-55 181.5q0 47 13 122q-174 -41 -241 -71q17 -143 17 -262t-67 -181.5t-179 -62.5v60q82 0 136 48t54 137q0 104 -21 275l46 46
q139 45 265 67l16 77l54 -10q-38 -155 -38 -251q0 -169 156 -169q51 0 78 14t43 43q17 31 23 83.5t6 164.5h55q0 -198 -36 -277q67 -28 128 -28q51 0 78 14t43 43q17 31 23 83.5t6 164.5v70h55v-70q0 -174 -26 -253q34 -29 65.5 -40.5t77.5 -11.5z" />
    <glyph glyph-name="uniFD2B" unicode="&#xfd2b;" horiz-adv-x="1262" arabic-form="final" 
d="M1262 65q10 0 10 -10v-44q0 -11 -10 -11q-51 0 -91 17t-84 56q-106 -73 -277 -73h-142q-231 0 -231 240q0 47 13 122q-174 -41 -241 -71q17 -143 17 -262t-67 -181.5t-179 -62.5v60q82 0 136 48t54 137q0 104 -21 275l46 46q139 45 265 67l16 77l54 -10
q-38 -155 -38 -251q0 -95 46 -135q156 181 232 259.5t125 109t101 30.5q88 0 147.5 -60t59.5 -149q0 -108 -73 -181q55 -43 132 -43zM798 65q157 0 250.5 57t93.5 156q0 66 -43.5 110.5t-107.5 44.5q-28 0 -55.5 -12t-55 -32.5t-71 -66.5t-86 -95t-117.5 -137
q-11 -13 -16 -19q24 -6 54 -6h154z" />
    <glyph glyph-name="uniFD2C" unicode="&#xfd2c;" horiz-adv-x="1262" arabic-form="final" 
d="M824 626l-63 -63l-64 63l63 63zM1262 65q10 0 10 -10v-44q0 -11 -10 -11q-51 0 -91 17t-84 56q-106 -73 -277 -73h-142q-231 0 -231 240q0 47 13 122q-174 -41 -241 -71q17 -143 17 -262t-67 -181.5t-179 -62.5v60q82 0 136 48t54 137q0 104 -21 275l46 46q139 45 265 67
l16 77l54 -10q-38 -155 -38 -251q0 -95 46 -135q156 181 232 259.5t125 109t101 30.5q88 0 147.5 -60t59.5 -149q0 -108 -73 -181q55 -43 132 -43zM798 65q157 0 250.5 57t93.5 156q0 66 -43.5 110.5t-107.5 44.5q-28 0 -55.5 -12t-55 -32.5t-71 -66.5t-86 -95t-117.5 -137
q-11 -13 -16 -19q24 -6 54 -6h154z" />
    <glyph glyph-name="uniFE82" unicode="&#x622;" horiz-adv-x="284" arabic-form="final" 
d="M48 749q22 0 61 -18.5t62 -18.5q46 0 80 26l-1 -56q-33 -25 -77 -25q-24 0 -59 18.5t-54 18.5t-32 -10.5t-16 -28.5h-50q0 37 22.5 65.5t63.5 28.5zM150 600v-412q0 -62 32.5 -92.5t101.5 -30.5q10 0 10 -10v-44q0 -11 -10 -11q-194 0 -194 191v409h60z" />
    <glyph glyph-name="uniFE84" unicode="&#x623;" horiz-adv-x="284" arabic-form="final" 
d="M244 705l-15 -50h-157q-34 0 -75 -12v48q38 14 73 14q-24 23 -24 57q0 39 26 63t65 24q26 0 69 -19v-50q-36 14 -61 14q-22 0 -35 -12t-13 -31t14 -32.5t34 -13.5h99zM284 65q10 0 10 -10v-44q0 -11 -10 -11q-194 0 -194 191v409h60v-412q0 -62 32.5 -92.5t101.5 -30.5z
" />
    <glyph glyph-name="uniFE86" unicode="&#x624;" horiz-adv-x="516" arabic-form="final" 
d="M353 579h-117q-48 0 -106 -17v52q47 17 65 19q-22 23 -22 52q0 38 26.5 63.5t66.5 25.5q38 0 72 -18v-50q-39 13 -65 13q-22 0 -36 -11t-14 -31q0 -19 16.5 -31t41.5 -12h89zM516 65q10 0 10 -10v-44q0 -11 -10 -11h-64q-10 -105 -98.5 -160t-238.5 -55v60
q125 0 196 39.5t83 115.5h-90q-122 0 -188 58.5t-66 168.5q0 103 57 170.5t152 67.5q79 0 128.5 -55.5t54.5 -147.5q1 -16 5 -89t5 -108h64zM301 65h95q-1 31 -6 104t-6 83q-4 69 -40 108.5t-93 39.5q-65 0 -103 -48t-38 -121q0 -79 50 -122.5t141 -43.5z" />
    <glyph glyph-name="uniFE88" unicode="&#x625;" horiz-adv-x="284" arabic-form="final" 
d="M284 65q10 0 10 -10v-44q0 -11 -10 -11q-194 0 -194 191v534h60v-537q0 -62 32.5 -92.5t101.5 -30.5zM101 -149q0 -19 14 -32.5t34 -13.5h99l-15 -50h-157q-34 0 -75 -12v48q39 14 73 14q-24 23 -24 57q0 39 26 63t65 24q26 0 69 -19v-50q-36 14 -61 14q-22 0 -35 -12
t-13 -31z" />
    <glyph glyph-name="uniFE8A" unicode="&#x626;" horiz-adv-x="682" arabic-form="final" 
d="M590 239h-117q-48 0 -106 -17v52q47 17 65 19q-22 23 -22 52q0 38 26.5 63.5t66.5 25.5q37 0 72 -18v-50q-39 13 -65 13q-22 0 -36 -11t-14 -31q0 -19 16.5 -31t41.5 -12h89zM682 65q10 0 10 -10v-44q0 -11 -10 -11h-15q-102 -215 -328 -215q-289 0 -289 264
q0 101 45 236l49 -13q-39 -103 -39 -208q0 -109 59 -161.5t186 -52.5q182 0 260 157q-58 8 -119 27v60q119 -29 191 -29z" />
    <glyph glyph-name="uniFE8B" unicode="&#x626;" horiz-adv-x="352" arabic-form="initial" 
d="M233 594h89l-17 -55h-117q-48 0 -106 -17v52q47 17 65 19q-22 23 -22 52q0 38 26.5 63.5t66.5 25.5q37 0 72 -18v-50q-39 13 -65 13q-22 0 -36 -11t-14 -31q0 -19 16.5 -31t41.5 -12zM179 485h60q30 -206 30 -294q0 -191 -194 -191h-75q-10 0 -10 11v44q0 10 10 10h75
q139 0 139 123q0 59 -35 297z" />
    <glyph glyph-name="uniFE8C" unicode="&#x626;" horiz-adv-x="370" arabic-form="medial" 
d="M292 441h-117q-48 0 -106 -17v52q47 17 65 19q-22 23 -22 52q0 38 26.5 63.5t66.5 25.5q37 0 72 -18v-50q-39 13 -65 13q-22 0 -36 -11t-14 -31q0 -19 16.5 -31t41.5 -12h89zM370 65q10 0 10 -10v-44q0 -11 -10 -11q-104 0 -191 80q-55 -80 -179 -80q-10 0 -10 11v44
q0 10 10 10q107 0 138 58q17 30 23 79.5t6 167.5h55q0 -167 -20 -237q79 -68 168 -68z" />
    <glyph glyph-name="uniFE8E" unicode="&#x627;" horiz-adv-x="284" arabic-form="final" 
d="M150 725v-537q0 -62 32.5 -92.5t101.5 -30.5q10 0 10 -10v-44q0 -11 -10 -11q-194 0 -194 191v534h60z" />
    <glyph glyph-name="uniFE90" unicode="&#x628;" horiz-adv-x="842" arabic-form="final" 
d="M842 65q10 0 10 -10v-44q0 -11 -10 -11q-87 0 -161 60q-47 -57 -133 -60h-1h-257q-114 0 -177 54.5t-63 157.5q0 89 34 228l54 -10q-28 -131 -28 -202q0 -85 47 -124t146 -39h239q79 0 111 57q17 31 23 83.5t6 164.5h55q0 -180 -29 -261q58 -44 134 -44zM356 -151l63 63
l64 -63l-63 -63z" />
    <glyph glyph-name="uniFE91" unicode="&#x628;" horiz-adv-x="254" arabic-form="initial" 
d="M164 485q30 -206 30 -294q0 -191 -194 -191q-10 0 -10 11v44q0 10 10 10q139 0 139 123q0 59 -35 297h60zM93 -90l64 -63l-63 -63l-64 63z" />
    <glyph glyph-name="uniFE92" unicode="&#x628;" horiz-adv-x="300" arabic-form="medial" 
d="M300 65q10 0 10 -10v-44q0 -11 -10 -11q-87 0 -161 60q-49 -60 -139 -60q-10 0 -10 11v44q0 10 10 10q79 0 111 57q17 31 23 83.5t6 164.5h55q0 -180 -29 -261q58 -44 134 -44zM77 -156l63 63l64 -63l-63 -63z" />
    <glyph glyph-name="uniFE94" unicode="&#x629;" horiz-adv-x="537" arabic-form="final" 
d="M348 686l-64 -63l-63 63l63 63zM495 686l-63 -63l-64 63l64 63zM537 65q10 0 10 -10v-44q0 -11 -10 -11q-85 0 -125 48q-91 -48 -167 -48q-90 0 -142.5 49t-52.5 132q0 44 16.5 86.5t52.5 84t102.5 72t155.5 41.5v73h60v-370q0 -53 23 -78t77 -25zM247 65q75 0 140 31
q-10 30 -10 73v239q-119 -14 -193 -74.5t-74 -147.5q0 -58 36 -89.5t101 -31.5z" />
    <glyph glyph-name="uniFE96" unicode="&#x62a;" horiz-adv-x="842" arabic-form="final" 
d="M442 529l-64 -63l-63 63l63 63zM589 529l-63 -63l-64 63l64 63zM842 65q10 0 10 -10v-44q0 -11 -10 -11q-87 0 -161 60q-47 -57 -133 -60h-1h-257q-114 0 -177 54.5t-63 157.5q0 89 34 228l54 -10q-28 -131 -28 -202q0 -85 47 -124t146 -39h239q79 0 111 57
q17 31 23 83.5t6 164.5h55q0 -180 -29 -261q58 -44 134 -44z" />
    <glyph glyph-name="uniFE97" unicode="&#x62a;" horiz-adv-x="364" arabic-form="initial" 
d="M123 700l64 -63l-64 -63l-63 63zM271 700l63 -63l-63 -63l-64 63zM239 485q30 -206 30 -294q0 -191 -194 -191h-75q-10 0 -10 11v44q0 10 10 10h75q139 0 139 123q0 59 -35 297h60z" />
    <glyph glyph-name="uniFE98" unicode="&#x62a;" horiz-adv-x="370" arabic-form="medial" 
d="M181 527l-64 -63l-63 63l63 63zM328 527l-63 -63l-64 63l64 63zM370 65q10 0 10 -10v-44q0 -11 -10 -11q-104 0 -191 80q-55 -80 -179 -80q-10 0 -10 11v44q0 10 10 10q107 0 138 58q17 30 23 79.5t6 167.5h55q0 -167 -20 -237q79 -68 168 -68z" />
    <glyph glyph-name="uniFE9A" unicode="&#x62b;" horiz-adv-x="842" arabic-form="final" 
d="M500 640l-50 -50l-51 50l50 51zM428 528l-64 -63l-63 63l63 64zM532 465l-64 63l64 64l63 -64zM842 65q10 0 10 -10v-44q0 -11 -10 -11q-87 0 -161 60q-47 -57 -133 -60h-1h-257q-114 0 -177 54.5t-63 157.5q0 89 34 228l54 -10q-28 -131 -28 -202q0 -85 47 -124t146 -39
h239q79 0 111 57q17 31 23 83.5t6 164.5h55q0 -180 -29 -261q58 -44 134 -44z" />
    <glyph glyph-name="uniFE9B" unicode="&#x62b;" horiz-adv-x="373" arabic-form="initial" 
d="M197 805l51 -51l-50 -50l-51 50zM112 706l64 -64l-64 -63l-63 63zM280 706l63 -64l-63 -63l-64 63zM239 485q30 -206 30 -294q0 -191 -194 -191h-75q-10 0 -10 11v44q0 10 10 10h75q139 0 139 123q0 59 -35 297h60z" />
    <glyph glyph-name="uniFE9C" unicode="&#x62b;" horiz-adv-x="370" arabic-form="medial" 
d="M246 640l-50 -50l-51 50l50 51zM174 528l-64 -63l-63 63l63 64zM278 465l-64 63l64 64l63 -64zM370 65q10 0 10 -10v-44q0 -11 -10 -11q-104 0 -191 80q-55 -80 -179 -80q-10 0 -10 11v44q0 10 10 10q107 0 138 58q17 30 23 79.5t6 167.5h55q0 -167 -20 -237
q79 -68 168 -68z" />
    <glyph glyph-name="uniFE9E" unicode="&#x62c;" horiz-adv-x="651" arabic-form="final" 
d="M651 65q10 0 10 -10v-44q0 -11 -10 -11q-85 0 -131.5 37t-46.5 104v83q-173 -21 -267.5 -99t-94.5 -175q0 -80 61 -120t170 -40q90 0 210 35l17 -53q-137 -47 -237 -47q-134 0 -208 56t-74 168q0 42 13.5 82.5t47 82.5t83.5 75t128.5 57.5t176.5 32.5q-48 27 -96.5 65.5
t-77 64.5t-63.5 45t-67 19q-45 0 -110 -22l-17 52q72 35 132 35q34 0 66.5 -15t66 -42t68.5 -57.5t88.5 -67t112.5 -64.5l-16 -61q-23 0 -63 -2v-79q0 -85 128 -85zM359 -57l-64 63l63 63l64 -63z" />
    <glyph glyph-name="uniFE9F" unicode="&#x62c;" horiz-adv-x="607" arabic-form="initial" 
d="M189 465q41 0 82 -21.5t75 -52t97 -73.5t134 -75l-16 -61q-64 -14 -119 -38.5t-93.5 -48t-83 -46t-110.5 -36t-154 -13.5q-11 0 -11 11v44q0 10 11 10q92 0 165 17.5t114 39.5t100 52t111 46q-64 32 -124.5 80t-100.5 74t-82 26q-45 0 -110 -22l-17 52q72 35 132 35z
M201 -150l63 63l64 -63l-63 -63z" />
    <glyph glyph-name="uniFEA0" unicode="&#x62c;" horiz-adv-x="631" arabic-form="medial" 
d="M631 65q10 0 10 -10v-44q0 -11 -10 -11q-85 0 -124.5 39t-39.5 102v14q-45 -17 -99.5 -48.5t-92.5 -52.5t-109.5 -37.5t-164.5 -16.5q-11 0 -11 11v44q0 10 11 10q92 0 165 17.5t114 39.5t100 52t111 46q-64 32 -124.5 80t-100.5 74t-82 26q-45 0 -110 -22l-17 52
q72 35 132 35q41 0 82 -21.5t75 -52t97 -73.5t134 -75l-16 -61q-16 -3 -44 -11v-26q0 -80 114 -80zM201 -150l63 63l64 -63l-63 -63z" />
    <glyph glyph-name="uniFEA2" unicode="&#x62d;" horiz-adv-x="651" arabic-form="final" 
d="M651 65q10 0 10 -10v-44q0 -11 -10 -11q-85 0 -131.5 37t-46.5 104v83q-173 -21 -267.5 -99t-94.5 -175q0 -80 61 -120t170 -40q90 0 210 35l17 -53q-137 -47 -237 -47q-134 0 -208 56t-74 168q0 42 13.5 82.5t47 82.5t83.5 75t128.5 57.5t176.5 32.5q-48 27 -96.5 65.5
t-77 64.5t-63.5 45t-67 19q-45 0 -110 -22l-17 52q72 35 132 35q34 0 66.5 -15t66 -42t68.5 -57.5t88.5 -67t112.5 -64.5l-16 -61q-23 0 -63 -2v-79q0 -85 128 -85z" />
    <glyph glyph-name="uniFEA3" unicode="&#x62d;" horiz-adv-x="607" arabic-form="initial" 
d="M189 465q41 0 82 -21.5t75 -52t97 -73.5t134 -75l-16 -61q-64 -14 -119 -38.5t-93.5 -48t-83 -46t-110.5 -36t-154 -13.5q-11 0 -11 11v44q0 10 11 10q92 0 165 17.5t114 39.5t100 52t111 46q-64 32 -124.5 80t-100.5 74t-82 26q-45 0 -110 -22l-17 52q72 35 132 35z" />
    <glyph glyph-name="uniFEA4" unicode="&#x62d;" horiz-adv-x="631" arabic-form="medial" 
d="M631 65q10 0 10 -10v-44q0 -11 -10 -11q-85 0 -124.5 39t-39.5 102v14q-45 -17 -99.5 -48.5t-92.5 -52.5t-109.5 -37.5t-164.5 -16.5q-11 0 -11 11v44q0 10 11 10q92 0 165 17.5t114 39.5t100 52t111 46q-64 32 -124.5 80t-100.5 74t-82 26q-45 0 -110 -22l-17 52
q72 35 132 35q41 0 82 -21.5t75 -52t97 -73.5t134 -75l-16 -61q-16 -3 -44 -11v-26q0 -80 114 -80z" />
    <glyph glyph-name="uniFEA6" unicode="&#x62e;" horiz-adv-x="651" arabic-form="final" 
d="M489 626l-63 -63l-64 63l63 63zM651 65q10 0 10 -10v-44q0 -11 -10 -11q-85 0 -131.5 37t-46.5 104v83q-173 -21 -267.5 -99t-94.5 -175q0 -80 61 -120t170 -40q90 0 210 35l17 -53q-137 -47 -237 -47q-134 0 -208 56t-74 168q0 42 13.5 82.5t47 82.5t83.5 75t128.5 57.5
t176.5 32.5q-48 27 -96.5 65.5t-77 64.5t-63.5 45t-67 19q-45 0 -110 -22l-17 52q72 35 132 35q34 0 66.5 -15t66 -42t68.5 -57.5t88.5 -67t112.5 -64.5l-16 -61q-23 0 -63 -2v-79q0 -85 128 -85z" />
    <glyph glyph-name="uniFEA7" unicode="&#x62e;" horiz-adv-x="607" arabic-form="initial" 
d="M280 634l-63 -63l-64 63l63 63zM189 465q41 0 82 -21.5t75 -52t97 -73.5t134 -75l-16 -61q-64 -14 -119 -38.5t-93.5 -48t-83 -46t-110.5 -36t-154 -13.5q-11 0 -11 11v44q0 10 11 10q92 0 165 17.5t114 39.5t100 52t111 46q-64 32 -124.5 80t-100.5 74t-82 26
q-45 0 -110 -22l-17 52q72 35 132 35z" />
    <glyph glyph-name="uniFEA8" unicode="&#x62e;" horiz-adv-x="631" arabic-form="medial" 
d="M280 634l-63 -63l-64 63l63 63zM631 65q10 0 10 -10v-44q0 -11 -10 -11q-85 0 -124.5 39t-39.5 102v14q-45 -17 -99.5 -48.5t-92.5 -52.5t-109.5 -37.5t-164.5 -16.5q-11 0 -11 11v44q0 10 11 10q92 0 165 17.5t114 39.5t100 52t111 46q-64 32 -124.5 80t-100.5 74
t-82 26q-45 0 -110 -22l-17 52q72 35 132 35q41 0 82 -21.5t75 -52t97 -73.5t134 -75l-16 -61q-16 -3 -44 -11v-26q0 -80 114 -80z" />
    <glyph glyph-name="uniFEAA" unicode="&#x62f;" horiz-adv-x="523" arabic-form="final" 
d="M523 65q10 0 10 -10v-44q0 -11 -10 -11q-69 0 -117 51q-102 -51 -205 -51q-72 0 -181 32l12 59q98 -26 169 -26q95 0 173 30q-21 38 -33 79q-46 148 -74 311h65q26 -176 70 -312q20 -59 47 -83.5t74 -24.5z" />
    <glyph glyph-name="uniFEAC" unicode="&#x630;" horiz-adv-x="523" arabic-form="final" 
d="M357 632l-63 -63l-64 63l63 63zM523 65q10 0 10 -10v-44q0 -11 -10 -11q-69 0 -117 51q-102 -51 -205 -51q-72 0 -181 32l12 59q98 -26 169 -26q95 0 173 30q-21 38 -33 79q-46 148 -74 311h65q26 -176 70 -312q20 -59 47 -83.5t74 -24.5z" />
    <glyph glyph-name="uniFEAE" unicode="&#x631;" horiz-adv-x="334" arabic-form="final" 
d="M334 65q10 0 10 -10v-44q0 -11 -10 -11q-74 0 -108 52v-23q0 -119 -67 -181.5t-179 -62.5v60q82 0 136 48t54 137q0 139 -39 410h60q15 -113 24 -205l7 -60q4 -38 16 -62t30.5 -33.5t32 -12t33.5 -2.5z" />
    <glyph glyph-name="uniFEB0" unicode="&#x632;" horiz-adv-x="334" arabic-form="final" 
d="M218 593l-63 -63l-64 63l63 63zM334 65q10 0 10 -10v-44q0 -11 -10 -11q-74 0 -108 52v-23q0 -119 -67 -181.5t-179 -62.5v60q82 0 136 48t54 137q0 139 -39 410h60q15 -113 24 -205l7 -60q4 -38 16 -62t30.5 -33.5t32 -12t33.5 -2.5z" />
    <glyph glyph-name="uniFEB2" unicode="&#x633;" horiz-adv-x="1355" arabic-form="final" 
d="M1355 65q10 0 10 -10v-44q0 -11 -10 -11q-92 0 -171 69q-22 -32 -61 -50.5t-85 -18.5q-86 0 -171 47q-50 -47 -126 -47q-77 0 -158 39q-25 -254 -270 -254q-120 0 -191.5 64.5t-71.5 199.5q0 101 45 236l49 -13q-39 -103 -39 -208q0 -106 51 -160t165 -54
q110 0 159.5 58.5t49.5 190.5q0 91 -37 341h60q33 -216 33 -339q72 -36 145 -36q51 0 78 14t43 43q17 31 23 83.5t6 164.5h55q0 -198 -36 -277q67 -28 128 -28q51 0 78 14t43 43q17 31 23 83.5t6 164.5v70h55v-70q0 -169 -25 -250q35 -31 67.5 -43t79.5 -12z" />
    <glyph glyph-name="uniFEB3" unicode="&#x633;" horiz-adv-x="854" arabic-form="initial" 
d="M764 485q30 -206 30 -294q0 -91 -48 -141t-136 -50q-84 0 -178 55q-50 -55 -135 -55q-90 0 -178 51q-49 -51 -119 -51q-10 0 -10 11v44q0 10 10 10q66 0 100 57q17 31 23 83.5t6 164.5h55q0 -195 -34 -273q72 -32 137 -32q51 0 78 14t43 43q17 31 23 83.5t6 164.5h55
q0 -189 -32 -269q75 -36 140 -36q139 0 139 123q0 59 -35 297h60z" />
    <glyph glyph-name="uniFEB4" unicode="&#x633;" horiz-adv-x="906" arabic-form="medial" 
d="M906 65q10 0 10 -10v-44q0 -11 -10 -11q-89 0 -168 66q-50 -66 -144 -66q-86 0 -171 47q-50 -47 -126 -47q-90 0 -178 51q-49 -51 -119 -51q-10 0 -10 11v44q0 10 10 10q66 0 100 57q17 31 23 83.5t6 164.5h55q0 -195 -34 -273q72 -32 137 -32q51 0 78 14t43 43
q17 31 23 83.5t6 164.5h55q0 -198 -36 -277q67 -28 128 -28q51 0 78 14t43 43q17 31 23 83.5t6 164.5v70h55v-70q0 -174 -26 -253q34 -29 65.5 -40.5t77.5 -11.5z" />
    <glyph glyph-name="uniFEB6" unicode="&#x634;" horiz-adv-x="1355" arabic-form="final" 
d="M953 660l-50 -50l-51 50l50 51zM881 548l-64 -63l-63 63l63 64zM985 485l-64 63l64 64l63 -64zM1355 65q10 0 10 -10v-44q0 -11 -10 -11q-92 0 -171 69q-22 -32 -61 -50.5t-85 -18.5q-86 0 -171 47q-50 -47 -126 -47q-77 0 -158 39q-25 -254 -270 -254
q-120 0 -191.5 64.5t-71.5 199.5q0 101 45 236l49 -13q-39 -103 -39 -208q0 -106 51 -160t165 -54q110 0 159.5 58.5t49.5 190.5q0 91 -37 341h60q33 -216 33 -339q72 -36 145 -36q51 0 78 14t43 43q17 31 23 83.5t6 164.5h55q0 -198 -36 -277q67 -28 128 -28q51 0 78 14
t43 43q17 31 23 83.5t6 164.5v70h55v-70q0 -169 -25 -250q35 -31 67.5 -43t79.5 -12z" />
    <glyph glyph-name="uniFEB7" unicode="&#x634;" horiz-adv-x="854" arabic-form="initial" 
d="M521 660l-50 -50l-51 50l50 51zM449 548l-64 -63l-63 63l63 64zM553 485l-64 63l64 64l63 -64zM764 485q30 -206 30 -294q0 -91 -48 -141t-136 -50q-84 0 -178 55q-50 -55 -135 -55q-90 0 -178 51q-49 -51 -119 -51q-10 0 -10 11v44q0 10 10 10q66 0 100 57
q17 31 23 83.5t6 164.5h55q0 -195 -34 -273q72 -32 137 -32q51 0 78 14t43 43q17 31 23 83.5t6 164.5h55q0 -189 -32 -269q75 -36 140 -36q139 0 139 123q0 59 -35 297h60z" />
    <glyph glyph-name="uniFEB8" unicode="&#x634;" horiz-adv-x="906" arabic-form="medial" 
d="M511 660l-50 -50l-51 50l50 51zM439 548l-64 -63l-63 63l63 64zM543 485l-64 63l64 64l63 -64zM906 65q10 0 10 -10v-44q0 -11 -10 -11q-89 0 -168 66q-50 -66 -144 -66q-86 0 -171 47q-50 -47 -126 -47q-90 0 -178 51q-49 -51 -119 -51q-10 0 -10 11v44q0 10 10 10
q66 0 100 57q17 31 23 83.5t6 164.5h55q0 -195 -34 -273q72 -32 137 -32q51 0 78 14t43 43q17 31 23 83.5t6 164.5h55q0 -198 -36 -277q67 -28 128 -28q51 0 78 14t43 43q17 31 23 83.5t6 164.5v70h55v-70q0 -174 -26 -253q34 -29 65.5 -40.5t77.5 -11.5z" />
    <glyph glyph-name="uniFEBA" unicode="&#x635;" horiz-adv-x="1290" arabic-form="final" 
d="M1290 65q10 0 10 -10v-44q0 -11 -10 -11q-52 0 -93.5 18t-88.5 60q-108 -78 -278 -78q-99 0 -248 29q-30 -244 -269 -244q-120 0 -191.5 64.5t-71.5 199.5q0 101 45 236l49 -13q-39 -103 -39 -208q0 -106 51 -160t165 -54q110 0 159.5 58.5t49.5 190.5q0 91 -37 341h60
q22 -142 29 -243q148 172 247 241.5t187 69.5t147.5 -60t59.5 -149q0 -107 -73 -185q60 -49 140 -49zM818 65q155 0 249.5 61.5t94.5 161.5q0 66 -43.5 110.5t-107.5 44.5q-23 0 -47 -5.5t-43.5 -12t-46 -23.5t-43 -28t-46 -38.5t-45 -41.5t-50 -51t-49.5 -53.5l-55 -60.5
v-30v-15q103 -19 232 -19z" />
    <glyph glyph-name="uniFEBB" unicode="&#x635;" horiz-adv-x="993" arabic-form="initial" 
d="M736 498q88 0 147.5 -60t59.5 -149q0 -132 -107.5 -210.5t-285.5 -78.5q-97 0 -204.5 30t-179.5 65q-27 -43 -71 -69t-95 -26q-10 0 -10 11v44q0 10 10 10q57 0 88 22t48 75q23 72 33 208h55q-14 -141 -32 -214l-3 -11q33 -15 68 -26q109 126 184.5 203t129.5 115
t88.5 49.5t76.5 11.5zM538 65q157 0 250.5 57t93.5 156q0 66 -43.5 110.5t-107.5 44.5q-72 0 -159 -69t-255 -264q124 -35 221 -35z" />
    <glyph glyph-name="uniFEBC" unicode="&#x635;" horiz-adv-x="1006" arabic-form="medial" 
d="M1006 65q10 0 10 -10v-44q0 -11 -10 -11q-51 0 -91.5 17t-85.5 57q-107 -74 -279 -74q-97 0 -204.5 30t-179.5 65q-27 -43 -71 -69t-95 -26q-10 0 -10 11v44q0 10 10 10q57 0 88 22t48 75q23 72 33 208h55q-14 -141 -32 -214l-3 -11q33 -15 68 -26q109 126 184.5 203
t129.5 115t88.5 49.5t76.5 11.5q88 0 147.5 -60t59.5 -149q0 -107 -72 -179q57 -45 135 -45zM538 65q157 0 250.5 57t93.5 156q0 66 -43.5 110.5t-107.5 44.5q-72 0 -159 -69t-255 -264q124 -35 221 -35z" />
    <glyph glyph-name="uniFEBE" unicode="&#x636;" horiz-adv-x="1290" arabic-form="final" 
d="M888 632l-63 -63l-64 63l63 63zM1290 65q10 0 10 -10v-44q0 -11 -10 -11q-52 0 -93.5 18t-88.5 60q-108 -78 -278 -78q-99 0 -248 29q-30 -244 -269 -244q-120 0 -191.5 64.5t-71.5 199.5q0 101 45 236l49 -13q-39 -103 -39 -208q0 -106 51 -160t165 -54
q110 0 159.5 58.5t49.5 190.5q0 91 -37 341h60q22 -142 29 -243q148 172 247 241.5t187 69.5t147.5 -60t59.5 -149q0 -107 -73 -185q60 -49 140 -49zM818 65q155 0 249.5 61.5t94.5 161.5q0 66 -43.5 110.5t-107.5 44.5q-23 0 -47 -5.5t-43.5 -12t-46 -23.5t-43 -28
t-46 -38.5t-45 -41.5t-50 -51t-49.5 -53.5l-55 -60.5v-30v-15q103 -19 232 -19z" />
    <glyph glyph-name="uniFEBF" unicode="&#x636;" horiz-adv-x="993" arabic-form="initial" 
d="M534 632l-63 -63l-64 63l63 63zM736 498q88 0 147.5 -60t59.5 -149q0 -132 -107.5 -210.5t-285.5 -78.5q-97 0 -204.5 30t-179.5 65q-27 -43 -71 -69t-95 -26q-10 0 -10 11v44q0 10 10 10q57 0 88 22t48 75q23 72 33 208h55q-14 -141 -32 -214l-3 -11q33 -15 68 -26
q109 126 184.5 203t129.5 115t88.5 49.5t76.5 11.5zM538 65q157 0 250.5 57t93.5 156q0 66 -43.5 110.5t-107.5 44.5q-72 0 -159 -69t-255 -264q124 -35 221 -35z" />
    <glyph glyph-name="uniFEC0" unicode="&#x636;" horiz-adv-x="1006" arabic-form="medial" 
d="M534 632l-63 -63l-64 63l63 63zM1006 65q10 0 10 -10v-44q0 -11 -10 -11q-51 0 -91.5 17t-85.5 57q-107 -74 -279 -74q-97 0 -204.5 30t-179.5 65q-27 -43 -71 -69t-95 -26q-10 0 -10 11v44q0 10 10 10q57 0 88 22t48 75q23 72 33 208h55q-14 -141 -32 -214l-3 -11
q33 -15 68 -26q109 126 184.5 203t129.5 115t88.5 49.5t76.5 11.5q88 0 147.5 -60t59.5 -149q0 -107 -72 -179q57 -45 135 -45zM538 65q157 0 250.5 57t93.5 156q0 66 -43.5 110.5t-107.5 44.5q-72 0 -159 -69t-255 -264q124 -35 221 -35z" />
    <glyph glyph-name="uniFEC2" unicode="&#x637;" horiz-adv-x="875" arabic-form="final" 
d="M875 65q10 0 10 -10v-44q0 -11 -10 -11q-52 0 -92.5 17.5t-85.5 57.5q-112 -75 -288 -75q-209 0 -389 47l11 59q56 -11 92 -17l78 90v546h60v-330q0 -51 -14 -165q145 162 223 220t146 58q85 0 143.5 -60t58.5 -149q0 -111 -78 -189q57 -45 135 -45zM397 65q166 0 263 61
t97 162q0 66 -42.5 110.5t-103.5 44.5q-66 0 -157.5 -80t-266.5 -283q118 -15 210 -15z" />
    <glyph glyph-name="uniFEC3" unicode="&#x637;" horiz-adv-x="791" arabic-form="initial" 
d="M541 508q85 0 142.5 -60t57.5 -149q0 -133 -108 -216t-285 -83h-348q-10 0 -10 11v44q0 10 10 10h31q77 91 93 110v550h60v-330q0 -44 -15 -168q149 170 225 225.5t147 55.5zM336 65q155 0 249.5 61.5t94.5 161.5q0 66 -41.5 110.5t-102.5 44.5q-71 0 -159.5 -80
t-272.5 -298h232z" />
    <glyph glyph-name="uniFEC4" unicode="&#x637;" horiz-adv-x="796" arabic-form="medial" 
d="M796 65q10 0 10 -10v-44q0 -11 -10 -11q-51 0 -91.5 17t-84.5 57q-107 -74 -272 -74h-348q-10 0 -10 11v44q0 10 10 10h31q77 91 93 110v550h60v-330q0 -44 -15 -168q149 170 225 225.5t147 55.5q85 0 142.5 -60t57.5 -149q0 -112 -78 -190q56 -44 133 -44zM336 65
q155 0 249.5 61.5t94.5 161.5q0 66 -41.5 110.5t-102.5 44.5q-71 0 -159.5 -80t-272.5 -298h232z" />
    <glyph glyph-name="uniFEC6" unicode="&#x638;" horiz-adv-x="875" arabic-form="final" 
d="M875 65q10 0 10 -10v-44q0 -11 -10 -11q-52 0 -92.5 17.5t-85.5 57.5q-112 -75 -288 -75q-209 0 -389 47l11 59q56 -11 92 -17l78 90v546h60v-330q0 -51 -14 -165q145 162 223 220t146 58q85 0 143.5 -60t58.5 -149q0 -111 -78 -189q57 -45 135 -45zM500 632l-63 -63
l-64 63l63 63zM397 65q166 0 263 61t97 162q0 66 -42.5 110.5t-103.5 44.5q-66 0 -157.5 -80t-266.5 -283q118 -15 210 -15z" />
    <glyph glyph-name="uniFEC7" unicode="&#x638;" horiz-adv-x="791" arabic-form="initial" 
d="M541 508q85 0 142.5 -60t57.5 -149q0 -133 -108 -216t-285 -83h-348q-10 0 -10 11v44q0 10 10 10h31q77 91 93 110v550h60v-330q0 -44 -15 -168q149 170 225 225.5t147 55.5zM426 632l-63 -63l-64 63l63 63zM336 65q155 0 249.5 61.5t94.5 161.5q0 66 -41.5 110.5
t-102.5 44.5q-71 0 -159.5 -80t-272.5 -298h232z" />
    <glyph glyph-name="uniFEC8" unicode="&#x638;" horiz-adv-x="796" arabic-form="medial" 
d="M796 65q10 0 10 -10v-44q0 -11 -10 -11q-51 0 -91.5 17t-84.5 57q-107 -74 -272 -74h-348q-10 0 -10 11v44q0 10 10 10h31q77 91 93 110v550h60v-330q0 -44 -15 -168q149 170 225 225.5t147 55.5q85 0 142.5 -60t57.5 -149q0 -112 -78 -190q56 -44 133 -44zM426 632
l-63 -63l-64 63l63 63zM336 65q155 0 249.5 61.5t94.5 161.5q0 66 -41.5 110.5t-102.5 44.5q-71 0 -159.5 -80t-272.5 -298h232z" />
    <glyph glyph-name="uniFECA" unicode="&#x639;" horiz-adv-x="601" arabic-form="final" 
d="M601 65q10 0 10 -10v-44q0 -11 -10 -11q-157 0 -295 111q-97 -52 -140 -98.5t-43 -101.5q0 -56 58 -88.5t160 -32.5q105 0 225 35l17 -53q-137 -47 -247 -47q-129 0 -201 50.5t-72 136.5q0 130 182 230q-77 138 -170 239l-28 -16l-27 48q158 105 299 105
q91 0 150.5 -50.5t59.5 -126.5q0 -102 -174 -203q116 -73 246 -73zM302 454q-82 0 -179 -48q84 -88 171 -238q174 94 174 170q0 50 -47 83t-119 33z" />
    <glyph glyph-name="uniFECB" unicode="&#x639;" horiz-adv-x="543" arabic-form="initial" 
d="M336 81q61 7 177 26l-13 -64q-230 -43 -500 -43q-10 0 -10 11v44q0 10 10 10q98 0 175 3q-126 68 -126 197q0 88 63 149t156 61q57 0 178 -42l-17 -53q-92 31 -148 31q-78 0 -124.5 -42t-46.5 -114q0 -66 58.5 -121.5t167.5 -52.5z" />
    <glyph glyph-name="uniFECC" unicode="&#x639;" horiz-adv-x="590" arabic-form="medial" 
d="M590 65q10 0 10 -10v-44q0 -11 -10 -11q-138 0 -257 47q-78 -27 -151 -37t-182 -10q-10 2 -10 11v44q0 10 10 10q152 0 245 15q-77 143 -181 258q-13 -6 -25 -14l-27 48q155 103 299 103q89 0 148 -50.5t59 -126.5q0 -52 -33 -112.5t-90 -101.5q89 -19 195 -19zM294 411
q-84 0 -181 -47q103 -111 190 -280q60 25 107.5 88t47.5 111q0 58 -45 93t-119 35z" />
    <glyph glyph-name="uniFECE" unicode="&#x63a;" horiz-adv-x="601" arabic-form="final" 
d="M369 678l-63 -63l-64 63l63 63zM601 65q10 0 10 -10v-44q0 -11 -10 -11q-157 0 -295 111q-97 -52 -140 -98.5t-43 -101.5q0 -56 58 -88.5t160 -32.5q105 0 225 35l17 -53q-137 -47 -247 -47q-129 0 -201 50.5t-72 136.5q0 130 182 230q-77 138 -170 239l-28 -16l-27 48
q158 105 299 105q91 0 150.5 -50.5t59.5 -126.5q0 -102 -174 -203q116 -73 246 -73zM302 454q-82 0 -179 -48q84 -88 171 -238q174 94 174 170q0 50 -47 83t-119 33z" />
    <glyph glyph-name="uniFECF" unicode="&#x63a;" horiz-adv-x="543" arabic-form="initial" 
d="M322 634l-63 -63l-64 63l63 63zM336 81q61 7 177 26l-13 -64q-230 -43 -500 -43q-10 0 -10 11v44q0 10 10 10q98 0 175 3q-126 68 -126 197q0 88 63 149t156 61q57 0 178 -42l-17 -53q-92 31 -148 31q-78 0 -124.5 -42t-46.5 -114q0 -66 58.5 -121.5t167.5 -52.5z" />
    <glyph glyph-name="uniFED0" unicode="&#x63a;" horiz-adv-x="590" arabic-form="medial" 
d="M360 634l-63 -63l-64 63l63 63zM590 65q10 0 10 -10v-44q0 -11 -10 -11q-138 0 -257 47q-78 -27 -151 -37t-182 -10q-10 2 -10 11v44q0 10 10 10q152 0 245 15q-77 143 -181 258q-13 -6 -25 -14l-27 48q155 103 299 103q89 0 148 -50.5t59 -126.5q0 -52 -33 -112.5
t-90 -101.5q89 -19 195 -19zM294 411q-84 0 -181 -47q103 -111 190 -280q60 25 107.5 88t47.5 111q0 58 -45 93t-119 35z" />
    <glyph glyph-name="uniFED2" unicode="&#x641;" horiz-adv-x="974" arabic-form="final" 
d="M757 632l-63 -63l-64 63l63 63zM974 65q10 0 10 -10v-44q0 -11 -10 -11q-170 0 -283 32q-106 -32 -266 -32h-135q-114 0 -177 54.5t-63 157.5q0 70 23 176l54 -10q-17 -101 -17 -150q0 -85 47 -124t146 -39h117h1q111 0 172 7q-109 66 -109 187q0 95 61.5 155.5
t149.5 60.5q92 0 152.5 -61.5t60.5 -152.5q0 -123 -121 -190q66 -6 187 -6zM544 255q0 -57 38 -104.5t103 -68.5q79 24 121 70t42 107q0 66 -44.5 108.5t-111.5 42.5q-63 0 -105.5 -42t-42.5 -113z" />
    <glyph glyph-name="uniFED3" unicode="&#x641;" horiz-adv-x="519" arabic-form="initial" 
d="M328 632l-63 -63l-64 63l63 63zM259 475q90 -1 150 -64.5t60 -158.5q0 -120 -71 -186t-201 -66h-197q-10 2 -10 11v44q0 10 10 10h121q-9 21 -30 58q-48 82 -48 149q0 83 63.5 143.5t152.5 59.5zM211 65q90 0 143.5 45.5t53.5 129.5q0 77 -43.5 123t-115.5 46
q-61 0 -103.5 -41.5t-42.5 -100.5q0 -51 39 -123q23 -45 37 -79h32z" />
    <glyph glyph-name="uniFED4" unicode="&#x641;" horiz-adv-x="554" arabic-form="medial" 
d="M338 632l-63 -63l-64 63l63 63zM554 65q10 0 10 -10v-44q0 -11 -10 -11q-170 0 -283 32q-109 -32 -271 -32q-10 0 -10 11v44q0 10 10 10q112 0 173 7q-109 66 -109 187q0 95 61.5 155.5t149.5 60.5q92 0 152.5 -61.5t60.5 -152.5q0 -123 -121 -190q66 -6 187 -6zM124 255
q0 -57 38 -104.5t103 -68.5q79 24 121 70t42 107q0 66 -44.5 108.5t-111.5 42.5q-63 0 -105.5 -42t-42.5 -113z" />
    <glyph glyph-name="uniFED6" unicode="&#x642;" horiz-adv-x="751" arabic-form="final" 
d="M477 626l-64 -63l-63 63l63 63zM624 626l-63 -63l-64 63l64 63zM751 65q10 0 10 -10v-44q0 -11 -10 -11h-65q-12 -102 -99 -158.5t-239 -56.5q-60 0 -112.5 15t-94.5 46t-66.5 83t-24.5 120q0 101 45 236l49 -13q-39 -103 -39 -208q0 -103 71 -158.5t205 -55.5
q100 0 167 41t81 109h-90q-122 0 -188 58.5t-66 168.5q0 103 57 170.5t152 67.5q79 0 128.5 -55.5t54.5 -147.5q1 -19 5 -92t5 -105h64zM536 65h95q-1 31 -6 104t-6 83q-4 69 -40 108.5t-93 39.5q-65 0 -103 -48t-38 -121q0 -79 50 -122.5t141 -43.5z" />
    <glyph glyph-name="uniFED7" unicode="&#x642;" horiz-adv-x="519" arabic-form="initial" 
d="M255 626l-64 -63l-63 63l63 63zM402 626l-63 -63l-64 63l64 63zM259 475q90 -1 150 -64.5t60 -158.5q0 -120 -71 -186t-201 -66h-197q-10 2 -10 11v44q0 10 10 10h121q-9 21 -30 58q-48 82 -48 149q0 83 63.5 143.5t152.5 59.5zM211 65q90 0 143.5 45.5t53.5 129.5
q0 77 -43.5 123t-115.5 46q-61 0 -103.5 -41.5t-42.5 -100.5q0 -51 39 -123q23 -45 37 -79h32z" />
    <glyph glyph-name="uniFED8" unicode="&#x642;" horiz-adv-x="554" arabic-form="medial" 
d="M271 626l-64 -63l-63 63l63 63zM418 626l-63 -63l-64 63l64 63zM554 65q10 0 10 -10v-44q0 -11 -10 -11q-170 0 -283 32q-109 -32 -271 -32q-10 0 -10 11v44q0 10 10 10q112 0 173 7q-109 66 -109 187q0 95 61.5 155.5t149.5 60.5q92 0 152.5 -61.5t60.5 -152.5
q0 -123 -121 -190q66 -6 187 -6zM124 255q0 -57 38 -104.5t103 -68.5q79 24 121 70t42 107q0 66 -44.5 108.5t-111.5 42.5q-63 0 -105.5 -42t-42.5 -113z" />
    <glyph glyph-name="uniFEDA" unicode="&#x643;" horiz-adv-x="871" arabic-form="final" 
d="M871 65q10 0 10 -10v-44q0 -11 -10 -11q-119 0 -165 72q-107 -72 -281 -72h-135q-114 0 -177 54.5t-63 157.5q0 70 23 176l54 -10q-17 -101 -17 -150q0 -85 47 -124t146 -39h122q178 0 262 50q-10 31 -10 76v534h60v-537q0 -62 32.5 -92.5t101.5 -30.5zM517 371h-117
q-48 0 -106 -17v52q47 17 65 19q-22 23 -22 52q0 38 26.5 63.5t66.5 25.5q38 0 72 -18v-50q-39 13 -65 13q-22 0 -36 -11t-14 -31q0 -19 16.5 -31t41.5 -12h89z" />
    <glyph glyph-name="uniFEDB" unicode="&#x643;" horiz-adv-x="584" arabic-form="initial" 
d="M327 416q217 -94 217 -223q0 -85 -71 -139t-189 -54h-284q-10 0 -10 11v44q0 10 10 10h291q82 0 137.5 35.5t55.5 91.5q0 45 -42 83t-142 82l-235 104v60l372 274l37 -48l-336 -248z" />
    <glyph glyph-name="uniFEDC" unicode="&#x643;" horiz-adv-x="652" arabic-form="medial" 
d="M652 65q10 0 10 -10v-44q0 -11 -10 -11q-90 0 -166 65q-71 -65 -202 -65h-284q-10 0 -10 11v44q0 10 10 10h291q82 0 137.5 35.5t55.5 91.5q0 45 -42 83t-142 82l-235 104v60l372 274l37 -48l-336 -248l189 -83q217 -94 217 -223q0 -46 -23 -86q54 -42 131 -42z" />
    <glyph glyph-name="uniFEDE" unicode="&#x644;" horiz-adv-x="707" arabic-form="final" 
d="M707 65q10 0 10 -10v-44q0 -11 -10 -11q-87 0 -123 46q-24 -261 -271 -261q-120 0 -191.5 64.5t-71.5 199.5q0 101 45 236l49 -13q-39 -103 -39 -208q0 -106 51 -160t165 -54q110 0 157.5 58.5t47.5 190.5v626h60v-570q0 -41 33 -65.5t88 -24.5z" />
    <glyph glyph-name="uniFEDF" unicode="&#x644;" horiz-adv-x="284" arabic-form="initial" 
d="M134 725h60v-534q0 -191 -194 -191q-10 0 -10 11v44q0 10 10 10q69 0 101.5 30.5t32.5 92.5v537z" />
    <glyph glyph-name="uniFEE0" unicode="&#x644;" horiz-adv-x="317" arabic-form="medial" 
d="M317 65q10 0 10 -10v-44q0 -11 -10 -11q-115 0 -163 69q-35 -36 -67.5 -52.5t-86.5 -16.5q-10 0 -10 11v44q0 10 10 10q79 0 133 51q-10 33 -10 75v534h60v-537q0 -62 32.5 -92.5t101.5 -30.5z" />
    <glyph glyph-name="uniFEE2" unicode="&#x645;" horiz-adv-x="677" arabic-form="final" 
d="M677 65q10 0 10 -10v-44q0 -11 -10 -11q-64 0 -106 52l-14 -52q-243 0 -341 64q-32 21 -44 48q-39 -7 -55.5 -34t-16.5 -82q0 -63 35 -271h-60q-35 202 -35 286q0 146 126 167q6 62 32 125t73.5 110.5t101.5 47.5q58 0 94.5 -35t61.5 -114l35 -112q25 -79 49.5 -107
t63.5 -28zM213 138q123 -72 348 -73q-28 41 -49 108l-35 107q-20 62 -44 89t-62 27q-47 0 -91 -65.5t-67 -192.5z" />
    <glyph glyph-name="uniFEE3" unicode="&#x645;" horiz-adv-x="568" arabic-form="initial" 
d="M508 70l-52 -83q-99 0 -199 19t-169 52q-34 -58 -88 -58q-10 2 -10 11v44q0 10 10 10t19 4t17 13.5t14 19t13.5 26.5t13 31t14 36.5t15.5 38.5q50 121 95 168.5t107 47.5q49 0 85 -27t58.5 -81t35 -118t21.5 -154zM153 203q-5 -12 -17.5 -42.5t-18.5 -44.5
q137 -64 338 -64q-22 333 -150 333q-41 0 -74.5 -37.5t-77.5 -144.5z" />
    <glyph glyph-name="uniFEE4" unicode="&#x645;" horiz-adv-x="582" arabic-form="medial" 
d="M582 65q10 0 10 -10v-44q0 -11 -10 -11q-64 0 -106 52l-14 -52q-220 0 -321 53q-65 -53 -141 -53q-10 0 -10 11v44q0 10 10 10q57 0 94 21q-25 28 -25 62q0 61 25 132t75 126t109 55q58 0 94.5 -35t61.5 -114l35 -112q25 -79 49.5 -107t63.5 -28zM118 138
q123 -72 348 -73q-28 41 -49 108l-35 107q-20 62 -44 89t-62 27q-47 0 -91 -65.5t-67 -192.5z" />
    <glyph glyph-name="uniFEE6" unicode="&#x646;" horiz-adv-x="697" arabic-form="final" 
d="M376 470l-63 -63l-64 63l63 63zM697 65q10 0 10 -10v-44q0 -11 -10 -11q-78 0 -112 59q-18 -274 -272 -274q-120 0 -191.5 64.5t-71.5 199.5q0 101 45 236l49 -13q-39 -103 -39 -208q0 -106 51 -160t165 -54q110 0 159.5 58.5t49.5 190.5q0 91 -37 341h60
q23 -158 29 -239l3 -26q4 -38 16 -62t30.5 -33.5t32 -12t33.5 -2.5z" />
    <glyph glyph-name="uniFEE7" unicode="&#x646;" horiz-adv-x="254" arabic-form="initial" 
d="M124 695l64 -63l-63 -63l-64 63zM164 485q30 -206 30 -294q0 -191 -194 -191q-10 0 -10 11v44q0 10 10 10q139 0 139 123q0 59 -35 297h60z" />
    <glyph glyph-name="uniFEE8" unicode="&#x646;" horiz-adv-x="300" arabic-form="medial" 
d="M227 527l-63 -63l-64 63l63 63zM300 65q10 0 10 -10v-44q0 -11 -10 -11q-87 0 -161 60q-49 -60 -139 -60q-10 0 -10 11v44q0 10 10 10q79 0 111 57q17 31 23 83.5t6 164.5h55q0 -180 -29 -261q58 -44 134 -44z" />
    <glyph glyph-name="uniFEE9" unicode="&#x647;" horiz-adv-x="812" arabic-form="isolated" 
d="M309 660q215 0 334 -101.5t119 -254.5q0 -101 -60 -260l-62 -57q-138 0 -290 48q-91 -35 -192 -35q-63 0 -138 22l14 58q60 -15 119 -15q38 0 86 8q-105 67 -105 186q0 95 59 155.5t147 60.5q91 0 149.5 -61.5t58.5 -152.5q0 -120 -117 -189q127 -22 212 -22
q25 49 42 119.5t17 125.5q0 50 -20 99.5t-62.5 96t-123 75.5t-188.5 29zM194 255q0 -57 37.5 -104.5t98.5 -68.5q75 24 116.5 70.5t41.5 106.5q0 67 -42 109t-109 42q-63 0 -103 -42t-40 -113z" />
    <glyph glyph-name="uniFEEA" unicode="&#x647;" horiz-adv-x="537" arabic-form="final" 
d="M537 65q10 0 10 -10v-44q0 -11 -10 -11q-85 0 -125 48q-91 -48 -167 -48q-90 0 -142.5 49t-52.5 132q0 44 16.5 86.5t52.5 84t102.5 72t155.5 41.5v73h60v-370q0 -53 23 -78t77 -25zM247 65q75 0 140 31q-10 30 -10 73v239q-119 -14 -193 -74.5t-74 -147.5
q0 -58 36 -89.5t101 -31.5z" />
    <glyph glyph-name="uniFEEB" unicode="&#x647;" horiz-adv-x="742" arabic-form="initial" 
d="M239 660q215 0 334 -101.5t119 -254.5q0 -101 -60 -260l-62 -57q-135 0 -292 48q-104 -35 -278 -35q-10 0 -10 11v44q0 10 10 10q109 0 170 8q-106 67 -106 186q0 95 59 155.5t147 60.5q91 0 149.5 -61.5t58.5 -152.5q0 -120 -117 -189q127 -22 212 -22q25 49 42 119.5
t17 125.5q0 50 -20 99.5t-62.5 96t-123 75.5t-188.5 29zM124 255q0 -57 37.5 -104.5t98.5 -68.5q75 24 116.5 70.5t41.5 106.5q0 67 -42 109t-109 42q-63 0 -103 -42t-40 -113z" />
    <glyph glyph-name="uniFEEC" unicode="&#x647;" horiz-adv-x="553" arabic-form="medial" 
d="M553 65q10 0 10 -11v-44q0 -10 -10 -10q-57 0 -105 17q40 -54 40 -109t-44 -89t-116 -34q-88 0 -155 60t-90 158q-41 -3 -83 -3q-10 0 -10 11v44q0 10 10 10q26 0 74 2q-1 9 -1 26q0 103 48 226.5t161 230.5h47q65 -57 107.5 -132t42.5 -145q0 -111 -94 -180
q67 -28 168 -28zM129 104q0 -22 1 -32q140 16 214.5 68t74.5 130q0 108 -115 227q-63 -59 -105 -138t-56 -141t-14 -114zM338 -150q43 0 69 18t26 48q0 35 -22 68.5t-74 79.5q-80 -41 -197 -56q21 -82 75.5 -120t122.5 -38z" />
    <glyph glyph-name="uniFEEE" unicode="&#x648;" horiz-adv-x="516" arabic-form="final" 
d="M516 65q10 0 10 -10v-44q0 -11 -10 -11h-64q-10 -105 -98.5 -160t-238.5 -55v60q125 0 196 39.5t83 115.5h-90q-122 0 -188 58.5t-66 168.5q0 103 57 170.5t152 67.5q79 0 128.5 -55.5t54.5 -147.5q1 -16 5 -89t5 -108h64zM301 65h95q-1 31 -6 104t-6 83q-4 69 -40 108.5
t-93 39.5q-65 0 -103 -48t-38 -121q0 -79 50 -122.5t141 -43.5z" />
    <glyph glyph-name="uniFEF0" unicode="&#x649;" horiz-adv-x="682" arabic-form="final" 
d="M682 65q10 0 10 -10v-44q0 -11 -10 -11h-15q-102 -215 -328 -215q-289 0 -289 264q0 101 45 236l49 -13q-39 -103 -39 -208q0 -109 59 -161.5t186 -52.5q182 0 260 157q-58 8 -119 27v60q119 -29 191 -29z" />
    <glyph glyph-name="uniFEF2" unicode="&#x64a;" horiz-adv-x="682" arabic-form="final" 
d="M682 65q10 0 10 -10v-44q0 -11 -10 -11h-15q-102 -215 -328 -215q-289 0 -289 264q0 101 45 236l49 -13q-39 -103 -39 -208q0 -109 59 -161.5t186 -52.5q182 0 260 157q-58 8 -119 27v60q119 -29 191 -29zM261 -349l63 63l64 -63l-64 -63zM408 -349l64 63l63 -63l-63 -63
z" />
    <glyph glyph-name="uniFEF3" unicode="&#x64a;" horiz-adv-x="326" arabic-form="initial" 
d="M239 485q30 -206 30 -294q0 -191 -194 -191h-75q-10 0 -10 11v44q0 10 10 10h75q139 0 139 123q0 59 -35 297h60zM51 -90l64 -63l-64 -63l-63 63zM199 -90l63 -63l-63 -63l-64 63z" />
    <glyph glyph-name="uniFEF4" unicode="&#x64a;" horiz-adv-x="370" arabic-form="medial" 
d="M370 65q10 0 10 -10v-44q0 -11 -10 -11q-104 0 -191 80q-55 -80 -179 -80q-10 0 -10 11v44q0 10 10 10q107 0 138 58q17 30 23 79.5t6 167.5h55q0 -167 -20 -237q79 -68 168 -68zM35 -152l63 63l64 -63l-64 -63zM182 -152l64 63l63 -63l-63 -63z" />
    <glyph glyph-name=".notdef" horiz-adv-x="600" 
 />
    <glyph glyph-name=".null" horiz-adv-x="600" 
 />
    <glyph glyph-name="nonmarkingreturn" horiz-adv-x="333" 
 />
    <glyph glyph-name="CR" unicode="&#xd;" horiz-adv-x="600" 
 />
    <glyph glyph-name="space" unicode=" " horiz-adv-x="230" 
 />
    <glyph glyph-name="exclam" unicode="!" horiz-adv-x="237" 
d="M84 725h69v-215l-15 -306h-39l-15 306v215zM75 0v94h87v-94h-87z" />
    <glyph glyph-name="quotedbl" unicode="&#x22;" horiz-adv-x="336" 
d="M124 725l-20 -240h-32l-20 240h72zM284 725l-20 -240h-32l-20 240h72z" />
    <glyph glyph-name="numbersign" unicode="#" horiz-adv-x="644" 
d="M192 515l30 210h62l-30 -210h174l30 210h63l-30 -210h137l-8 -59h-137l-24 -172h137l-9 -59h-136l-31 -225h-63l31 225h-174l-31 -225h-63l31 225h-136l9 59h136l24 172h-137l9 59h136zM222 284h174l24 172h-174z" />
    <glyph glyph-name="dollar" unicode="$" horiz-adv-x="598" 
d="M321 826v-90q95 -8 154.5 -67t62.5 -152l-67 -4q-2 78 -43.5 119.5t-106.5 48.5v-281l10 -3q35 -10 60 -19.5t58 -27t54 -37.5t35.5 -51.5t14.5 -69.5q0 -95 -66.5 -147t-165.5 -57v-90h-52v91q-95 9 -157.5 65t-71.5 158l67 5q3 -75 45 -120.5t117 -53.5v307l-34 10
q-181 53 -181 195q0 73 60 124.5t155 57.5v89h52zM251 422l18 -6v266q-67 -5 -109.5 -38.5t-42.5 -85.5q0 -98 134 -136zM321 335v-292q79 5 124 40.5t45 98.5q0 62 -43.5 95t-125.5 58z" />
    <glyph glyph-name="percent" unicode="%" horiz-adv-x="1029" 
d="M53 521q0 100 39.5 155.5t119.5 55.5t119.5 -55.5t39.5 -155.5t-39.5 -155.5t-119.5 -55.5t-119.5 55.5t-39.5 155.5zM230 0l500 725h69l-500 -725h-69zM314 521q0 83 -27 125t-75 42q-49 0 -76 -42t-27 -125q0 -82 27.5 -124.5t75.5 -42.5t75 42.5t27 124.5zM658 204
q0 100 39.5 155.5t119.5 55.5t119.5 -55.5t39.5 -155.5t-39.5 -155.5t-119.5 -55.5t-119.5 55.5t-39.5 155.5zM919 204q0 83 -27 125t-75 42q-49 0 -76 -42t-27 -125q0 -82 27.5 -124.5t75.5 -42.5t75 42.5t27 124.5z" />
    <glyph glyph-name="ampersand" unicode="&#x26;" horiz-adv-x="718" 
d="M42 197q0 153 192 218q-91 100 -91 175q0 67 52 107.5t135 40.5q72 0 124.5 -38.5t52.5 -116.5q0 -126 -168 -190l183 -196q49 87 58 190h63q-17 -131 -82 -232l145 -155h-84l-98 105q-102 -118 -245 -118q-109 0 -173 58t-64 152zM294 442l6 -7q75 26 109.5 60.5
t34.5 86.5q0 47 -32 74t-83 27t-85.5 -23t-34.5 -68q0 -27 14.5 -56t27.5 -45t43 -49zM486 145l-213 229q-165 -49 -165 -177q0 -69 47.5 -112t122.5 -43q123 0 208 103z" />
    <glyph glyph-name="quotesingle" unicode="'" horiz-adv-x="176" 
d="M124 725l-20 -240h-32l-20 240h72z" />
    <glyph glyph-name="parenleft" unicode="(" horiz-adv-x="243" 
d="M182 725h51q-119 -209 -119 -450t119 -450h-51q-52 79 -90.5 198t-38.5 252t38 252t91 198z" />
    <glyph glyph-name="parenright" unicode=")" horiz-adv-x="243" 
d="M61 -175h-51q118 207 118 450t-118 450h51q53 -79 91 -198t38 -252t-38.5 -252t-90.5 -198z" />
    <glyph glyph-name="asterisk" unicode="*" horiz-adv-x="399" 
d="M225 607l121 39l16 -50l-120 -39l74 -101l-42 -31l-75 101l-73 -100l-43 30l73 100l-118 40l15 51l120 -40v118h52v-118z" />
    <glyph glyph-name="plus" unicode="+" horiz-adv-x="698" 
d="M318 0v242h-242v59h242v231h63v-231h242v-59h-242v-242h-63z" />
    <glyph glyph-name="comma" unicode="," horiz-adv-x="237" 
d="M75 94h87v-102l-50 -130h-46l43 138h-34v94z" />
    <glyph glyph-name="hyphen" unicode="-" horiz-adv-x="386" 
d="M53 239v70h280v-70h-280z" />
    <glyph glyph-name="period" unicode="." horiz-adv-x="237" 
d="M75 0v94h87v-94h-87z" />
    <glyph glyph-name="slash" unicode="/" horiz-adv-x="373" 
d="M10 0l289 725h64l-290 -725h-63z" />
    <glyph glyph-name="zero" unicode="0" horiz-adv-x="685" 
d="M64 363q0 178 69.5 276.5t209.5 98.5q139 0 208.5 -99t69.5 -276q0 -178 -69.5 -277t-208.5 -99q-140 0 -209.5 99t-69.5 277zM556 363q0 159 -56.5 239.5t-156.5 80.5q-101 0 -157 -80.5t-56 -239.5q0 -160 56 -240.5t157 -80.5q100 0 156.5 80.5t56.5 240.5z" />
    <glyph glyph-name="one" unicode="1" horiz-adv-x="345" 
d="M176 0v587h-166v42q97 0 132 18.5t54 83.5h42v-731h-62z" />
    <glyph glyph-name="two" unicode="2" horiz-adv-x="589" 
d="M519 551q0 -108 -93.5 -222t-299.5 -269h415v-60h-501v62q215 165 314 275t99 207q0 67 -44 103t-109 36q-77 0 -126.5 -43t-50.5 -139l-66 6q6 111 71 171t172 60q100 0 159.5 -50t59.5 -137z" />
    <glyph glyph-name="three" unicode="3" horiz-adv-x="590" 
d="M471 200q0 156 -220 156h-6v55h6q201 0 201 138q0 58 -44.5 96t-121.5 38q-65 0 -116.5 -37.5t-62.5 -115.5l-64 14q16 89 81 141.5t167 52.5q104 0 165.5 -49.5t61.5 -133.5q0 -57 -30.5 -103t-88.5 -66q138 -36 138 -185q0 -103 -73.5 -158.5t-181.5 -55.5
q-102 0 -170.5 57t-82.5 146l64 14q16 -80 67.5 -121t120.5 -41q85 0 137.5 41.5t52.5 116.5z" />
    <glyph glyph-name="four" unicode="4" horiz-adv-x="634" 
d="M614 190h-141v-190h-62v190h-390v56l391 479h61v-474h141v-61zM95 251h316v388z" />
    <glyph glyph-name="five" unicode="5" horiz-adv-x="613" 
d="M494 237q0 95 -56 143.5t-133 48.5q-59 0 -107 -27t-64 -66l-61 6l47 383h410v-60h-356l-32 -248q27 30 76 49t102 19q104 0 172 -65.5t68 -181.5q0 -118 -74 -184.5t-179 -66.5t-173 59.5t-80 152.5l65 5q16 -80 67.5 -121t120.5 -41q79 0 133 52t54 143z" />
    <glyph glyph-name="six" unicode="6" horiz-adv-x="617" 
d="M116 365q25 52 79.5 84t124.5 32q108 0 176 -69.5t68 -178.5q0 -105 -69.5 -175.5t-181.5 -70.5q-260 0 -260 347q0 88 15 159t47 127.5t88 87t132 30.5q92 0 147.5 -47.5t68.5 -125.5l-65 -7q-9 62 -52 93.5t-109 31.5q-97 0 -153 -82t-56 -236zM313 42q82 0 133.5 52.5
t51.5 135.5q0 89 -50.5 142.5t-134.5 53.5t-134.5 -53.5t-50.5 -142.5q0 -83 52 -135.5t133 -52.5z" />
    <glyph glyph-name="seven" unicode="7" horiz-adv-x="526" 
d="M15 725h495v-60q-313 -228 -327 -665h-69q27 447 320 665h-419v60z" />
    <glyph glyph-name="eight" unicode="8" horiz-adv-x="625" 
d="M550 557q0 -62 -29.5 -105.5t-79.5 -63.5q131 -54 131 -187q0 -100 -72.5 -157t-187.5 -57q-114 0 -186.5 57t-72.5 157q0 133 130 187q-49 21 -78.5 64t-29.5 105q0 80 64.5 130.5t172.5 50.5q109 0 173.5 -50.5t64.5 -130.5zM312 683q-80 0 -126.5 -36t-46.5 -100
q0 -63 47 -99.5t126 -36.5q80 0 127 36.5t47 99.5q0 64 -47 100t-127 36zM119 201q0 -73 52.5 -116t140.5 -43q89 0 141.5 43t52.5 116t-53 117.5t-141 44.5q-87 0 -140 -44.5t-53 -117.5z" />
    <glyph glyph-name="nine" unicode="9" horiz-adv-x="604" 
d="M488 360q-26 -52 -80 -84t-124 -32q-108 0 -176 70t-68 178q0 105 69.5 175.5t181.5 70.5q131 0 195.5 -89.5t64.5 -256.5q0 -88 -15 -159.5t-47 -127.5t-88 -87t-132 -31q-93 0 -148.5 48.5t-67.5 126.5l66 5q9 -62 51.5 -93.5t108.5 -31.5q97 0 153 82.5t56 235.5z
M291 683q-82 0 -133.5 -52.5t-51.5 -135.5q0 -89 50.5 -142.5t134.5 -53.5t134.5 53.5t50.5 142.5q0 83 -52 135.5t-133 52.5z" />
    <glyph glyph-name="colon" unicode=":" horiz-adv-x="237" 
d="M75 426v94h87v-94h-87zM75 0v94h87v-94h-87z" />
    <glyph glyph-name="semicolon" unicode=";" horiz-adv-x="237" 
d="M75 426v94h87v-94h-87zM75 94h87v-102l-50 -130h-46l43 138h-34v94z" />
    <glyph glyph-name="less" unicode="&#x3c;" horiz-adv-x="698" 
d="M601 537v-68l-441 -198l441 -197v-68l-513 236v59z" />
    <glyph glyph-name="equal" unicode="=" horiz-adv-x="698" 
d="M115 348v59h468v-59h-468zM115 143v59h468v-59h-468z" />
    <glyph glyph-name="greater" unicode="&#x3e;" horiz-adv-x="698" 
d="M610 242l-513 -236v68l441 197l-441 198v68l513 -236v-59z" />
    <glyph glyph-name="question" unicode="?" horiz-adv-x="493" 
d="M467 565q0 -117 -131 -207q-38 -26 -53.5 -39.5t-28.5 -40t-13 -62.5v-45h-63v45q0 47 17 81.5t38 53.5t68 53q46 33 73.5 70.5t27.5 88.5q0 57 -43.5 88.5t-115.5 31.5q-85 0 -127.5 -48.5t-42.5 -120.5l-65 8q3 105 70.5 160.5t169.5 55.5q94 0 156.5 -44.5
t62.5 -128.5zM167 0v94h87v-94h-87z" />
    <glyph glyph-name="at" unicode="@" horiz-adv-x="850" 
d="M531 267q-49 -103 -161 -103q-62 0 -102 43t-40 128q0 94 58.5 164t149.5 70q47 0 77 -26.5t40 -66.5l11 75h50l-33 -227q-7 -44 6.5 -79t52.5 -35q48 0 80 52.5t32 142.5q0 131 -83 201t-218 70q-149 0 -242 -94t-93 -236q0 -136 81.5 -221t220.5 -85q107 0 195 42
l20 -51q-95 -44 -215 -44q-163 0 -261.5 101t-98.5 261q0 161 112 269t282 108q158 0 256.5 -83t98.5 -235q0 -115 -51.5 -182.5t-121.5 -67.5q-46 0 -73.5 30t-29.5 79zM288 334q0 -59 26 -89t71 -30q65 0 105.5 55.5t40.5 131.5q0 55 -24.5 84.5t-70.5 29.5
q-64 0 -106 -53t-42 -129z" />
    <glyph glyph-name="A" unicode="A" horiz-adv-x="647" 
d="M285 725h76l276 -725h-73l-69 182h-345l-68 -182h-72zM173 244h298l-150 398z" />
    <glyph glyph-name="B" unicode="B" horiz-adv-x="672" 
d="M96 725h247q245 0 245 -183q0 -56 -26 -98.5t-68 -61.5q124 -36 124 -173q0 -107 -69 -158t-183 -51h-270v725zM163 406h193q162 0 162 132q0 63 -42 94.5t-117 31.5h-196v-258zM163 61h207q88 0 132.5 38t44.5 109q0 73 -44.5 106.5t-138.5 33.5h-201v-287z" />
    <glyph glyph-name="C" unicode="C" horiz-adv-x="719" 
d="M676 218q-27 -106 -105.5 -168.5t-198.5 -62.5q-152 0 -237 103.5t-85 272.5q0 170 86 272.5t239 102.5q116 0 193.5 -62t104.5 -169l-67 -15q-21 88 -84.5 135t-148.5 47q-111 0 -181.5 -82.5t-70.5 -228.5q0 -143 69.5 -227.5t182.5 -84.5q98 0 159 52.5t77 129.5z" />
    <glyph glyph-name="D" unicode="D" horiz-adv-x="715" 
d="M272 725q91 0 159.5 -18t123 -58.5t82.5 -112t28 -173.5t-28 -174t-82.5 -112.5t-123 -58.5t-159.5 -18h-176v725h176zM270 664h-107v-603h107q56 0 98 5.5t87 24t73.5 50.5t47 88t18.5 134t-18.5 134t-47 88t-73.5 50t-87 23.5t-98 5.5z" />
    <glyph glyph-name="E" unicode="E" horiz-adv-x="606" 
d="M96 725h465v-62h-398v-256h374v-63h-374v-282h398v-62h-465v725z" />
    <glyph glyph-name="F" unicode="F" horiz-adv-x="549" 
d="M96 725h443v-62h-376v-256h353v-63h-353v-344h-67v725z" />
    <glyph glyph-name="G" unicode="G" horiz-adv-x="765" 
d="M677 522l-67 -15q-21 85 -85 126t-147 41q-112 0 -184.5 -82.5t-72.5 -228.5q0 -143 69.5 -227.5t182.5 -84.5q44 0 83.5 10t77 32.5t59.5 67.5t22 107v27h-203v62h267v-357h-59l-1 102q-73 -115 -247 -115q-152 0 -237 103.5t-85 272.5t88.5 272t241.5 103
q113 0 191.5 -56t105.5 -160z" />
    <glyph glyph-name="H" unicode="H" horiz-adv-x="753" 
d="M657 725v-725h-67v344h-427v-344h-67v725h67v-318h427v318h67z" />
    <glyph glyph-name="I" unicode="I" horiz-adv-x="259" 
d="M163 0h-67v725h67v-725z" />
    <glyph glyph-name="J" unicode="J" horiz-adv-x="534" 
d="M371 725h67v-536q0 -97 -59.5 -149.5t-148.5 -52.5q-92 0 -148.5 54t-60.5 155l62 10q2 -85 42 -124.5t105 -39.5q25 0 48 7t45 22.5t35 46t13 72.5v535z" />
    <glyph glyph-name="K" unicode="K" horiz-adv-x="636" 
d="M635 0h-105l-367 333v-333h-67v725h67v-350l364 350h91l-384 -366z" />
    <glyph glyph-name="L" unicode="L" horiz-adv-x="557" 
d="M163 62h384v-62h-451v725h67v-663z" />
    <glyph glyph-name="M" unicode="M" horiz-adv-x="886" 
d="M409 0l-246 661v-661h-67v725h108l240 -649l239 649h107v-725h-67v661l-246 -661h-68z" />
    <glyph glyph-name="N" unicode="N" horiz-adv-x="753" 
d="M560 0l-397 653v-653h-67v725h97l397 -654v654h67v-725h-97z" />
    <glyph glyph-name="O" unicode="O" horiz-adv-x="764" 
d="M382 -13q-153 0 -242.5 104t-89.5 272t89.5 271.5t242.5 103.5t242.5 -103.5t89.5 -271.5t-89.5 -272t-242.5 -104zM382 51q115 0 188 83t73 229q0 145 -73 228t-188 83t-188 -83t-73 -228q0 -146 73 -229t188 -83z" />
    <glyph glyph-name="P" unicode="P" horiz-adv-x="637" 
d="M313 725q70 0 120.5 -9.5t92.5 -32t63 -66t21 -106.5q0 -64 -21 -106.5t-63 -65t-92 -31t-121 -8.5h-150v-300h-67v725h217zM163 664v-302h159q41 0 69 2.5t58.5 11t48.5 24.5t30 44t12 67q0 49 -16.5 80.5t-49 47t-67 20.5t-85.5 5h-159z" />
    <glyph glyph-name="Q" unicode="Q" horiz-adv-x="764" 
d="M630 98l97 -97l-44 -43l-96 96q-84 -67 -205 -67q-153 0 -242.5 104t-89.5 272t89.5 271.5t242.5 103.5t242.5 -103.5t89.5 -271.5q0 -162 -84 -265zM382 51q90 0 156 52l-65 66l44 43l64 -65q62 84 62 216q0 145 -73 228t-188 83t-188 -83t-73 -228q0 -146 73 -229
t188 -83z" />
    <glyph glyph-name="R" unicode="R" horiz-adv-x="662" 
d="M370 322q-19 -2 -61 -2h-146v-320h-67v725h213q71 0 120 -7.5t91.5 -28t63.5 -61.5t21 -102q0 -88 -42.5 -134t-122.5 -62l176 -330h-75zM163 664v-283h155q40 0 68.5 2.5t58.5 11t48.5 23.5t30 42t11.5 64t-12 63.5t-29.5 41t-48 23t-58.5 10.5t-69 2h-155z" />
    <glyph glyph-name="S" unicode="S" horiz-adv-x="628" 
d="M308 738q102 0 172.5 -48t93.5 -133l-66 -15q-19 63 -72 97.5t-135 34.5q-67 0 -121.5 -30t-54.5 -94q0 -97 140 -128l86 -19q48 -11 84 -23t76 -35t62 -60t22 -86q0 -100 -78 -156t-190 -56q-126 0 -202 59.5t-93 156.5l68 15q36 -167 224 -167q33 0 65.5 6.5t64.5 21
t51.5 43t19.5 66.5q0 111 -188 152l-91 20q-190 42 -190 187q0 93 76.5 142t175.5 49z" />
    <glyph glyph-name="T" unicode="T" horiz-adv-x="575" 
d="M254 663h-244v62h555v-62h-244v-663h-67v663z" />
    <glyph glyph-name="U" unicode="U" horiz-adv-x="728" 
d="M152 725v-444q0 -119 49 -174.5t162 -55.5q114 0 163.5 60t49.5 182v432h67v-424q0 -162 -64.5 -238t-215.5 -76q-149 0 -213.5 69.5t-64.5 236.5v432h67z" />
    <glyph glyph-name="V" unicode="V" horiz-adv-x="629" 
d="M89 725l228 -642l224 642h72l-260 -725h-77l-261 725h74z" />
    <glyph glyph-name="W" unicode="W" horiz-adv-x="948" 
d="M675 88l181 637h72l-217 -725h-77l-160 608l-159 -608h-77l-218 725h74l185 -637l158 637h75z" />
    <glyph glyph-name="X" unicode="X" horiz-adv-x="660" 
d="M289 373l-250 352h83l209 -293l212 293h80l-252 -349l269 -376h-84l-227 317l-229 -317h-80z" />
    <glyph glyph-name="Y" unicode="Y" horiz-adv-x="595" 
d="M75 725l218 -384l225 384h77l-271 -453v-272h-67v274l-257 451h75z" />
    <glyph glyph-name="Z" unicode="Z" horiz-adv-x="638" 
d="M589 665l-460 -603h470v-62h-551v60l461 603h-425v62h505v-60z" />
    <glyph glyph-name="bracketleft" unicode="[" horiz-adv-x="277" 
d="M257 725v-59h-110v-782h110v-59h-172v900h172z" />
    <glyph glyph-name="backslash" unicode="\" horiz-adv-x="373" 
d="M363 0h-64l-289 725h63z" />
    <glyph glyph-name="bracketright" unicode="]" horiz-adv-x="277" 
d="M192 725v-900h-172v59h110v782h-110v59h172z" />
    <glyph glyph-name="asciicircum" unicode="^" horiz-adv-x="435" 
d="M446 338h-71l-158 309l-158 -309h-71l196 387h67z" />
    <glyph glyph-name="underscore" unicode="_" horiz-adv-x="421" 
d="M21 -63v63h380v-63h-380z" />
    <glyph glyph-name="grave" unicode="`" horiz-adv-x="229" 
d="M22 725h95l90 -116h-55z" />
    <glyph glyph-name="a" unicode="a" horiz-adv-x="549" 
d="M423 82q-58 -95 -202 -95q-76 0 -127 43t-51 110q0 115 175 151q45 9 162 29q26 5 35 12t9 25q0 119 -149 119q-69 0 -109.5 -33.5t-44.5 -87.5l-64 5q12 78 71.5 124.5t147.5 46.5q104 0 156.5 -47.5t51.5 -154.5q-1 -75 -1 -157q0 -56 6 -172h-63zM235 42
q190 0 190 194v40q-45 -9 -136 -23q-90 -14 -133.5 -39.5t-43.5 -68.5q0 -48 34.5 -75.5t88.5 -27.5z" />
    <glyph glyph-name="b" unicode="b" horiz-adv-x="596" 
d="M329 -13q-122 0 -182 101v-88h-62v725h62v-298q60 102 182 102q97 0 161 -72.5t64 -198.5t-64 -198.5t-161 -72.5zM316 43q77 0 124 57t47 158t-47 158t-124 57q-69 0 -121 -54t-52 -161t52 -161t121 -54z" />
    <glyph glyph-name="c" unicode="c" horiz-adv-x="551" 
d="M508 361l-62 -14q-15 60 -58.5 92.5t-103.5 32.5q-74 0 -124.5 -57t-50.5 -156q0 -102 50.5 -158.5t125.5 -56.5q66 0 109.5 36t55.5 90l63 -14q-20 -78 -81.5 -123.5t-146.5 -45.5q-112 0 -177 75.5t-65 195.5q0 121 66 196t181 75q84 0 142.5 -48t75.5 -120z" />
    <glyph glyph-name="d" unicode="d" horiz-adv-x="596" 
d="M267 529q122 0 182 -102v298h62v-725h-62v88q-60 -101 -182 -101q-97 0 -161 72.5t-64 198.5t64 198.5t161 72.5zM280 473q-77 0 -124 -57t-47 -158t47 -158t124 -57q69 0 121 54t52 161t-52 161t-121 54z" />
    <glyph glyph-name="e" unicode="e" horiz-adv-x="578" 
d="M295 529q112 0 179 -82t61 -203h-427q1 -90 55 -145t138 -55q63 0 105.5 30.5t58.5 86.5l61 -14q-22 -76 -83 -118t-146 -42q-117 0 -185.5 75.5t-68.5 195.5q0 121 71 196t181 75zM110 301h357q0 66 -48 119t-125 53q-75 0 -124.5 -45.5t-59.5 -126.5z" />
    <glyph glyph-name="f" unicode="f" horiz-adv-x="295" 
d="M100 583q0 68 25 107t94 39q29 0 53 -4l-5 -57q-28 5 -42 5q-22 0 -35 -7t-19 -22.5t-7.5 -30t-1.5 -39.5v-54h107v-54h-107v-466h-62v466h-74v54h74v63z" />
    <glyph glyph-name="g" unicode="g" horiz-adv-x="593" 
d="M445 110q-57 -101 -182 -101q-95 0 -159.5 70.5t-64.5 189.5q0 118 64.5 189t159.5 71q124 0 182 -102v93h63v-501q0 -103 -63 -155t-165 -52q-82 0 -139.5 41t-67.5 110l64 7q6 -46 43 -75t102 -29q78 0 120.5 36.5t42.5 109.5v98zM276 473q-76 0 -123 -55t-47 -149
q0 -95 47 -150t123 -55q69 0 121.5 52.5t52.5 152.5t-52.5 152t-121.5 52z" />
    <glyph glyph-name="h" unicode="h" horiz-adv-x="576" 
d="M147 429q51 100 179 100q181 0 181 -208v-321h-62v304q0 83 -29 126t-106 43q-70 0 -116.5 -53.5t-46.5 -138.5v-281h-62v725h62v-296z" />
    <glyph glyph-name="i" unicode="i" horiz-adv-x="232" 
d="M147 725v-99h-62v99h62zM147 520v-520h-62v520h62z" />
    <glyph glyph-name="j" unicode="j" horiz-adv-x="232" 
d="M147 725v-99h-62v99h62zM35 -179q-25 0 -56 3l3 56q24 -4 45 -4t33 4.5t17.5 17t6.5 24.5t1 37v579h62v-587q0 -73 -21.5 -101.5t-90.5 -28.5z" />
    <glyph glyph-name="k" unicode="k" horiz-adv-x="498" 
d="M490 0h-82l-261 253v-253h-62v725h62v-432l246 227h79l-265 -245z" />
    <glyph glyph-name="l" unicode="l" horiz-adv-x="232" 
d="M147 0h-62v725h62v-725z" />
    <glyph glyph-name="m" unicode="m" horiz-adv-x="896" 
d="M147 0h-62v520h62v-91q51 100 169 100q124 0 158 -107q65 107 182 107q171 0 171 -208v-321h-62v304q0 84 -26 126.5t-99 42.5q-67 0 -110 -53.5t-43 -138.5v-281h-62v304q0 84 -26 126.5t-99 42.5q-67 0 -110 -53.5t-43 -138.5v-281z" />
    <glyph glyph-name="n" unicode="n" horiz-adv-x="576" 
d="M147 429q51 100 179 100q181 0 181 -208v-321h-62v304q0 83 -29 126t-106 43q-70 0 -116.5 -53.5t-46.5 -138.5v-281h-62v520h62v-91z" />
    <glyph glyph-name="o" unicode="o" horiz-adv-x="573" 
d="M286 529q103 0 173.5 -70.5t70.5 -199.5t-70.5 -200.5t-173.5 -71.5t-173 71.5t-70 200.5t70 199.5t173 70.5zM286 44q79 0 128.5 57t49.5 158t-49 157t-129 56q-79 0 -128 -56t-49 -157t49 -158t128 -57z" />
    <glyph glyph-name="p" unicode="p" horiz-adv-x="596" 
d="M329 -13q-122 0 -182 102v-264h-62v695h62v-92q60 101 182 101q97 0 161 -72.5t64 -198.5t-64 -198.5t-161 -72.5zM316 43q77 0 124 57t47 158t-47 158t-124 57q-69 0 -121 -54t-52 -161t52 -161t121 -54z" />
    <glyph glyph-name="q" unicode="q" horiz-adv-x="596" 
d="M267 529q122 0 182 -101v92h62v-695h-62v264q-60 -102 -182 -102q-97 0 -161 72.5t-64 198.5t64 198.5t161 72.5zM280 473q-77 0 -124 -57t-47 -158t47 -158t124 -57q69 0 121 54t52 161t-52 161t-121 54z" />
    <glyph glyph-name="r" unicode="r" horiz-adv-x="332" 
d="M321 457q-10 1 -28 1q-147 0 -147 -194v-264h-61v520h59v-98q17 46 63 74t96 28q12 0 18 -1v-66z" />
    <glyph glyph-name="s" unicode="s" horiz-adv-x="541" 
d="M407 372q-10 48 -50 75t-98 27q-53 0 -95 -20t-42 -62q0 -69 101 -88l76 -14q39 -7 67.5 -16t57.5 -25t45 -42.5t16 -61.5q0 -75 -61 -116.5t-153 -41.5q-84 0 -144 41.5t-77 122.5l63 14q9 -61 53.5 -92t109.5 -31q57 0 101.5 23t44.5 70q0 41 -35 62.5t-98 33.5l-84 16
q-64 12 -105 47.5t-41 92.5q0 62 58 102t148 40q79 0 133.5 -40.5t70.5 -102.5z" />
    <glyph glyph-name="t" unicode="t" horiz-adv-x="321" 
d="M110 651h62v-131h107v-54h-107v-326q0 -26 1 -38t6.5 -25.5t18 -18.5t33.5 -5t45 4l3 -56q-31 -3 -56 -3q-69 0 -91 28.5t-22 101.5v338h-89v54h89v131z" />
    <glyph glyph-name="u" unicode="u" horiz-adv-x="564" 
d="M417 87q-51 -100 -173 -100q-175 0 -175 208v325h62v-308q0 -83 27.5 -126t101.5 -43q66 0 111.5 54t45.5 138v285h62v-520h-62v87z" />
    <glyph glyph-name="v" unicode="v" horiz-adv-x="486" 
d="M247 86l162 434h67l-200 -520h-60l-206 520h70z" />
    <glyph glyph-name="w" unicode="w" horiz-adv-x="735" 
d="M336 520h62l138 -423l115 423h69l-156 -520h-58l-141 434l-137 -434h-57l-156 520h69l119 -422z" />
    <glyph glyph-name="x" unicode="x" horiz-adv-x="499" 
d="M483 0h-73l-162 220l-161 -220h-72l197 268l-186 252h74l149 -202l149 202h70l-184 -250z" />
    <glyph glyph-name="y" unicode="y" horiz-adv-x="486" 
d="M148 -175l68 175l-206 520h70l167 -434l162 434h67l-267 -695h-61z" />
    <glyph glyph-name="z" unicode="z" horiz-adv-x="500" 
d="M42 54l331 412h-309v54h383v-54l-332 -412h337v-54h-410v54z" />
    <glyph glyph-name="braceleft" unicode="{" horiz-adv-x="265" 
d="M97 -47v183q0 53 -15 80t-61 30v59q46 3 61 30t15 80v182q0 74 25 101t100 27h23v-57h-10q-50 0 -62.5 -13t-12.5 -59v-183q0 -67 -19 -97t-61 -39v-3q42 -9 61 -39t19 -97v-184q0 -47 12.5 -59.5t62.5 -12.5h10v-57h-23q-75 0 -100 27t-25 101z" />
    <glyph glyph-name="bar" unicode="|" horiz-adv-x="254" 
d="M158 725v-815h-62v815h62z" />
    <glyph glyph-name="braceright" unicode="}" horiz-adv-x="265" 
d="M20 -118h10q50 0 62.5 13t12.5 59v184q0 67 19 97t61 39v3q-42 9 -61 39t-19 97v183q0 46 -13 59t-62 13h-10v57h23q75 0 99.5 -27t24.5 -101v-182q0 -53 15.5 -80t61.5 -30v-59q-46 -3 -61.5 -30t-15.5 -80v-183q0 -74 -24.5 -101t-99.5 -27h-23v57z" />
    <glyph glyph-name="asciitilde" unicode="~" horiz-adv-x="698" 
d="M531 332h64q-4 -63 -40 -96.5t-93 -33.5q-42 0 -118 36.5t-108 36.5q-29 0 -47.5 -18t-21.5 -55h-63q4 63 39.5 96.5t92.5 33.5q52 0 126 -36.5t100 -36.5q29 0 48 18.5t21 54.5z" />
    <glyph glyph-name="uni00A0" unicode="&#xa0;" horiz-adv-x="230" 
 />
    <glyph glyph-name="exclamdown" unicode="&#xa1;" horiz-adv-x="237" 
d="M75 426v94h87v-94h-87zM153 -175h-69v215l15 306h39l15 -306v-215z" />
    <glyph glyph-name="cent" unicode="&#xa2;" horiz-adv-x="551" 
d="M513 156q-19 -72 -74 -117t-132 -51v-90h-54v91q-98 11 -154 84.5t-56 184.5q0 110 55.5 183t154.5 86v99h54v-98q77 -5 131 -52.5t70 -114.5l-62 -14q-13 54 -50.5 86t-88.5 38v-426q57 6 94.5 41.5t48.5 83.5zM109 259q0 -90 40.5 -145t103.5 -67v422q-62 -12 -103 -67
t-41 -143z" />
    <glyph glyph-name="sterling" unicode="&#xa3;" horiz-adv-x="619" 
d="M148 562q0 -17 3.5 -34t12.5 -38t15 -33.5t19.5 -38t18.5 -34.5h202v-45h-180q21 -51 21 -86q0 -55 -29 -105.5t-70 -75.5l1 -1q40 13 73 13q31 0 92 -20.5t95 -20.5q59 0 118 24l23 -57q-65 -28 -131 -28q-38 0 -109.5 20.5t-111.5 20.5q-82 0 -148 -35l-22 50
q23 11 46.5 27t49 40.5t41.5 60.5t16 76q0 42 -24 97h-131v45h109q-1 2 -15 27.5t-16.5 31t-12.5 26.5t-12.5 32t-6 28t-3.5 32q0 89 71.5 133t169.5 44q107 0 173 -61t69 -161l-67 -5q-2 87 -51 129.5t-126 42.5q-43 0 -79 -9t-65 -37.5t-29 -74.5z" />
    <glyph glyph-name="currency" unicode="&#xa4;" horiz-adv-x="656" 
d="M134 487l-68 70l45 44l68 -67q64 51 146 51q84 0 150 -53l70 69l45 -44l-71 -72q45 -63 45 -139q0 -75 -45 -138l71 -72l-45 -45l-71 70q-65 -51 -149 -51q-82 0 -145 49l-69 -68l-45 45l69 70q-46 62 -46 140t45 141zM324 165q79 0 129.5 52t50.5 129q0 80 -50.5 133
t-129.5 53q-75 0 -124 -53.5t-49 -132.5q0 -77 49 -129t124 -52z" />
    <glyph glyph-name="yen" unicode="&#xa5;" horiz-adv-x="615" 
d="M332 100v-100h-63v100h-153v59h153v59h-153v60h145l-249 447h70l221 -403l228 403h72l-261 -447h156v-60h-166v-59h166v-59h-166z" />
    <glyph glyph-name="brokenbar" unicode="&#xa6;" horiz-adv-x="232" 
d="M147 725v-305h-62v305h62zM147 215v-305h-62v305h62z" />
    <glyph glyph-name="section" unicode="&#xa7;" horiz-adv-x="583" 
d="M416 -41q0 34 -23 62.5t-85 61.5l-134 72q-67 35 -99.5 74.5t-32.5 95.5q0 52 38.5 92.5t93.5 63.5q-76 53 -76 127q0 62 54 96t129 34q84 0 139.5 -41.5t64.5 -116.5l-66 -5q-19 108 -142 108q-52 0 -84 -19.5t-32 -53.5q0 -31 21 -54.5t71 -50.5l143 -78
q73 -39 108.5 -76t35.5 -92q0 -108 -126 -171q67 -51 67 -119q0 -72 -55 -113t-138 -41q-82 0 -137 43t-68 120l66 5q18 -113 140 -113q57 0 92 23.5t35 65.5zM225 450q-120 -49 -120 -122q0 -35 19.5 -61t71.5 -54l143 -77l29 -17q107 57 107 127q0 39 -27 68.5t-88 62.5z
" />
    <glyph glyph-name="dieresis" unicode="&#xa8;" horiz-adv-x="307" 
d="M22 725h62v-99h-62v99zM285 725v-99h-63v99h63z" />
    <glyph glyph-name="copyright" unicode="&#xa9;" horiz-adv-x="845" 
d="M423 738q158 0 266.5 -105.5t108.5 -270.5q0 -164 -108.5 -269.5t-266.5 -105.5q-159 0 -267.5 105t-108.5 270t108.5 270.5t267.5 105.5zM423 41q136 0 225 89.5t89 231.5q0 143 -89 232.5t-225 89.5q-135 0 -225 -89.5t-90 -232.5q0 -141 90 -231t225 -90zM537 291
l58 -17q-18 -52 -62 -84.5t-113 -32.5q-88 0 -137 55t-49 153q0 96 51.5 151t138.5 55q67 0 110 -34t58 -89l-57 -19q-9 40 -42 63t-73 23q-52 0 -88 -39t-36 -111t36 -112.5t88 -40.5q40 0 73 20t44 59z" />
    <glyph glyph-name="ordfeminine" unicode="&#xaa;" horiz-adv-x="343" 
d="M140 431q-43 0 -73 23t-30 61q0 48 46 70.5t149 35.5q19 1 19 18q0 45 -22 61.5t-60 16.5q-39 0 -60.5 -18.5t-24.5 -48.5l-38 4q6 42 39.5 68t85.5 26q57 0 87 -27t30 -88l-1 -85q0 -55 5 -110h-37l-2 54q-28 -61 -113 -61zM149 461q43 0 73 25.5t30 81.5v27l-71 -12
q-54 -9 -79 -24.5t-25 -42.5q0 -25 20 -40t52 -15z" />
    <glyph glyph-name="guillemotleft" unicode="&#xab;" horiz-adv-x="489" 
d="M26 283l157 227h66l-150 -226l150 -227h-65zM230 283l157 227h66l-150 -226l150 -227h-65z" />
    <glyph glyph-name="logicalnot" unicode="&#xac;" horiz-adv-x="698" 
d="M68 371v59h522v-332h-63v273h-459z" />
    <glyph glyph-name="uni00AD" unicode="&#xad;" horiz-adv-x="386" 
d="M53 239v70h280v-70h-280z" />
    <glyph glyph-name="registered" unicode="&#xae;" horiz-adv-x="845" 
d="M423 738q158 0 266.5 -105.5t108.5 -270.5q0 -164 -108.5 -269.5t-266.5 -105.5q-159 0 -267.5 105t-108.5 270t108.5 270.5t267.5 105.5zM423 41q136 0 225 89.5t89 231.5q0 143 -89 232.5t-225 89.5q-135 0 -225 -89.5t-90 -232.5q0 -141 90 -231t225 -90zM455 331
q-7 -1 -23 -1h-92v-155h-58v398h120q96 0 141.5 -24.5t45.5 -96.5q0 -77 -75 -108l91 -169h-67zM425 514h-85v-127h90q96 0 96 64q0 36 -26.5 49.5t-74.5 13.5z" />
    <glyph glyph-name="macron" unicode="&#xaf;" horiz-adv-x="322" 
d="M22 650v50h278v-50h-278z" />
    <glyph glyph-name="degree" unicode="&#xb0;" horiz-adv-x="357" 
d="M178 738q62 0 105 -42.5t43 -104.5q0 -61 -43 -104t-105 -43q-60 0 -103 43t-43 104q0 62 43 104.5t103 42.5zM178 499q38 0 61 26.5t23 65.5t-23 65.5t-61 26.5q-36 0 -58.5 -26.5t-22.5 -65.5t22.5 -65.5t58.5 -26.5z" />
    <glyph glyph-name="plusminus" unicode="&#xb1;" horiz-adv-x="698" 
d="M318 532h63v-180h242v-59h-242v-185h-63v185h-242v59h242v180zM76 0v59h547v-59h-547z" />
    <glyph glyph-name="uni00B2" unicode="&#xb2;" horiz-adv-x="375" 
d="M321 746q0 -65 -55.5 -126t-156.5 -133h223v-49h-295v47q117 86 172.5 145t55.5 109q0 31 -20 50.5t-55 19.5q-37 0 -61.5 -22t-25.5 -68l-55 4q1 59 40 94.5t103 35.5q58 0 94 -28.5t36 -78.5z" />
    <glyph glyph-name="uni00B3" unicode="&#xb3;" horiz-adv-x="372" 
d="M276 552q0 77 -117 77h-9v49h7q108 0 108 66q0 31 -22 48t-56 17q-40 0 -62 -21.5t-25 -56.5l-54 5q6 54 43 85.5t99 31.5q58 0 95.5 -24.5t37.5 -78.5q0 -67 -66 -95q77 -25 77 -102q0 -58 -42.5 -90t-105.5 -32q-67 0 -102.5 34t-41.5 88l54 6q9 -84 91 -84
q41 0 66 20.5t25 56.5z" />
    <glyph glyph-name="acute" unicode="&#xb4;" horiz-adv-x="229" 
d="M77 609h-55l90 116h95z" />
    <glyph glyph-name="paragraph" unicode="&#xb6;" horiz-adv-x="512" 
d="M251 725h175v-814h-62v755h-115v-755h-63v449q-74 8 -125 53t-51 124q0 89 61 138.5t180 49.5z" />
    <glyph glyph-name="periodcentered" unicode="&#xb7;" horiz-adv-x="236" 
d="M75 222v94h87v-94h-87z" />
    <glyph glyph-name="cedilla" unicode="&#xb8;" horiz-adv-x="219" 
d="M36 -141q25 -9 48 -9q57 0 57 32q0 30 -43 30q-25 0 -38 -9l-21 15l53 85h42l-32 -51q11 2 25 2q30 0 50 -18t20 -49q0 -37 -30 -57t-72 -20q-41 0 -73 9z" />
    <glyph glyph-name="uni00B9" unicode="&#xb9;" horiz-adv-x="244" 
d="M120 438v318h-95v36q47 2 71 12.5t41 41.5h36v-408h-53z" />
    <glyph glyph-name="ordmasculine" unicode="&#xba;" horiz-adv-x="350" 
d="M174 431q-59 0 -101.5 40t-42.5 117t42.5 117.5t101.5 40.5q60 0 102.5 -40.5t42.5 -117.5t-42.5 -117t-102.5 -40zM174 477q38 0 63 28.5t25 82.5q0 57 -24.5 84.5t-63.5 27.5t-63.5 -27t-24.5 -85q0 -56 25 -83.5t63 -27.5z" />
    <glyph glyph-name="guillemotright" unicode="&#xbb;" horiz-adv-x="489" 
d="M101 57h-65l150 227l-150 226h66l157 -227zM305 57h-65l150 227l-150 226h66l157 -227z" />
    <glyph glyph-name="onequarter" unicode="&#xbc;" horiz-adv-x="858" 
d="M120 317v318h-95v36q47 2 71 12.5t41 41.5h36v-408h-53zM70 0l500 725h69l-500 -725h-69zM823 100h-75v-100h-53v100h-201v50l200 258h54v-258h75v-50zM553 150h142v185z" />
    <glyph glyph-name="onehalf" unicode="&#xbd;" horiz-adv-x="840" 
d="M120 317v318h-95v36q47 2 71 12.5t41 41.5h36v-408h-53zM70 0l500 725h69l-500 -725h-69zM786 308q0 -65 -55.5 -126t-156.5 -133h223v-49h-295v47q117 86 172.5 145t55.5 109q0 31 -20 50.5t-55 19.5q-37 0 -61.5 -22t-25.5 -68l-55 8q2 57 41 91.5t102 34.5
q58 0 94 -28.5t36 -78.5z" />
    <glyph glyph-name="threequarters" unicode="&#xbe;" horiz-adv-x="986" 
d="M276 431q0 77 -117 77h-9v49h7q108 0 108 66q0 31 -22 48t-56 17q-40 0 -62 -21.5t-25 -56.5l-54 5q6 53 43 85t99 32q58 0 95.5 -24.5t37.5 -78.5q0 -67 -66 -95q77 -25 77 -102q0 -58 -42.5 -90t-105.5 -32q-67 0 -102.5 34t-41.5 88l54 6q9 -84 91 -84q41 0 66 20.5
t25 56.5zM198 0l500 725h69l-500 -725h-69zM951 100h-75v-100h-53v100h-201v50l200 258h54v-258h75v-50zM681 150h142v185z" />
    <glyph glyph-name="questiondown" unicode="&#xbf;" horiz-adv-x="493" 
d="M222 426v94h87v-94h-87zM10 -10q0 64 35.5 109t95.5 87q37 25 53.5 39.5t29 40.5t12.5 62v24h63v-24q0 -29 -6.5 -52.5t-14 -39t-27 -34.5t-32.5 -29.5t-42 -31.5q-26 -19 -38.5 -29.5t-30 -29.5t-25 -41t-7.5 -49q0 -57 43.5 -88.5t115.5 -31.5q82 0 123.5 45t45.5 102
l63 -5q-6 -88 -73 -142.5t-164 -54.5q-90 0 -155 45t-65 128z" />
    <glyph glyph-name="Agrave" unicode="&#xc0;" horiz-adv-x="647" 
d="M138 875h108l109 -113h-64zM285 725h76l276 -725h-73l-69 182h-345l-68 -182h-72zM173 244h298l-150 398z" />
    <glyph glyph-name="Aacute" unicode="&#xc1;" horiz-adv-x="647" 
d="M355 762h-65l110 113h107zM285 725h76l276 -725h-73l-69 182h-345l-68 -182h-72zM173 244h298l-150 398z" />
    <glyph glyph-name="Acircumflex" unicode="&#xc2;" horiz-adv-x="647" 
d="M498 762h-75l-100 77l-101 -77h-74l135 113h83zM285 725h76l276 -725h-73l-69 182h-345l-68 -182h-72zM173 244h298l-150 398z" />
    <glyph glyph-name="Atilde" unicode="&#xc3;" horiz-adv-x="647" 
d="M435 868h54q-8 -46 -34.5 -73t-65.5 -27q-31 0 -72.5 25t-56.5 25q-36 0 -48 -50h-54q6 48 34.5 74t66.5 26q30 0 70.5 -24t55.5 -24q38 0 50 48zM285 725h76l276 -725h-73l-69 182h-345l-68 -182h-72zM173 244h298l-150 398z" />
    <glyph glyph-name="Adieresis" unicode="&#xc4;" horiz-adv-x="647" 
d="M259 868v-99h-67v99h67zM455 868v-99h-67v99h67zM285 725h76l276 -725h-73l-69 182h-345l-68 -182h-72zM173 244h298l-150 398z" />
    <glyph glyph-name="Aring" unicode="&#xc5;" horiz-adv-x="647" 
d="M414 839q0 -37 -26 -61t-65 -24q-38 0 -64 24.5t-26 60.5q0 37 26.5 61t63.5 24q38 0 64.5 -24t26.5 -61zM275 839q0 -21 14.5 -34t33.5 -13t34 13t15 34t-15 34.5t-34 13.5t-33.5 -13.5t-14.5 -34.5zM285 725h76l276 -725h-73l-69 182h-345l-68 -182h-72zM173 244h298
l-150 398z" />
    <glyph glyph-name="AE" unicode="&#xc6;" horiz-adv-x="965" 
d="M919 725v-62h-398v-256h375v-63h-375v-282h398v-62h-465v182h-262l-110 -182h-72l444 725h465zM230 244h224v369z" />
    <glyph glyph-name="Ccedilla" unicode="&#xc7;" horiz-adv-x="719" 
d="M676 218q-27 -105 -103.5 -167t-193.5 -64l-22 -35q11 2 25 2q30 0 50 -18t20 -49q0 -37 -30 -57t-72 -20t-73 9l14 40q25 -9 48 -9q57 0 57 32q0 30 -43 30q-25 0 -38 -9l-21 15l44 70q-137 13 -212.5 114.5t-75.5 260.5q0 170 86 272.5t239 102.5q116 0 193.5 -62
t104.5 -169l-67 -15q-21 88 -84.5 135t-148.5 47q-111 0 -181.5 -82.5t-70.5 -228.5q0 -143 69.5 -227.5t182.5 -84.5q98 0 159 52.5t77 129.5z" />
    <glyph glyph-name="Egrave" unicode="&#xc8;" horiz-adv-x="606" 
d="M143 875h108l109 -113h-64zM96 725h465v-62h-398v-256h374v-63h-374v-282h398v-62h-465v725z" />
    <glyph glyph-name="Eacute" unicode="&#xc9;" horiz-adv-x="606" 
d="M360 762h-65l110 113h107zM96 725h465v-62h-398v-256h374v-63h-374v-282h398v-62h-465v725z" />
    <glyph glyph-name="Ecircumflex" unicode="&#xca;" horiz-adv-x="606" 
d="M503 762h-75l-100 77l-101 -77h-74l135 113h83zM96 725h465v-62h-398v-256h374v-63h-374v-282h398v-62h-465v725z" />
    <glyph glyph-name="Edieresis" unicode="&#xcb;" horiz-adv-x="606" 
d="M264 868v-99h-67v99h67zM460 868v-99h-67v99h67zM96 725h465v-62h-398v-256h374v-63h-374v-282h398v-62h-465v725z" />
    <glyph glyph-name="Igrave" unicode="&#xcc;" horiz-adv-x="259" 
d="M-56 875h108l109 -113h-64zM163 0h-67v725h67v-725z" />
    <glyph glyph-name="Iacute" unicode="&#xcd;" horiz-adv-x="259" 
d="M161 762h-65l110 113h107zM163 0h-67v725h67v-725z" />
    <glyph glyph-name="Icircumflex" unicode="&#xce;" horiz-adv-x="259" 
d="M304 762h-75l-100 77l-101 -77h-74l135 113h83zM163 0h-67v725h67v-725z" />
    <glyph glyph-name="Idieresis" unicode="&#xcf;" horiz-adv-x="259" 
d="M65 868v-99h-67v99h67zM261 868v-99h-67v99h67zM163 0h-67v725h67v-725z" />
    <glyph glyph-name="Eth" unicode="&#xd0;" horiz-adv-x="726" 
d="M282 725q91 0 159.5 -18t123 -58.5t82.5 -112t28 -173.5t-28 -174t-82.5 -112.5t-123 -58.5t-159.5 -18h-176v339h-85v62h85v324h176zM280 664h-107v-263h170v-62h-170v-278h107q56 0 98 5.5t87 24t73.5 50.5t47 88t18.5 134t-18.5 134t-47 88t-73.5 50t-87 23.5t-98 5.5
z" />
    <glyph glyph-name="Ntilde" unicode="&#xd1;" horiz-adv-x="753" 
d="M488 868h54q-8 -46 -34.5 -73t-65.5 -27q-31 0 -72.5 25t-56.5 25q-36 0 -48 -50h-54q6 48 34.5 74t66.5 26q30 0 70.5 -24t55.5 -24q38 0 50 48zM560 0l-397 653v-653h-67v725h97l397 -654v654h67v-725h-97z" />
    <glyph glyph-name="Ograve" unicode="&#xd2;" horiz-adv-x="764" 
d="M197 875h108l109 -113h-64zM382 -13q-153 0 -242.5 104t-89.5 272t89.5 271.5t242.5 103.5t242.5 -103.5t89.5 -271.5t-89.5 -272t-242.5 -104zM382 51q115 0 188 83t73 229q0 145 -73 228t-188 83t-188 -83t-73 -228q0 -146 73 -229t188 -83z" />
    <glyph glyph-name="Oacute" unicode="&#xd3;" horiz-adv-x="764" 
d="M414 762h-65l110 113h107zM382 -13q-153 0 -242.5 104t-89.5 272t89.5 271.5t242.5 103.5t242.5 -103.5t89.5 -271.5t-89.5 -272t-242.5 -104zM382 51q115 0 188 83t73 229q0 145 -73 228t-188 83t-188 -83t-73 -228q0 -146 73 -229t188 -83z" />
    <glyph glyph-name="Ocircumflex" unicode="&#xd4;" horiz-adv-x="764" 
d="M557 762h-75l-100 77l-101 -77h-74l135 113h83zM382 -13q-153 0 -242.5 104t-89.5 272t89.5 271.5t242.5 103.5t242.5 -103.5t89.5 -271.5t-89.5 -272t-242.5 -104zM382 51q115 0 188 83t73 229q0 145 -73 228t-188 83t-188 -83t-73 -228q0 -146 73 -229t188 -83z" />
    <glyph glyph-name="Otilde" unicode="&#xd5;" horiz-adv-x="764" 
d="M494 868h54q-8 -46 -34.5 -73t-65.5 -27q-31 0 -72.5 25t-56.5 25q-36 0 -48 -50h-54q6 48 34.5 74t66.5 26q30 0 70.5 -24t55.5 -24q38 0 50 48zM382 -13q-153 0 -242.5 104t-89.5 272t89.5 271.5t242.5 103.5t242.5 -103.5t89.5 -271.5t-89.5 -272t-242.5 -104zM382 51
q115 0 188 83t73 229q0 145 -73 228t-188 83t-188 -83t-73 -228q0 -146 73 -229t188 -83z" />
    <glyph glyph-name="Odieresis" unicode="&#xd6;" horiz-adv-x="764" 
d="M318 868v-99h-67v99h67zM514 868v-99h-67v99h67zM382 -13q-153 0 -242.5 104t-89.5 272t89.5 271.5t242.5 103.5t242.5 -103.5t89.5 -271.5t-89.5 -272t-242.5 -104zM382 51q115 0 188 83t73 229q0 145 -73 228t-188 83t-188 -83t-73 -228q0 -146 73 -229t188 -83z" />
    <glyph glyph-name="multiply" unicode="&#xd7;" horiz-adv-x="698" 
d="M535 40l-186 186l-186 -186l-44 44l186 186l-186 186l44 44l186 -186l186 186l45 -44l-187 -186l187 -186z" />
    <glyph glyph-name="Oslash" unicode="&#xd8;" horiz-adv-x="764" 
d="M382 -13q-128 0 -214 75l-65 -76l-40 36l68 80q-81 101 -81 261q0 168 89.5 271.5t242.5 103.5q134 0 222 -82l63 74l40 -35l-68 -80q75 -100 75 -252q0 -168 -89.5 -272t-242.5 -104zM177 156l382 447q-71 71 -177 71q-115 0 -188 -83t-73 -228q0 -128 56 -207zM592 560
l-380 -445q69 -64 170 -64q115 0 188 83t73 229q0 117 -51 197z" />
    <glyph glyph-name="Ugrave" unicode="&#xd9;" horiz-adv-x="728" 
d="M178 875h108l109 -113h-64zM152 725v-444q0 -119 49 -174.5t162 -55.5q114 0 163.5 60t49.5 182v432h67v-424q0 -162 -64.5 -238t-215.5 -76q-149 0 -213.5 69.5t-64.5 236.5v432h67z" />
    <glyph glyph-name="Uacute" unicode="&#xda;" horiz-adv-x="728" 
d="M395 762h-65l110 113h107zM152 725v-444q0 -119 49 -174.5t162 -55.5q114 0 163.5 60t49.5 182v432h67v-424q0 -162 -64.5 -238t-215.5 -76q-149 0 -213.5 69.5t-64.5 236.5v432h67z" />
    <glyph glyph-name="Ucircumflex" unicode="&#xdb;" horiz-adv-x="728" 
d="M538 762h-75l-100 77l-101 -77h-74l135 113h83zM152 725v-444q0 -119 49 -174.5t162 -55.5q114 0 163.5 60t49.5 182v432h67v-424q0 -162 -64.5 -238t-215.5 -76q-149 0 -213.5 69.5t-64.5 236.5v432h67z" />
    <glyph glyph-name="Udieresis" unicode="&#xdc;" horiz-adv-x="728" 
d="M299 868v-99h-67v99h67zM495 868v-99h-67v99h67zM152 725v-444q0 -119 49 -174.5t162 -55.5q114 0 163.5 60t49.5 182v432h67v-424q0 -162 -64.5 -238t-215.5 -76q-149 0 -213.5 69.5t-64.5 236.5v432h67z" />
    <glyph glyph-name="Yacute" unicode="&#xdd;" horiz-adv-x="595" 
d="M329 762h-65l110 113h107zM75 725l218 -384l225 384h77l-271 -453v-272h-67v274l-257 451h75z" />
    <glyph glyph-name="Thorn" unicode="&#xde;" horiz-adv-x="620" 
d="M303 592q69 0 120 -10t92.5 -34t63 -68t21.5 -108t-21.5 -107.5t-63 -66.5t-92.5 -32.5t-120 -9.5h-140v-156h-67v725h67v-133h140zM163 529v-311h148q40 0 69.5 3t59 12.5t48.5 26t30.5 45t11.5 67.5q0 49 -16.5 81.5t-49 48t-68 21.5t-85.5 6h-148z" />
    <glyph glyph-name="germandbls" unicode="&#xdf;" horiz-adv-x="632" 
d="M85 0v485q0 119 38 172q55 81 199 81q96 0 155 -46t59 -123q0 -120 -108 -160q73 -14 117 -66.5t44 -135.5q0 -111 -72 -165.5t-186 -54.5q-61 0 -102 8l11 60q42 -10 97 -10q80 0 133 37.5t53 121.5q0 85 -59 126.5t-157 41.5h-9v61h10q78 0 120.5 34.5t42.5 93.5
q0 56 -41 89t-109 33q-105 0 -143 -55q-31 -43 -31 -149v-479h-62z" />
    <glyph glyph-name="agrave" unicode="&#xe0;" horiz-adv-x="549" 
d="M109 725h95l90 -116h-55zM423 82q-58 -95 -202 -95q-76 0 -127 43t-51 110q0 115 175 151q45 9 162 29q26 5 35 12t9 25q0 119 -149 119q-69 0 -109.5 -33.5t-44.5 -87.5l-64 5q12 78 71.5 124.5t147.5 46.5q104 0 156.5 -47.5t51.5 -154.5q-1 -75 -1 -157q0 -56 6 -172
h-63zM235 42q190 0 190 194v40q-45 -9 -136 -23q-90 -14 -133.5 -39.5t-43.5 -68.5q0 -48 34.5 -75.5t88.5 -27.5z" />
    <glyph glyph-name="aacute" unicode="&#xe1;" horiz-adv-x="549" 
d="M294 609h-55l90 116h95zM423 82q-58 -95 -202 -95q-76 0 -127 43t-51 110q0 115 175 151q45 9 162 29q26 5 35 12t9 25q0 119 -149 119q-69 0 -109.5 -33.5t-44.5 -87.5l-64 5q12 78 71.5 124.5t147.5 46.5q104 0 156.5 -47.5t51.5 -154.5q-1 -75 -1 -157q0 -56 6 -172
h-63zM235 42q190 0 190 194v40q-45 -9 -136 -23q-90 -14 -133.5 -39.5t-43.5 -68.5q0 -48 34.5 -75.5t88.5 -27.5z" />
    <glyph glyph-name="acircumflex" unicode="&#xe2;" horiz-adv-x="549" 
d="M427 609h-64l-97 76l-98 -76h-63l127 116h71zM423 82q-58 -95 -202 -95q-76 0 -127 43t-51 110q0 115 175 151q45 9 162 29q26 5 35 12t9 25q0 119 -149 119q-69 0 -109.5 -33.5t-44.5 -87.5l-64 5q12 78 71.5 124.5t147.5 46.5q104 0 156.5 -47.5t51.5 -154.5
q-1 -75 -1 -157q0 -56 6 -172h-63zM235 42q190 0 190 194v40q-45 -9 -136 -23q-90 -14 -133.5 -39.5t-43.5 -68.5q0 -48 34.5 -75.5t88.5 -27.5z" />
    <glyph glyph-name="atilde" unicode="&#xe3;" horiz-adv-x="549" 
d="M378 721h54q-8 -46 -34.5 -73t-65.5 -27q-31 0 -72.5 24.5t-56.5 24.5q-36 0 -48 -49h-54q7 47 35 73.5t66 26.5q30 0 70.5 -24t55.5 -24q38 0 50 48zM423 82q-58 -95 -202 -95q-76 0 -127 43t-51 110q0 115 175 151q45 9 162 29q26 5 35 12t9 25q0 119 -149 119
q-69 0 -109.5 -33.5t-44.5 -87.5l-64 5q12 78 71.5 124.5t147.5 46.5q104 0 156.5 -47.5t51.5 -154.5q-1 -75 -1 -157q0 -56 6 -172h-63zM235 42q190 0 190 194v40q-45 -9 -136 -23q-90 -14 -133.5 -39.5t-43.5 -68.5q0 -48 34.5 -75.5t88.5 -27.5z" />
    <glyph glyph-name="adieresis" unicode="&#xe4;" horiz-adv-x="549" 
d="M135 725h62v-99h-62v99zM398 725v-99h-63v99h63zM423 82q-58 -95 -202 -95q-76 0 -127 43t-51 110q0 115 175 151q45 9 162 29q26 5 35 12t9 25q0 119 -149 119q-69 0 -109.5 -33.5t-44.5 -87.5l-64 5q12 78 71.5 124.5t147.5 46.5q104 0 156.5 -47.5t51.5 -154.5
q-1 -75 -1 -157q0 -56 6 -172h-63zM235 42q190 0 190 194v40q-45 -9 -136 -23q-90 -14 -133.5 -39.5t-43.5 -68.5q0 -48 34.5 -75.5t88.5 -27.5z" />
    <glyph glyph-name="aring" unicode="&#xe5;" horiz-adv-x="549" 
d="M357 696q0 -37 -26 -61t-65 -24q-38 0 -64 24.5t-26 60.5q0 37 26.5 61t63.5 24q38 0 64.5 -24t26.5 -61zM218 696q0 -21 14.5 -34t33.5 -13t34 13t15 34t-15 34.5t-34 13.5t-33.5 -13.5t-14.5 -34.5zM423 82q-58 -95 -202 -95q-76 0 -127 43t-51 110q0 115 175 151
q45 9 162 29q26 5 35 12t9 25q0 119 -149 119q-69 0 -109.5 -33.5t-44.5 -87.5l-64 5q12 78 71.5 124.5t147.5 46.5q104 0 156.5 -47.5t51.5 -154.5q-1 -75 -1 -157q0 -56 6 -172h-63zM235 42q190 0 190 194v40q-45 -9 -136 -23q-90 -14 -133.5 -39.5t-43.5 -68.5
q0 -48 34.5 -75.5t88.5 -27.5z" />
    <glyph glyph-name="ae" unicode="&#xe6;" horiz-adv-x="943" 
d="M662 -13q-154 0 -209 132q-59 -132 -232 -132q-76 0 -127 43t-51 110q0 115 175 151q45 9 162 29q26 5 35 12t9 25q0 119 -149 119q-69 0 -109.5 -33.5t-44.5 -87.5l-64 5q12 78 71.5 124.5t147.5 46.5q155 0 190 -110q62 108 194 108q112 0 179 -82t61 -203h-427
q1 -90 55.5 -145t137.5 -55q63 0 105.5 30.5t58.5 86.5l61 -14q-22 -76 -83 -118t-146 -42zM475 301h357q0 66 -48 119t-125 53q-74 0 -124 -46t-60 -126zM425 276q-45 -9 -136 -23q-90 -14 -133.5 -39.5t-43.5 -68.5q0 -48 34.5 -75.5t88.5 -27.5q190 0 190 194v40z" />
    <glyph glyph-name="ccedilla" unicode="&#xe7;" horiz-adv-x="551" 
d="M513 156q-20 -75 -78.5 -120.5t-140.5 -48.5l-22 -35q11 2 25 2q30 0 50 -18t20 -49q0 -37 -30 -57t-72 -20q-41 0 -73 9l14 40q25 -9 48 -9q57 0 57 32q0 30 -43 30q-25 0 -38 -9l-21 15l44 71q-98 11 -154 84.5t-56 184.5q0 121 66 196t181 75q84 0 142.5 -48
t75.5 -120l-62 -14q-15 60 -58.5 92.5t-103.5 32.5q-74 0 -124.5 -57t-50.5 -156q0 -102 50.5 -158.5t125.5 -56.5q66 0 109.5 36t55.5 90z" />
    <glyph glyph-name="egrave" unicode="&#xe8;" horiz-adv-x="578" 
d="M317 609h-55l-130 116h95zM295 529q112 0 179 -82t61 -203h-427q1 -90 55 -145t138 -55q63 0 105.5 30.5t58.5 86.5l61 -14q-22 -76 -83 -118t-146 -42q-117 0 -185.5 75.5t-68.5 195.5q0 121 71 196t181 75zM110 301h357q0 66 -48 119t-125 53q-75 0 -124.5 -45.5
t-59.5 -126.5z" />
    <glyph glyph-name="eacute" unicode="&#xe9;" horiz-adv-x="578" 
d="M447 725l-130 -116h-55l90 116h95zM295 529q112 0 179 -82t61 -203h-427q1 -90 55 -145t138 -55q63 0 105.5 30.5t58.5 86.5l61 -14q-22 -76 -83 -118t-146 -42q-117 0 -185.5 75.5t-68.5 195.5q0 121 71 196t181 75zM110 301h357q0 66 -48 119t-125 53
q-75 0 -124.5 -45.5t-59.5 -126.5z" />
    <glyph glyph-name="ecircumflex" unicode="&#xea;" horiz-adv-x="578" 
d="M289 685l-98 -76h-63l127 116h71l124 -116h-64zM295 529q112 0 179 -82t61 -203h-427q1 -90 55 -145t138 -55q63 0 105.5 30.5t58.5 86.5l61 -14q-22 -76 -83 -118t-146 -42q-117 0 -185.5 75.5t-68.5 195.5q0 121 71 196t181 75zM110 301h357q0 66 -48 119t-125 53
q-75 0 -124.5 -45.5t-59.5 -126.5z" />
    <glyph glyph-name="edieresis" unicode="&#xeb;" horiz-adv-x="578" 
d="M220 725v-99h-62v99h62zM421 725v-99h-63v99h63zM295 529q112 0 179 -82t61 -203h-427q1 -90 55 -145t138 -55q63 0 105.5 30.5t58.5 86.5l61 -14q-22 -76 -83 -118t-146 -42q-117 0 -185.5 75.5t-68.5 195.5q0 121 71 196t181 75zM110 301h357q0 66 -48 119t-125 53
q-75 0 -124.5 -45.5t-59.5 -126.5z" />
    <glyph glyph-name="igrave" unicode="&#xec;" horiz-adv-x="232" 
d="M-42 725h95l90 -116h-55zM147 520v-520h-62v520h62z" />
    <glyph glyph-name="iacute" unicode="&#xed;" horiz-adv-x="232" 
d="M143 609h-55l90 116h95zM147 520v-520h-62v520h62z" />
    <glyph glyph-name="icircumflex" unicode="&#xee;" horiz-adv-x="232" 
d="M276 609h-64l-97 76l-98 -76h-63l127 116h71zM147 520v-520h-62v520h62z" />
    <glyph glyph-name="idieresis" unicode="&#xef;" horiz-adv-x="232" 
d="M-16 725h62v-99h-62v99zM247 725v-99h-63v99h63zM147 520v-520h-62v520h62z" />
    <glyph glyph-name="eth" unicode="&#xf0;" horiz-adv-x="555" 
d="M385 738l46 -26l-88 -53q169 -133 169 -358q0 -157 -65.5 -235.5t-172.5 -78.5q-104 0 -168 76t-64 205q0 126 64.5 202.5t165.5 76.5q49 0 89 -24t65 -59l1 1q-42 92 -138 160l-84 -51l-45 24l86 54q-28 17 -68 34l26 52q52 -21 100 -51zM445 268q0 107 -50.5 165
t-120.5 58q-75 0 -120 -60.5t-45 -162.5q0 -103 45 -164t120 -61q70 0 120.5 58.5t50.5 166.5z" />
    <glyph glyph-name="ntilde" unicode="&#xf1;" horiz-adv-x="576" 
d="M408 721h54q-8 -46 -34.5 -73t-65.5 -27q-31 0 -72.5 24.5t-56.5 24.5q-36 0 -48 -49h-54q7 47 35 73.5t66 26.5q30 0 70.5 -24t55.5 -24q38 0 50 48zM147 429q51 100 179 100q181 0 181 -208v-321h-62v304q0 83 -29 126t-106 43q-70 0 -116.5 -53.5t-46.5 -138.5v-281
h-62v520h62v-91z" />
    <glyph glyph-name="ograve" unicode="&#xf2;" horiz-adv-x="573" 
d="M129 725h95l90 -116h-55zM286 529q103 0 173.5 -70.5t70.5 -199.5t-70.5 -200.5t-173.5 -71.5t-173 71.5t-70 200.5t70 199.5t173 70.5zM286 44q79 0 128.5 57t49.5 158t-49 157t-129 56q-79 0 -128 -56t-49 -157t49 -158t128 -57z" />
    <glyph glyph-name="oacute" unicode="&#xf3;" horiz-adv-x="573" 
d="M314 609h-55l90 116h95zM286 529q103 0 173.5 -70.5t70.5 -199.5t-70.5 -200.5t-173.5 -71.5t-173 71.5t-70 200.5t70 199.5t173 70.5zM286 44q79 0 128.5 57t49.5 158t-49 157t-129 56q-79 0 -128 -56t-49 -157t49 -158t128 -57z" />
    <glyph glyph-name="ocircumflex" unicode="&#xf4;" horiz-adv-x="573" 
d="M447 609h-64l-97 76l-98 -76h-63l127 116h71zM286 529q103 0 173.5 -70.5t70.5 -199.5t-70.5 -200.5t-173.5 -71.5t-173 71.5t-70 200.5t70 199.5t173 70.5zM286 44q79 0 128.5 57t49.5 158t-49 157t-129 56q-79 0 -128 -56t-49 -157t49 -158t128 -57z" />
    <glyph glyph-name="otilde" unicode="&#xf5;" horiz-adv-x="573" 
d="M398 721h54q-8 -46 -34.5 -73t-65.5 -27q-31 0 -72.5 24.5t-56.5 24.5q-36 0 -48 -49h-54q7 47 35 73.5t66 26.5q30 0 70.5 -24t55.5 -24q38 0 50 48zM286 529q103 0 173.5 -70.5t70.5 -199.5t-70.5 -200.5t-173.5 -71.5t-173 71.5t-70 200.5t70 199.5t173 70.5zM286 44
q79 0 128.5 57t49.5 158t-49 157t-129 56q-79 0 -128 -56t-49 -157t49 -158t128 -57z" />
    <glyph glyph-name="odieresis" unicode="&#xf6;" horiz-adv-x="573" 
d="M155 725h62v-99h-62v99zM418 725v-99h-63v99h63zM286 529q103 0 173.5 -70.5t70.5 -199.5t-70.5 -200.5t-173.5 -71.5t-173 71.5t-70 200.5t70 199.5t173 70.5zM286 44q79 0 128.5 57t49.5 158t-49 157t-129 56q-79 0 -128 -56t-49 -157t49 -158t128 -57z" />
    <glyph glyph-name="divide" unicode="&#xf7;" horiz-adv-x="698" 
d="M307 473h87v-93h-87v93zM97 242v59h504v-59h-504zM307 164h87v-94h-87v94z" />
    <glyph glyph-name="oslash" unicode="&#xf8;" horiz-adv-x="573" 
d="M475 441q55 -71 55 -182q0 -129 -70.5 -200.5t-173.5 -71.5q-91 0 -154 54l-47 -54l-40 36l50 58q-52 71 -52 178q0 129 70 199.5t173 70.5q86 0 150 -50l50 58l41 -35zM109 259q0 -76 29 -128l259 302q-45 39 -111 39q-79 0 -128 -56t-49 -157zM286 44q79 0 128.5 57
t49.5 158q0 79 -32 133l-261 -305q46 -43 115 -43z" />
    <glyph glyph-name="ugrave" unicode="&#xf9;" horiz-adv-x="564" 
d="M116 725h95l90 -116h-55zM417 87q-51 -100 -173 -100q-175 0 -175 208v325h62v-308q0 -83 27.5 -126t101.5 -43q66 0 111.5 54t45.5 138v285h62v-520h-62v87z" />
    <glyph glyph-name="uacute" unicode="&#xfa;" horiz-adv-x="564" 
d="M301 609h-55l90 116h95zM417 87q-51 -100 -173 -100q-175 0 -175 208v325h62v-308q0 -83 27.5 -126t101.5 -43q66 0 111.5 54t45.5 138v285h62v-520h-62v87z" />
    <glyph glyph-name="ucircumflex" unicode="&#xfb;" horiz-adv-x="564" 
d="M434 609h-64l-97 76l-98 -76h-63l127 116h71zM417 87q-51 -100 -173 -100q-175 0 -175 208v325h62v-308q0 -83 27.5 -126t101.5 -43q66 0 111.5 54t45.5 138v285h62v-520h-62v87z" />
    <glyph glyph-name="udieresis" unicode="&#xfc;" horiz-adv-x="564" 
d="M142 725h62v-99h-62v99zM405 725v-99h-63v99h63zM417 87q-51 -100 -173 -100q-175 0 -175 208v325h62v-308q0 -83 27.5 -126t101.5 -43q66 0 111.5 54t45.5 138v285h62v-520h-62v87z" />
    <glyph glyph-name="yacute" unicode="&#xfd;" horiz-adv-x="486" 
d="M271 609h-55l90 116h95zM148 -175l68 175l-206 520h70l167 -434l162 434h67l-267 -695h-61z" />
    <glyph glyph-name="thorn" unicode="&#xfe;" horiz-adv-x="596" 
d="M329 -13q-122 0 -182 102v-264h-62v900h62v-297q60 101 182 101q97 0 161 -72.5t64 -198.5t-64 -198.5t-161 -72.5zM316 43q77 0 124 57t47 158t-47 158t-124 57q-69 0 -121 -54t-52 -161t52 -161t121 -54z" />
    <glyph glyph-name="ydieresis" unicode="&#xff;" horiz-adv-x="486" 
d="M112 725h62v-99h-62v99zM375 725v-99h-63v99h63zM148 -175l68 175l-206 520h70l167 -434l162 434h67l-267 -695h-61z" />
    <glyph glyph-name="Amacron" unicode="&#x100;" horiz-adv-x="647" 
d="M173 794v59h300v-59h-300zM285 725h76l276 -725h-73l-69 182h-345l-68 -182h-72zM173 244h298l-150 398z" />
    <glyph glyph-name="amacron" unicode="&#x101;" horiz-adv-x="549" 
d="M127 650v50h278v-50h-278zM423 82q-58 -95 -202 -95q-76 0 -127 43t-51 110q0 115 175 151q45 9 162 29q26 5 35 12t9 25q0 119 -149 119q-69 0 -109.5 -33.5t-44.5 -87.5l-64 5q12 78 71.5 124.5t147.5 46.5q104 0 156.5 -47.5t51.5 -154.5q-1 -75 -1 -157q0 -56 6 -172
h-63zM235 42q190 0 190 194v40q-45 -9 -136 -23q-90 -14 -133.5 -39.5t-43.5 -68.5q0 -48 34.5 -75.5t88.5 -27.5z" />
    <glyph glyph-name="Abreve" unicode="&#x102;" horiz-adv-x="647" 
d="M478 875q-5 -53 -47 -86t-109 -33q-65 0 -106.5 33t-46.5 86h59q4 -35 30.5 -52t64.5 -17t64.5 17.5t31.5 51.5h59zM285 725h76l276 -725h-73l-69 182h-345l-68 -182h-72zM173 244h298l-150 398z" />
    <glyph glyph-name="abreve" unicode="&#x103;" horiz-adv-x="549" 
d="M264 606q-64 0 -102.5 34t-43.5 85h56q3 -30 26.5 -51t64.5 -21t65.5 21t27.5 51h56q-6 -52 -45 -85.5t-105 -33.5zM423 82q-58 -95 -202 -95q-76 0 -127 43t-51 110q0 115 175 151q45 9 162 29q26 5 35 12t9 25q0 119 -149 119q-69 0 -109.5 -33.5t-44.5 -87.5l-64 5
q12 78 71.5 124.5t147.5 46.5q104 0 156.5 -47.5t51.5 -154.5q-1 -75 -1 -157q0 -56 6 -172h-63zM235 42q190 0 190 194v40q-45 -9 -136 -23q-90 -14 -133.5 -39.5t-43.5 -68.5q0 -48 34.5 -75.5t88.5 -27.5z" />
    <glyph glyph-name="Aogonek" unicode="&#x104;" horiz-adv-x="647" 
d="M285 725h76l276 -725q-91 -40 -91 -87q0 -23 14 -36.5t38 -13.5q18 0 39 7v-48q-23 -10 -57 -10q-41 0 -73 24.5t-32 65.5q0 36 25.5 60.5t63.5 37.5l-69 182h-345l-68 -182h-72zM173 244h298l-150 398z" />
    <glyph glyph-name="aogonek" unicode="&#x105;" horiz-adv-x="549" 
d="M423 82q-58 -95 -202 -95q-76 0 -127 43t-51 110q0 115 175 151q45 9 162 29q26 5 35 12t9 25q0 119 -149 119q-69 0 -109.5 -33.5t-44.5 -87.5l-64 7q13 77 72.5 123t146.5 46q104 0 156.5 -47.5t51.5 -154.5q-1 -75 -1 -157q0 -56 6 -172q-91 -40 -91 -84
q0 -25 15.5 -39t41.5 -14q19 0 34 5v-47q-21 -9 -52 -9q-41 0 -73 25t-32 65q0 69 94 98zM235 42q190 0 190 194v40q-45 -9 -136 -23q-90 -14 -133.5 -39.5t-43.5 -68.5q0 -48 34.5 -75.5t88.5 -27.5z" />
    <glyph glyph-name="Cacute" unicode="&#x106;" horiz-adv-x="719" 
d="M396 762h-65l110 113h107zM676 218q-27 -106 -105.5 -168.5t-198.5 -62.5q-152 0 -237 103.5t-85 272.5q0 170 86 272.5t239 102.5q116 0 193.5 -62t104.5 -169l-67 -15q-21 88 -84.5 135t-148.5 47q-111 0 -181.5 -82.5t-70.5 -228.5q0 -143 69.5 -227.5t182.5 -84.5
q98 0 159 52.5t77 129.5z" />
    <glyph glyph-name="cacute" unicode="&#x107;" horiz-adv-x="551" 
d="M307 609h-55l90 116h95zM508 361l-62 -14q-15 60 -58.5 92.5t-103.5 32.5q-74 0 -124.5 -57t-50.5 -156q0 -102 50.5 -158.5t125.5 -56.5q66 0 109.5 36t55.5 90l63 -14q-20 -78 -81.5 -123.5t-146.5 -45.5q-112 0 -177 75.5t-65 195.5q0 121 66 196t181 75
q84 0 142.5 -48t75.5 -120z" />
    <glyph glyph-name="Ccircumflex" unicode="&#x108;" horiz-adv-x="719" 
d="M539 762h-75l-100 77l-101 -77h-74l135 113h83zM676 218q-27 -106 -105.5 -168.5t-198.5 -62.5q-152 0 -237 103.5t-85 272.5q0 170 86 272.5t239 102.5q116 0 193.5 -62t104.5 -169l-67 -15q-21 88 -84.5 135t-148.5 47q-111 0 -181.5 -82.5t-70.5 -228.5
q0 -143 69.5 -227.5t182.5 -84.5q98 0 159 52.5t77 129.5z" />
    <glyph glyph-name="ccircumflex" unicode="&#x109;" horiz-adv-x="551" 
d="M440 609h-64l-97 76l-98 -76h-63l127 116h71zM508 361l-62 -14q-15 60 -58.5 92.5t-103.5 32.5q-74 0 -124.5 -57t-50.5 -156q0 -102 50.5 -158.5t125.5 -56.5q66 0 109.5 36t55.5 90l63 -14q-20 -78 -81.5 -123.5t-146.5 -45.5q-112 0 -177 75.5t-65 195.5q0 121 66 196
t181 75q84 0 142.5 -48t75.5 -120z" />
    <glyph glyph-name="Cdotaccent" unicode="&#x10a;" horiz-adv-x="719" 
d="M398 868v-99h-67v99h67zM676 218q-27 -106 -105.5 -168.5t-198.5 -62.5q-152 0 -237 103.5t-85 272.5q0 170 86 272.5t239 102.5q116 0 193.5 -62t104.5 -169l-67 -15q-21 88 -84.5 135t-148.5 47q-111 0 -181.5 -82.5t-70.5 -228.5q0 -143 69.5 -227.5t182.5 -84.5
q98 0 159 52.5t77 129.5z" />
    <glyph glyph-name="cdotaccent" unicode="&#x10b;" horiz-adv-x="551" 
d="M310 725v-99h-62v99h62zM508 361l-62 -14q-15 60 -58.5 92.5t-103.5 32.5q-74 0 -124.5 -57t-50.5 -156q0 -102 50.5 -158.5t125.5 -56.5q66 0 109.5 36t55.5 90l63 -14q-20 -78 -81.5 -123.5t-146.5 -45.5q-112 0 -177 75.5t-65 195.5q0 121 66 196t181 75
q84 0 142.5 -48t75.5 -120z" />
    <glyph glyph-name="Ccaron" unicode="&#x10c;" horiz-adv-x="719" 
d="M189 875h74l100 -77l101 77h75l-135 -113h-84zM676 218q-27 -106 -105.5 -168.5t-198.5 -62.5q-152 0 -237 103.5t-85 272.5q0 170 86 272.5t239 102.5q116 0 193.5 -62t104.5 -169l-67 -15q-21 88 -84.5 135t-148.5 47q-111 0 -181.5 -82.5t-70.5 -228.5
q0 -143 69.5 -227.5t182.5 -84.5q98 0 159 52.5t77 129.5z" />
    <glyph glyph-name="ccaron" unicode="&#x10d;" horiz-adv-x="551" 
d="M118 725h63l97 -75l98 75h64l-127 -116h-71zM508 361l-62 -14q-15 60 -58.5 92.5t-103.5 32.5q-74 0 -124.5 -57t-50.5 -156q0 -102 50.5 -158.5t125.5 -56.5q66 0 109.5 36t55.5 90l63 -14q-20 -78 -81.5 -123.5t-146.5 -45.5q-112 0 -177 75.5t-65 195.5q0 121 66 196
t181 75q84 0 142.5 -48t75.5 -120z" />
    <glyph glyph-name="Dcaron" unicode="&#x10e;" horiz-adv-x="715" 
d="M179 875h74l100 -77l101 77h75l-135 -113h-84zM272 725q91 0 159.5 -18t123 -58.5t82.5 -112t28 -173.5t-28 -174t-82.5 -112.5t-123 -58.5t-159.5 -18h-176v725h176zM270 664h-107v-603h107q56 0 98 5.5t87 24t73.5 50.5t47 88t18.5 134t-18.5 134t-47 88t-73.5 50
t-87 23.5t-98 5.5z" />
    <glyph glyph-name="dcaron" unicode="&#x10f;" horiz-adv-x="596" 
d="M267 529q122 0 182 -102v298h62v-725h-62v88q-60 -101 -182 -101q-97 0 -161 72.5t-64 198.5t64 198.5t161 72.5zM589 555h-36l30 170h76zM280 473q-77 0 -124 -57t-47 -158t47 -158t124 -57q69 0 121 54t52 161t-52 161t-121 54z" />
    <glyph glyph-name="Dcroat" unicode="&#x110;" horiz-adv-x="726" 
d="M282 725q91 0 159.5 -18t123 -58.5t82.5 -112t28 -173.5t-28 -174t-82.5 -112.5t-123 -58.5t-159.5 -18h-176v339h-85v62h85v324h176zM280 664h-107v-263h170v-62h-170v-278h107q56 0 98 5.5t87 24t73.5 50.5t47 88t18.5 134t-18.5 134t-47 88t-73.5 50t-87 23.5t-98 5.5
z" />
    <glyph glyph-name="dcroat" unicode="&#x111;" horiz-adv-x="596" 
d="M267 547q122 0 182 -102v147h-141v54h141v79h62v-79h70v-54h-70v-592h-62v88q-60 -101 -182 -101q-97 0 -161 75t-64 205q0 129 64.5 204.5t160.5 75.5zM280 491q-77 0 -124 -59.5t-47 -164.5t47 -164.5t124 -59.5q69 0 121 57t52 167t-52 167t-121 57z" />
    <glyph glyph-name="Emacron" unicode="&#x112;" horiz-adv-x="606" 
d="M178 794v59h300v-59h-300zM96 725h465v-62h-398v-256h374v-63h-374v-282h398v-62h-465v725z" />
    <glyph glyph-name="emacron" unicode="&#x113;" horiz-adv-x="578" 
d="M428 700v-50h-278v50h278zM295 529q112 0 179 -82t61 -203h-427q1 -90 55 -145t138 -55q63 0 105.5 30.5t58.5 86.5l61 -14q-22 -76 -83 -118t-146 -42q-117 0 -185.5 75.5t-68.5 195.5q0 121 71 196t181 75zM110 301h357q0 66 -48 119t-125 53q-75 0 -124.5 -45.5
t-59.5 -126.5z" />
    <glyph glyph-name="Ebreve" unicode="&#x114;" horiz-adv-x="606" 
d="M483 875q-5 -53 -47 -86t-109 -33q-65 0 -106.5 33t-46.5 86h59q4 -35 30.5 -52t64.5 -17t64.5 17.5t31.5 51.5h59zM96 725h465v-62h-398v-256h374v-63h-374v-282h398v-62h-465v725z" />
    <glyph glyph-name="ebreve" unicode="&#x115;" horiz-adv-x="578" 
d="M287 606q-64 0 -102.5 34t-43.5 85h56q3 -30 26.5 -51t64.5 -21q42 0 66 21t27 51h56q-6 -52 -45 -85.5t-105 -33.5zM295 529q112 0 179 -82t61 -203h-427q1 -90 55 -145t138 -55q63 0 105.5 30.5t58.5 86.5l61 -14q-22 -76 -83 -118t-146 -42q-117 0 -185.5 75.5
t-68.5 195.5q0 121 71 196t181 75zM110 301h357q0 66 -48 119t-125 53q-75 0 -124.5 -45.5t-59.5 -126.5z" />
    <glyph glyph-name="Edotaccent" unicode="&#x116;" horiz-adv-x="606" 
d="M362 868v-99h-67v99h67zM96 725h465v-62h-398v-256h374v-63h-374v-282h398v-62h-465v725z" />
    <glyph glyph-name="edotaccent" unicode="&#x117;" horiz-adv-x="578" 
d="M320 725v-99h-62v99h62zM295 529q112 0 179 -82t61 -203h-427q1 -90 55 -145t138 -55q63 0 105.5 30.5t58.5 86.5l61 -14q-22 -76 -83 -118t-146 -42q-117 0 -185.5 75.5t-68.5 195.5q0 121 71 196t181 75zM110 301h357q0 66 -48 119t-125 53q-75 0 -124.5 -45.5
t-59.5 -126.5z" />
    <glyph glyph-name="Eogonek" unicode="&#x118;" horiz-adv-x="606" 
d="M96 725h465v-62h-398v-256h374v-63h-374v-282h398v-62q-92 -41 -92 -87q0 -23 14 -36.5t39 -13.5q18 0 39 7v-48q-23 -10 -57 -10q-41 0 -73 24.5t-32 65.5q0 68 95 98h-398v725z" />
    <glyph glyph-name="eogonek" unicode="&#x119;" horiz-adv-x="578" 
d="M398 -188q-41 0 -73 25t-32 65q0 37 38 87q-22 -2 -34 -2q-117 0 -185.5 75.5t-68.5 195.5q0 121 71 196t181 75q112 0 179 -82t61 -203h-427q1 -90 55.5 -145t137.5 -55q63 0 105.5 30.5t58.5 86.5l61 -14q-23 -81 -95 -126q-35 -22 -53.5 -51.5t-18.5 -53.5
q0 -25 15.5 -39t41.5 -14q19 0 34 5v-47q-21 -9 -52 -9zM110 301h357q0 66 -48 119t-125 53q-74 0 -124 -46t-60 -126z" />
    <glyph glyph-name="Ecaron" unicode="&#x11a;" horiz-adv-x="606" 
d="M153 875h74l100 -77l101 77h75l-135 -113h-84zM96 725h465v-62h-398v-256h374v-63h-374v-282h398v-62h-465v725z" />
    <glyph glyph-name="ecaron" unicode="&#x11b;" horiz-adv-x="578" 
d="M323 609h-71l-124 116h63l97 -75l98 75h64zM295 529q112 0 179 -82t61 -203h-427q1 -90 55 -145t138 -55q63 0 105.5 30.5t58.5 86.5l61 -14q-22 -76 -83 -118t-146 -42q-117 0 -185.5 75.5t-68.5 195.5q0 121 71 196t181 75zM110 301h357q0 66 -48 119t-125 53
q-75 0 -124.5 -45.5t-59.5 -126.5z" />
    <glyph glyph-name="Gcircumflex" unicode="&#x11c;" horiz-adv-x="765" 
d="M540 762h-75l-100 77l-101 -77h-74l135 113h83zM677 522l-67 -15q-21 85 -85 126t-147 41q-112 0 -184.5 -82.5t-72.5 -228.5q0 -143 69.5 -227.5t182.5 -84.5q44 0 83.5 10t77 32.5t59.5 67.5t22 107v27h-203v62h267v-357h-59l-1 102q-73 -115 -247 -115
q-152 0 -237 103.5t-85 272.5t88.5 272t241.5 103q113 0 191.5 -56t105.5 -160z" />
    <glyph glyph-name="gcircumflex" unicode="&#x11d;" horiz-adv-x="593" 
d="M434 609h-64l-97 76l-98 -76h-63l127 116h71zM445 110q-57 -101 -182 -101q-95 0 -159.5 70.5t-64.5 189.5q0 118 64.5 189t159.5 71q124 0 182 -102v93h63v-501q0 -103 -63 -155t-165 -52q-82 0 -139.5 41t-67.5 110l64 7q6 -46 43 -75t102 -29q78 0 120.5 36.5
t42.5 109.5v98zM276 473q-76 0 -123 -55t-47 -149q0 -95 47 -150t123 -55q69 0 121.5 52.5t52.5 152.5t-52.5 152t-121.5 52z" />
    <glyph glyph-name="Gbreve" unicode="&#x11e;" horiz-adv-x="765" 
d="M520 875q-5 -53 -47 -86t-109 -33q-65 0 -106.5 33t-46.5 86h59q4 -35 30.5 -52t64.5 -17t64.5 17.5t31.5 51.5h59zM677 522l-67 -15q-21 85 -85 126t-147 41q-112 0 -184.5 -82.5t-72.5 -228.5q0 -143 69.5 -227.5t182.5 -84.5q44 0 83.5 10t77 32.5t59.5 67.5t22 107
v27h-203v62h267v-357h-59l-1 102q-73 -115 -247 -115q-152 0 -237 103.5t-85 272.5t88.5 272t241.5 103q113 0 191.5 -56t105.5 -160z" />
    <glyph glyph-name="gbreve" unicode="&#x11f;" horiz-adv-x="593" 
d="M271 606q-64 0 -102.5 34t-43.5 85h56q3 -30 26.5 -51t64.5 -21q42 0 66 21t27 51h56q-6 -52 -45 -85.5t-105 -33.5zM445 110q-57 -101 -182 -101q-95 0 -159.5 70.5t-64.5 189.5q0 118 64.5 189t159.5 71q124 0 182 -102v93h63v-501q0 -103 -63 -155t-165 -52
q-82 0 -139.5 41t-67.5 110l64 7q6 -46 43 -75t102 -29q78 0 120.5 36.5t42.5 109.5v98zM276 473q-76 0 -123 -55t-47 -149q0 -95 47 -150t123 -55q69 0 121.5 52.5t52.5 152.5t-52.5 152t-121.5 52z" />
    <glyph glyph-name="Gdotaccent" unicode="&#x120;" horiz-adv-x="765" 
d="M399 868v-99h-67v99h67zM677 522l-67 -15q-21 85 -85 126t-147 41q-112 0 -184.5 -82.5t-72.5 -228.5q0 -143 69.5 -227.5t182.5 -84.5q44 0 83.5 10t77 32.5t59.5 67.5t22 107v27h-203v62h267v-357h-59l-1 102q-73 -115 -247 -115q-152 0 -237 103.5t-85 272.5t88.5 272
t241.5 103q113 0 191.5 -56t105.5 -160z" />
    <glyph glyph-name="gdotaccent" unicode="&#x121;" horiz-adv-x="593" 
d="M304 725v-99h-62v99h62zM445 110q-57 -101 -182 -101q-95 0 -159.5 70.5t-64.5 189.5q0 118 64.5 189t159.5 71q124 0 182 -102v93h63v-501q0 -103 -63 -155t-165 -52q-82 0 -139.5 41t-67.5 110l64 7q6 -46 43 -75t102 -29q78 0 120.5 36.5t42.5 109.5v98zM276 473
q-76 0 -123 -55t-47 -149q0 -95 47 -150t123 -55q69 0 121.5 52.5t52.5 152.5t-52.5 152t-121.5 52z" />
    <glyph glyph-name="Gcommaaccent" unicode="&#x122;" horiz-adv-x="765" 
d="M677 522l-67 -15q-21 85 -85 126t-147 41q-112 0 -184.5 -82.5t-72.5 -228.5q0 -143 69.5 -227.5t182.5 -84.5q44 0 83.5 10t77 32.5t59.5 67.5t22 107v27h-203v62h267v-357h-59l-1 102q-73 -115 -247 -115q-152 0 -237 103.5t-85 272.5t88.5 272t241.5 103
q113 0 191.5 -56t105.5 -160zM337 -36h62v-95l-34 -90h-37l34 90h-25v95z" />
    <glyph glyph-name="gcommaaccent" unicode="&#x123;" horiz-adv-x="593" 
d="M316 607h-84v96l44 89h43l-39 -96h36v-89zM445 110q-57 -101 -182 -101q-95 0 -159.5 70.5t-64.5 189.5q0 118 64.5 189t159.5 71q124 0 182 -102v93h63v-501q0 -103 -63 -155t-165 -52q-82 0 -139.5 41t-67.5 110l64 7q6 -46 43 -75t102 -29q78 0 120.5 36.5t42.5 109.5
v98zM276 473q-76 0 -123 -55t-47 -149q0 -95 47 -150t123 -55q69 0 121.5 52.5t52.5 152.5t-52.5 152t-121.5 52z" />
    <glyph glyph-name="Hcircumflex" unicode="&#x124;" horiz-adv-x="753" 
d="M551 762h-75l-100 77l-101 -77h-74l135 113h83zM657 725v-725h-67v344h-427v-344h-67v725h67v-318h427v318h67z" />
    <glyph glyph-name="hcircumflex" unicode="&#x125;" horiz-adv-x="576" 
d="M291 762h-75l-100 77l-101 -77h-74l135 113h83zM147 429q51 100 179 100q181 0 181 -208v-321h-62v304q0 83 -29 126t-106 43q-70 0 -116.5 -53.5t-46.5 -138.5v-281h-62v725h62v-296z" />
    <glyph glyph-name="Hbar" unicode="&#x126;" horiz-adv-x="753" 
d="M657 725v-140h66v-59h-66v-526h-67v344h-427v-344h-67v526h-76v59h76v140h67v-140h427v140h67zM590 407v119h-427v-119h427z" />
    <glyph glyph-name="hbar" unicode="&#x127;" horiz-adv-x="576" 
d="M147 646h136v-54h-136v-163q51 100 179 100q181 0 181 -208v-321h-62v304q0 83 -29 126t-106 43q-70 0 -116.5 -53.5t-46.5 -138.5v-281h-62v592h-75v54h75v79h62v-79z" />
    <glyph glyph-name="Itilde" unicode="&#x128;" horiz-adv-x="259" 
d="M241 868h54q-8 -46 -34.5 -73t-65.5 -27q-31 0 -72.5 25t-56.5 25q-36 0 -48 -50h-54q6 48 34.5 74t66.5 26q30 0 70.5 -24t55.5 -24q38 0 50 48zM163 0h-67v725h67v-725z" />
    <glyph glyph-name="itilde" unicode="&#x129;" horiz-adv-x="232" 
d="M227 721h54q-8 -46 -34.5 -73t-65.5 -27q-31 0 -72.5 24.5t-56.5 24.5q-36 0 -48 -49h-54q7 47 35 73.5t66 26.5q30 0 70.5 -24t55.5 -24q38 0 50 48zM147 520v-520h-62v520h62z" />
    <glyph glyph-name="Imacron" unicode="&#x12a;" horiz-adv-x="259" 
d="M-21 794v59h300v-59h-300zM163 0h-67v725h67v-725z" />
    <glyph glyph-name="imacron" unicode="&#x12b;" horiz-adv-x="232" 
d="M-24 650v50h278v-50h-278zM147 520v-520h-62v520h62z" />
    <glyph glyph-name="Ibreve" unicode="&#x12c;" horiz-adv-x="259" 
d="M284 875q-5 -53 -47 -86t-109 -33q-65 0 -106.5 33t-46.5 86h59q4 -35 30.5 -52t64.5 -17t64.5 17.5t31.5 51.5h59zM163 0h-67v725h67v-725z" />
    <glyph glyph-name="ibreve" unicode="&#x12d;" horiz-adv-x="232" 
d="M113 606q-64 0 -102.5 34t-43.5 85h56q3 -30 26.5 -51t64.5 -21q42 0 66 21t27 51h56q-6 -52 -45 -85.5t-105 -33.5zM147 520v-520h-62v520h62z" />
    <glyph glyph-name="Iogonek" unicode="&#x12e;" horiz-adv-x="259" 
d="M96 725h67v-725q-92 -41 -92 -87q0 -23 14 -36.5t39 -13.5q18 0 39 7v-48q-23 -10 -57 -10q-41 0 -73 24.5t-32 65.5q0 68 95 98v725z" />
    <glyph glyph-name="iogonek" unicode="&#x12f;" horiz-adv-x="232" 
d="M147 725v-99h-62v99h62zM85 520h62v-520q-92 -40 -92 -84q0 -25 16 -39t42 -14q19 0 34 5v-47q-21 -9 -52 -9q-41 0 -73 25t-32 65q0 68 95 98v520z" />
    <glyph glyph-name="Idotaccent" unicode="&#x130;" horiz-adv-x="259" 
d="M163 868v-99h-67v99h67zM163 0h-67v725h67v-725z" />
    <glyph glyph-name="dotlessi" unicode="&#x131;" horiz-adv-x="232" 
d="M147 520v-520h-62v520h62z" />
    <glyph glyph-name="Jcircumflex" unicode="&#x134;" horiz-adv-x="534" 
d="M580 762h-75l-100 77l-101 -77h-74l135 113h83zM371 725h67v-536q0 -97 -59.5 -149.5t-148.5 -52.5q-92 0 -148.5 54t-60.5 155l62 10q2 -85 42 -124.5t105 -39.5q25 0 48 7t45 22.5t35 46t13 72.5v535z" />
    <glyph glyph-name="jcircumflex" unicode="&#x135;" horiz-adv-x="232" 
d="M277 609h-64l-97 76l-98 -76h-63l127 116h71zM85 538h62v-572q0 -84 -21.5 -112.5t-91.5 -28.5h-33v57h12q49 0 60.5 15t11.5 70v571z" />
    <glyph glyph-name="Kcommaaccent" unicode="&#x136;" horiz-adv-x="636" 
d="M234 359l401 -359h-105l-367 333v-333h-67v725h67v-350l364 350h91zM310 -131v95h62v-95l-34 -90h-37l34 90h-25z" />
    <glyph glyph-name="kcommaaccent" unicode="&#x137;" horiz-adv-x="498" 
d="M207 275l283 -275h-82l-261 253v-253h-62v725h62v-432l246 227h79zM258 -131v95h62v-95l-34 -90h-37l34 90h-25z" />
    <glyph glyph-name="Lacute" unicode="&#x139;" horiz-adv-x="557" 
d="M166 762h-65l110 113h107zM163 62h384v-62h-451v725h67v-663z" />
    <glyph glyph-name="lacute" unicode="&#x13a;" horiz-adv-x="232" 
d="M148 762h-65l110 113h107zM147 0h-62v725h62v-725z" />
    <glyph glyph-name="Lcommaaccent" unicode="&#x13b;" horiz-adv-x="557" 
d="M163 62h384v-62h-451v725h67v-663zM293 -36h62v-95l-34 -90h-37l34 90h-25v95z" />
    <glyph glyph-name="lcommaaccent" unicode="&#x13c;" horiz-adv-x="232" 
d="M147 0h-62v725h62v-725zM88 -36h62v-95l-34 -90h-37l34 90h-25v95z" />
    <glyph glyph-name="Lcaron" unicode="&#x13d;" horiz-adv-x="557" 
d="M163 62h384v-62h-451v725h67v-663zM294 555h-36l30 170h76z" />
    <glyph glyph-name="lcaron" unicode="&#x13e;" horiz-adv-x="275" 
d="M147 0h-62v725h62v-725zM225 555h-36l30 170h76z" />
    <glyph glyph-name="Ldot" unicode="&#x13f;" horiz-adv-x="557" 
d="M163 62h384v-62h-451v725h67v-663zM407 476v-99h-67v99h67z" />
    <glyph glyph-name="ldot" unicode="&#x140;" horiz-adv-x="317" 
d="M147 0h-62v725h62v-725zM297 425v-99h-62v99h62z" />
    <glyph glyph-name="Lslash" unicode="&#x141;" horiz-adv-x="568" 
d="M174 384l224 153v-76l-224 -154v-245h384v-62h-451v261l-86 -59v77l86 59v387h67v-341z" />
    <glyph glyph-name="lslash" unicode="&#x142;" horiz-adv-x="232" 
d="M147 439l75 55v-65l-75 -55v-374h-62v329l-75 -55v65l75 55v331h62v-286z" />
    <glyph glyph-name="Nacute" unicode="&#x143;" horiz-adv-x="753" 
d="M408 762h-65l110 113h107zM560 0l-397 653v-653h-67v725h97l397 -654v654h67v-725h-97z" />
    <glyph glyph-name="nacute" unicode="&#x144;" horiz-adv-x="576" 
d="M324 609h-55l90 116h95zM147 429q51 100 179 100q181 0 181 -208v-321h-62v304q0 83 -29 126t-106 43q-70 0 -116.5 -53.5t-46.5 -138.5v-281h-62v520h62v-91z" />
    <glyph glyph-name="Ncommaaccent" unicode="&#x145;" horiz-adv-x="753" 
d="M560 0l-397 653v-653h-67v725h97l397 -654v654h67v-725h-97zM348 -36h62v-95l-34 -90h-37l34 90h-25v95z" />
    <glyph glyph-name="ncommaaccent" unicode="&#x146;" horiz-adv-x="576" 
d="M147 429q51 100 179 100q181 0 181 -208v-321h-62v304q0 83 -29 126t-106 43q-70 0 -116.5 -53.5t-46.5 -138.5v-281h-62v520h62v-91zM268 -36h62v-95l-34 -90h-37l34 90h-25v95z" />
    <glyph glyph-name="Ncaron" unicode="&#x147;" horiz-adv-x="753" 
d="M201 875h74l100 -77l101 77h75l-135 -113h-84zM560 0l-397 653v-653h-67v725h97l397 -654v654h67v-725h-97z" />
    <glyph glyph-name="ncaron" unicode="&#x148;" horiz-adv-x="576" 
d="M135 725h63l97 -75l98 75h64l-127 -116h-71zM147 429q51 100 179 100q181 0 181 -208v-321h-62v304q0 83 -29 126t-106 43q-70 0 -116.5 -53.5t-46.5 -138.5v-281h-62v520h62v-91z" />
    <glyph glyph-name="Eng" unicode="&#x14a;" horiz-adv-x="753" 
d="M163 653v-653h-67v725h97l397 -604v604h67v-733q0 -100 -33 -133.5t-120 -33.5h-25v62h5q65 0 85.5 21t20.5 87v5z" />
    <glyph glyph-name="eng" unicode="&#x14b;" horiz-adv-x="576" 
d="M445 324q0 83 -29 126t-106 43q-70 0 -116.5 -53.5t-46.5 -138.5v-301h-62v538h62v-91q51 100 179 100q181 0 181 -208v-388q0 -73 -21.5 -101.5t-90.5 -28.5q-25 0 -56 3l3 56q24 -4 45 -4t33 4.5t17.5 17t6.5 24.5t1 37v365z" />
    <glyph glyph-name="Omacron" unicode="&#x14c;" horiz-adv-x="764" 
d="M232 794v59h300v-59h-300zM382 -13q-153 0 -242.5 104t-89.5 272t89.5 271.5t242.5 103.5t242.5 -103.5t89.5 -271.5t-89.5 -272t-242.5 -104zM382 51q115 0 188 83t73 229q0 145 -73 228t-188 83t-188 -83t-73 -228q0 -146 73 -229t188 -83z" />
    <glyph glyph-name="omacron" unicode="&#x14d;" horiz-adv-x="573" 
d="M147 650v50h278v-50h-278zM286 529q103 0 173.5 -70.5t70.5 -199.5t-70.5 -200.5t-173.5 -71.5t-173 71.5t-70 200.5t70 199.5t173 70.5zM286 44q79 0 128.5 57t49.5 158t-49 157t-129 56q-79 0 -128 -56t-49 -157t49 -158t128 -57z" />
    <glyph glyph-name="Obreve" unicode="&#x14e;" horiz-adv-x="764" 
d="M537 875q-5 -53 -47 -86t-109 -33q-65 0 -106.5 33t-46.5 86h59q4 -35 30.5 -52t64.5 -17t64.5 17.5t31.5 51.5h59zM382 -13q-153 0 -242.5 104t-89.5 272t89.5 271.5t242.5 103.5t242.5 -103.5t89.5 -271.5t-89.5 -272t-242.5 -104zM382 51q115 0 188 83t73 229
q0 145 -73 228t-188 83t-188 -83t-73 -228q0 -146 73 -229t188 -83z" />
    <glyph glyph-name="obreve" unicode="&#x14f;" horiz-adv-x="573" 
d="M284 606q-64 0 -102.5 34t-43.5 85h56q3 -30 26.5 -51t64.5 -21t65.5 21t27.5 51h56q-6 -52 -45 -85.5t-105 -33.5zM286 529q103 0 173.5 -70.5t70.5 -199.5t-70.5 -200.5t-173.5 -71.5t-173 71.5t-70 200.5t70 199.5t173 70.5zM286 44q79 0 128.5 57t49.5 158t-49 157
t-129 56q-79 0 -128 -56t-49 -157t49 -158t128 -57z" />
    <glyph glyph-name="Ohungarumlaut" unicode="&#x150;" horiz-adv-x="764" 
d="M332 762h-65l110 113h107zM495 762h-64l109 113h108zM382 -13q-153 0 -242.5 104t-89.5 272t89.5 271.5t242.5 103.5t242.5 -103.5t89.5 -271.5t-89.5 -272t-242.5 -104zM382 51q115 0 188 83t73 229q0 145 -73 228t-188 83t-188 -83t-73 -228q0 -146 73 -229t188 -83z
" />
    <glyph glyph-name="ohungarumlaut" unicode="&#x151;" horiz-adv-x="573" 
d="M230 609h-55l90 116h95zM397 609h-55l90 116h95zM286 529q103 0 173.5 -70.5t70.5 -199.5t-70.5 -200.5t-173.5 -71.5t-173 71.5t-70 200.5t70 199.5t173 70.5zM286 44q79 0 128.5 57t49.5 158t-49 157t-129 56q-79 0 -128 -56t-49 -157t49 -158t128 -57z" />
    <glyph glyph-name="OE" unicode="&#x152;" horiz-adv-x="1142" 
d="M632 117q-82 -130 -251 -130q-152 0 -241.5 104t-89.5 272q0 166 92.5 270.5t241.5 104.5q167 0 248 -128v115h465v-62h-398v-256h374v-63h-374v-282h398v-62h-465v117zM382 675q-115 0 -188 -83t-73 -229t73 -229t188 -83q116 0 188.5 83t72.5 229t-72.5 229t-188.5 83z
" />
    <glyph glyph-name="oe" unicode="&#x153;" horiz-adv-x="993" 
d="M712 -13q-78 0 -134 35.5t-84 99.5q-29 -66 -83.5 -100.5t-124.5 -34.5q-103 0 -173 71.5t-70 200.5t70 199.5t173 70.5q70 0 125.5 -34.5t83.5 -100.5q30 64 86 99.5t129 35.5q112 0 179 -82t61 -203h-427q1 -90 55.5 -145t137.5 -55q63 0 105.5 30.5t58.5 86.5l61 -14
q-22 -76 -83 -118t-146 -42zM525 301h357q0 66 -48 119t-125 53q-74 0 -124 -46t-60 -126zM286 44q79 0 128.5 57t49.5 158t-49 157t-129 56q-79 0 -128 -56t-49 -157t49 -158t128 -57z" />
    <glyph glyph-name="Racute" unicode="&#x154;" horiz-adv-x="662" 
d="M368 762h-65l110 113h107zM370 322q-19 -2 -61 -2h-146v-320h-67v725h213q71 0 120 -7.5t91.5 -28t63.5 -61.5t21 -102q0 -88 -42.5 -134t-122.5 -62l176 -330h-75zM163 664v-283h155q40 0 68.5 2.5t58.5 11t48.5 23.5t30 42t11.5 64t-12 63.5t-29.5 41t-48 23
t-58.5 10.5t-69 2h-155z" />
    <glyph glyph-name="racute" unicode="&#x155;" horiz-adv-x="332" 
d="M231 609h-55l90 116h95zM321 457q-10 1 -28 1q-147 0 -147 -194v-264h-61v520h59v-98q17 46 63 74t96 28q12 0 18 -1v-66z" />
    <glyph glyph-name="Rcommaaccent" unicode="&#x156;" horiz-adv-x="662" 
d="M370 322q-19 -2 -61 -2h-146v-320h-67v725h213q71 0 120 -7.5t91.5 -28t63.5 -61.5t21 -102q0 -88 -42.5 -134t-122.5 -62l176 -330h-75zM163 664v-283h155q40 0 68.5 2.5t58.5 11t48.5 23.5t30 42t11.5 64t-12 63.5t-29.5 41t-48 23t-58.5 10.5t-69 2h-155zM308 -36h62
v-95l-34 -90h-37l34 90h-25v95z" />
    <glyph glyph-name="rcommaaccent" unicode="&#x157;" horiz-adv-x="332" 
d="M321 457q-10 1 -28 1q-147 0 -147 -194v-264h-61v520h59v-98q17 46 63 74t96 28q12 0 18 -1v-66zM175 -36h62v-95l-34 -90h-37l34 90h-25v95z" />
    <glyph glyph-name="Rcaron" unicode="&#x158;" horiz-adv-x="662" 
d="M161 875h74l100 -77l101 77h75l-135 -113h-84zM370 322q-19 -2 -61 -2h-146v-320h-67v725h213q71 0 120 -7.5t91.5 -28t63.5 -61.5t21 -102q0 -88 -42.5 -134t-122.5 -62l176 -330h-75zM163 664v-283h155q40 0 68.5 2.5t58.5 11t48.5 23.5t30 42t11.5 64t-12 63.5
t-29.5 41t-48 23t-58.5 10.5t-69 2h-155z" />
    <glyph glyph-name="rcaron" unicode="&#x159;" horiz-adv-x="332" 
d="M42 725h63l97 -75l98 75h64l-127 -116h-71zM321 457q-10 1 -28 1q-147 0 -147 -194v-264h-61v520h59v-98q17 46 63 74t96 28q12 0 18 -1v-66z" />
    <glyph glyph-name="Sacute" unicode="&#x15a;" horiz-adv-x="628" 
d="M344 762h-65l110 113h107zM308 738q102 0 172.5 -48t93.5 -133l-66 -15q-19 63 -72 97.5t-135 34.5q-67 0 -121.5 -30t-54.5 -94q0 -97 140 -128l86 -19q48 -11 84 -23t76 -35t62 -60t22 -86q0 -100 -78 -156t-190 -56q-126 0 -202 59.5t-93 156.5l68 15
q36 -167 224 -167q33 0 65.5 6.5t64.5 21t51.5 43t19.5 66.5q0 111 -188 152l-91 20q-190 42 -190 187q0 93 76.5 142t175.5 49z" />
    <glyph glyph-name="sacute" unicode="&#x15b;" horiz-adv-x="541" 
d="M294 609h-55l90 116h95zM407 372q-10 48 -50 75t-98 27q-53 0 -95 -20t-42 -62q0 -69 101 -88l76 -14q39 -7 67.5 -16t57.5 -25t45 -42.5t16 -61.5q0 -75 -61 -116.5t-153 -41.5q-84 0 -144 41.5t-77 122.5l63 14q9 -61 53.5 -92t109.5 -31q57 0 101.5 23t44.5 70
q0 41 -35 62.5t-98 33.5l-84 16q-64 12 -105 47.5t-41 92.5q0 62 58 102t148 40q79 0 133.5 -40.5t70.5 -102.5z" />
    <glyph glyph-name="Scircumflex" unicode="&#x15c;" horiz-adv-x="628" 
d="M487 762h-75l-100 77l-101 -77h-74l135 113h83zM308 738q102 0 172.5 -48t93.5 -133l-66 -15q-19 63 -72 97.5t-135 34.5q-67 0 -121.5 -30t-54.5 -94q0 -97 140 -128l86 -19q48 -11 84 -23t76 -35t62 -60t22 -86q0 -100 -78 -156t-190 -56q-126 0 -202 59.5t-93 156.5
l68 15q36 -167 224 -167q33 0 65.5 6.5t64.5 21t51.5 43t19.5 66.5q0 111 -188 152l-91 20q-190 42 -190 187q0 93 76.5 142t175.5 49z" />
    <glyph glyph-name="scircumflex" unicode="&#x15d;" horiz-adv-x="541" 
d="M427 609h-64l-97 76l-98 -76h-63l127 116h71zM407 372q-10 48 -50 75t-98 27q-53 0 -95 -20t-42 -62q0 -69 101 -88l76 -14q39 -7 67.5 -16t57.5 -25t45 -42.5t16 -61.5q0 -75 -61 -116.5t-153 -41.5q-84 0 -144 41.5t-77 122.5l63 14q9 -61 53.5 -92t109.5 -31
q57 0 101.5 23t44.5 70q0 41 -35 62.5t-98 33.5l-84 16q-64 12 -105 47.5t-41 92.5q0 62 58 102t148 40q79 0 133.5 -40.5t70.5 -102.5z" />
    <glyph glyph-name="Scedilla" unicode="&#x15e;" horiz-adv-x="628" 
d="M327 -13l-22 -35q11 2 25 2q30 0 50 -18t20 -49q0 -37 -30 -57t-72 -20t-73 9l14 40q25 -9 48 -9q57 0 57 32q0 30 -43 30q-25 0 -38 -9l-21 15l44 71q-108 9 -173 67.5t-81 146.5l68 15q36 -167 224 -167q33 0 65.5 6.5t64.5 21t51.5 43t19.5 66.5q0 111 -188 152
l-91 20q-190 42 -190 187q0 93 76.5 142t175.5 49q102 0 172.5 -48t93.5 -133l-66 -15q-19 63 -72 97.5t-135 34.5q-67 0 -121.5 -30t-54.5 -94q0 -97 140 -128l86 -19q48 -11 84 -23t76 -35t62 -60t22 -86q0 -100 -78 -156t-190 -56z" />
    <glyph glyph-name="scedilla" unicode="&#x15f;" horiz-adv-x="541" 
d="M485 145q0 -73 -57.5 -114.5t-146.5 -43.5l-22 -35q11 2 25 2q30 0 50 -18t20 -49q0 -37 -30 -57t-72 -20t-73 9l14 40q25 -9 48 -9q57 0 57 32q0 30 -43 30q-25 0 -38 -9l-21 15l44 70q-73 8 -124 49t-66 114l63 14q9 -61 53.5 -92t109.5 -31q57 0 101.5 23t44.5 70
q0 41 -35 62.5t-98 33.5l-84 16q-64 12 -105 47.5t-41 92.5q0 62 58 102t148 40q79 0 133.5 -40.5t70.5 -102.5l-62 -14q-10 48 -50 75t-98 27q-53 0 -95 -20t-42 -62q0 -69 101 -88l76 -14q39 -7 67.5 -16t57.5 -25t45 -42.5t16 -61.5z" />
    <glyph glyph-name="Scaron" unicode="&#x160;" horiz-adv-x="628" 
d="M137 875h74l100 -77l101 77h75l-135 -113h-84zM308 738q102 0 172.5 -48t93.5 -133l-66 -15q-19 63 -72 97.5t-135 34.5q-67 0 -121.5 -30t-54.5 -94q0 -97 140 -128l86 -19q48 -11 84 -23t76 -35t62 -60t22 -86q0 -100 -78 -156t-190 -56q-126 0 -202 59.5t-93 156.5
l68 15q36 -167 224 -167q33 0 65.5 6.5t64.5 21t51.5 43t19.5 66.5q0 111 -188 152l-91 20q-190 42 -190 187q0 93 76.5 142t175.5 49z" />
    <glyph glyph-name="scaron" unicode="&#x161;" horiz-adv-x="541" 
d="M105 725h63l97 -75l98 75h64l-127 -116h-71zM407 372q-10 48 -50 75t-98 27q-53 0 -95 -20t-42 -62q0 -69 101 -88l76 -14q39 -7 67.5 -16t57.5 -25t45 -42.5t16 -61.5q0 -75 -61 -116.5t-153 -41.5q-84 0 -144 41.5t-77 122.5l63 14q9 -61 53.5 -92t109.5 -31
q57 0 101.5 23t44.5 70q0 41 -35 62.5t-98 33.5l-84 16q-64 12 -105 47.5t-41 92.5q0 62 58 102t148 40q79 0 133.5 -40.5t70.5 -102.5z" />
    <glyph glyph-name="uni0162" unicode="&#x162;" horiz-adv-x="575" 
d="M254 663h-244v62h555v-62h-244v-663h-67v663zM259 -36h62v-95l-34 -90h-37l34 90h-25v95z" />
    <glyph glyph-name="uni0163" unicode="&#x163;" horiz-adv-x="321" 
d="M110 651h62v-131h107v-54h-107v-326q0 -26 1 -38t6.5 -25.5t18 -18.5t33.5 -5t45 4l3 -56q-31 -3 -56 -3q-69 0 -91 28.5t-22 101.5v338h-89v54h89v131zM122 -36h62v-95l-34 -90h-37l34 90h-25v95z" />
    <glyph glyph-name="Tcaron" unicode="&#x164;" horiz-adv-x="575" 
d="M112 875h74l100 -77l101 77h75l-135 -113h-84zM254 663h-244v62h555v-62h-244v-663h-67v663z" />
    <glyph glyph-name="tcaron" unicode="&#x165;" horiz-adv-x="326" 
d="M297 575h-41l26 150h77zM110 651h62v-131h107v-54h-107v-326q0 -26 1 -38t6.5 -25.5t18 -18.5t33.5 -5t45 4l3 -56q-31 -3 -56 -3q-69 0 -91 28.5t-22 101.5v338h-89v54h89v131z" />
    <glyph glyph-name="Tbar" unicode="&#x166;" horiz-adv-x="575" 
d="M254 339h-150v62h150v262h-244v62h555v-62h-244v-262h151v-62h-151v-339h-67v339z" />
    <glyph glyph-name="tbar" unicode="&#x167;" horiz-adv-x="321" 
d="M279 466h-107v-100h107v-54h-107v-172q0 -26 1 -38t6.5 -25.5t18 -18.5t33.5 -5t45 4l3 -56q-31 -3 -56 -3q-69 0 -91 28.5t-22 101.5v184h-89v54h89v100h-89v54h89v131h62v-131h107v-54z" />
    <glyph glyph-name="Utilde" unicode="&#x168;" horiz-adv-x="728" 
d="M475 868h54q-8 -46 -34.5 -73t-65.5 -27q-31 0 -72.5 25t-56.5 25q-36 0 -48 -50h-54q6 48 34.5 74t66.5 26q30 0 70.5 -24t55.5 -24q38 0 50 48zM152 725v-444q0 -119 49 -174.5t162 -55.5q114 0 163.5 60t49.5 182v432h67v-424q0 -162 -64.5 -238t-215.5 -76
q-149 0 -213.5 69.5t-64.5 236.5v432h67z" />
    <glyph glyph-name="utilde" unicode="&#x169;" horiz-adv-x="564" 
d="M385 721h54q-8 -46 -34.5 -73t-65.5 -27q-31 0 -72.5 24.5t-56.5 24.5q-36 0 -48 -49h-54q7 47 35 73.5t66 26.5q30 0 70.5 -24t55.5 -24q38 0 50 48zM417 87q-51 -100 -173 -100q-175 0 -175 208v325h62v-308q0 -83 27.5 -126t101.5 -43q66 0 111.5 54t45.5 138v285h62
v-520h-62v87z" />
    <glyph glyph-name="Umacron" unicode="&#x16a;" horiz-adv-x="728" 
d="M213 794v59h300v-59h-300zM152 725v-444q0 -119 49 -174.5t162 -55.5q114 0 163.5 60t49.5 182v432h67v-424q0 -162 -64.5 -238t-215.5 -76q-149 0 -213.5 69.5t-64.5 236.5v432h67z" />
    <glyph glyph-name="umacron" unicode="&#x16b;" horiz-adv-x="564" 
d="M134 650v50h278v-50h-278zM417 87q-51 -100 -173 -100q-175 0 -175 208v325h62v-308q0 -83 27.5 -126t101.5 -43q66 0 111.5 54t45.5 138v285h62v-520h-62v87z" />
    <glyph glyph-name="Ubreve" unicode="&#x16c;" horiz-adv-x="728" 
d="M518 875q-5 -53 -47 -86t-109 -33q-65 0 -106.5 33t-46.5 86h59q4 -35 30.5 -52t64.5 -17t64.5 17.5t31.5 51.5h59zM152 725v-444q0 -119 49 -174.5t162 -55.5q114 0 163.5 60t49.5 182v432h67v-424q0 -162 -64.5 -238t-215.5 -76q-149 0 -213.5 69.5t-64.5 236.5v432h67
z" />
    <glyph glyph-name="ubreve" unicode="&#x16d;" horiz-adv-x="564" 
d="M271 606q-64 0 -102.5 34t-43.5 85h56q3 -30 26.5 -51t64.5 -21q42 0 66 21t27 51h56q-6 -52 -45 -85.5t-105 -33.5zM417 87q-51 -100 -173 -100q-175 0 -175 208v325h62v-308q0 -83 27.5 -126t101.5 -43q66 0 111.5 54t45.5 138v285h62v-520h-62v87z" />
    <glyph glyph-name="Uring" unicode="&#x16e;" horiz-adv-x="728" 
d="M454 839q0 -37 -26 -61t-65 -24q-38 0 -64 24.5t-26 60.5q0 37 26.5 61t63.5 24q38 0 64.5 -24t26.5 -61zM315 839q0 -21 14.5 -34t33.5 -13t34 13t15 34t-15 34.5t-34 13.5t-33.5 -13.5t-14.5 -34.5zM152 725v-444q0 -119 49 -174.5t162 -55.5q114 0 163.5 60t49.5 182
v432h67v-424q0 -162 -64.5 -238t-215.5 -76q-149 0 -213.5 69.5t-64.5 236.5v432h67z" />
    <glyph glyph-name="uring" unicode="&#x16f;" horiz-adv-x="564" 
d="M364 696q0 -37 -26 -61t-65 -24q-38 0 -64 24.5t-26 60.5q0 37 26.5 61t63.5 24q38 0 64.5 -24t26.5 -61zM225 696q0 -21 14.5 -34t33.5 -13t34 13t15 34t-15 34.5t-34 13.5t-33.5 -13.5t-14.5 -34.5zM417 87q-51 -100 -173 -100q-175 0 -175 208v325h62v-308
q0 -83 27.5 -126t101.5 -43q66 0 111.5 54t45.5 138v285h62v-520h-62v87z" />
    <glyph glyph-name="Uhungarumlaut" unicode="&#x170;" horiz-adv-x="728" 
d="M313 762h-65l110 113h107zM476 762h-64l109 113h108zM152 725v-444q0 -119 49 -174.5t162 -55.5q114 0 163.5 60t49.5 182v432h67v-424q0 -162 -64.5 -238t-215.5 -76q-149 0 -213.5 69.5t-64.5 236.5v432h67z" />
    <glyph glyph-name="uhungarumlaut" unicode="&#x171;" horiz-adv-x="564" 
d="M223 609h-55l90 116h95zM390 609h-55l90 116h95zM417 87q-51 -100 -173 -100q-175 0 -175 208v325h62v-308q0 -83 27.5 -126t101.5 -43q66 0 111.5 54t45.5 138v285h62v-520h-62v87z" />
    <glyph glyph-name="Uogonek" unicode="&#x172;" horiz-adv-x="728" 
d="M285 -98q0 53 63 85q-141 3 -202 73t-61 233v432h67v-444q0 -119 49 -174.5t162 -55.5q114 0 163.5 60t49.5 182v432h67v-424q0 -143 -50 -218.5t-164 -92.5q-36 -6 -55.5 -30.5t-19.5 -46.5q0 -50 54 -50q18 0 39 7v-48q-23 -10 -57 -10q-41 0 -73 24.5t-32 65.5z" />
    <glyph glyph-name="uogonek" unicode="&#x173;" horiz-adv-x="564" 
d="M417 87q-51 -100 -173 -100q-175 0 -175 208v343h62v-326q0 -83 27.5 -126t101.5 -43q66 0 111.5 54t45.5 138v303h62v-538q-92 -40 -92 -84q0 -25 16 -39t42 -14q19 0 34 5v-47q-21 -9 -52 -9q-41 0 -73 25t-32 65q0 68 95 98v87z" />
    <glyph glyph-name="Wcircumflex" unicode="&#x174;" horiz-adv-x="948" 
d="M649 762h-75l-100 77l-101 -77h-74l135 113h83zM675 88l181 637h72l-217 -725h-77l-160 608l-159 -608h-77l-218 725h74l185 -637l158 637h75z" />
    <glyph glyph-name="wcircumflex" unicode="&#x175;" horiz-adv-x="735" 
d="M528 609h-64l-97 76l-98 -76h-63l127 116h71zM336 520h62l138 -423l115 423h69l-156 -520h-58l-141 434l-137 -434h-57l-156 520h69l119 -422z" />
    <glyph glyph-name="Ycircumflex" unicode="&#x176;" horiz-adv-x="595" 
d="M472 762h-75l-100 77l-101 -77h-74l135 113h83zM75 725l218 -384l225 384h77l-271 -453v-272h-67v274l-257 451h75z" />
    <glyph glyph-name="ycircumflex" unicode="&#x177;" horiz-adv-x="486" 
d="M404 609h-64l-97 76l-98 -76h-63l127 116h71zM148 -175l68 175l-206 520h70l167 -434l162 434h67l-267 -695h-61z" />
    <glyph glyph-name="Ydieresis" unicode="&#x178;" horiz-adv-x="595" 
d="M233 868v-99h-67v99h67zM429 868v-99h-67v99h67zM75 725l218 -384l225 384h77l-271 -453v-272h-67v274l-257 451h75z" />
    <glyph glyph-name="Zacute" unicode="&#x179;" horiz-adv-x="638" 
d="M355 762h-65l110 113h107zM589 665l-460 -603h470v-62h-551v60l461 603h-425v62h505v-60z" />
    <glyph glyph-name="zacute" unicode="&#x17a;" horiz-adv-x="500" 
d="M275 609h-55l90 116h95zM42 54l331 412h-309v54h383v-54l-332 -412h337v-54h-410v54z" />
    <glyph glyph-name="Zdotaccent" unicode="&#x17b;" horiz-adv-x="638" 
d="M357 868v-99h-67v99h67zM589 665l-460 -603h470v-62h-551v60l461 603h-425v62h505v-60z" />
    <glyph glyph-name="zdotaccent" unicode="&#x17c;" horiz-adv-x="500" 
d="M278 725v-99h-62v99h62zM42 54l331 412h-309v54h383v-54l-332 -412h337v-54h-410v54z" />
    <glyph glyph-name="Zcaron" unicode="&#x17d;" horiz-adv-x="638" 
d="M148 875h74l100 -77l101 77h75l-135 -113h-84zM589 665l-460 -603h470v-62h-551v60l461 603h-425v62h505v-60z" />
    <glyph glyph-name="zcaron" unicode="&#x17e;" horiz-adv-x="500" 
d="M86 725h63l97 -75l98 75h64l-127 -116h-71zM42 54l331 412h-309v54h383v-54l-332 -412h337v-54h-410v54z" />
    <glyph glyph-name="uni018F" unicode="&#x18f;" horiz-adv-x="756" 
d="M636 363q-1 141 -74 221t-186 80q-182 0 -238 -139h-72q32 101 115.5 151.5t195.5 50.5q151 0 240 -98.5t89 -271.5q0 -171 -90.5 -270.5t-240.5 -99.5q-154 0 -242 102.5t-82 273.5h585zM633 303h-506q4 -119 74.5 -185.5t174.5 -66.5q103 0 173.5 66t83.5 186z" />
    <glyph glyph-name="Scommaaccent" unicode="&#x218;" horiz-adv-x="628" 
d="M308 738q102 0 172.5 -48t93.5 -133l-66 -15q-19 63 -72 97.5t-135 34.5q-67 0 -121.5 -30t-54.5 -94q0 -97 140 -128l86 -19q48 -11 84 -23t76 -35t62 -60t22 -86q0 -100 -78 -156t-190 -56q-126 0 -202 59.5t-93 156.5l68 15q36 -167 224 -167q33 0 65.5 6.5t64.5 21
t51.5 43t19.5 66.5q0 111 -188 152l-91 20q-190 42 -190 187q0 93 76.5 142t175.5 49zM284 -36h62v-95l-34 -90h-37l34 90h-25v95z" />
    <glyph glyph-name="scommaaccent" unicode="&#x219;" horiz-adv-x="541" 
d="M407 372q-10 48 -50 75t-98 27q-53 0 -95 -20t-42 -62q0 -69 101 -88l76 -14q39 -7 67.5 -16t57.5 -25t45 -42.5t16 -61.5q0 -75 -61 -116.5t-153 -41.5q-84 0 -144 41.5t-77 122.5l63 14q9 -61 53.5 -92t109.5 -31q57 0 101.5 23t44.5 70q0 41 -35 62.5t-98 33.5l-84 16
q-64 12 -105 47.5t-41 92.5q0 62 58 102t148 40q79 0 133.5 -40.5t70.5 -102.5zM238 -36h62v-95l-34 -90h-37l34 90h-25v95z" />
    <glyph glyph-name="uni021A" unicode="&#x21a;" horiz-adv-x="575" 
d="M254 663h-244v62h555v-62h-244v-663h-67v663zM259 -36h62v-95l-34 -90h-37l34 90h-25v95z" />
    <glyph glyph-name="uni021B" unicode="&#x21b;" horiz-adv-x="321" 
d="M110 651h62v-131h107v-54h-107v-326q0 -26 1 -38t6.5 -25.5t18 -18.5t33.5 -5t45 4l3 -56q-31 -3 -56 -3q-69 0 -91 28.5t-22 101.5v338h-89v54h89v131zM122 -36h62v-95l-34 -90h-37l34 90h-25v95z" />
    <glyph glyph-name="uni0232" unicode="&#x232;" horiz-adv-x="595" 
d="M147 794v59h300v-59h-300zM75 725l218 -384l225 384h77l-271 -453v-272h-67v274l-257 451h75z" />
    <glyph glyph-name="uni0233" unicode="&#x233;" horiz-adv-x="486" 
d="M104 650v50h278v-50h-278zM148 -175l68 175l-206 520h70l167 -434l162 434h67l-267 -695h-61z" />
    <glyph glyph-name="uni0237" unicode="&#x237;" horiz-adv-x="232" 
d="M85 538h62v-572q0 -84 -21.5 -112.5t-91.5 -28.5h-33v57h12q49 0 60.5 15t11.5 70v571z" />
    <glyph glyph-name="uni0259" unicode="&#x259;" horiz-adv-x="574" 
d="M533 267q0 -128 -71 -204t-181 -76q-113 0 -179.5 84t-60.5 212h427q-1 95 -55 151t-138 56q-63 0 -105.5 -30.5t-58.5 -86.5l-64 6q21 80 82.5 124t149.5 44q117 0 185.5 -76.5t68.5 -203.5zM466 226h-357q0 -72 48 -127.5t125 -55.5q76 0 125.5 47.5t58.5 135.5z" />
    <glyph glyph-name="circumflex" unicode="&#x2c6;" horiz-adv-x="366" 
d="M344 609h-64l-97 76l-98 -76h-63l127 116h71z" />
    <glyph glyph-name="caron" unicode="&#x2c7;" horiz-adv-x="366" 
d="M22 725h63l97 -75l98 75h64l-127 -116h-71z" />
    <glyph glyph-name="breve" unicode="&#x2d8;" horiz-adv-x="340" 
d="M168 606q-64 0 -102.5 34t-43.5 85h56q3 -30 26.5 -51t64.5 -21q42 0 66 21t27 51h56q-6 -52 -45 -85.5t-105 -33.5z" />
    <glyph glyph-name="dotaccent" unicode="&#x2d9;" horiz-adv-x="106" 
d="M84 725v-99h-62v99h62z" />
    <glyph glyph-name="ring" unicode="&#x2da;" horiz-adv-x="225" 
d="M203 696q0 -37 -26 -61t-65 -24q-38 0 -64 24.5t-26 60.5q0 37 26.5 61t63.5 24q38 0 64.5 -24t26.5 -61zM64 696q0 -21 14.5 -34t33.5 -13t34 13t15 34t-15 34.5t-34 13.5t-33.5 -13.5t-14.5 -34.5z" />
    <glyph glyph-name="ogonek" unicode="&#x2db;" horiz-adv-x="201" 
d="M179 0q-92 -40 -92 -84q0 -25 16 -39t42 -14q19 0 34 5v-47q-21 -9 -52 -9q-41 0 -73 25t-32 65q0 68 95 98h62z" />
    <glyph glyph-name="tilde" unicode="&#x2dc;" horiz-adv-x="375" 
d="M299 721h54q-8 -46 -34.5 -73t-65.5 -27q-31 0 -72.5 24.5t-56.5 24.5q-36 0 -48 -49h-54q7 47 35 73.5t66 26.5q30 0 70.5 -24t55.5 -24q38 0 50 48z" />
    <glyph glyph-name="hungarumlaut" unicode="&#x2dd;" horiz-adv-x="396" 
d="M77 609h-55l90 116h95zM244 609h-55l90 116h95z" />
    <glyph glyph-name="uni0326" unicode="&#x326;" 
d="M-94 -36h62v-95l-34 -90h-37l34 90h-25v95z" />
    <glyph glyph-name="uni032C" unicode="&#x32c;" 
d="M-344 0h55l105 -92l107 92h55l-133 -138h-60z" />
    <glyph glyph-name="Delta" unicode="&#x394;" horiz-adv-x="711" 
d="M355 707l346 -707h-691zM355 575l-247 -516h495z" />
    <glyph glyph-name="Omega" unicode="&#x3a9;" horiz-adv-x="784" 
d="M741 427q0 -78 -34 -141.5t-79.5 -97t-95.5 -47.5v-82h184v-59h-252v182q98 17 155 82t57 163q0 119 -81.5 187.5t-202.5 68.5t-202.5 -68.5t-81.5 -187.5q0 -98 57 -163t155 -82v-182h-252v59h184v82q-81 22 -145.5 96.5t-64.5 189.5q0 98 52.5 171t130.5 106.5
t167 33.5q66 0 127.5 -20t111.5 -57.5t80 -98.5t30 -135z" />
    <glyph glyph-name="mu" unicode="&#x3bc;" horiz-adv-x="578" 
d="M86 -22v542h62v-274q0 -98 37.5 -151.5t104.5 -53.5q66 0 103.5 53.5t37.5 151.5v274h62v-520h-62v86q-40 -99 -141 -99q-102 0 -142 99v-99q0 -109 -10 -162h-61q9 42 9 153z" />
    <glyph glyph-name="pi" unicode="&#x3c0;" horiz-adv-x="628" 
d="M106 0v479h-74v59h565v-59h-75v-339q0 -56 9.5 -70t56.5 -14h9v-56h-28q-68 0 -89 24.5t-21 103.5v351h-290v-479h-63z" />
    <glyph glyph-name="uni0600" unicode="&#x600;" horiz-adv-x="995" 
d="M716 -142q117 10 258 34l-13 -64q-243 -45 -500 -43h-446l-15 65h461q56 0 81 1q-41 26 -41 74q0 55 62.5 106.5t238.5 155.5l32 -54q-147 -82 -210 -129t-63 -80q0 -34 42 -52t113 -14z" />
    <glyph glyph-name="uni0601" unicode="&#x601;" horiz-adv-x="2423" 
d="M2423 -93q-562 -142 -1118 -142q-383 0 -640 72q-52 -72 -145 -72q-57 0 -89.5 32.5t-59.5 92.5q-2 4 -9.5 20.5t-10 21.5t-9 18.5t-10.5 18.5t-11.5 15.5t-13.5 14t-14.5 9t-17.5 7.5t-19 2q-48 0 -85.5 -40.5t-81.5 -139.5l-49 23q51 117 102.5 169.5t114.5 52.5
q34 0 59.5 -11t45.5 -37.5t28.5 -42.5t25.5 -54q4 -9 6 -13q22 -47 42.5 -70.5t55.5 -23.5q95 0 126 97q15 50 24 118h54q-8 -68 -22 -124q-3 -11 -8 -26q270 -65 618 -65q545 0 1096 134z" />
    <glyph glyph-name="uni0602" unicode="&#x602;" horiz-adv-x="879" 
d="M498 -149l381 -1l-17 -65h-511q-144 0 -217.5 59.5t-73.5 167.5q0 100 61.5 166.5t159.5 66.5q99 0 158 -65t59 -161v-168zM334 -149h104v159q0 73 -45 121.5t-116 48.5q-67 0 -111.5 -45.5t-44.5 -119.5q0 -80 55 -122t158 -42z" />
    <glyph glyph-name="uni0603" unicode="&#x603;" horiz-adv-x="1519" 
d="M1262 283q88 0 147.5 -60t59.5 -149q0 -132 -107.5 -210.5t-285.5 -78.5q-97 0 -204.5 30t-179.5 65q-27 -43 -71 -69t-95 -26h-511l-15 65h526q57 0 88 22t48 75q15 50 24 118h54q-8 -68 -22 -124l-3 -11q33 -15 68 -26q109 126 184.5 203t129.5 115t88.5 49.5
t76.5 11.5zM1064 -150q157 0 250.5 57t93.5 156q0 66 -43.5 110.5t-107.5 44.5q-72 0 -159 -69t-255 -264q124 -35 221 -35z" />
    <glyph glyph-name="uni0609" unicode="&#x609;" horiz-adv-x="628" 
d="M60 0l289 725h64l-290 -725h-63zM116 666l64 -63l-63 -63l-64 63zM328 172l64 -63l-63 -63l-64 63zM514 172l64 -63l-63 -63l-64 63z" />
    <glyph glyph-name="uni060B" unicode="&#x60b;" horiz-adv-x="1075" 
d="M884 632l-63 -63l-64 63l63 63zM815 475q90 -1 150 -64.5t60 -158.5q0 -120 -71 -186t-201 -66h-255v-275h-60v275h-117q-121 0 -191 60.5t-70 166.5q0 100 61.5 166.5t159.5 66.5q99 0 158 -65t59 -161v-169h179q-9 21 -30 58q-48 82 -48 149q0 83 63.5 143.5
t152.5 59.5zM767 65q90 0 143.5 45.5t53.5 129.5q0 77 -43.5 123t-115.5 46q-61 0 -103.5 -41.5t-42.5 -100.5q0 -51 39 -123q23 -45 37 -79h32zM334 65h104v160q0 73 -45 121.5t-116 48.5q-67 0 -111.5 -45.5t-44.5 -119.5q0 -80 55 -122.5t158 -42.5z" />
    <glyph glyph-name="uni060C" unicode="&#x60c;" horiz-adv-x="237" 
d="M162 1h-87v102l50 130h46l-43 -138h34v-94z" />
    <glyph glyph-name="uni060D" unicode="&#x60d;" horiz-adv-x="353" 
d="M10 0l289 725h64l-290 -725h-63z" />
    <glyph glyph-name="uni060E" unicode="&#x60e;" horiz-adv-x="970" 
d="M933 105l8 -61q-356 -44 -590 -44q-144 0 -217.5 59.5t-73.5 167.5q0 100 61.5 166.5t159.5 66.5q99 0 158 -65t59 -161v-167q146 5 435 38zM334 65q72 0 104 1v159q0 73 -45 121.5t-116 48.5q-67 0 -111.5 -45.5t-44.5 -119.5q0 -80 55 -122.5t158 -42.5z" />
    <glyph glyph-name="uni060F" unicode="&#x60f;" horiz-adv-x="642" 
d="M443 56q74 0 121.5 -42t47.5 -107q0 -82 -65 -132t-190 -50q-151 0 -234 81q-28 -25 -86 -81l-37 40q18 19 88 86q-18 33 -18 72q0 152 197 228q-71 14 -119.5 66t-48.5 119q0 83 63 142.5t152 59.5q66 0 182 -40l-17 -53q-84 28 -158 28q-70 0 -115.5 -40t-45.5 -103
q0 -56 51.5 -100.5t172.5 -43.5q62 14 148 22l-14 -65q-388 -43 -388 -221q0 -13 5 -28q99 88 170 125t138 37zM362 -210q86 0 138 30t52 80q0 39 -32.5 65t-80.5 26q-56 0 -115.5 -30.5t-154.5 -113.5q33 -27 85.5 -42t107.5 -15z" />
    <glyph glyph-name="uni0615" unicode="&#x615;" 
d="M79 668q39 0 67 -25t28 -61q0 -51 -47 -79t-129 -28h-121l-30 50h54l6 9v171h50v-84l-7 -34q72 81 129 81zM-6 525q57 0 88.5 15t31.5 42q0 14 -13 25t-35 11q-31 0 -112 -84l-9 -9h49z" />
    <glyph glyph-name="uni061B" unicode="&#x61b;" horiz-adv-x="246" 
d="M162 350h-87v102l50 130h46l-43 -138h34v-94zM75 0v94h87v-94h-87z" />
    <glyph glyph-name="uni061F" unicode="&#x61f;" horiz-adv-x="471" 
d="M233 725q57 0 115.5 -32.5t107.5 -89.5l-40 -38q-89 95 -182 95q-60 0 -102 -33t-42 -88q0 -38 22 -68t81 -73q63 -46 90.5 -86.5t27.5 -109.5l-52 -23h-9v23q0 46 -21.5 79.5t-68.5 66.5q-61 42 -95.5 85.5t-34.5 107.5q0 83 61 133.5t142 50.5zM325 0h-87v94h87v-94z
" />
    <glyph glyph-name="uni0621" unicode="&#x621;" horiz-adv-x="505" 
d="M389 65h86l-16 -65h-248q-82 0 -181 -29v60q95 32 158 34q-44 27 -66.5 69.5t-22.5 82.5q0 75 56 129t136 54q56 0 151 -36l-17 -53q-77 24 -122 24q-64 0 -104 -35t-40 -86q0 -23 8.5 -45.5t30.5 -47.5t71.5 -40.5t119.5 -15.5z" />
    <glyph glyph-name="uni0622" unicode="&#x622;" horiz-adv-x="240" 
d="M48 749q22 0 61 -18.5t62 -18.5q46 0 80 26l-1 -56q-33 -25 -77 -25q-24 0 -59 18.5t-54 18.5t-32 -10.5t-16 -28.5h-50q0 37 22.5 65.5t63.5 28.5zM155 600v-600h-60v600h60z" />
    <glyph glyph-name="uni0623" unicode="&#x623;" horiz-adv-x="240" 
d="M145 705h99l-15 -50h-157q-34 0 -75 -12v48q38 14 73 14q-24 23 -24 57q0 39 26 63t65 24q26 0 69 -19v-50q-36 14 -61 14q-22 0 -35 -12t-13 -31t14 -32.5t34 -13.5zM95 0v600h60v-600h-60z" />
    <glyph glyph-name="uni0624" unicode="&#x624;" horiz-adv-x="513" 
d="M353 579h-117q-48 0 -106 -17v52q47 17 65 19q-22 23 -22 52q0 38 26.5 63.5t66.5 25.5q38 0 72 -18v-50q-39 13 -65 13q-22 0 -36 -11t-14 -31q0 -19 16.5 -31t41.5 -12h89zM453 32q2 -120 -87.5 -183.5t-250.5 -63.5v60q138 0 210 47.5t72 140.5v3q-71 -36 -148 -36
q-91 0 -145 58.5t-54 158.5q0 112 56.5 180t152.5 68q79 0 128.5 -55.5t54.5 -147.5q11 -207 11 -230zM262 65q68 0 133 24q-2 31 -11 163q-4 69 -40 108.5t-93 39.5q-65 0 -103 -50t-38 -130q0 -74 39.5 -114.5t112.5 -40.5z" />
    <glyph glyph-name="uni0625" unicode="&#x625;" horiz-adv-x="240" 
d="M155 725v-725h-60v725h60zM97 -195h99l-15 -50h-157q-34 0 -75 -12v48q38 14 73 14q-24 23 -24 57q0 39 26 63t65 24q26 0 69 -19v-50q-36 14 -61 14q-22 0 -35 -12t-13 -31t14 -32.5t34 -13.5z" />
    <glyph glyph-name="uni0626" unicode="&#x626;" horiz-adv-x="699" 
d="M253 371h-117q-48 0 -106 -17v52q47 17 65 19q-22 23 -22 52q0 38 26.5 63.5t66.5 25.5q38 0 72 -18v-50q-39 13 -65 13q-22 0 -36 -11t-14 -31q0 -19 16.5 -31t41.5 -12h89zM516 410q-61 0 -103.5 -35.5t-42.5 -87.5q0 -66 88 -121l77 -49q108 -69 108 -144
q0 -86 -77 -137t-218 -51q-60 0 -112.5 15t-94.5 46t-66.5 83t-24.5 120q0 101 45 236l49 -13q-39 -103 -39 -208q0 -103 71 -158.5t205 -55.5q96 0 148.5 33t52.5 84q0 40 -84 94l-72 46q-61 39 -88.5 79.5t-27.5 91.5q0 84 63 140.5t153 56.5q63 0 123 -25v-65
q-72 25 -133 25z" />
    <glyph glyph-name="uni0627" unicode="&#x627;" horiz-adv-x="240" 
d="M155 725v-725h-60v725h60z" />
    <glyph glyph-name="uni0628" unicode="&#x628;" horiz-adv-x="820" 
d="M730 485q30 -206 30 -294q0 -191 -194 -191h-1h-2h-273q-114 0 -177 54.5t-63 157.5q0 70 23 176l54 -10q-17 -101 -17 -150q0 -85 47 -124t146 -39h260h2h1q139 0 139 123q0 59 -35 297h60zM362 -150l63 63l64 -63l-63 -63z" />
    <glyph glyph-name="uni0629" unicode="&#x629;" horiz-adv-x="498" 
d="M292 686l-64 -63l-63 63l63 63zM439 686l-63 -63l-64 63l64 63zM353 538q64 -172 84.5 -238.5t20.5 -111.5q0 -90 -56 -145.5t-150 -55.5q-91 0 -146.5 53t-55.5 140q0 180 255 301l-22 57h70zM249 52q69 0 109 37.5t40 103.5q0 28 -14 74t-59 161
q-102 -42 -159.5 -105.5t-57.5 -132.5q0 -64 36.5 -101t104.5 -37z" />
    <glyph glyph-name="uni062A" unicode="&#x62a;" horiz-adv-x="820" 
d="M398 528l-64 -63l-63 63l63 63zM545 528l-63 -63l-64 63l64 63zM730 485q30 -206 30 -294q0 -191 -194 -191h-1h-2h-273q-114 0 -177 54.5t-63 157.5q0 70 23 176l54 -10q-17 -101 -17 -150q0 -85 47 -124t146 -39h260h2h1q139 0 139 123q0 59 -35 297h60z" />
    <glyph glyph-name="uni062B" unicode="&#x62b;" horiz-adv-x="820" 
d="M457 641l-50 -50l-51 50l50 51zM385 529l-64 -63l-63 63l63 64zM489 466l-64 63l64 64l63 -64zM730 485q30 -206 30 -294q0 -191 -194 -191h-1h-2h-273q-114 0 -177 54.5t-63 157.5q0 70 23 176l54 -10q-17 -101 -17 -150q0 -85 47 -124t146 -39h260h2h1q139 0 139 123
q0 59 -35 297h60z" />
    <glyph glyph-name="uni062C" unicode="&#x62c;" horiz-adv-x="642" 
d="M602 292l-16 -61q-224 0 -349.5 -84t-125.5 -197q0 -80 61 -120t170 -40q90 0 210 35l17 -53q-137 -47 -237 -47q-134 0 -208 56t-74 168q0 42 13.5 82.5t47 82.5t83.5 75t128.5 57.5t176.5 32.5q-48 27 -96.5 65.5t-77 64.5t-63.5 45t-67 19q-45 0 -110 -22l-17 52
q72 35 132 35q34 0 66.5 -15t66 -42t68.5 -57.5t88.5 -67t112.5 -64.5zM359 -57l-64 63l63 63l64 -63z" />
    <glyph glyph-name="uni062D" unicode="&#x62d;" horiz-adv-x="642" 
d="M586 231q-224 0 -349.5 -84t-125.5 -197q0 -80 61 -120t170 -40q90 0 210 35l17 -53q-137 -47 -237 -47q-134 0 -208 56t-74 168q0 42 13.5 82.5t47 82.5t83.5 75t128.5 57.5t176.5 32.5q-48 27 -96.5 65.5t-77 64.5t-63.5 45t-67 19q-45 0 -110 -22l-17 52q72 35 132 35
q34 0 66.5 -15t66 -42t68.5 -57.5t88.5 -67t112.5 -64.5z" />
    <glyph glyph-name="uni062E" unicode="&#x62e;" horiz-adv-x="642" 
d="M489 626l-63 -63l-64 63l63 63zM586 231q-224 0 -349.5 -84t-125.5 -197q0 -80 61 -120t170 -40q90 0 210 35l17 -53q-137 -47 -237 -47q-134 0 -208 56t-74 168q0 42 13.5 82.5t47 82.5t83.5 75t128.5 57.5t176.5 32.5q-48 27 -96.5 65.5t-77 64.5t-63.5 45t-67 19
q-45 0 -110 -22l-17 52q72 35 132 35q34 0 66.5 -15t66 -42t68.5 -57.5t88.5 -67t112.5 -64.5z" />
    <glyph glyph-name="uni062F" unicode="&#x62f;" horiz-adv-x="467" 
d="M309 485q48 -93 78 -182t30 -141q0 -73 -49.5 -117.5t-129.5 -44.5q-96 0 -218 32l11 59q125 -26 194 -26q137 0 137 101q0 92 -113 319h60z" />
    <glyph glyph-name="uni0630" unicode="&#x630;" horiz-adv-x="467" 
d="M265 695l64 -63l-63 -63l-64 63zM309 485q48 -93 78 -182t30 -141q0 -73 -49.5 -117.5t-129.5 -44.5q-96 0 -218 32l11 59q125 -26 194 -26q137 0 137 101q0 92 -113 319h60z" />
    <glyph glyph-name="uni0631" unicode="&#x631;" horiz-adv-x="286" 
d="M191 440q35 -249 35 -411q0 -119 -67 -181.5t-179 -62.5v60q82 0 136 48t54 137q0 139 -39 410h60z" />
    <glyph glyph-name="uni0632" unicode="&#x632;" horiz-adv-x="286" 
d="M154 656l64 -63l-63 -63l-64 63zM191 440q35 -249 35 -411q0 -119 -67 -181.5t-179 -62.5v60q82 0 136 48t54 137q0 139 -39 410h60z" />
    </font>
</defs>
</svg>
