<svg width="26" height="26" viewBox="0 0 26 26" fill="none" xmlns="http://www.w3.org/2000/svg">
<g id="&#240;&#159;&#166;&#134; icon &#34;bell&#34;">
<g id="Group 75486">
<path id="Vector" d="M10.5111 4.5037C10.5111 3.83968 10.7749 3.20285 11.2444 2.73332C11.714 2.26378 12.3508 2 13.0148 2C13.6788 2 14.3157 2.26378 14.7852 2.73332C15.2547 3.20285 15.5185 3.83968 15.5185 4.5037C16.9562 5.18349 18.1817 6.24168 19.0638 7.56486C19.9459 8.88803 20.4514 10.4263 20.5259 12.0148V15.7704C20.6201 16.5487 20.8958 17.2939 21.3306 17.9462C21.7655 18.5985 22.3474 19.1396 23.0296 19.5259H3C3.68218 19.1396 4.26413 18.5985 4.699 17.9462C5.13386 17.2939 5.4095 16.5487 5.5037 15.7704V12.0148C5.57826 10.4263 6.08369 8.88803 6.9658 7.56486C7.84792 6.24168 9.07347 5.18349 10.5111 4.5037" stroke="#401675" stroke-width="1.6" stroke-linecap="round" stroke-linejoin="round"/>
<path id="Vector_2" d="M9.26562 19.5254V20.7772C9.26562 21.7733 9.6613 22.7285 10.3656 23.4328C11.0699 24.1371 12.0251 24.5328 13.0212 24.5328C14.0172 24.5328 14.9725 24.1371 15.6768 23.4328C16.3811 22.7285 16.7767 21.7733 16.7767 20.7772V19.5254" stroke="#401675" stroke-width="1.6" stroke-linecap="round" stroke-linejoin="round"/>
</g>
</g>
</svg>
