<svg width="73" height="73" viewBox="0 0 73 73" fill="none" xmlns="http://www.w3.org/2000/svg">
<g id="2246841_bell_notification_one notification_twitter_icon 6">
<g id="Icons">
<path id="Vector" d="M51.0593 36.4801H36.4677C34.6314 36.4801 33.1289 34.9777 33.1289 33.1413V18.5497C33.1289 16.7134 34.6314 15.2109 36.4677 15.2109H51.0593C52.8956 15.2109 54.3981 16.7134 54.3981 18.5497V33.1413C54.3981 34.9777 52.8956 36.4801 51.0593 36.4801Z" fill="#401675"/>
<path id="Vector_2" d="M47.8294 47.7225L47.6621 47.7985L25.1081 56.4673L24.9864 56.5129C23.7242 56.9996 22.2337 56.5889 21.5646 55.4179C21.154 54.7183 21.1235 53.9427 21.3517 53.2735C21.7472 52.1025 22.0057 50.8554 21.9448 49.6236C21.9144 48.635 21.7319 47.6769 21.3669 46.7492L19.405 41.624C17.3823 36.3619 19.2985 30.5827 23.709 27.4346L23.5417 26.9936C22.8726 25.2446 23.998 23.237 26.0055 23.0242C27.3286 22.8873 28.5757 23.7389 29.0471 24.986L29.184 25.3358L29.1687 25.351C29.4577 25.3054 30.4615 25.2902 31.2979 25.3054V33.1377C31.2979 35.9816 33.6249 38.3085 36.4688 38.3085H43.9513C44.9094 39.7837 46.5671 41.8672 47.7534 42.6885L47.8142 42.7037C48.2096 42.8406 48.5442 43.0839 48.8483 43.3728C49.1677 43.7379 49.4262 44.1333 49.5479 44.7416C49.7761 46.0192 49.0309 47.2662 47.8294 47.7225Z" fill="#826CF4"/>
<path id="Vector_3" d="M51.0593 36.4801H36.4677C34.6314 36.4801 33.1289 34.9777 33.1289 33.1413V18.5497C33.1289 16.7134 34.6314 15.2109 36.4677 15.2109H51.0593C52.8956 15.2109 54.3981 16.7134 54.3981 18.5497V33.1413C54.3981 34.9777 52.8956 36.4801 51.0593 36.4801Z" stroke="#303030" stroke-width="0.7" stroke-miterlimit="10" stroke-linecap="round" stroke-linejoin="round"/>
<path id="Vector_4" d="M45.2753 23.9518V21.3281H44.2328L42.252 22.388L42.4952 23.3263L44.059 22.4749H44.0938V23.9518V26.8536V30.3634H44.3196H45.2753V29.7031V26.0369L45.2753 23.9518Z" fill="white"/>
<path id="Vector_5" d="M21.9707 38.1094C21.9803 38.6861 22.0398 39.2666 22.1517 39.8452" stroke="#303030" stroke-width="0.7" stroke-miterlimit="10" stroke-linecap="round" stroke-linejoin="round"/>
<path id="Vector_6" d="M26.2654 29.6523C25.5193 30.181 24.8585 30.8 24.2925 31.4872C23.3507 32.6308 22.6715 33.9636 22.2988 35.3848" stroke="#303030" stroke-width="0.7" stroke-miterlimit="10" stroke-linecap="round" stroke-linejoin="round"/>
<path id="Vector_7" d="M47.658 47.793L25.1035 56.4666" stroke="#303030" stroke-width="0.7" stroke-miterlimit="10" stroke-linecap="round" stroke-linejoin="round"/>
<path id="Vector_8" d="M44.0143 38.4949C44.8377 40.0763 46.3042 41.6955 47.7489 42.6841L47.8071 42.7082C48.203 42.8388 48.5483 43.083 48.8493 43.3757C49.1667 43.7405 49.4297 44.1262 49.5442 44.7445C49.7792 46.013 49.0279 47.2659 47.8238 47.729L47.6574 47.793L25.1029 56.4666L24.9878 56.5109C23.7306 56.9944 22.2307 56.5835 21.56 55.4154C21.1559 54.7116 21.1205 53.9406 21.348 53.2715C21.7473 52.0971 22.0001 50.8624 21.9518 49.6229C21.9134 48.6347 21.7247 47.6769 21.3673 46.7492L21.3737 46.7496L19.4089 41.6175C17.3854 36.3681 19.2916 30.5615 23.7198 27.4236L23.7104 27.4359L23.6059 27.1644C23.0811 25.7996 23.5152 24.1712 24.7741 23.4273C26.3729 22.4825 28.3784 23.2339 29.0163 24.8927L29.1848 25.3307L29.1758 25.3445C29.6276 25.275 30.3061 25.229 31.0012 25.3111" stroke="#303030" stroke-width="0.7" stroke-miterlimit="10" stroke-linecap="round" stroke-linejoin="round"/>
<path id="Vector_9" d="M35.0388 52.6465C35.7651 54.5351 34.7943 56.668 32.9057 57.3943L32.5225 57.5417C30.6338 58.268 28.4841 57.3351 27.7578 55.4465" stroke="#303030" stroke-width="0.7" stroke-miterlimit="10" stroke-linecap="round" stroke-linejoin="round"/>
<path id="Vector_10" d="M35.0388 52.6465C35.7651 54.5351 34.7943 56.668 32.9057 57.3943L32.5225 57.5417C30.6338 58.268 28.4841 57.3351 27.7578 55.4465" stroke="#303030" stroke-width="0.7" stroke-miterlimit="10" stroke-linecap="round" stroke-linejoin="round"/>
</g>
</g>
</svg>
