<svg width="40" height="40" viewBox="0 0 40 40" fill="none" xmlns="http://www.w3.org/2000/svg">
<g id="vuesax/linear/building-4">
<g id="building-4">
<path id="Vector" d="M1.66699 36.666H38.3337" stroke="#401675" stroke-width="3" stroke-miterlimit="10" stroke-linecap="round" stroke-linejoin="round"/>
<path id="Vector_2" d="M32.9668 36.6834V29.25" stroke="#401675" stroke-width="3" stroke-miterlimit="10" stroke-linecap="round" stroke-linejoin="round"/>
<path id="Vector_3" d="M32.9997 18.1504C30.9664 18.1504 29.333 19.7837 29.333 21.8171V25.6003C29.333 27.6337 30.9664 29.267 32.9997 29.267C35.033 29.267 36.6664 27.6337 36.6664 25.6003V21.8171C36.6664 19.7837 35.033 18.1504 32.9997 18.1504Z" stroke="#401675" stroke-width="3" stroke-miterlimit="10" stroke-linecap="round" stroke-linejoin="round"/>
<path id="Vector_4" d="M3.5 36.6656V10.049C3.5 6.69899 5.16675 5.01562 8.48342 5.01562H18.8667C22.1834 5.01562 23.8334 6.69899 23.8334 10.049V36.6656" stroke="#401675" stroke-width="3" stroke-miterlimit="10" stroke-linecap="round" stroke-linejoin="round"/>
<path id="Vector_5" d="M9.66699 13.75H17.917" stroke="#401675" stroke-width="3" stroke-miterlimit="10" stroke-linecap="round" stroke-linejoin="round"/>
<path id="Vector_6" d="M9.66699 20H17.917" stroke="#401675" stroke-width="3" stroke-miterlimit="10" stroke-linecap="round" stroke-linejoin="round"/>
<path id="Vector_7" d="M13.75 36.666V30.416" stroke="#401675" stroke-width="3" stroke-miterlimit="10" stroke-linecap="round" stroke-linejoin="round"/>
</g>
</g>
</svg>
