<svg width="40" height="40" viewBox="0 0 40 40" fill="none" xmlns="http://www.w3.org/2000/svg">
<g id="vuesax/linear/call">
<g id="call">
<g id="call_2">
<path id="Vector" d="M36.6168 30.5487C36.6168 31.1487 36.4835 31.7654 36.2002 32.3654C35.9168 32.9654 35.5502 33.532 35.0668 34.0654C34.2502 34.9654 33.3502 35.6154 32.3335 36.032C31.3335 36.4487 30.2502 36.6654 29.0835 36.6654C27.3835 36.6654 25.5668 36.2654 23.6502 35.4487C21.7335 34.632 19.8168 33.532 17.9168 32.1487C16.0002 30.7487 14.1835 29.1987 12.4502 27.482C10.7335 25.7487 9.1835 23.932 7.80016 22.032C6.4335 20.132 5.3335 18.232 4.5335 16.3487C3.7335 14.4487 3.3335 12.632 3.3335 10.8987C3.3335 9.76536 3.5335 8.68203 3.9335 7.68203C4.3335 6.66536 4.96683 5.73203 5.85016 4.8987C6.91683 3.8487 8.0835 3.33203 9.31683 3.33203C9.7835 3.33203 10.2502 3.43203 10.6668 3.63203C11.1002 3.83203 11.4835 4.13203 11.7835 4.56536L15.6502 10.0154C15.9502 10.432 16.1668 10.8154 16.3168 11.182C16.4668 11.532 16.5502 11.882 16.5502 12.1987C16.5502 12.5987 16.4335 12.9987 16.2002 13.382C15.9835 13.7654 15.6668 14.1654 15.2668 14.5654L14.0002 15.882C13.8168 16.0654 13.7335 16.282 13.7335 16.5487C13.7335 16.682 13.7502 16.7987 13.7835 16.932C13.8335 17.0654 13.8835 17.1654 13.9168 17.2654C14.2168 17.8154 14.7335 18.532 15.4668 19.3987C16.2168 20.2654 17.0168 21.1487 17.8835 22.032C18.7835 22.9154 19.6502 23.732 20.5335 24.482C21.4002 25.2154 22.1168 25.7154 22.6835 26.0154C22.7668 26.0487 22.8668 26.0987 22.9835 26.1487C23.1168 26.1987 23.2502 26.2154 23.4002 26.2154C23.6835 26.2154 23.9002 26.1154 24.0835 25.932L25.3502 24.682C25.7668 24.2654 26.1668 23.9487 26.5502 23.7487C26.9335 23.5154 27.3168 23.3987 27.7335 23.3987C28.0502 23.3987 28.3835 23.4654 28.7502 23.6154C29.1168 23.7654 29.5002 23.982 29.9168 24.2654L35.4335 28.182C35.8668 28.482 36.1668 28.832 36.3502 29.2487C36.5168 29.6654 36.6168 30.082 36.6168 30.5487Z" stroke="black" stroke-width="2" stroke-miterlimit="10"/>
</g>
</g>
</g>
</svg>
