<svg width="48" height="48" viewBox="0 0 48 48" fill="none" xmlns="http://www.w3.org/2000/svg">
<g id="Group 178195">
<rect id="Rectangle 1931" width="48" height="48" rx="6" fill="#826CF4"/>
<g id="vuesax/linear/gallery">
<g id="gallery">
<path id="Vector" d="M20.5007 35.6654H27.5007C33.334 35.6654 35.6673 33.332 35.6673 27.4987V20.4987C35.6673 14.6654 33.334 12.332 27.5007 12.332H20.5007C14.6673 12.332 12.334 14.6654 12.334 20.4987V27.4987C12.334 33.332 14.6673 35.6654 20.5007 35.6654Z" stroke="white" stroke-width="1.5" stroke-linecap="round" stroke-linejoin="round"/>
<path id="Vector_2" d="M20.4993 21.6667C21.788 21.6667 22.8327 20.622 22.8327 19.3333C22.8327 18.0447 21.788 17 20.4993 17C19.2107 17 18.166 18.0447 18.166 19.3333C18.166 20.622 19.2107 21.6667 20.4993 21.6667Z" stroke="white" stroke-width="1.5" stroke-linecap="round" stroke-linejoin="round"/>
<path id="Vector_3" d="M13.1152 32.1093L18.8669 28.2476C19.7886 27.6293 21.1186 27.6993 21.9469 28.411L22.3319 28.7493C23.2419 29.531 24.7119 29.531 25.6219 28.7493L30.4752 24.5843C31.3852 23.8026 32.8552 23.8026 33.7652 24.5843L35.6669 26.2176" stroke="white" stroke-width="1.5" stroke-linecap="round" stroke-linejoin="round"/>
</g>
</g>
</g>
</svg>
