<svg width="38" height="38" viewBox="0 0 38 38" fill="none" xmlns="http://www.w3.org/2000/svg">
<g id="shopping-cart">
<path id="Vector" d="M3.16699 3.16602H5.922C7.632 3.16602 8.97783 4.63852 8.83533 6.33268L7.52116 22.1027C7.29949 24.6835 9.34198 26.9002 11.9386 26.9002H28.8012C31.0812 26.9002 33.0762 25.0319 33.2503 22.7677L34.1053 10.8927C34.2953 8.26436 32.3003 6.12684 29.6562 6.12684H9.21534" stroke="white" stroke-width="2" stroke-miterlimit="10" stroke-linecap="round" stroke-linejoin="round"/>
<path id="Vector_2" d="M25.7292 34.8333C26.8222 34.8333 27.7083 33.9472 27.7083 32.8542C27.7083 31.7611 26.8222 30.875 25.7292 30.875C24.6361 30.875 23.75 31.7611 23.75 32.8542C23.75 33.9472 24.6361 34.8333 25.7292 34.8333Z" stroke="white" stroke-width="2" stroke-miterlimit="10" stroke-linecap="round" stroke-linejoin="round"/>
<path id="Vector_3" d="M13.0622 34.8333C14.1552 34.8333 15.0413 33.9472 15.0413 32.8542C15.0413 31.7611 14.1552 30.875 13.0622 30.875C11.9691 30.875 11.083 31.7611 11.083 32.8542C11.083 33.9472 11.9691 34.8333 13.0622 34.8333Z" stroke="white" stroke-width="2" stroke-miterlimit="10" stroke-linecap="round" stroke-linejoin="round"/>
<path id="Vector_4" d="M14.25 12.666H33.25" stroke="white" stroke-width="2" stroke-miterlimit="10" stroke-linecap="round" stroke-linejoin="round"/>
</g>
</svg>
