<svg width="38" height="38" viewBox="0 0 38 38" fill="none" xmlns="http://www.w3.org/2000/svg">
<g id="vuesax/linear/convertshape">
<g id="convertshape">
<path id="Vector" d="M34.833 8.15352V14.0118C34.833 17.5743 33.408 18.9993 29.8455 18.9993H25.5705C22.008 18.9993 20.583 17.5743 20.583 14.0118V8.15352C20.583 4.59102 22.008 3.16602 25.5705 3.16602H29.8455C33.408 3.16602 34.833 4.59102 34.833 8.15352Z" stroke="#401675" stroke-width="2" stroke-linecap="round" stroke-linejoin="round"/>
<path id="Vector_2" d="M17.416 23.9895V29.8478C17.416 33.4103 15.991 34.8353 12.4285 34.8353H8.15352C4.59102 34.8353 3.16602 33.4103 3.16602 29.8478V23.9895C3.16602 20.427 4.59102 19.002 8.15352 19.002H12.4285C15.991 19.002 17.416 20.427 17.416 23.9895Z" stroke="#401675" stroke-width="2" stroke-linecap="round" stroke-linejoin="round"/>
<path id="Vector_3" d="M34.8333 23.75C34.8333 29.8775 29.8775 34.8333 23.75 34.8333L25.4125 32.0625" stroke="#401675" stroke-width="2" stroke-linecap="round" stroke-linejoin="round"/>
<path id="Vector_4" d="M3.16602 14.2493C3.16602 8.12185 8.12185 3.16602 14.2493 3.16602L12.5868 5.93685" stroke="#401675" stroke-width="2" stroke-linecap="round" stroke-linejoin="round"/>
</g>
</g>
</svg>
