<svg width="25" height="25" viewBox="0 0 25 25" fill="none" xmlns="http://www.w3.org/2000/svg">
<g id="vuesax/outline/document">
<g id="document">
<path id="Vector" d="M15.6237 23.6966H9.3737C3.71745 23.6966 1.30078 21.2799 1.30078 15.6237V9.3737C1.30078 3.71745 3.71745 1.30078 9.3737 1.30078H15.6237C21.2799 1.30078 23.6966 3.71745 23.6966 9.3737V15.6237C23.6966 21.2799 21.2799 23.6966 15.6237 23.6966ZM9.3737 2.86328C4.57161 2.86328 2.86328 4.57161 2.86328 9.3737V15.6237C2.86328 20.4258 4.57161 22.1341 9.3737 22.1341H15.6237C20.4258 22.1341 22.1341 20.4258 22.1341 15.6237V9.3737C22.1341 4.57161 20.4258 2.86328 15.6237 2.86328H9.3737Z" fill="#401675"/>
<path id="Vector_2" d="M16.4062 10.1562H8.59375C8.16667 10.1562 7.8125 9.80208 7.8125 9.375C7.8125 8.94792 8.16667 8.59375 8.59375 8.59375H16.4062C16.8333 8.59375 17.1875 8.94792 17.1875 9.375C17.1875 9.80208 16.8333 10.1562 16.4062 10.1562Z" fill="#401675"/>
<path id="Vector_3" d="M16.4062 16.4062H8.59375C8.16667 16.4062 7.8125 16.0521 7.8125 15.625C7.8125 15.1979 8.16667 14.8438 8.59375 14.8438H16.4062C16.8333 14.8438 17.1875 15.1979 17.1875 15.625C17.1875 16.0521 16.8333 16.4062 16.4062 16.4062Z" fill="#401675"/>
</g>
</g>
</svg>
