<svg width="523" height="361" viewBox="0 0 523 361" fill="none" xmlns="http://www.w3.org/2000/svg">
<g opacity="0.5">
<circle cx="5" cy="270.865" r="5" fill="white"/>
<circle cx="5" cy="246.695" r="5" fill="white"/>
<circle cx="214.895" cy="270.865" r="5" fill="white"/>
<circle cx="214.895" cy="246.695" r="5" fill="white"/>
<circle cx="16.6562" cy="270.865" r="5" fill="white"/>
<circle cx="16.6562" cy="246.695" r="5" fill="white"/>
<circle cx="226.555" cy="270.865" r="5" fill="white"/>
<circle cx="226.555" cy="246.695" r="5" fill="white"/>
<circle cx="28.3164" cy="270.865" r="5" fill="white"/>
<circle cx="28.3164" cy="246.695" r="5" fill="white"/>
<circle cx="238.211" cy="270.865" r="5" fill="white"/>
<circle cx="238.211" cy="246.695" r="5" fill="white"/>
<circle cx="39.9766" cy="270.865" r="5" fill="white"/>
<circle cx="39.9766" cy="246.695" r="5" fill="white"/>
<circle cx="249.871" cy="270.865" r="5" fill="white"/>
<circle cx="249.871" cy="246.695" r="5" fill="white"/>
<circle cx="51.6367" cy="270.865" r="5" fill="white"/>
<circle cx="51.6367" cy="246.695" r="5" fill="white"/>
<circle cx="261.531" cy="270.865" r="5" fill="white"/>
<circle cx="261.531" cy="246.695" r="5" fill="white"/>
<circle cx="63.2969" cy="270.865" r="5" fill="white"/>
<circle cx="63.2969" cy="246.695" r="5" fill="white"/>
<circle cx="273.188" cy="270.865" r="5" fill="white"/>
<circle cx="273.188" cy="246.695" r="5" fill="white"/>
<circle cx="74.9531" cy="270.865" r="5" fill="white"/>
<circle cx="74.9531" cy="246.695" r="5" fill="white"/>
<circle cx="284.848" cy="270.865" r="5" fill="white"/>
<circle cx="284.848" cy="246.695" r="5" fill="white"/>
<circle cx="86.6133" cy="270.865" r="5" fill="white"/>
<circle cx="86.6133" cy="246.695" r="5" fill="white"/>
<circle cx="296.508" cy="270.865" r="5" fill="white"/>
<circle cx="296.508" cy="246.695" r="5" fill="white"/>
<circle cx="98.2695" cy="270.865" r="5" fill="white"/>
<circle cx="98.2695" cy="246.695" r="5" fill="white"/>
<circle cx="308.164" cy="270.865" r="5" fill="white"/>
<circle cx="308.164" cy="246.695" r="5" fill="white"/>
<circle cx="109.93" cy="270.865" r="5" fill="white"/>
<circle cx="109.93" cy="246.695" r="5" fill="white"/>
<circle cx="319.824" cy="270.865" r="5" fill="white"/>
<circle cx="319.824" cy="246.695" r="5" fill="white"/>
<circle cx="121.586" cy="270.865" r="5" fill="white"/>
<circle cx="121.586" cy="246.695" r="5" fill="white"/>
<circle cx="331.484" cy="270.865" r="5" fill="white"/>
<circle cx="331.484" cy="246.695" r="5" fill="white"/>
<circle cx="133.25" cy="270.865" r="5" fill="white"/>
<circle cx="133.25" cy="246.695" r="5" fill="white"/>
<circle cx="144.906" cy="270.865" r="5" fill="white"/>
<circle cx="144.906" cy="246.695" r="5" fill="white"/>
<circle cx="156.562" cy="270.865" r="5" fill="white"/>
<circle cx="156.562" cy="246.695" r="5" fill="white"/>
<circle cx="168.223" cy="270.865" r="5" fill="white"/>
<circle cx="168.223" cy="246.695" r="5" fill="white"/>
<circle cx="179.883" cy="270.865" r="5" fill="white"/>
<circle cx="179.883" cy="246.695" r="5" fill="white"/>
<circle cx="191.539" cy="270.865" r="5" fill="white"/>
<circle cx="191.539" cy="246.695" r="5" fill="white"/>
<circle cx="203.199" cy="270.865" r="5" fill="white"/>
<circle cx="203.199" cy="246.695" r="5" fill="white"/>
<circle cx="5" cy="282.957" r="5" fill="white"/>
<circle cx="5" cy="258.787" r="5" fill="white"/>
<circle cx="214.895" cy="282.957" r="5" fill="white"/>
<circle cx="214.895" cy="258.787" r="5" fill="white"/>
<circle cx="16.6562" cy="282.957" r="5" fill="white"/>
<circle cx="16.6562" cy="258.787" r="5" fill="white"/>
<circle cx="226.555" cy="282.957" r="5" fill="white"/>
<circle cx="226.555" cy="258.787" r="5" fill="white"/>
<circle cx="28.3164" cy="282.957" r="5" fill="white"/>
<circle cx="28.3164" cy="258.787" r="5" fill="white"/>
<circle cx="238.211" cy="282.957" r="5" fill="white"/>
<circle cx="238.211" cy="258.787" r="5" fill="white"/>
<circle cx="39.9766" cy="282.957" r="5" fill="white"/>
<circle cx="39.9766" cy="258.787" r="5" fill="white"/>
<circle cx="249.871" cy="282.957" r="5" fill="white"/>
<circle cx="249.871" cy="258.787" r="5" fill="white"/>
<circle cx="51.6367" cy="282.957" r="5" fill="white"/>
<circle cx="51.6367" cy="258.787" r="5" fill="white"/>
<circle cx="261.531" cy="282.957" r="5" fill="white"/>
<circle cx="261.531" cy="258.787" r="5" fill="white"/>
<circle cx="63.2969" cy="282.957" r="5" fill="white"/>
<circle cx="63.2969" cy="258.787" r="5" fill="white"/>
<circle cx="273.188" cy="282.957" r="5" fill="white"/>
<circle cx="273.188" cy="258.787" r="5" fill="white"/>
<circle cx="74.9531" cy="282.957" r="5" fill="white"/>
<circle cx="74.9531" cy="258.787" r="5" fill="white"/>
<circle cx="284.848" cy="282.957" r="5" fill="white"/>
<circle cx="284.848" cy="258.787" r="5" fill="white"/>
<circle cx="86.6133" cy="282.957" r="5" fill="white"/>
<circle cx="86.6133" cy="258.787" r="5" fill="white"/>
<circle cx="296.508" cy="282.957" r="5" fill="white"/>
<circle cx="296.508" cy="258.787" r="5" fill="white"/>
<circle cx="98.2695" cy="282.957" r="5" fill="white"/>
<circle cx="98.2695" cy="258.787" r="5" fill="white"/>
<circle cx="308.164" cy="282.957" r="5" fill="white"/>
<circle cx="308.164" cy="258.787" r="5" fill="white"/>
<circle cx="109.93" cy="282.957" r="5" fill="white"/>
<circle cx="109.93" cy="258.787" r="5" fill="white"/>
<circle cx="319.824" cy="282.957" r="5" fill="white"/>
<circle cx="319.824" cy="258.787" r="5" fill="white"/>
<circle cx="121.586" cy="282.957" r="5" fill="white"/>
<circle cx="121.586" cy="258.787" r="5" fill="white"/>
<circle cx="331.484" cy="282.957" r="5" fill="white"/>
<circle cx="331.484" cy="258.787" r="5" fill="white"/>
<circle cx="133.25" cy="282.957" r="5" fill="white"/>
<circle cx="133.25" cy="258.787" r="5" fill="white"/>
<circle cx="144.906" cy="282.957" r="5" fill="white"/>
<circle cx="144.906" cy="258.787" r="5" fill="white"/>
<circle cx="156.562" cy="282.957" r="5" fill="white"/>
<circle cx="156.562" cy="258.787" r="5" fill="white"/>
<circle cx="168.223" cy="282.957" r="5" fill="white"/>
<circle cx="168.223" cy="258.787" r="5" fill="white"/>
<circle cx="179.883" cy="282.957" r="5" fill="white"/>
<circle cx="179.883" cy="258.787" r="5" fill="white"/>
<circle cx="191.539" cy="282.957" r="5" fill="white"/>
<circle cx="191.539" cy="258.787" r="5" fill="white"/>
<circle cx="203.199" cy="282.957" r="5" fill="white"/>
<circle cx="203.199" cy="258.787" r="5" fill="white"/>
<circle cx="5" cy="295.047" r="5" fill="white"/>
<circle cx="214.895" cy="295.047" r="5" fill="white"/>
<circle cx="16.6562" cy="295.047" r="5" fill="white"/>
<circle cx="226.555" cy="295.047" r="5" fill="white"/>
<circle cx="28.3164" cy="295.047" r="5" fill="white"/>
<circle cx="238.211" cy="295.047" r="5" fill="white"/>
<circle cx="39.9766" cy="295.047" r="5" fill="white"/>
<circle cx="249.871" cy="295.047" r="5" fill="white"/>
<circle cx="51.6367" cy="295.047" r="5" fill="white"/>
<circle cx="261.531" cy="295.047" r="5" fill="white"/>
<circle cx="63.2969" cy="295.047" r="5" fill="white"/>
<circle cx="273.188" cy="295.047" r="5" fill="white"/>
<circle cx="74.9531" cy="295.047" r="5" fill="white"/>
<circle cx="284.848" cy="295.047" r="5" fill="white"/>
<circle cx="86.6133" cy="295.047" r="5" fill="white"/>
<circle cx="296.508" cy="295.047" r="5" fill="white"/>
<circle cx="98.2695" cy="295.047" r="5" fill="white"/>
<circle cx="308.164" cy="295.047" r="5" fill="white"/>
<circle cx="109.93" cy="295.047" r="5" fill="white"/>
<circle cx="319.824" cy="295.047" r="5" fill="white"/>
<circle cx="121.586" cy="295.047" r="5" fill="white"/>
<circle cx="331.484" cy="295.047" r="5" fill="white"/>
<circle cx="133.25" cy="295.047" r="5" fill="white"/>
<circle cx="144.906" cy="295.047" r="5" fill="white"/>
<circle cx="156.562" cy="295.047" r="5" fill="white"/>
<circle cx="168.223" cy="295.047" r="5" fill="white"/>
<circle cx="179.883" cy="295.047" r="5" fill="white"/>
<circle cx="191.539" cy="295.047" r="5" fill="white"/>
<circle cx="203.199" cy="295.047" r="5" fill="white"/>
<circle cx="5" cy="307.137" r="5" fill="white"/>
<circle cx="214.895" cy="307.137" r="5" fill="white"/>
<circle cx="16.6562" cy="307.137" r="5" fill="white"/>
<circle cx="226.555" cy="307.137" r="5" fill="white"/>
<circle cx="28.3164" cy="307.137" r="5" fill="white"/>
<circle cx="238.211" cy="307.137" r="5" fill="white"/>
<circle cx="39.9766" cy="307.137" r="5" fill="white"/>
<circle cx="249.871" cy="307.137" r="5" fill="white"/>
<circle cx="51.6367" cy="307.137" r="5" fill="white"/>
<circle cx="261.531" cy="307.137" r="5" fill="white"/>
<circle cx="63.2969" cy="307.137" r="5" fill="white"/>
<circle cx="273.188" cy="307.137" r="5" fill="white"/>
<circle cx="74.9531" cy="307.137" r="5" fill="white"/>
<circle cx="284.848" cy="307.137" r="5" fill="white"/>
<circle cx="86.6133" cy="307.137" r="5" fill="white"/>
<circle cx="296.508" cy="307.137" r="5" fill="white"/>
<circle cx="98.2695" cy="307.137" r="5" fill="white"/>
<circle cx="308.164" cy="307.137" r="5" fill="white"/>
<circle cx="109.93" cy="307.137" r="5" fill="white"/>
<circle cx="319.824" cy="307.137" r="5" fill="white"/>
<circle cx="121.586" cy="307.137" r="5" fill="white"/>
<circle cx="331.484" cy="307.137" r="5" fill="white"/>
<circle cx="133.25" cy="307.137" r="5" fill="white"/>
<circle cx="144.906" cy="307.137" r="5" fill="white"/>
<circle cx="156.562" cy="307.137" r="5" fill="white"/>
<circle cx="168.223" cy="307.137" r="5" fill="white"/>
<circle cx="179.883" cy="307.137" r="5" fill="white"/>
<circle cx="191.539" cy="307.137" r="5" fill="white"/>
<circle cx="203.199" cy="307.137" r="5" fill="white"/>
<circle cx="5" cy="319.229" r="5" fill="white"/>
<circle cx="214.895" cy="319.229" r="5" fill="white"/>
<circle cx="16.6562" cy="319.229" r="5" fill="white"/>
<circle cx="226.555" cy="319.229" r="5" fill="white"/>
<circle cx="28.3164" cy="319.229" r="5" fill="white"/>
<circle cx="238.211" cy="319.229" r="5" fill="white"/>
<circle cx="39.9766" cy="319.229" r="5" fill="white"/>
<circle cx="249.871" cy="319.229" r="5" fill="white"/>
<circle cx="51.6367" cy="319.229" r="5" fill="white"/>
<circle cx="261.531" cy="319.229" r="5" fill="white"/>
<circle cx="63.2969" cy="319.229" r="5" fill="white"/>
<circle cx="273.188" cy="319.229" r="5" fill="white"/>
<circle cx="74.9531" cy="319.229" r="5" fill="white"/>
<circle cx="284.848" cy="319.229" r="5" fill="white"/>
<circle cx="86.6133" cy="319.229" r="5" fill="white"/>
<circle cx="296.508" cy="319.229" r="5" fill="white"/>
<circle cx="98.2695" cy="319.229" r="5" fill="white"/>
<circle cx="308.164" cy="319.229" r="5" fill="white"/>
<circle cx="109.93" cy="319.229" r="5" fill="white"/>
<circle cx="319.824" cy="319.229" r="5" fill="white"/>
<circle cx="121.586" cy="319.229" r="5" fill="white"/>
<circle cx="331.484" cy="319.229" r="5" fill="white"/>
<circle cx="133.25" cy="319.229" r="5" fill="white"/>
<circle cx="144.906" cy="319.229" r="5" fill="white"/>
<circle cx="156.562" cy="319.229" r="5" fill="white"/>
<circle cx="168.223" cy="319.229" r="5" fill="white"/>
<circle cx="179.883" cy="319.229" r="5" fill="white"/>
<circle cx="191.539" cy="319.229" r="5" fill="white"/>
<circle cx="203.199" cy="319.229" r="5" fill="white"/>
<circle cx="5" cy="331.318" r="5" fill="white"/>
<circle cx="214.895" cy="331.318" r="5" fill="white"/>
<circle cx="16.6562" cy="331.318" r="5" fill="white"/>
<circle cx="226.555" cy="331.318" r="5" fill="white"/>
<circle cx="28.3164" cy="331.318" r="5" fill="white"/>
<circle cx="238.211" cy="331.318" r="5" fill="white"/>
<circle cx="39.9766" cy="331.318" r="5" fill="white"/>
<circle cx="249.871" cy="331.318" r="5" fill="white"/>
<circle cx="51.6367" cy="331.318" r="5" fill="white"/>
<circle cx="261.531" cy="331.318" r="5" fill="white"/>
<circle cx="63.2969" cy="331.318" r="5" fill="white"/>
<circle cx="273.188" cy="331.318" r="5" fill="white"/>
<circle cx="74.9531" cy="331.318" r="5" fill="white"/>
<circle cx="284.848" cy="331.318" r="5" fill="white"/>
<circle cx="86.6133" cy="331.318" r="5" fill="white"/>
<circle cx="296.508" cy="331.318" r="5" fill="white"/>
<circle cx="98.2695" cy="331.318" r="5" fill="white"/>
<circle cx="308.164" cy="331.318" r="5" fill="white"/>
<circle cx="109.93" cy="331.318" r="5" fill="white"/>
<circle cx="319.824" cy="331.318" r="5" fill="white"/>
<circle cx="121.586" cy="331.318" r="5" fill="white"/>
<circle cx="331.484" cy="331.318" r="5" fill="white"/>
<circle cx="133.25" cy="331.318" r="5" fill="white"/>
<circle cx="144.906" cy="331.318" r="5" fill="white"/>
<circle cx="156.562" cy="331.318" r="5" fill="white"/>
<circle cx="168.223" cy="331.318" r="5" fill="white"/>
<circle cx="179.883" cy="331.318" r="5" fill="white"/>
<circle cx="191.539" cy="331.318" r="5" fill="white"/>
<circle cx="203.199" cy="331.318" r="5" fill="white"/>
<circle cx="5" cy="343.41" r="5" fill="white"/>
<circle cx="214.895" cy="343.41" r="5" fill="white"/>
<circle cx="16.6562" cy="343.41" r="5" fill="white"/>
<circle cx="226.555" cy="343.41" r="5" fill="white"/>
<circle cx="28.3164" cy="343.41" r="5" fill="white"/>
<circle cx="238.211" cy="343.41" r="5" fill="white"/>
<circle cx="39.9766" cy="343.41" r="5" fill="white"/>
<circle cx="249.871" cy="343.41" r="5" fill="white"/>
<circle cx="51.6367" cy="343.41" r="5" fill="white"/>
<circle cx="261.531" cy="343.41" r="5" fill="white"/>
<circle cx="63.2969" cy="343.41" r="5" fill="white"/>
<circle cx="273.188" cy="343.41" r="5" fill="white"/>
<circle cx="74.9531" cy="343.41" r="5" fill="white"/>
<circle cx="284.848" cy="343.41" r="5" fill="white"/>
<circle cx="86.6133" cy="343.41" r="5" fill="white"/>
<circle cx="296.508" cy="343.41" r="5" fill="white"/>
<circle cx="98.2695" cy="343.41" r="5" fill="white"/>
<circle cx="308.164" cy="343.41" r="5" fill="white"/>
<circle cx="109.93" cy="343.41" r="5" fill="white"/>
<circle cx="319.824" cy="343.41" r="5" fill="white"/>
<circle cx="121.586" cy="343.41" r="5" fill="white"/>
<circle cx="331.484" cy="343.41" r="5" fill="white"/>
<circle cx="133.25" cy="343.41" r="5" fill="white"/>
<circle cx="144.906" cy="343.41" r="5" fill="white"/>
<circle cx="156.562" cy="343.41" r="5" fill="white"/>
<circle cx="168.223" cy="343.41" r="5" fill="white"/>
<circle cx="179.883" cy="343.41" r="5" fill="white"/>
<circle cx="191.539" cy="343.41" r="5" fill="white"/>
<circle cx="203.199" cy="343.41" r="5" fill="white"/>
<circle cx="5" cy="355.5" r="5" fill="white"/>
<circle cx="214.895" cy="355.5" r="5" fill="white"/>
<circle cx="16.6562" cy="355.5" r="5" fill="white"/>
<circle cx="226.555" cy="355.5" r="5" fill="white"/>
<circle cx="28.3164" cy="355.5" r="5" fill="white"/>
<circle cx="238.211" cy="355.5" r="5" fill="white"/>
<circle cx="39.9766" cy="355.5" r="5" fill="white"/>
<circle cx="249.871" cy="355.5" r="5" fill="white"/>
<circle cx="51.6367" cy="355.5" r="5" fill="white"/>
<circle cx="261.531" cy="355.5" r="5" fill="white"/>
<circle cx="63.2969" cy="355.5" r="5" fill="white"/>
<circle cx="273.188" cy="355.5" r="5" fill="white"/>
<circle cx="74.9531" cy="355.5" r="5" fill="white"/>
<circle cx="284.848" cy="355.5" r="5" fill="white"/>
<circle cx="86.6133" cy="355.5" r="5" fill="white"/>
<circle cx="296.508" cy="355.5" r="5" fill="white"/>
<circle cx="98.2695" cy="355.5" r="5" fill="white"/>
<circle cx="308.164" cy="355.5" r="5" fill="white"/>
<circle cx="109.93" cy="355.5" r="5" fill="white"/>
<circle cx="319.824" cy="355.5" r="5" fill="white"/>
<circle cx="121.586" cy="355.5" r="5" fill="white"/>
<circle cx="331.484" cy="355.5" r="5" fill="white"/>
<circle cx="133.25" cy="355.5" r="5" fill="white"/>
<circle cx="144.906" cy="355.5" r="5" fill="white"/>
<circle cx="156.562" cy="355.5" r="5" fill="white"/>
<circle cx="168.223" cy="355.5" r="5" fill="white"/>
<circle cx="179.883" cy="355.5" r="5" fill="white"/>
<circle cx="191.539" cy="355.5" r="5" fill="white"/>
<circle cx="203.199" cy="355.5" r="5" fill="white"/>
<circle cx="343" cy="343" r="5" fill="white"/>
<circle cx="355" cy="343" r="5" fill="white"/>
<circle cx="367" cy="343" r="5" fill="white"/>
<circle cx="378" cy="343" r="5" fill="white"/>
<circle cx="390" cy="343" r="5" fill="white"/>
<circle cx="402" cy="343" r="5" fill="white"/>
<circle cx="413" cy="343" r="5" fill="white"/>
<circle cx="425" cy="343" r="5" fill="white"/>
<circle cx="437" cy="343" r="5" fill="white"/>
<circle cx="448" cy="343" r="5" fill="white"/>
<circle cx="460" cy="343" r="5" fill="white"/>
<circle cx="472" cy="343" r="5" fill="white"/>
<circle cx="483" cy="343" r="5" fill="white"/>
<circle cx="495" cy="343" r="5" fill="white"/>
<circle cx="507" cy="343" r="5" fill="white"/>
<circle cx="518" cy="343" r="5" fill="white"/>
<circle cx="343" cy="356" r="5" fill="white"/>
<circle cx="355" cy="356" r="5" fill="white"/>
<circle cx="367" cy="356" r="5" fill="white"/>
<circle cx="378" cy="356" r="5" fill="white"/>
<circle cx="390" cy="356" r="5" fill="white"/>
<circle cx="402" cy="356" r="5" fill="white"/>
<circle cx="413" cy="356" r="5" fill="white"/>
<circle cx="425" cy="356" r="5" fill="white"/>
<circle cx="437" cy="356" r="5" fill="white"/>
<circle cx="448" cy="356" r="5" fill="white"/>
<circle cx="460" cy="356" r="5" fill="white"/>
<circle cx="472" cy="356" r="5" fill="white"/>
<circle cx="483" cy="356" r="5" fill="white"/>
<circle cx="495" cy="356" r="5" fill="white"/>
<circle cx="507" cy="356" r="5" fill="white"/>
<circle cx="518" cy="356" r="5" fill="white"/>
<circle cx="5" cy="150.018" r="5" fill="white"/>
<circle cx="5" cy="125.848" r="5" fill="white"/>
<circle cx="214.895" cy="150.018" r="5" fill="white"/>
<circle cx="214.895" cy="125.848" r="5" fill="white"/>
<circle cx="16.6562" cy="150.018" r="5" fill="white"/>
<circle cx="16.6562" cy="125.848" r="5" fill="white"/>
<circle cx="226.555" cy="150.018" r="5" fill="white"/>
<circle cx="226.555" cy="125.848" r="5" fill="white"/>
<circle cx="28.3164" cy="150.018" r="5" fill="white"/>
<circle cx="28.3164" cy="125.848" r="5" fill="white"/>
<circle cx="238.211" cy="150.018" r="5" fill="white"/>
<circle cx="238.211" cy="125.848" r="5" fill="white"/>
<circle cx="39.9766" cy="150.018" r="5" fill="white"/>
<circle cx="39.9766" cy="125.848" r="5" fill="white"/>
<circle cx="249.871" cy="150.018" r="5" fill="white"/>
<circle cx="249.871" cy="125.848" r="5" fill="white"/>
<circle cx="51.6367" cy="150.018" r="5" fill="white"/>
<circle cx="51.6367" cy="125.848" r="5" fill="white"/>
<circle cx="261.531" cy="150.018" r="5" fill="white"/>
<circle cx="261.531" cy="125.848" r="5" fill="white"/>
<circle cx="63.2969" cy="150.018" r="5" fill="white"/>
<circle cx="63.2969" cy="125.848" r="5" fill="white"/>
<circle cx="273.188" cy="150.018" r="5" fill="white"/>
<circle cx="273.188" cy="125.848" r="5" fill="white"/>
<circle cx="74.9531" cy="150.018" r="5" fill="white"/>
<circle cx="74.9531" cy="125.848" r="5" fill="white"/>
<circle cx="284.848" cy="150.018" r="5" fill="white"/>
<circle cx="284.848" cy="125.848" r="5" fill="white"/>
<circle cx="86.6133" cy="150.018" r="5" fill="white"/>
<circle cx="86.6133" cy="125.848" r="5" fill="white"/>
<circle cx="296.508" cy="150.018" r="5" fill="white"/>
<circle cx="296.508" cy="125.848" r="5" fill="white"/>
<circle cx="98.2695" cy="150.018" r="5" fill="white"/>
<circle cx="98.2695" cy="125.848" r="5" fill="white"/>
<circle cx="308.164" cy="150.018" r="5" fill="white"/>
<circle cx="308.164" cy="125.848" r="5" fill="white"/>
<circle cx="109.93" cy="150.018" r="5" fill="white"/>
<circle cx="109.93" cy="125.848" r="5" fill="white"/>
<circle cx="319.824" cy="150.018" r="5" fill="white"/>
<circle cx="319.824" cy="125.848" r="5" fill="white"/>
<circle cx="121.586" cy="150.018" r="5" fill="white"/>
<circle cx="121.586" cy="125.848" r="5" fill="white"/>
<circle cx="331.484" cy="150.018" r="5" fill="white"/>
<circle cx="331.484" cy="125.848" r="5" fill="white"/>
<circle cx="133.25" cy="150.018" r="5" fill="white"/>
<circle cx="133.25" cy="125.848" r="5" fill="white"/>
<circle cx="144.906" cy="150.018" r="5" fill="white"/>
<circle cx="144.906" cy="125.848" r="5" fill="white"/>
<circle cx="156.562" cy="150.018" r="5" fill="white"/>
<circle cx="156.562" cy="125.848" r="5" fill="white"/>
<circle cx="168.223" cy="150.018" r="5" fill="white"/>
<circle cx="168.223" cy="125.848" r="5" fill="white"/>
<circle cx="179.883" cy="150.018" r="5" fill="white"/>
<circle cx="179.883" cy="125.848" r="5" fill="white"/>
<circle cx="191.539" cy="150.018" r="5" fill="white"/>
<circle cx="191.539" cy="125.848" r="5" fill="white"/>
<circle cx="203.199" cy="150.018" r="5" fill="white"/>
<circle cx="203.199" cy="125.848" r="5" fill="white"/>
<circle cx="5" cy="162.109" r="5" fill="white"/>
<circle cx="5" cy="137.939" r="5" fill="white"/>
<circle cx="214.895" cy="162.109" r="5" fill="white"/>
<circle cx="214.895" cy="137.939" r="5" fill="white"/>
<circle cx="16.6562" cy="162.109" r="5" fill="white"/>
<circle cx="16.6562" cy="137.939" r="5" fill="white"/>
<circle cx="226.555" cy="162.109" r="5" fill="white"/>
<circle cx="226.555" cy="137.939" r="5" fill="white"/>
<circle cx="28.3164" cy="162.109" r="5" fill="white"/>
<circle cx="28.3164" cy="137.939" r="5" fill="white"/>
<circle cx="238.211" cy="162.109" r="5" fill="white"/>
<circle cx="238.211" cy="137.939" r="5" fill="white"/>
<circle cx="39.9766" cy="162.109" r="5" fill="white"/>
<circle cx="39.9766" cy="137.939" r="5" fill="white"/>
<circle cx="249.871" cy="162.109" r="5" fill="white"/>
<circle cx="249.871" cy="137.939" r="5" fill="white"/>
<circle cx="51.6367" cy="162.109" r="5" fill="white"/>
<circle cx="51.6367" cy="137.939" r="5" fill="white"/>
<circle cx="261.531" cy="162.109" r="5" fill="white"/>
<circle cx="261.531" cy="137.939" r="5" fill="white"/>
<circle cx="63.2969" cy="162.109" r="5" fill="white"/>
<circle cx="63.2969" cy="137.939" r="5" fill="white"/>
<circle cx="273.188" cy="162.109" r="5" fill="white"/>
<circle cx="273.188" cy="137.939" r="5" fill="white"/>
<circle cx="74.9531" cy="162.109" r="5" fill="white"/>
<circle cx="74.9531" cy="137.939" r="5" fill="white"/>
<circle cx="284.848" cy="162.109" r="5" fill="white"/>
<circle cx="284.848" cy="137.939" r="5" fill="white"/>
<circle cx="86.6133" cy="162.109" r="5" fill="white"/>
<circle cx="86.6133" cy="137.939" r="5" fill="white"/>
<circle cx="296.508" cy="162.109" r="5" fill="white"/>
<circle cx="296.508" cy="137.939" r="5" fill="white"/>
<circle cx="98.2695" cy="162.109" r="5" fill="white"/>
<circle cx="98.2695" cy="137.939" r="5" fill="white"/>
<circle cx="308.164" cy="162.109" r="5" fill="white"/>
<circle cx="308.164" cy="137.939" r="5" fill="white"/>
<circle cx="109.93" cy="162.109" r="5" fill="white"/>
<circle cx="109.93" cy="137.939" r="5" fill="white"/>
<circle cx="319.824" cy="162.109" r="5" fill="white"/>
<circle cx="319.824" cy="137.939" r="5" fill="white"/>
<circle cx="121.586" cy="162.109" r="5" fill="white"/>
<circle cx="121.586" cy="137.939" r="5" fill="white"/>
<circle cx="331.484" cy="162.109" r="5" fill="white"/>
<circle cx="331.484" cy="137.939" r="5" fill="white"/>
<circle cx="133.25" cy="162.109" r="5" fill="white"/>
<circle cx="133.25" cy="137.939" r="5" fill="white"/>
<circle cx="144.906" cy="162.109" r="5" fill="white"/>
<circle cx="144.906" cy="137.939" r="5" fill="white"/>
<circle cx="156.562" cy="162.109" r="5" fill="white"/>
<circle cx="156.562" cy="137.939" r="5" fill="white"/>
<circle cx="168.223" cy="162.109" r="5" fill="white"/>
<circle cx="168.223" cy="137.939" r="5" fill="white"/>
<circle cx="179.883" cy="162.109" r="5" fill="white"/>
<circle cx="179.883" cy="137.939" r="5" fill="white"/>
<circle cx="191.539" cy="162.109" r="5" fill="white"/>
<circle cx="191.539" cy="137.939" r="5" fill="white"/>
<circle cx="203.199" cy="162.109" r="5" fill="white"/>
<circle cx="203.199" cy="137.939" r="5" fill="white"/>
<circle cx="5" cy="174.199" r="5" fill="white"/>
<circle cx="214.895" cy="174.199" r="5" fill="white"/>
<circle cx="16.6562" cy="174.199" r="5" fill="white"/>
<circle cx="226.555" cy="174.199" r="5" fill="white"/>
<circle cx="28.3164" cy="174.199" r="5" fill="white"/>
<circle cx="238.211" cy="174.199" r="5" fill="white"/>
<circle cx="39.9766" cy="174.199" r="5" fill="white"/>
<circle cx="249.871" cy="174.199" r="5" fill="white"/>
<circle cx="51.6367" cy="174.199" r="5" fill="white"/>
<circle cx="261.531" cy="174.199" r="5" fill="white"/>
<circle cx="63.2969" cy="174.199" r="5" fill="white"/>
<circle cx="273.188" cy="174.199" r="5" fill="white"/>
<circle cx="74.9531" cy="174.199" r="5" fill="white"/>
<circle cx="284.848" cy="174.199" r="5" fill="white"/>
<circle cx="86.6133" cy="174.199" r="5" fill="white"/>
<circle cx="296.508" cy="174.199" r="5" fill="white"/>
<circle cx="98.2695" cy="174.199" r="5" fill="white"/>
<circle cx="308.164" cy="174.199" r="5" fill="white"/>
<circle cx="109.93" cy="174.199" r="5" fill="white"/>
<circle cx="319.824" cy="174.199" r="5" fill="white"/>
<circle cx="121.586" cy="174.199" r="5" fill="white"/>
<circle cx="331.484" cy="174.199" r="5" fill="white"/>
<circle cx="133.25" cy="174.199" r="5" fill="white"/>
<circle cx="144.906" cy="174.199" r="5" fill="white"/>
<circle cx="156.562" cy="174.199" r="5" fill="white"/>
<circle cx="168.223" cy="174.199" r="5" fill="white"/>
<circle cx="179.883" cy="174.199" r="5" fill="white"/>
<circle cx="191.539" cy="174.199" r="5" fill="white"/>
<circle cx="203.199" cy="174.199" r="5" fill="white"/>
<circle cx="5" cy="186.289" r="5" fill="white"/>
<circle cx="214.895" cy="186.289" r="5" fill="white"/>
<circle cx="16.6562" cy="186.289" r="5" fill="white"/>
<circle cx="226.555" cy="186.289" r="5" fill="white"/>
<circle cx="28.3164" cy="186.289" r="5" fill="white"/>
<circle cx="238.211" cy="186.289" r="5" fill="white"/>
<circle cx="39.9766" cy="186.289" r="5" fill="white"/>
<circle cx="249.871" cy="186.289" r="5" fill="white"/>
<circle cx="51.6367" cy="186.289" r="5" fill="white"/>
<circle cx="261.531" cy="186.289" r="5" fill="white"/>
<circle cx="63.2969" cy="186.289" r="5" fill="white"/>
<circle cx="273.188" cy="186.289" r="5" fill="white"/>
<circle cx="74.9531" cy="186.289" r="5" fill="white"/>
<circle cx="284.848" cy="186.289" r="5" fill="white"/>
<circle cx="86.6133" cy="186.289" r="5" fill="white"/>
<circle cx="296.508" cy="186.289" r="5" fill="white"/>
<circle cx="98.2695" cy="186.289" r="5" fill="white"/>
<circle cx="308.164" cy="186.289" r="5" fill="white"/>
<circle cx="109.93" cy="186.289" r="5" fill="white"/>
<circle cx="319.824" cy="186.289" r="5" fill="white"/>
<circle cx="121.586" cy="186.289" r="5" fill="white"/>
<circle cx="331.484" cy="186.289" r="5" fill="white"/>
<circle cx="133.25" cy="186.289" r="5" fill="white"/>
<circle cx="144.906" cy="186.289" r="5" fill="white"/>
<circle cx="156.562" cy="186.289" r="5" fill="white"/>
<circle cx="168.223" cy="186.289" r="5" fill="white"/>
<circle cx="179.883" cy="186.289" r="5" fill="white"/>
<circle cx="191.539" cy="186.289" r="5" fill="white"/>
<circle cx="203.199" cy="186.289" r="5" fill="white"/>
<circle cx="5" cy="198.381" r="5" fill="white"/>
<circle cx="214.895" cy="198.381" r="5" fill="white"/>
<circle cx="16.6562" cy="198.381" r="5" fill="white"/>
<circle cx="226.555" cy="198.381" r="5" fill="white"/>
<circle cx="28.3164" cy="198.381" r="5" fill="white"/>
<circle cx="238.211" cy="198.381" r="5" fill="white"/>
<circle cx="39.9766" cy="198.381" r="5" fill="white"/>
<circle cx="249.871" cy="198.381" r="5" fill="white"/>
<circle cx="51.6367" cy="198.381" r="5" fill="white"/>
<circle cx="261.531" cy="198.381" r="5" fill="white"/>
<circle cx="63.2969" cy="198.381" r="5" fill="white"/>
<circle cx="273.188" cy="198.381" r="5" fill="white"/>
<circle cx="74.9531" cy="198.381" r="5" fill="white"/>
<circle cx="284.848" cy="198.381" r="5" fill="white"/>
<circle cx="86.6133" cy="198.381" r="5" fill="white"/>
<circle cx="296.508" cy="198.381" r="5" fill="white"/>
<circle cx="98.2695" cy="198.381" r="5" fill="white"/>
<circle cx="308.164" cy="198.381" r="5" fill="white"/>
<circle cx="109.93" cy="198.381" r="5" fill="white"/>
<circle cx="319.824" cy="198.381" r="5" fill="white"/>
<circle cx="121.586" cy="198.381" r="5" fill="white"/>
<circle cx="331.484" cy="198.381" r="5" fill="white"/>
<circle cx="133.25" cy="198.381" r="5" fill="white"/>
<circle cx="144.906" cy="198.381" r="5" fill="white"/>
<circle cx="156.562" cy="198.381" r="5" fill="white"/>
<circle cx="168.223" cy="198.381" r="5" fill="white"/>
<circle cx="179.883" cy="198.381" r="5" fill="white"/>
<circle cx="191.539" cy="198.381" r="5" fill="white"/>
<circle cx="203.199" cy="198.381" r="5" fill="white"/>
<circle cx="5" cy="210.471" r="5" fill="white"/>
<circle cx="214.895" cy="210.471" r="5" fill="white"/>
<circle cx="16.6562" cy="210.471" r="5" fill="white"/>
<circle cx="226.555" cy="210.471" r="5" fill="white"/>
<circle cx="28.3164" cy="210.471" r="5" fill="white"/>
<circle cx="238.211" cy="210.471" r="5" fill="white"/>
<circle cx="39.9766" cy="210.471" r="5" fill="white"/>
<circle cx="249.871" cy="210.471" r="5" fill="white"/>
<circle cx="51.6367" cy="210.471" r="5" fill="white"/>
<circle cx="261.531" cy="210.471" r="5" fill="white"/>
<circle cx="63.2969" cy="210.471" r="5" fill="white"/>
<circle cx="273.188" cy="210.471" r="5" fill="white"/>
<circle cx="74.9531" cy="210.471" r="5" fill="white"/>
<circle cx="284.848" cy="210.471" r="5" fill="white"/>
<circle cx="86.6133" cy="210.471" r="5" fill="white"/>
<circle cx="296.508" cy="210.471" r="5" fill="white"/>
<circle cx="98.2695" cy="210.471" r="5" fill="white"/>
<circle cx="308.164" cy="210.471" r="5" fill="white"/>
<circle cx="109.93" cy="210.471" r="5" fill="white"/>
<circle cx="319.824" cy="210.471" r="5" fill="white"/>
<circle cx="121.586" cy="210.471" r="5" fill="white"/>
<circle cx="331.484" cy="210.471" r="5" fill="white"/>
<circle cx="133.25" cy="210.471" r="5" fill="white"/>
<circle cx="144.906" cy="210.471" r="5" fill="white"/>
<circle cx="156.562" cy="210.471" r="5" fill="white"/>
<circle cx="168.223" cy="210.471" r="5" fill="white"/>
<circle cx="179.883" cy="210.471" r="5" fill="white"/>
<circle cx="191.539" cy="210.471" r="5" fill="white"/>
<circle cx="203.199" cy="210.471" r="5" fill="white"/>
<circle cx="5" cy="222.561" r="5" fill="white"/>
<circle cx="214.895" cy="222.561" r="5" fill="white"/>
<circle cx="16.6562" cy="222.561" r="5" fill="white"/>
<circle cx="226.555" cy="222.561" r="5" fill="white"/>
<circle cx="28.3164" cy="222.561" r="5" fill="white"/>
<circle cx="238.211" cy="222.561" r="5" fill="white"/>
<circle cx="39.9766" cy="222.561" r="5" fill="white"/>
<circle cx="249.871" cy="222.561" r="5" fill="white"/>
<circle cx="51.6367" cy="222.561" r="5" fill="white"/>
<circle cx="261.531" cy="222.561" r="5" fill="white"/>
<circle cx="63.2969" cy="222.561" r="5" fill="white"/>
<circle cx="273.188" cy="222.561" r="5" fill="white"/>
<circle cx="74.9531" cy="222.561" r="5" fill="white"/>
<circle cx="284.848" cy="222.561" r="5" fill="white"/>
<circle cx="86.6133" cy="222.561" r="5" fill="white"/>
<circle cx="296.508" cy="222.561" r="5" fill="white"/>
<circle cx="98.2695" cy="222.561" r="5" fill="white"/>
<circle cx="308.164" cy="222.561" r="5" fill="white"/>
<circle cx="109.93" cy="222.561" r="5" fill="white"/>
<circle cx="319.824" cy="222.561" r="5" fill="white"/>
<circle cx="121.586" cy="222.561" r="5" fill="white"/>
<circle cx="331.484" cy="222.561" r="5" fill="white"/>
<circle cx="133.25" cy="222.561" r="5" fill="white"/>
<circle cx="144.906" cy="222.561" r="5" fill="white"/>
<circle cx="156.562" cy="222.561" r="5" fill="white"/>
<circle cx="168.223" cy="222.561" r="5" fill="white"/>
<circle cx="179.883" cy="222.561" r="5" fill="white"/>
<circle cx="191.539" cy="222.561" r="5" fill="white"/>
<circle cx="203.199" cy="222.561" r="5" fill="white"/>
<circle cx="5" cy="234.652" r="5" fill="white"/>
<circle cx="214.895" cy="234.652" r="5" fill="white"/>
<circle cx="16.6562" cy="234.652" r="5" fill="white"/>
<circle cx="226.555" cy="234.652" r="5" fill="white"/>
<circle cx="28.3164" cy="234.652" r="5" fill="white"/>
<circle cx="238.211" cy="234.652" r="5" fill="white"/>
<circle cx="39.9766" cy="234.652" r="5" fill="white"/>
<circle cx="249.871" cy="234.652" r="5" fill="white"/>
<circle cx="51.6367" cy="234.652" r="5" fill="white"/>
<circle cx="261.531" cy="234.652" r="5" fill="white"/>
<circle cx="63.2969" cy="234.652" r="5" fill="white"/>
<circle cx="273.188" cy="234.652" r="5" fill="white"/>
<circle cx="74.9531" cy="234.652" r="5" fill="white"/>
<circle cx="284.848" cy="234.652" r="5" fill="white"/>
<circle cx="86.6133" cy="234.652" r="5" fill="white"/>
<circle cx="296.508" cy="234.652" r="5" fill="white"/>
<circle cx="98.2695" cy="234.652" r="5" fill="white"/>
<circle cx="308.164" cy="234.652" r="5" fill="white"/>
<circle cx="109.93" cy="234.652" r="5" fill="white"/>
<circle cx="319.824" cy="234.652" r="5" fill="white"/>
<circle cx="121.586" cy="234.652" r="5" fill="white"/>
<circle cx="331.484" cy="234.652" r="5" fill="white"/>
<circle cx="133.25" cy="234.652" r="5" fill="white"/>
<circle cx="144.906" cy="234.652" r="5" fill="white"/>
<circle cx="156.562" cy="234.652" r="5" fill="white"/>
<circle cx="168.223" cy="234.652" r="5" fill="white"/>
<circle cx="179.883" cy="234.652" r="5" fill="white"/>
<circle cx="191.539" cy="234.652" r="5" fill="white"/>
<circle cx="203.199" cy="234.652" r="5" fill="white"/>
<circle cx="5" cy="29.1699" r="5" fill="white"/>
<circle cx="5" cy="5" r="5" fill="white"/>
<circle cx="214.895" cy="29.1699" r="5" fill="white"/>
<circle cx="214.895" cy="5" r="5" fill="white"/>
<circle cx="16.6562" cy="29.1699" r="5" fill="white"/>
<circle cx="16.6562" cy="5" r="5" fill="white"/>
<circle cx="226.555" cy="29.1699" r="5" fill="white"/>
<circle cx="226.555" cy="5" r="5" fill="white"/>
<circle cx="28.3164" cy="29.1699" r="5" fill="white"/>
<circle cx="28.3164" cy="5" r="5" fill="white"/>
<circle cx="238.211" cy="29.1699" r="5" fill="white"/>
<circle cx="238.211" cy="5" r="5" fill="white"/>
<circle cx="39.9766" cy="29.1699" r="5" fill="white"/>
<circle cx="39.9766" cy="5" r="5" fill="white"/>
<circle cx="249.871" cy="29.1699" r="5" fill="white"/>
<circle cx="249.871" cy="5" r="5" fill="white"/>
<circle cx="51.6367" cy="29.1699" r="5" fill="white"/>
<circle cx="51.6367" cy="5" r="5" fill="white"/>
<circle cx="261.531" cy="29.1699" r="5" fill="white"/>
<circle cx="261.531" cy="5" r="5" fill="white"/>
<circle cx="63.2969" cy="29.1699" r="5" fill="white"/>
<circle cx="63.2969" cy="5" r="5" fill="white"/>
<circle cx="273.188" cy="29.1699" r="5" fill="white"/>
<circle cx="273.188" cy="5" r="5" fill="white"/>
<circle cx="74.9531" cy="29.1699" r="5" fill="white"/>
<circle cx="74.9531" cy="5" r="5" fill="white"/>
<circle cx="284.848" cy="29.1699" r="5" fill="white"/>
<circle cx="284.848" cy="5" r="5" fill="white"/>
<circle cx="86.6133" cy="29.1699" r="5" fill="white"/>
<circle cx="86.6133" cy="5" r="5" fill="white"/>
<circle cx="296.508" cy="29.1699" r="5" fill="white"/>
<circle cx="296.508" cy="5" r="5" fill="white"/>
<circle cx="98.2695" cy="29.1699" r="5" fill="white"/>
<circle cx="98.2695" cy="5" r="5" fill="white"/>
<circle cx="308.164" cy="29.1699" r="5" fill="white"/>
<circle cx="308.164" cy="5" r="5" fill="white"/>
<circle cx="109.93" cy="29.1699" r="5" fill="white"/>
<circle cx="109.93" cy="5" r="5" fill="white"/>
<circle cx="319.824" cy="29.1699" r="5" fill="white"/>
<circle cx="319.824" cy="5" r="5" fill="white"/>
<circle cx="121.586" cy="29.1699" r="5" fill="white"/>
<circle cx="121.586" cy="5" r="5" fill="white"/>
<circle cx="331.484" cy="29.1699" r="5" fill="white"/>
<circle cx="331.484" cy="5" r="5" fill="white"/>
<circle cx="133.25" cy="29.1699" r="5" fill="white"/>
<circle cx="133.25" cy="5" r="5" fill="white"/>
<circle cx="144.906" cy="29.1699" r="5" fill="white"/>
<circle cx="144.906" cy="5" r="5" fill="white"/>
<circle cx="156.562" cy="29.1699" r="5" fill="white"/>
<circle cx="156.562" cy="5" r="5" fill="white"/>
<circle cx="168.223" cy="29.1699" r="5" fill="white"/>
<circle cx="168.223" cy="5" r="5" fill="white"/>
<circle cx="179.883" cy="29.1699" r="5" fill="white"/>
<circle cx="179.883" cy="5" r="5" fill="white"/>
<circle cx="191.539" cy="29.1699" r="5" fill="white"/>
<circle cx="191.539" cy="5" r="5" fill="white"/>
<circle cx="203.199" cy="29.1699" r="5" fill="white"/>
<circle cx="203.199" cy="5" r="5" fill="white"/>
<circle cx="5" cy="41.2598" r="5" fill="white"/>
<circle cx="5" cy="17.0898" r="5" fill="white"/>
<circle cx="214.895" cy="41.2598" r="5" fill="white"/>
<circle cx="214.895" cy="17.0898" r="5" fill="white"/>
<circle cx="16.6562" cy="41.2598" r="5" fill="white"/>
<circle cx="16.6562" cy="17.0898" r="5" fill="white"/>
<circle cx="226.555" cy="41.2598" r="5" fill="white"/>
<circle cx="226.555" cy="17.0898" r="5" fill="white"/>
<circle cx="28.3164" cy="41.2598" r="5" fill="white"/>
<circle cx="28.3164" cy="17.0898" r="5" fill="white"/>
<circle cx="238.211" cy="41.2598" r="5" fill="white"/>
<circle cx="238.211" cy="17.0898" r="5" fill="white"/>
<circle cx="39.9766" cy="41.2598" r="5" fill="white"/>
<circle cx="39.9766" cy="17.0898" r="5" fill="white"/>
<circle cx="249.871" cy="41.2598" r="5" fill="white"/>
<circle cx="249.871" cy="17.0898" r="5" fill="white"/>
<circle cx="51.6367" cy="41.2598" r="5" fill="white"/>
<circle cx="51.6367" cy="17.0898" r="5" fill="white"/>
<circle cx="261.531" cy="41.2598" r="5" fill="white"/>
<circle cx="261.531" cy="17.0898" r="5" fill="white"/>
<circle cx="63.2969" cy="41.2598" r="5" fill="white"/>
<circle cx="63.2969" cy="17.0898" r="5" fill="white"/>
<circle cx="273.188" cy="41.2598" r="5" fill="white"/>
<circle cx="273.188" cy="17.0898" r="5" fill="white"/>
<circle cx="74.9531" cy="41.2598" r="5" fill="white"/>
<circle cx="74.9531" cy="17.0898" r="5" fill="white"/>
<circle cx="284.848" cy="41.2598" r="5" fill="white"/>
<circle cx="284.848" cy="17.0898" r="5" fill="white"/>
<circle cx="86.6133" cy="41.2598" r="5" fill="white"/>
<circle cx="86.6133" cy="17.0898" r="5" fill="white"/>
<circle cx="296.508" cy="41.2598" r="5" fill="white"/>
<circle cx="296.508" cy="17.0898" r="5" fill="white"/>
<circle cx="98.2695" cy="41.2598" r="5" fill="white"/>
<circle cx="98.2695" cy="17.0898" r="5" fill="white"/>
<circle cx="308.164" cy="41.2598" r="5" fill="white"/>
<circle cx="308.164" cy="17.0898" r="5" fill="white"/>
<circle cx="109.93" cy="41.2598" r="5" fill="white"/>
<circle cx="109.93" cy="17.0898" r="5" fill="white"/>
<circle cx="319.824" cy="41.2598" r="5" fill="white"/>
<circle cx="319.824" cy="17.0898" r="5" fill="white"/>
<circle cx="121.586" cy="41.2598" r="5" fill="white"/>
<circle cx="121.586" cy="17.0898" r="5" fill="white"/>
<circle cx="331.484" cy="41.2598" r="5" fill="white"/>
<circle cx="331.484" cy="17.0898" r="5" fill="white"/>
<circle cx="133.25" cy="41.2598" r="5" fill="white"/>
<circle cx="133.25" cy="17.0898" r="5" fill="white"/>
<circle cx="144.906" cy="41.2598" r="5" fill="white"/>
<circle cx="144.906" cy="17.0898" r="5" fill="white"/>
<circle cx="156.562" cy="41.2598" r="5" fill="white"/>
<circle cx="156.562" cy="17.0898" r="5" fill="white"/>
<circle cx="168.223" cy="41.2598" r="5" fill="white"/>
<circle cx="168.223" cy="17.0898" r="5" fill="white"/>
<circle cx="179.883" cy="41.2598" r="5" fill="white"/>
<circle cx="179.883" cy="17.0898" r="5" fill="white"/>
<circle cx="191.539" cy="41.2598" r="5" fill="white"/>
<circle cx="191.539" cy="17.0898" r="5" fill="white"/>
<circle cx="203.199" cy="41.2598" r="5" fill="white"/>
<circle cx="203.199" cy="17.0898" r="5" fill="white"/>
<circle cx="5" cy="53.3516" r="5" fill="white"/>
<circle cx="214.895" cy="53.3516" r="5" fill="white"/>
<circle cx="16.6562" cy="53.3516" r="5" fill="white"/>
<circle cx="226.555" cy="53.3516" r="5" fill="white"/>
<circle cx="28.3164" cy="53.3516" r="5" fill="white"/>
<circle cx="238.211" cy="53.3516" r="5" fill="white"/>
<circle cx="39.9766" cy="53.3516" r="5" fill="white"/>
<circle cx="249.871" cy="53.3516" r="5" fill="white"/>
<circle cx="51.6367" cy="53.3516" r="5" fill="white"/>
<circle cx="261.531" cy="53.3516" r="5" fill="white"/>
<circle cx="63.2969" cy="53.3516" r="5" fill="white"/>
<circle cx="273.188" cy="53.3516" r="5" fill="white"/>
<circle cx="74.9531" cy="53.3516" r="5" fill="white"/>
<circle cx="284.848" cy="53.3516" r="5" fill="white"/>
<circle cx="86.6133" cy="53.3516" r="5" fill="white"/>
<circle cx="296.508" cy="53.3516" r="5" fill="white"/>
<circle cx="98.2695" cy="53.3516" r="5" fill="white"/>
<circle cx="308.164" cy="53.3516" r="5" fill="white"/>
<circle cx="109.93" cy="53.3516" r="5" fill="white"/>
<circle cx="319.824" cy="53.3516" r="5" fill="white"/>
<circle cx="121.586" cy="53.3516" r="5" fill="white"/>
<circle cx="331.484" cy="53.3516" r="5" fill="white"/>
<circle cx="133.25" cy="53.3516" r="5" fill="white"/>
<circle cx="144.906" cy="53.3516" r="5" fill="white"/>
<circle cx="156.562" cy="53.3516" r="5" fill="white"/>
<circle cx="168.223" cy="53.3516" r="5" fill="white"/>
<circle cx="179.883" cy="53.3516" r="5" fill="white"/>
<circle cx="191.539" cy="53.3516" r="5" fill="white"/>
<circle cx="203.199" cy="53.3516" r="5" fill="white"/>
<circle cx="5" cy="65.4414" r="5" fill="white"/>
<circle cx="214.895" cy="65.4414" r="5" fill="white"/>
<circle cx="16.6562" cy="65.4414" r="5" fill="white"/>
<circle cx="226.555" cy="65.4414" r="5" fill="white"/>
<circle cx="28.3164" cy="65.4414" r="5" fill="white"/>
<circle cx="238.211" cy="65.4414" r="5" fill="white"/>
<circle cx="39.9766" cy="65.4414" r="5" fill="white"/>
<circle cx="249.871" cy="65.4414" r="5" fill="white"/>
<circle cx="51.6367" cy="65.4414" r="5" fill="white"/>
<circle cx="261.531" cy="65.4414" r="5" fill="white"/>
<circle cx="63.2969" cy="65.4414" r="5" fill="white"/>
<circle cx="273.188" cy="65.4414" r="5" fill="white"/>
<circle cx="74.9531" cy="65.4414" r="5" fill="white"/>
<circle cx="284.848" cy="65.4414" r="5" fill="white"/>
<circle cx="86.6133" cy="65.4414" r="5" fill="white"/>
<circle cx="296.508" cy="65.4414" r="5" fill="white"/>
<circle cx="98.2695" cy="65.4414" r="5" fill="white"/>
<circle cx="308.164" cy="65.4414" r="5" fill="white"/>
<circle cx="109.93" cy="65.4414" r="5" fill="white"/>
<circle cx="319.824" cy="65.4414" r="5" fill="white"/>
<circle cx="121.586" cy="65.4414" r="5" fill="white"/>
<circle cx="331.484" cy="65.4414" r="5" fill="white"/>
<circle cx="133.25" cy="65.4414" r="5" fill="white"/>
<circle cx="144.906" cy="65.4414" r="5" fill="white"/>
<circle cx="156.562" cy="65.4414" r="5" fill="white"/>
<circle cx="168.223" cy="65.4414" r="5" fill="white"/>
<circle cx="179.883" cy="65.4414" r="5" fill="white"/>
<circle cx="191.539" cy="65.4414" r="5" fill="white"/>
<circle cx="203.199" cy="65.4414" r="5" fill="white"/>
<circle cx="5" cy="77.5312" r="5" fill="white"/>
<circle cx="214.895" cy="77.5312" r="5" fill="white"/>
<circle cx="16.6562" cy="77.5312" r="5" fill="white"/>
<circle cx="226.555" cy="77.5312" r="5" fill="white"/>
<circle cx="28.3164" cy="77.5312" r="5" fill="white"/>
<circle cx="238.211" cy="77.5312" r="5" fill="white"/>
<circle cx="39.9766" cy="77.5312" r="5" fill="white"/>
<circle cx="249.871" cy="77.5312" r="5" fill="white"/>
<circle cx="51.6367" cy="77.5312" r="5" fill="white"/>
<circle cx="261.531" cy="77.5312" r="5" fill="white"/>
<circle cx="63.2969" cy="77.5312" r="5" fill="white"/>
<circle cx="273.188" cy="77.5312" r="5" fill="white"/>
<circle cx="74.9531" cy="77.5312" r="5" fill="white"/>
<circle cx="284.848" cy="77.5312" r="5" fill="white"/>
<circle cx="86.6133" cy="77.5312" r="5" fill="white"/>
<circle cx="296.508" cy="77.5312" r="5" fill="white"/>
<circle cx="98.2695" cy="77.5312" r="5" fill="white"/>
<circle cx="308.164" cy="77.5312" r="5" fill="white"/>
<circle cx="109.93" cy="77.5312" r="5" fill="white"/>
<circle cx="319.824" cy="77.5312" r="5" fill="white"/>
<circle cx="121.586" cy="77.5312" r="5" fill="white"/>
<circle cx="331.484" cy="77.5312" r="5" fill="white"/>
<circle cx="133.25" cy="77.5312" r="5" fill="white"/>
<circle cx="144.906" cy="77.5312" r="5" fill="white"/>
<circle cx="156.562" cy="77.5312" r="5" fill="white"/>
<circle cx="168.223" cy="77.5312" r="5" fill="white"/>
<circle cx="179.883" cy="77.5312" r="5" fill="white"/>
<circle cx="191.539" cy="77.5312" r="5" fill="white"/>
<circle cx="203.199" cy="77.5312" r="5" fill="white"/>
<circle cx="5" cy="89.623" r="5" fill="white"/>
<circle cx="214.895" cy="89.623" r="5" fill="white"/>
<circle cx="16.6562" cy="89.623" r="5" fill="white"/>
<circle cx="226.555" cy="89.623" r="5" fill="white"/>
<circle cx="28.3164" cy="89.623" r="5" fill="white"/>
<circle cx="238.211" cy="89.623" r="5" fill="white"/>
<circle cx="39.9766" cy="89.623" r="5" fill="white"/>
<circle cx="249.871" cy="89.623" r="5" fill="white"/>
<circle cx="51.6367" cy="89.623" r="5" fill="white"/>
<circle cx="261.531" cy="89.623" r="5" fill="white"/>
<circle cx="63.2969" cy="89.623" r="5" fill="white"/>
<circle cx="273.188" cy="89.623" r="5" fill="white"/>
<circle cx="74.9531" cy="89.623" r="5" fill="white"/>
<circle cx="284.848" cy="89.623" r="5" fill="white"/>
<circle cx="86.6133" cy="89.623" r="5" fill="white"/>
<circle cx="296.508" cy="89.623" r="5" fill="white"/>
<circle cx="98.2695" cy="89.623" r="5" fill="white"/>
<circle cx="308.164" cy="89.623" r="5" fill="white"/>
<circle cx="109.93" cy="89.623" r="5" fill="white"/>
<circle cx="319.824" cy="89.623" r="5" fill="white"/>
<circle cx="121.586" cy="89.623" r="5" fill="white"/>
<circle cx="331.484" cy="89.623" r="5" fill="white"/>
<circle cx="133.25" cy="89.623" r="5" fill="white"/>
<circle cx="144.906" cy="89.623" r="5" fill="white"/>
<circle cx="156.562" cy="89.623" r="5" fill="white"/>
<circle cx="168.223" cy="89.623" r="5" fill="white"/>
<circle cx="179.883" cy="89.623" r="5" fill="white"/>
<circle cx="191.539" cy="89.623" r="5" fill="white"/>
<circle cx="203.199" cy="89.623" r="5" fill="white"/>
<circle cx="5" cy="101.713" r="5" fill="white"/>
<circle cx="214.895" cy="101.713" r="5" fill="white"/>
<circle cx="16.6562" cy="101.713" r="5" fill="white"/>
<circle cx="226.555" cy="101.713" r="5" fill="white"/>
<circle cx="28.3164" cy="101.713" r="5" fill="white"/>
<circle cx="238.211" cy="101.713" r="5" fill="white"/>
<circle cx="39.9766" cy="101.713" r="5" fill="white"/>
<circle cx="249.871" cy="101.713" r="5" fill="white"/>
<circle cx="51.6367" cy="101.713" r="5" fill="white"/>
<circle cx="261.531" cy="101.713" r="5" fill="white"/>
<circle cx="63.2969" cy="101.713" r="5" fill="white"/>
<circle cx="273.188" cy="101.713" r="5" fill="white"/>
<circle cx="74.9531" cy="101.713" r="5" fill="white"/>
<circle cx="284.848" cy="101.713" r="5" fill="white"/>
<circle cx="86.6133" cy="101.713" r="5" fill="white"/>
<circle cx="296.508" cy="101.713" r="5" fill="white"/>
<circle cx="98.2695" cy="101.713" r="5" fill="white"/>
<circle cx="308.164" cy="101.713" r="5" fill="white"/>
<circle cx="109.93" cy="101.713" r="5" fill="white"/>
<circle cx="319.824" cy="101.713" r="5" fill="white"/>
<circle cx="121.586" cy="101.713" r="5" fill="white"/>
<circle cx="331.484" cy="101.713" r="5" fill="white"/>
<circle cx="133.25" cy="101.713" r="5" fill="white"/>
<circle cx="144.906" cy="101.713" r="5" fill="white"/>
<circle cx="156.562" cy="101.713" r="5" fill="white"/>
<circle cx="168.223" cy="101.713" r="5" fill="white"/>
<circle cx="179.883" cy="101.713" r="5" fill="white"/>
<circle cx="191.539" cy="101.713" r="5" fill="white"/>
<circle cx="203.199" cy="101.713" r="5" fill="white"/>
<circle cx="5" cy="113.805" r="5" fill="white"/>
<circle cx="214.895" cy="113.805" r="5" fill="white"/>
<circle cx="16.6562" cy="113.805" r="5" fill="white"/>
<circle cx="226.555" cy="113.805" r="5" fill="white"/>
<circle cx="28.3164" cy="113.805" r="5" fill="white"/>
<circle cx="238.211" cy="113.805" r="5" fill="white"/>
<circle cx="39.9766" cy="113.805" r="5" fill="white"/>
<circle cx="249.871" cy="113.805" r="5" fill="white"/>
<circle cx="51.6367" cy="113.805" r="5" fill="white"/>
<circle cx="261.531" cy="113.805" r="5" fill="white"/>
<circle cx="63.2969" cy="113.805" r="5" fill="white"/>
<circle cx="273.188" cy="113.805" r="5" fill="white"/>
<circle cx="74.9531" cy="113.805" r="5" fill="white"/>
<circle cx="284.848" cy="113.805" r="5" fill="white"/>
<circle cx="86.6133" cy="113.805" r="5" fill="white"/>
<circle cx="296.508" cy="113.805" r="5" fill="white"/>
<circle cx="98.2695" cy="113.805" r="5" fill="white"/>
<circle cx="308.164" cy="113.805" r="5" fill="white"/>
<circle cx="109.93" cy="113.805" r="5" fill="white"/>
<circle cx="319.824" cy="113.805" r="5" fill="white"/>
<circle cx="121.586" cy="113.805" r="5" fill="white"/>
<circle cx="331.484" cy="113.805" r="5" fill="white"/>
<circle cx="133.25" cy="113.805" r="5" fill="white"/>
<circle cx="144.906" cy="113.805" r="5" fill="white"/>
<circle cx="156.562" cy="113.805" r="5" fill="white"/>
<circle cx="168.223" cy="113.805" r="5" fill="white"/>
<circle cx="179.883" cy="113.805" r="5" fill="white"/>
<circle cx="191.539" cy="113.805" r="5" fill="white"/>
<circle cx="203.199" cy="113.805" r="5" fill="white"/>
</g>
</svg>
