<svg width="25" height="25" viewBox="0 0 25 25" fill="none" xmlns="http://www.w3.org/2000/svg">
<path d="M9.37435 5.20796C9.09808 5.20796 8.83313 5.3177 8.63778 5.51305C8.44243 5.7084 8.33268 5.97336 8.33268 6.24962C8.33268 6.52589 8.44243 6.79084 8.63778 6.98619C8.83313 7.18154 9.09808 7.29129 9.37435 7.29129C9.65062 7.29129 9.91557 7.18154 10.1109 6.98619C10.3063 6.79084 10.416 6.52589 10.416 6.24962C10.416 5.97336 10.3063 5.7084 10.1109 5.51305C9.91557 5.3177 9.65062 5.20796 9.37435 5.20796ZM6.42643 5.20796C6.64164 4.59803 7.04074 4.06987 7.56872 3.69628C8.0967 3.32269 8.72756 3.12207 9.37435 3.12207C10.0211 3.12207 10.652 3.32269 11.18 3.69628C11.708 4.06987 12.1071 4.59803 12.3223 5.20796H19.791C20.0673 5.20796 20.3322 5.3177 20.5276 5.51305C20.7229 5.7084 20.8327 5.97336 20.8327 6.24962C20.8327 6.52589 20.7229 6.79084 20.5276 6.98619C20.3322 7.18154 20.0673 7.29129 19.791 7.29129H12.3223C12.1071 7.90122 11.708 8.42938 11.18 8.80297C10.652 9.17656 10.0211 9.37718 9.37435 9.37718C8.72756 9.37718 8.0967 9.17656 7.56872 8.80297C7.04074 8.42938 6.64164 7.90122 6.42643 7.29129H5.20768C4.93142 7.29129 4.66646 7.18154 4.47111 6.98619C4.27576 6.79084 4.16602 6.52589 4.16602 6.24962C4.16602 5.97336 4.27576 5.7084 4.47111 5.51305C4.66646 5.3177 4.93142 5.20796 5.20768 5.20796H6.42643ZM15.6243 11.458C15.3481 11.458 15.0831 11.5677 14.8878 11.7631C14.6924 11.9584 14.5827 12.2234 14.5827 12.4996C14.5827 12.7759 14.6924 13.0408 14.8878 13.2362C15.0831 13.4315 15.3481 13.5413 15.6243 13.5413C15.9006 13.5413 16.1656 13.4315 16.3609 13.2362C16.5563 13.0408 16.666 12.7759 16.666 12.4996C16.666 12.2234 16.5563 11.9584 16.3609 11.7631C16.1656 11.5677 15.9006 11.458 15.6243 11.458ZM12.6764 11.458C12.8916 10.848 13.2907 10.3199 13.8187 9.94628C14.3467 9.57269 14.9776 9.37207 15.6243 9.37207C16.2711 9.37207 16.902 9.57269 17.43 9.94628C17.958 10.3199 18.3571 10.848 18.5723 11.458H19.791C20.0673 11.458 20.3322 11.5677 20.5276 11.7631C20.7229 11.9584 20.8327 12.2234 20.8327 12.4996C20.8327 12.7759 20.7229 13.0408 20.5276 13.2362C20.3322 13.4315 20.0673 13.5413 19.791 13.5413H18.5723C18.3571 14.1512 17.958 14.6794 17.43 15.053C16.902 15.4266 16.2711 15.6272 15.6243 15.6272C14.9776 15.6272 14.3467 15.4266 13.8187 15.053C13.2907 14.6794 12.8916 14.1512 12.6764 13.5413H5.20768C4.93142 13.5413 4.66646 13.4315 4.47111 13.2362C4.27576 13.0408 4.16602 12.7759 4.16602 12.4996C4.16602 12.2234 4.27576 11.9584 4.47111 11.7631C4.66646 11.5677 4.93142 11.458 5.20768 11.458H12.6764ZM9.37435 17.708C9.09808 17.708 8.83313 17.8177 8.63778 18.0131C8.44243 18.2084 8.33268 18.4734 8.33268 18.7496C8.33268 19.0259 8.44243 19.2908 8.63778 19.4862C8.83313 19.6815 9.09808 19.7913 9.37435 19.7913C9.65062 19.7913 9.91557 19.6815 10.1109 19.4862C10.3063 19.2908 10.416 19.0259 10.416 18.7496C10.416 18.4734 10.3063 18.2084 10.1109 18.0131C9.91557 17.8177 9.65062 17.708 9.37435 17.708ZM6.42643 17.708C6.64164 17.098 7.04074 16.5699 7.56872 16.1963C8.0967 15.8227 8.72756 15.6221 9.37435 15.6221C10.0211 15.6221 10.652 15.8227 11.18 16.1963C11.708 16.5699 12.1071 17.098 12.3223 17.708H19.791C20.0673 17.708 20.3322 17.8177 20.5276 18.0131C20.7229 18.2084 20.8327 18.4734 20.8327 18.7496C20.8327 19.0259 20.7229 19.2908 20.5276 19.4862C20.3322 19.6815 20.0673 19.7913 19.791 19.7913H12.3223C12.1071 20.4012 11.708 20.9294 11.18 21.303C10.652 21.6766 10.0211 21.8772 9.37435 21.8772C8.72756 21.8772 8.0967 21.6766 7.56872 21.303C7.04074 20.9294 6.64164 20.4012 6.42643 19.7913H5.20768C4.93142 19.7913 4.66646 19.6815 4.47111 19.4862C4.27576 19.2908 4.16602 19.0259 4.16602 18.7496C4.16602 18.4734 4.27576 18.2084 4.47111 18.0131C4.66646 17.8177 4.93142 17.708 5.20768 17.708H6.42643Z" fill="white"/>
</svg>
