<svg width="177" height="465" viewBox="0 0 177 465" fill="none" xmlns="http://www.w3.org/2000/svg">
<path d="M85.4707 322.279V378.823H81.7344V321.898L83.7767 324.132L85.4707 322.279Z" fill="#401675"/>
<path d="M83.6071 392.409C87.9982 392.409 91.5579 388.515 91.5579 383.713C91.5579 378.911 87.9982 375.018 83.6071 375.018C79.2159 375.018 75.6562 378.911 75.6562 383.713C75.6562 388.515 79.2159 392.409 83.6071 392.409Z" fill="#401675"/>
<path d="M65.1847 48.502H51.1602V215.331H65.1847V48.502Z" fill="#401675"/>
<path d="M53.3677 37.4353C53.9343 38.0744 54.4183 38.3778 54.8964 38.3778H107.022H120.681H121.047V8.46312C119.884 3.5957 115.847 0 111.036 0H110.121H107.017H81.8832V15.3447H107.017V23.0137H43.3214V23.0331H42.3711V24.7374C42.3711 25.2086 42.6249 25.6863 43.1679 26.2608C46.621 29.9211 50.0268 33.6459 53.3677 37.4353Z" fill="#826CF4"/>
<path d="M122.77 46.8105H89.0305H75V62.1487V111.753H89.0305V62.1487H122.77V46.8105Z" fill="#826CF4"/>
<path d="M120.596 115.658H73.8594V130.996H120.596V115.658Z" fill="#826CF4"/>
<path d="M127.933 275.835L89.56 234.126L89.0287 233.546V199.738H120.59V192.069H120.814V151.161H120.59V138.082H89.0287H78.3391H74.9982V178.99H89.0228V153.42H106.778V184.4H74.9923V199.738V232.261L73.8826 233.481L73.6702 233.249L27.2461 284.008L27.3405 284.111L37.1743 294.866L73.8472 334.974L83.7754 345.832L85.4577 343.992L93.6918 334.987L127.709 297.784L137.879 286.661L127.933 275.835ZM85.4695 322.282L83.7754 324.135L47.1025 284.027L78.1443 250.071L80.9658 246.986L81.3435 247.399L84.3303 250.646L117.763 286.977L85.4695 322.282Z" fill="#826CF4"/>
<path d="M141.037 180.773C146.654 180.773 151.208 175.793 151.208 169.65C151.208 163.507 146.654 158.527 141.037 158.527C135.421 158.527 130.867 163.507 130.867 169.65C130.867 175.793 135.421 180.773 141.037 180.773Z" fill="#401675"/>
<path d="M141.037 134.464C146.654 134.464 151.208 129.484 151.208 123.342C151.208 117.199 146.654 112.219 141.037 112.219C135.421 112.219 130.867 117.199 130.867 123.342C130.867 129.484 135.421 134.464 141.037 134.464Z" fill="#401675"/>
<path d="M166.83 134.464C172.447 134.464 177.001 129.484 177.001 123.342C177.001 117.199 172.447 112.219 166.83 112.219C161.213 112.219 156.66 117.199 156.66 123.342C156.66 129.484 161.213 134.464 166.83 134.464Z" fill="#401675"/>
<path d="M10.1824 464.02C10.0997 464.02 10.0171 464.014 9.93445 464.014C9.89313 464.014 9.85772 464.02 9.81641 464.02H10.1824Z" fill="#401675"/>
<path d="M18.4929 423.789H6.30989C4.17905 423.789 3.11067 424.99 3.11067 427.359C3.08116 429.702 4.14953 430.871 6.28037 430.871H18.5755C22.3945 430.838 24.3011 434.021 24.3011 440.418V447.442H3.33497C1.1451 447.442 0.0531213 448.61 0.0531213 450.986L0 453.387C0 460.385 3.31727 463.923 9.94 464.007C12.0708 463.961 13.1333 462.799 13.1333 460.501C13.1333 458.132 12.0118 456.931 9.76293 456.931H10.0167C8.19283 456.931 7.12445 456.118 6.788 454.498H27.6124C29.8023 454.498 30.8943 453.329 30.8943 450.986V440.36C30.8943 429.315 26.7683 423.789 18.4929 423.789Z" fill="#401675"/>
<path d="M83.6801 421.033C84.2113 421.33 84.7484 421.485 85.3092 421.485C85.8699 421.485 86.4307 421.337 86.962 421.033C87.4696 420.704 87.8592 420.284 88.1425 419.742C88.4494 419.174 88.591 418.574 88.591 417.973C88.591 417.373 88.4494 416.805 88.1425 416.23C87.8592 415.662 87.44 415.21 86.9088 414.907C86.3776 414.604 85.8404 414.455 85.3092 414.455C84.7484 414.455 84.2172 414.604 83.7096 414.907C83.1784 415.204 82.7534 415.656 82.4464 416.23C82.1631 416.798 82.0273 417.373 82.0273 417.973C82.0273 418.574 82.169 419.174 82.4464 419.742C82.7534 420.284 83.1724 420.704 83.6801 421.033Z" fill="#401675"/>
<path d="M92.0004 421.033C92.5317 421.33 93.0688 421.485 93.6295 421.485C94.1903 421.485 94.751 421.337 95.2823 421.033C95.7899 420.704 96.1795 420.284 96.4628 419.742C96.7697 419.174 96.9114 418.574 96.9114 417.973C96.9114 417.373 96.7697 416.805 96.4628 416.23C96.1795 415.662 95.7604 415.21 95.2291 414.907C94.6979 414.604 94.1607 414.455 93.6295 414.455C93.0688 414.455 92.5376 414.604 92.0004 414.907C91.4928 415.204 91.0737 415.656 90.7668 416.23C90.4834 416.798 90.3477 417.373 90.3477 417.973C90.3477 418.574 90.4893 419.174 90.7668 419.742C91.0737 420.284 91.4987 420.704 92.0004 421.033Z" fill="#401675"/>
<path d="M114.878 420.932C115.385 421.235 115.916 421.384 116.507 421.384C117.067 421.384 117.599 421.235 118.106 420.932C118.638 420.602 119.062 420.183 119.34 419.641C119.623 419.072 119.759 418.472 119.759 417.872C119.759 417.271 119.617 416.703 119.34 416.129C119.033 415.561 118.608 415.109 118.106 414.805C117.575 414.508 117.038 414.354 116.507 414.354C115.946 414.354 115.415 414.502 114.878 414.805C114.346 415.102 113.921 415.554 113.644 416.129C113.337 416.697 113.195 417.271 113.195 417.872C113.195 418.472 113.337 419.072 113.644 419.641C113.921 420.183 114.34 420.602 114.878 420.932Z" fill="#401675"/>
<path d="M150.134 423.818H145.701C139.079 423.818 135.767 427.362 135.767 434.476L135.738 447.412L134.9 447.419C134.888 447.419 134.876 447.412 134.858 447.412H129.02V434.443C129.02 427.329 125.68 423.785 119.027 423.785H114.648C107.995 423.785 104.684 427.329 104.684 434.443V443.868C104.684 445.192 104.796 446.36 105.02 447.412H98.0613C97.9019 447.412 97.7543 447.451 97.6186 447.503H92.9496L93.0086 427.51C92.9791 425.109 91.8281 423.908 89.5851 423.908C87.4248 423.908 86.3564 425.076 86.3564 427.42V447.503H79.7573V447.412H73.1641H71.7592H66.565H65.1601H59.9658H58.561H53.3667H51.9619H47.8065H45.3687H43.7691C41.4375 447.412 40.2629 446.27 40.2629 443.959V418.285C40.2334 415.884 39.1414 414.651 36.9811 414.625C34.7912 414.625 33.6992 415.884 33.6992 418.376V443.868C33.6992 450.956 37.0401 454.494 43.716 454.494H45.3746H47.7297H51.9737H53.3785H58.5728H59.9777H65.1719H66.5768H71.7711H73.1759H76.9299C77.0716 454.546 77.2192 454.584 77.3845 454.584H86.3623C88.4931 454.584 89.6205 453.416 89.7563 451.073C89.7268 453.351 90.8247 454.526 93.0146 454.584H101.52C101.685 454.584 101.833 454.546 101.975 454.494H131.263C131.334 454.507 131.399 454.526 131.47 454.526H135.761C137.868 454.494 139.02 453.293 139.185 450.95C139.155 453.235 140.224 454.436 142.414 454.526H150.158C156.78 454.526 160.092 450.892 160.092 443.629V434.443C160.092 427.362 156.78 423.818 150.134 423.818ZM122.398 447.412H114.565C112.405 447.412 111.336 446.212 111.336 443.778V434.443C111.336 432.1 112.405 430.931 114.565 430.931H119.027C121.27 430.931 122.398 432.074 122.398 434.353V447.412ZM153.445 443.752C153.445 446.186 152.354 447.412 150.134 447.412H142.39V434.443C142.39 432.1 143.482 430.931 145.672 430.931H150.134C152.354 430.931 153.445 432.074 153.445 434.353V443.752Z" fill="#401675"/>
</svg>
