<svg width="46" height="111" viewBox="0 0 46 111" fill="none" xmlns="http://www.w3.org/2000/svg">
<path d="M22.2132 76.5827V90.0189H21.2422V76.4922L21.7729 77.0229L22.2132 76.5827Z" fill="white"/>
<path d="M21.7284 93.2468C22.8696 93.2468 23.7947 92.3217 23.7947 91.1805C23.7947 90.0394 22.8696 89.1143 21.7284 89.1143C20.5872 89.1143 19.6621 90.0394 19.6621 91.1805C19.6621 92.3217 20.5872 93.2468 21.7284 93.2468Z" fill="white"/>
<path d="M16.9416 11.5244H13.2969V51.1672H16.9416V11.5244Z" fill="white"/>
<path d="M13.8676 8.89558C14.0148 9.04744 14.1406 9.11954 14.2649 9.11954H27.8115H31.3611H31.4562V2.01105C31.1541 0.85443 30.1048 0 28.8546 0H28.6168H27.81H21.2783V3.64628H27.81V5.46866H11.2567V5.47326H11.0098V5.87823C11.0098 5.99021 11.0757 6.10372 11.2168 6.24025C12.1142 7.11002 12.9993 7.99513 13.8676 8.89558Z" fill="white"/>
<path d="M31.9067 11.123H23.1385H19.4922V14.7678V26.5549H23.1385V14.7678H31.9067V11.123Z" fill="white"/>
<path d="M31.3414 27.4834H19.1953V31.1281H31.3414V27.4834Z" fill="white"/>
<path d="M33.2468 65.5462L23.2744 55.6351L23.1363 55.4971V47.4636H31.3385V45.6412H31.3968V35.9204H31.3385V32.8125H23.1363H20.3583H19.49V42.5334H23.1348V36.4572H27.749V43.8188H19.4885V47.4636V55.1918L19.2001 55.4817L19.1449 55.4265L7.08008 67.4882L7.10462 67.5128L9.66024 70.0684L19.1909 79.599L21.7711 82.1792L22.2082 81.742L24.3482 79.6021L33.1885 70.7618L35.8316 68.1187L33.2468 65.5462ZM22.2113 76.5832L21.7711 77.0235L12.2404 67.4928L20.3076 59.4241L21.0409 58.6908L21.1391 58.789L21.9153 59.5606L30.6037 68.1939L22.2113 76.5832Z" fill="white"/>
<path d="M36.6548 42.957C38.1145 42.957 39.2978 41.7737 39.2978 40.314C39.2978 38.8542 38.1145 37.6709 36.6548 37.6709C35.1951 37.6709 34.0117 38.8542 34.0117 40.314C34.0117 41.7737 35.1951 42.957 36.6548 42.957Z" fill="white"/>
<path d="M36.6548 31.9521C38.1145 31.9521 39.2978 30.7688 39.2978 29.3091C39.2978 27.8493 38.1145 26.666 36.6548 26.666C35.1951 26.666 34.0117 27.8493 34.0117 29.3091C34.0117 30.7688 35.1951 31.9521 36.6548 31.9521Z" fill="white"/>
<path d="M43.3559 31.9521C44.8157 31.9521 45.999 30.7688 45.999 29.3091C45.999 27.8493 44.8157 26.666 43.3559 26.666C41.8962 26.666 40.7129 27.8493 40.7129 29.3091C40.7129 30.7688 41.8962 31.9521 43.3559 31.9521Z" fill="white"/>
<path d="M2.64589 110.261C2.62441 110.261 2.60293 110.26 2.58146 110.26C2.57072 110.26 2.56152 110.261 2.55078 110.261H2.64589Z" fill="white"/>
<path d="M4.80597 100.701H1.63983C1.08606 100.701 0.808408 100.986 0.808408 101.549C0.800738 102.106 1.07839 102.384 1.63216 102.384H4.82745C5.81994 102.376 6.31542 103.133 6.31542 104.653V106.322H0.866701C0.297592 106.322 0.0138053 106.599 0.0138053 107.164L0 107.734C0 109.397 0.862099 110.238 2.58323 110.258C3.137 110.247 3.41312 109.971 3.41312 109.425C3.41312 108.862 3.12166 108.577 2.53721 108.577H2.60317C2.12917 108.577 1.85152 108.383 1.76408 107.998H7.17598C7.74509 107.998 8.02888 107.721 8.02888 107.164V104.639C8.02888 102.014 6.95662 100.701 4.80597 100.701Z" fill="white"/>
<path d="M21.7459 100.047C21.884 100.117 22.0236 100.154 22.1693 100.154C22.315 100.154 22.4608 100.119 22.5988 100.047C22.7307 99.9683 22.832 99.8686 22.9056 99.7397C22.9854 99.6047 23.0222 99.4621 23.0222 99.3194C23.0222 99.1768 22.9854 99.0418 22.9056 98.9052C22.832 98.7703 22.7231 98.6629 22.585 98.5908C22.447 98.5187 22.3074 98.4834 22.1693 98.4834C22.0236 98.4834 21.8855 98.5187 21.7536 98.5908C21.6155 98.6613 21.5051 98.7687 21.4253 98.9052C21.3517 99.0402 21.3164 99.1768 21.3164 99.3194C21.3164 99.4621 21.3532 99.6047 21.4253 99.7397C21.5051 99.8686 21.614 99.9683 21.7459 100.047Z" fill="white"/>
<path d="M23.91 100.047C24.0481 100.117 24.1876 100.154 24.3334 100.154C24.4791 100.154 24.6248 100.119 24.7629 100.047C24.8948 99.9683 24.9961 99.8686 25.0697 99.7397C25.1495 99.6047 25.1863 99.4621 25.1863 99.3194C25.1863 99.1768 25.1495 99.0418 25.0697 98.9052C24.9961 98.7703 24.8871 98.6629 24.7491 98.5908C24.611 98.5187 24.4714 98.4834 24.3334 98.4834C24.1876 98.4834 24.0496 98.5187 23.91 98.5908C23.7781 98.6613 23.6692 98.7687 23.5894 98.9052C23.5158 99.0402 23.4805 99.1768 23.4805 99.3194C23.4805 99.4621 23.5173 99.6047 23.5894 99.7397C23.6692 99.8686 23.7796 99.9683 23.91 100.047Z" fill="white"/>
<path d="M29.8552 100.023C29.9871 100.095 30.1251 100.13 30.2785 100.13C30.4243 100.13 30.5623 100.095 30.6942 100.023C30.8323 99.9449 30.9427 99.8451 31.0148 99.7163C31.0885 99.5813 31.1238 99.4386 31.1238 99.296C31.1238 99.1533 31.0869 99.0183 31.0148 98.8818C30.9351 98.7468 30.8246 98.6394 30.6942 98.5673C30.5562 98.4968 30.4166 98.46 30.2785 98.46C30.1328 98.46 29.9947 98.4952 29.8552 98.5673C29.7171 98.6379 29.6067 98.7453 29.5346 98.8818C29.4548 99.0168 29.418 99.1533 29.418 99.296C29.418 99.4386 29.4548 99.5813 29.5346 99.7163C29.6067 99.8451 29.7156 99.9449 29.8552 100.023Z" fill="white"/>
<path d="M39.0172 100.71H37.8652C36.144 100.71 35.2835 101.552 35.2835 103.242L35.2758 106.316L35.058 106.318C35.0549 106.318 35.0518 106.316 35.0472 106.316H33.5301V103.235C33.5301 101.544 32.6619 100.702 30.9331 100.702H29.7949C28.0661 100.702 27.2055 101.544 27.2055 103.235V105.474C27.2055 105.789 27.2347 106.066 27.293 106.316H25.4844C25.443 106.316 25.4046 106.326 25.3693 106.338H24.156L24.1713 101.587C24.1636 101.017 23.8645 100.731 23.2816 100.731C22.7201 100.731 22.4425 101.009 22.4425 101.566V106.338H20.7275V106.316H19.014H18.6489H17.299H16.934H15.584H15.219H13.8691H13.504H12.424H11.7905H11.3748C10.7689 106.316 10.4636 106.045 10.4636 105.496V99.3952C10.4559 98.8245 10.1721 98.5315 9.61071 98.5254C9.0416 98.5254 8.75781 98.8245 8.75781 99.4166V105.474C8.75781 107.159 9.62605 107.999 11.361 107.999H11.792H12.4041H13.507H13.8721H15.222H15.5871H16.937H17.3021H18.652H19.0171H19.9927C20.0295 108.012 20.0679 108.021 20.1108 108.021H22.444C22.9978 108.021 23.2908 107.743 23.3261 107.186C23.3184 107.728 23.6037 108.007 24.1728 108.021H26.3833C26.4262 108.021 26.4646 108.012 26.5014 107.999H34.113C34.1315 108.002 34.1483 108.007 34.1667 108.007H35.2819C35.8296 107.999 36.1287 107.714 36.1717 107.157C36.164 107.7 36.4416 107.985 37.0107 108.007H39.0233C40.7445 108.007 41.605 107.143 41.605 105.418V103.235C41.605 101.552 40.7445 100.71 39.0172 100.71ZM31.809 106.316H29.7734C29.212 106.316 28.9343 106.031 28.9343 105.453V103.235C28.9343 102.678 29.212 102.4 29.7734 102.4H30.9331C31.516 102.4 31.809 102.672 31.809 103.213V106.316ZM39.8778 105.447C39.8778 106.025 39.594 106.316 39.0172 106.316H37.0046V103.235C37.0046 102.678 37.2884 102.4 37.8575 102.4H39.0172C39.594 102.4 39.8778 102.672 39.8778 103.213V105.447Z" fill="white"/>
</svg>
