<svg width="48" height="48" viewBox="0 0 48 48" fill="none" xmlns="http://www.w3.org/2000/svg">
<g id="Group 75864">
<rect id="Rectangle 1931" width="48" height="48" rx="6" fill="#826CF4"/>
<g id="vuesax/linear/microphone-2">
<g id="microphone-2">
<path id="Vector" d="M24.0007 28.084C26.579 28.084 28.6673 25.9957 28.6673 23.4173V17.0007C28.6673 14.4223 26.579 12.334 24.0007 12.334C21.4223 12.334 19.334 14.4223 19.334 17.0007V23.4173C19.334 25.9957 21.4223 28.084 24.0007 28.084Z" stroke="#FAFAFA" stroke-width="1.5" stroke-linecap="round" stroke-linejoin="round"/>
<path id="Vector_2" d="M15.0742 21.2578V23.2411C15.0742 28.1645 19.0759 32.1661 23.9992 32.1661C28.9226 32.1661 32.9242 28.1645 32.9242 23.2411V21.2578" stroke="#FAFAFA" stroke-width="1.5" stroke-linecap="round" stroke-linejoin="round"/>
<path id="Vector_3" d="M22.377 17.4997C23.427 17.1147 24.5703 17.1147 25.6203 17.4997" stroke="#FAFAFA" stroke-width="1.5" stroke-linecap="round" stroke-linejoin="round"/>
<path id="Vector_4" d="M23.0664 19.976C23.6847 19.8127 24.3264 19.8127 24.9447 19.976" stroke="#FAFAFA" stroke-width="1.5" stroke-linecap="round" stroke-linejoin="round"/>
<path id="Vector_5" d="M24 32.166V35.666" stroke="#FAFAFA" stroke-width="1.5" stroke-linecap="round" stroke-linejoin="round"/>
</g>
</g>
</g>
</svg>
