<svg width="23" height="23" viewBox="0 0 23 23" fill="none" xmlns="http://www.w3.org/2000/svg">
<g id="vuesax/linear/3dcube">
<g id="3dcube">
<path id="Vector" d="M12.3823 2.16764L18.6211 5.53139C19.3494 5.9243 19.3494 7.04555 18.6211 7.43847L12.3823 10.8022C11.8265 11.0993 11.1748 11.0993 10.619 10.8022L4.38023 7.43847C3.6519 7.04555 3.6519 5.9243 4.38023 5.53139L10.619 2.16764C11.1748 1.87055 11.8265 1.87055 12.3823 2.16764Z" stroke="#401675" stroke-width="0.8" stroke-linecap="round" stroke-linejoin="round"/>
<path id="Vector_2" d="M3.45893 9.70867L9.25685 12.6124C9.9756 12.9766 10.4356 13.7145 10.4356 14.5195V20.0012C10.4356 20.7966 9.60185 21.3045 8.89268 20.9499L3.09477 18.0462C2.37602 17.682 1.91602 16.9441 1.91602 16.1391V10.6574C1.91602 9.862 2.74977 9.35409 3.45893 9.70867Z" stroke="#401675" stroke-width="0.8" stroke-linecap="round" stroke-linejoin="round"/>
<path id="Vector_3" d="M19.5392 9.70867L13.7413 12.6124C13.0225 12.9766 12.5625 13.7145 12.5625 14.5195V20.0012C12.5625 20.7966 13.3963 21.3045 14.1054 20.9499L19.9033 18.0462C20.6221 17.682 21.0821 16.9441 21.0821 16.1391V10.6574C21.0821 9.862 20.2483 9.35409 19.5392 9.70867Z" stroke="#401675" stroke-width="0.8" stroke-linecap="round" stroke-linejoin="round"/>
</g>
</g>
</svg>
