<svg width="21" height="21" viewBox="0 0 21 21" fill="none" xmlns="http://www.w3.org/2000/svg">
<path d="M19.0381 18.0307L16.0303 15.0901L15.9598 14.9829C15.8288 14.8524 15.6495 14.7789 15.4625 14.7789C15.2754 14.7789 15.0962 14.8524 14.9651 14.9829C12.409 17.3279 8.47033 17.4554 5.76121 15.2808C3.05208 13.1061 2.41316 9.3042 4.26818 6.3964C6.12319 3.4886 9.89652 2.37724 13.0857 3.79937C16.2749 5.2215 17.8903 8.73582 16.8606 12.0116C16.7864 12.2483 16.8471 12.5057 17.0196 12.6868C17.1921 12.8679 17.4504 12.9452 17.6971 12.8897C17.9438 12.8342 18.1415 12.6542 18.2156 12.4175C19.4466 8.53006 17.5875 4.34661 13.8411 2.57343C10.0946 0.800241 5.58519 1.96947 3.22988 5.32474C0.874565 8.68001 1.38023 13.2144 4.41977 15.9946C7.4593 18.7748 12.1205 18.9664 15.3881 16.4455L18.0512 19.0492C18.3262 19.3169 18.7709 19.3169 19.0459 19.0492C19.3206 18.7777 19.3206 18.3405 19.0459 18.069L19.0381 18.0307Z" fill="#4F4F4F"/>
</svg>
