<svg width="24" height="24" viewBox="0 0 24 24" fill="none" xmlns="http://www.w3.org/2000/svg">
<g id="Group">
<path id="Vector" d="M0 14.3363V22.3774C0 23.272 0.737703 23.9998 1.64446 23.9998H9.79726C10.704 23.9998 11.4417 23.272 11.4417 22.3774V20.0206H18.2437C19.1505 20.0206 19.8883 19.2929 19.8883 18.3985V14.2278C19.8883 13.969 19.6755 13.7591 19.413 13.7591C19.1505 13.7591 18.9378 13.969 18.9378 14.2278V18.3985C18.9378 18.776 18.6264 19.0831 18.2437 19.0831H11.4419V18.8487C11.4419 18.5898 11.2291 18.3799 10.9666 18.3799C10.7042 18.3799 10.4914 18.5898 10.4914 18.8487V19.083H5.30735C4.92943 19.083 4.61352 18.771 4.61352 18.3985V13.652H4.85115C5.11364 13.652 5.32641 13.4422 5.32641 13.1833C5.32641 12.9244 5.11364 12.7145 4.85115 12.7145H4.61352V5.63959C4.61352 5.26216 4.92486 4.95508 5.30755 4.95508H18.2437C18.6264 4.95508 18.9378 5.26216 18.9378 5.63959V10.1043C18.9378 10.3632 19.1505 10.573 19.413 10.573C19.6755 10.573 19.8883 10.3632 19.8883 10.1043V5.63959C19.8883 4.74522 19.1505 4.01758 18.2437 4.01758H5.30755C4.40074 4.01758 3.66299 4.74517 3.66299 5.63959V12.7144H1.64446C0.737703 12.7144 0 13.442 0 14.3363ZM0.950526 14.3363C0.950526 13.9589 1.26182 13.6519 1.64446 13.6519H3.66295V18.3985C3.66295 19.2791 4.41472 20.0205 5.30755 20.0205H10.4912V22.3774C10.4912 22.755 10.1799 23.0622 9.79726 23.0622H1.64446C1.26182 23.0622 0.950526 22.755 0.950526 22.3774V14.3363Z" fill="black"/>
<path id="Vector_2" d="M0.835938 5.47485V10.3066C0.835938 10.5655 1.04871 10.7754 1.3112 10.7754C1.57369 10.7754 1.78646 10.5655 1.78646 10.3066V5.47485C1.78646 3.62052 3.31605 2.11194 5.19609 2.11194H19.2005L18.8211 2.48614C18.6355 2.66919 18.6354 2.966 18.8211 3.14905C19.0041 3.32961 19.3101 3.32966 19.4932 3.14905L20.6839 1.97469C20.8665 1.79474 20.8668 1.49169 20.684 1.31169L19.4932 0.137285C19.3076 -0.0457617 19.0067 -0.0457617 18.821 0.137285C18.6354 0.320332 18.6354 0.617145 18.821 0.800238L19.2005 1.17444H5.19609C2.79188 1.17444 0.835938 3.10358 0.835938 5.47485Z" fill="black"/>
<path id="Vector_3" d="M13.4557 22.7717H18.4507C20.8549 22.7717 22.8109 20.8425 22.8109 18.4713V4.98299L23.1903 5.35724C23.3733 5.5378 23.6793 5.5378 23.8624 5.35724C24.048 5.17419 24.048 4.87738 23.8624 4.69428L22.6716 3.51983C22.4888 3.33983 22.1822 3.33964 21.9994 3.51988L20.8088 4.69428C20.6232 4.87733 20.6232 5.17414 20.8088 5.35719C20.9944 5.54024 21.2953 5.54024 21.4809 5.35719L21.8603 4.98299V18.4713C21.8603 20.3256 20.3307 21.8342 18.4506 21.8342H13.4557C13.1932 21.8342 12.9805 22.0441 12.9805 22.303C12.9805 22.5619 13.1932 22.7717 13.4557 22.7717Z" fill="black"/>
<path id="Vector_4" d="M6.57292 12.7148C6.31043 12.7148 6.09766 12.9247 6.09766 13.1836C6.09766 13.4425 6.31043 13.6523 6.57292 13.6523H7.8635C8.12598 13.6523 8.33876 13.4425 8.33876 13.1836C8.33876 12.9247 8.12598 12.7148 7.8635 12.7148H6.57292Z" fill="black"/>
<path id="Vector_5" d="M10.879 14.3647C10.9397 14.3647 11.0014 14.3532 11.061 14.3288C11.3034 14.2296 11.4184 13.9554 11.3178 13.7163C11.0783 13.1469 10.5428 12.7651 9.92032 12.72C9.65864 12.7015 9.43075 12.8949 9.41146 13.1531C9.39221 13.4112 9.58878 13.636 9.85055 13.6549C10.109 13.6737 10.3402 13.8388 10.4398 14.0755C10.5157 14.2559 10.6926 14.3647 10.879 14.3647Z" fill="black"/>
<path id="Vector_6" d="M10.9675 17.3217C11.2299 17.3217 11.4427 17.1119 11.4427 16.853V15.5801C11.4427 15.3212 11.2299 15.1113 10.9675 15.1113C10.705 15.1113 10.4922 15.3212 10.4922 15.5801V16.853C10.4922 17.1119 10.705 17.3217 10.9675 17.3217Z" fill="black"/>
<path id="Vector_7" d="M19.7764 11.9056C19.6747 11.7522 19.481 11.6725 19.2988 11.7041C19.0869 11.7409 18.9242 11.9201 18.9077 12.1313C18.8749 12.5503 19.4032 12.7928 19.7099 12.5042C19.8732 12.3506 19.9049 12.0905 19.7764 11.9056Z" fill="black"/>
</g>
</svg>
