<svg width="31" height="31" viewBox="0 0 31 31" fill="none" xmlns="http://www.w3.org/2000/svg">
<g id="Star">
<g id="Star_2">
<mask id="path-2-inside-1_307_7329" fill="white">
<path d="M14.2716 1.33213C14.6583 0.675099 15.6085 0.675098 15.9952 1.33213L20.1475 8.38707C20.2895 8.6283 20.5261 8.79899 20.7998 8.85764L28.8466 10.5821C29.5992 10.7433 29.8951 11.6587 29.3793 12.23L23.9047 18.2934C23.715 18.5034 23.6233 18.7839 23.6521 19.0653L24.4808 27.1653C24.5587 27.9265 23.7876 28.4896 23.0863 28.1838L15.5331 24.8899C15.2782 24.7788 14.9886 24.7788 14.7337 24.8899L7.18054 28.1838C6.47916 28.4896 5.70812 27.9265 5.786 27.1653L6.61473 19.0653C6.64353 18.7839 6.55175 18.5034 6.36215 18.2934L0.887504 12.23C0.371705 11.6587 0.667602 10.7433 1.42019 10.5821L9.46705 8.85764C9.74075 8.79899 9.97734 8.62831 10.1193 8.38707L14.2716 1.33213Z"/>
</mask>
<path d="M1.42019 10.5821L1.52496 11.071L1.42019 10.5821ZM7.18054 28.1838L6.98068 27.7254L7.18054 28.1838ZM15.5331 24.8899L15.3333 25.3482L15.5331 24.8899ZM14.7337 24.8899L14.5338 24.4316L14.7337 24.8899ZM24.4808 27.1653L23.9834 27.2162L24.4808 27.1653ZM23.0863 28.1838L23.2861 27.7254L23.0863 28.1838ZM23.9047 18.2934L23.5335 17.9583L23.9047 18.2934ZM23.6521 19.0653L24.1495 19.0144L23.6521 19.0653ZM28.8466 10.5821L28.7418 11.071L28.8466 10.5821ZM20.7998 8.85764L20.9045 8.36874L20.7998 8.85764ZM15.5643 1.58574L19.7166 8.64069L20.5784 8.13346L16.4261 1.07851L15.5643 1.58574ZM20.695 9.34654L28.7418 11.071L28.9514 10.0932L20.9045 8.36874L20.695 9.34654ZM29.0082 11.8949L23.5335 17.9583L24.2758 18.6285L29.7504 12.5651L29.0082 11.8949ZM23.1547 19.1162L23.9834 27.2162L24.9782 27.1144L24.1495 19.0144L23.1547 19.1162ZM23.2861 27.7254L15.733 24.4316L15.3333 25.3482L22.8864 28.6421L23.2861 27.7254ZM14.5338 24.4316L6.98068 27.7254L7.38041 28.6421L14.9335 25.3482L14.5338 24.4316ZM6.28341 27.2162L7.11213 19.1162L6.11733 19.0144L5.2886 27.1144L6.28341 27.2162ZM6.73326 17.9583L1.25862 11.8949L0.516393 12.5651L5.99104 18.6285L6.73326 17.9583ZM1.52496 11.071L9.57182 9.34654L9.36228 8.36874L1.31542 10.0932L1.52496 11.071ZM10.5502 8.64069L14.7025 1.58574L13.8407 1.07851L9.68841 8.13346L10.5502 8.64069ZM9.57182 9.34654C9.98237 9.25856 10.3373 9.00254 10.5502 8.64069L9.68841 8.13346C9.61742 8.25407 9.49913 8.33942 9.36228 8.36874L9.57182 9.34654ZM1.25862 11.8949C1.00072 11.6093 1.14866 11.1516 1.52496 11.071L1.31542 10.0932C0.18654 10.3351 -0.257306 11.7082 0.516393 12.5651L1.25862 11.8949ZM7.11213 19.1162C7.15533 18.694 7.01766 18.2733 6.73326 17.9583L5.99104 18.6285C6.08584 18.7335 6.13173 18.8737 6.11733 19.0144L7.11213 19.1162ZM6.98068 27.7254C6.62998 27.8784 6.24447 27.5968 6.28341 27.2162L5.2886 27.1144C5.17178 28.2563 6.32833 29.1009 7.38041 28.6421L6.98068 27.7254ZM15.733 24.4316C15.3507 24.2649 14.9161 24.2649 14.5338 24.4316L14.9335 25.3482C15.061 25.2927 15.2058 25.2927 15.3333 25.3482L15.733 24.4316ZM23.9834 27.2162C24.0223 27.5968 23.6368 27.8784 23.2861 27.7254L22.8864 28.6421C23.9385 29.1009 25.095 28.2563 24.9782 27.1144L23.9834 27.2162ZM23.5335 17.9583C23.2491 18.2733 23.1115 18.694 23.1547 19.1162L24.1495 19.0144C24.1351 18.8737 24.181 18.7335 24.2758 18.6285L23.5335 17.9583ZM28.7418 11.071C29.1181 11.1516 29.2661 11.6093 29.0082 11.8949L29.7504 12.5651C30.5241 11.7082 30.0803 10.3351 28.9514 10.0932L28.7418 11.071ZM19.7166 8.64069C19.9295 9.00254 20.2844 9.25856 20.695 9.34654L20.9045 8.36874C20.7677 8.33942 20.6494 8.25407 20.5784 8.13346L19.7166 8.64069ZM16.4261 1.07851C15.8461 0.0929677 14.4207 0.0929722 13.8407 1.07851L14.7025 1.58574C14.8958 1.25723 15.371 1.25723 15.5643 1.58574L16.4261 1.07851Z" fill="#401675" mask="url(#path-2-inside-1_307_7329)"/>
</g>
<path id="Star_3" d="M7.17995 28.1838L14.5325 24.9774C14.8971 24.8185 15.1328 24.4585 15.1328 24.0608V1.7032C15.1328 1.19386 14.4603 1.01063 14.2019 1.44958L10.1187 8.38713C9.97675 8.62837 9.74016 8.79905 9.46646 8.8577L1.4196 10.5821C0.667014 10.7434 0.371118 11.6588 0.886916 12.2301L6.36156 18.2935C6.55116 18.5035 6.64294 18.7839 6.61414 19.0654L5.78541 27.1654C5.70753 27.9266 6.47857 28.4897 7.17995 28.1838Z" fill="#401675"/>
</g>
</svg>
