<svg width="20" height="20" viewBox="0 0 20 20" fill="none" xmlns="http://www.w3.org/2000/svg">
<g id="vuesax/linear/empty-wallet-tick">
<g id="Group">
<path id="Vector" d="M15.034 11.2904C14.684 11.632 14.484 12.1237 14.534 12.6487C14.609 13.5487 15.434 14.207 16.334 14.207H17.9173V15.1987C17.9173 16.9237 16.509 18.332 14.784 18.332H6.35899C6.61732 18.1154 6.84232 17.8487 7.01732 17.5487C7.32565 17.0487 7.50065 16.457 7.50065 15.832C7.50065 13.9904 6.00898 12.4987 4.16732 12.4987C3.38398 12.4987 2.65898 12.7737 2.08398 13.232V9.59037C2.08398 7.86537 3.49231 6.45703 5.21731 6.45703H14.784C16.509 6.45703 17.9173 7.86537 17.9173 9.59037V10.7904H16.234C15.7673 10.7904 15.3423 10.9737 15.034 11.2904Z" stroke="#826CF4" stroke-linecap="round" stroke-linejoin="round"/>
<path id="Vector_2" d="M2.08398 10.3411V6.53281C2.08398 5.54114 2.69231 4.65777 3.61731 4.30777L10.234 1.80777C11.2673 1.41611 12.3757 2.1828 12.3757 3.29113V6.45779" stroke="#826CF4" stroke-linecap="round" stroke-linejoin="round"/>
</g>
<path id="Vector_3" d="M18.7997 11.642V13.3587C18.7997 13.817 18.433 14.192 17.9663 14.2086H16.333C15.433 14.2086 14.608 13.5503 14.533 12.6503C14.483 12.1253 14.683 11.6336 15.033 11.292C15.3413 10.9753 15.7663 10.792 16.233 10.792H17.9663C18.433 10.8087 18.7997 11.1836 18.7997 11.642Z" stroke="#826CF4" stroke-linecap="round" stroke-linejoin="round"/>
<path id="Vector_4" d="M5.83398 10H11.6673" stroke="#826CF4" stroke-linecap="round" stroke-linejoin="round"/>
<g id="Group_2">
<path id="Vector_5" d="M7.50065 15.8333C7.50065 16.4583 7.32565 17.05 7.01732 17.55C6.84232 17.85 6.61732 18.1167 6.35899 18.3333C5.77566 18.8583 5.00898 19.1667 4.16732 19.1667C2.95065 19.1667 1.89232 18.5167 1.31732 17.55C1.00899 17.05 0.833984 16.4583 0.833984 15.8333C0.833984 14.7833 1.31732 13.8417 2.08398 13.2333C2.65898 12.775 3.38398 12.5 4.16732 12.5C6.00898 12.5 7.50065 13.9917 7.50065 15.8333Z" stroke="#826CF4" stroke-miterlimit="10" stroke-linecap="round" stroke-linejoin="round"/>
<path id="Vector_6" d="M2.86914 15.8333L3.69413 16.6582L5.46914 15.0166" stroke="#826CF4" stroke-linecap="round" stroke-linejoin="round"/>
</g>
</g>
</svg>
