<svg width="70" height="70" viewBox="0 0 70 70" fill="none" xmlns="http://www.w3.org/2000/svg">
<path d="M35 70C15.673 70 0 54.327 0 35C0 15.673 15.673 0 35 0C54.327 0 70 15.673 70 35C70 54.327 54.327 70 35 70Z" fill="#25D366"/>
<path fill-rule="evenodd" clip-rule="evenodd" d="M51.3723 18.705C47.0323 14.358 41.2502 11.964 35.0972 11.957C22.4202 11.957 12.0952 22.275 12.0952 34.959C12.0952 39.012 13.1522 42.974 15.1682 46.46L11.9062 58.381L24.1002 55.182C27.4602 57.016 31.2402 57.982 35.0902 57.982H35.0972C47.7743 57.982 58.0923 47.664 58.0993 34.98C58.1063 28.834 55.7193 23.052 51.3723 18.705ZM35.1042 54.097H35.0972C31.6672 54.097 28.3002 53.173 25.3672 51.43L24.6672 51.017L17.4292 52.914L19.3612 45.858L18.9062 45.137C16.9953 42.092 15.9802 38.578 15.9802 34.959C15.9872 24.417 24.5623 15.842 35.1112 15.842C40.2213 15.842 45.0162 17.837 48.6283 21.449C52.2402 25.061 54.2282 29.87 54.2212 34.973C54.2212 45.522 45.6392 54.097 35.1042 54.097ZM45.5902 39.775C45.0163 39.488 42.1883 38.095 41.6632 37.906C41.1383 37.717 40.7533 37.619 40.3682 38.193C39.9832 38.767 38.8843 40.062 38.5483 40.447C38.2122 40.832 37.8763 40.881 37.3023 40.594C36.7283 40.307 34.8732 39.698 32.6822 37.738C30.9742 36.212 29.8193 34.329 29.4832 33.755C29.1473 33.181 29.4482 32.866 29.7352 32.579C29.9942 32.32 30.3092 31.907 30.5963 31.571C30.8832 31.235 30.9812 30.997 31.1702 30.612C31.3592 30.227 31.2682 29.891 31.1213 29.604C30.9743 29.317 29.8262 26.489 29.3502 25.334C28.8812 24.214 28.4122 24.368 28.0552 24.347C27.7192 24.333 27.3343 24.326 26.9563 24.326C26.5712 24.326 25.9483 24.473 25.4233 25.047C24.8983 25.621 23.4142 27.014 23.4142 29.842C23.4142 32.67 25.4722 35.407 25.7592 35.785C26.0462 36.17 29.8122 41.973 35.5802 44.465C36.9522 45.06 38.0232 45.41 38.8562 45.676C40.2352 46.117 41.4882 46.054 42.4752 45.907C43.5812 45.739 45.8773 44.514 46.3533 43.177C46.8293 41.833 46.8293 40.685 46.6893 40.447C46.5493 40.209 46.1642 40.069 45.5902 39.775Z" fill="white"/>
</svg>
